<?xml version="1.0" encoding="UTF-8" standalone="no"?>
<svg
   xmlns:dc="http://purl.org/dc/elements/1.1/"
   xmlns:cc="http://creativecommons.org/ns#"
   xmlns:rdf="http://www.w3.org/1999/02/22-rdf-syntax-ns#"
   xmlns:svg="http://www.w3.org/2000/svg"
   xmlns="http://www.w3.org/2000/svg"
   xmlns:xlink="http://www.w3.org/1999/xlink"
   xmlns:sodipodi="http://sodipodi.sourceforge.net/DTD/sodipodi-0.dtd"
   xmlns:inkscape="http://www.inkscape.org/namespaces/inkscape"
   width="58.024025"
   height="54.000046"
   viewBox="0 0 15.352192 14.287513"
   version="1.1"
   id="svg92095"
   inkscape:version="1.0.2 (e86c870879, 2021-01-15, custom)"
   sodipodi:docname="keranjang.svg"
   inkscape:export-filename="/home/dikawfa/Projects/Godot/Tumpengan-GameBudaya/src/img/env/pohon.png"
   inkscape:export-xdpi="96"
   inkscape:export-ydpi="96">
  <defs
     id="defs92089">
    <linearGradient
       inkscape:collect="always"
       id="linearGradient34838">
      <stop
         style="stop-color:#7ea044;stop-opacity:1"
         offset="0"
         id="stop34834" />
      <stop
         style="stop-color:#4c602a;stop-opacity:1"
         offset="1"
         id="stop34836" />
    </linearGradient>
    <linearGradient
       inkscape:collect="always"
       id="linearGradient34822">
      <stop
         style="stop-color:#728c45;stop-opacity:1"
         offset="0"
         id="stop34820" />
      <stop
         style="stop-color:#b4df6a;stop-opacity:1"
         offset="1"
         id="stop34818" />
    </linearGradient>
    <linearGradient
       inkscape:collect="always"
       id="linearGradient34814">
      <stop
         style="stop-color:#b4df6a;stop-opacity:1"
         offset="0"
         id="stop34812" />
      <stop
         style="stop-color:#728c45;stop-opacity:1"
         offset="1"
         id="stop34810" />
    </linearGradient>
    <linearGradient
       inkscape:collect="always"
       id="linearGradient34800">
      <stop
         style="stop-color:#728c45;stop-opacity:1"
         offset="0"
         id="stop34796" />
      <stop
         style="stop-color:#b4df6a;stop-opacity:1"
         offset="1"
         id="stop34798" />
    </linearGradient>
    <radialGradient
       inkscape:collect="always"
       xlink:href="#linearGradient34822"
       id="radialGradient34786"
       cx="26.975538"
       cy="42.300316"
       fx="26.975538"
       fy="42.300316"
       r="17.467728"
       gradientTransform="matrix(0.43792529,0,0,0.21035076,47.017787,152.12161)"
       gradientUnits="userSpaceOnUse" />
    <linearGradient
       inkscape:collect="always"
       xlink:href="#linearGradient34800"
       id="linearGradient34794"
       x1="9.4648428"
       y1="57.222656"
       x2="44.521484"
       y2="57.222656"
       gradientUnits="userSpaceOnUse"
       gradientTransform="matrix(0.43792529,0,0,0.4379253,47.017787,142.49514)" />
    <linearGradient
       inkscape:collect="always"
       xlink:href="#linearGradient34814"
       id="linearGradient34808"
       x1="52.165585"
       y1="164.85117"
       x2="59.45927"
       y2="164.85117"
       gradientUnits="userSpaceOnUse"
       gradientTransform="matrix(1.6551506,0,0,1.6551506,-33.519261,-103.08479)" />
    <linearGradient
       inkscape:collect="always"
       xlink:href="#linearGradient34838"
       id="linearGradient34832"
       x1="51.174309"
       y1="161.1292"
       x2="60.417522"
       y2="161.1292"
       gradientUnits="userSpaceOnUse"
       gradientTransform="matrix(1.6551506,0,0,1.6551506,-33.519261,-103.08479)" />
  </defs>
  <sodipodi:namedview
     id="base"
     pagecolor="#ffffff"
     bordercolor="#666666"
     borderopacity="1.0"
     inkscape:pageopacity="0.0"
     inkscape:pageshadow="2"
     inkscape:zoom="1"
     inkscape:cx="17.510741"
     inkscape:cy="34.127698"
     inkscape:document-units="px"
     inkscape:current-layer="layer1"
     inkscape:document-rotation="0"
     showgrid="false"
     inkscape:window-width="1366"
     inkscape:window-height="720"
     inkscape:window-x="0"
     inkscape:window-y="0"
     inkscape:window-maximized="1"
     inkscape:object-nodes="true"
     units="px"
     objecttolerance="5.1"
     inkscape:object-paths="true"
     inkscape:snap-smooth-nodes="true" />
  <metadata
     id="metadata92092">
    <rdf:RDF>
      <cc:Work
         rdf:about="">
        <dc:format>image/svg+xml</dc:format>
        <dc:type
           rdf:resource="http://purl.org/dc/dcmitype/StillImage" />
        <dc:title></dc:title>
      </cc:Work>
    </rdf:RDF>
  </metadata>
  <g
     inkscape:label="Layer 1"
     inkscape:groupmode="layer"
     id="layer1"
     transform="translate(-51.162681,-157.34516)">
    <ellipse
       style="fill:url(#linearGradient34808);fill-opacity:1;stroke:#404040;stroke-width:0;stroke-linecap:round;paint-order:fill markers stroke"
       id="ellipse34732"
       cx="58.858715"
       cy="169.76872"
       rx="6.0360765"
       ry="1.8639522" />
    <path
       id="path34756"
       style="fill:url(#linearGradient34832);fill-opacity:1;stroke:#404040;stroke-width:0;stroke-linecap:round;paint-order:fill markers stroke"
       d="m 66.480835,163.724 c 1.5e-5,1.2887 -4.407713,2.28282 -7.635998,2.28282 -4.224686,0 -7.662923,-0.99412 -7.662911,-2.28282 1.7e-5,-1.28868 3.452292,-2.51423 7.676958,-2.51423 4.224664,0 7.621935,1.22555 7.621951,2.51423 z"
       sodipodi:nodetypes="sssss" />
    <path
       id="path34772"
       style="fill:url(#radialGradient34786);fill-opacity:1;stroke:#404040;stroke-width:0;stroke-linecap:round;paint-order:fill markers stroke"
       d="m 58.858875,157.34525 c -5.167515,-0.0229 -7.67736,4.45623 -7.677377,6.379 l 0.381474,0.96961 c 0,-3.61945 3.543713,-6.87867 7.294173,-6.99266 4.661146,0.0208 7.330459,3.89403 7.284617,6.93015 0.115118,-0.23019 0.338854,-0.9071 0.338854,-0.9071 2.6e-5,-1.92277 -2.454225,-6.35615 -7.621741,-6.379 z"
       sodipodi:nodetypes="zcccccz" />
    <path
       id="path34742"
       style="fill:url(#linearGradient34794);fill-opacity:1;stroke:#404040;stroke-width:0;stroke-linecap:round;paint-order:fill markers stroke"
       d="m 51.162681,163.72254 1.751701,6.11984 c 0,0 1.387897,1.54386 5.923967,1.54386 4.536068,0 5.92482,-1.54386 5.92482,-1.54386 l 1.751702,-6.11984 c 0,0 -0.08491,0.0132 -0.08724,0.0137 -0.0267,0.11536 -0.05052,0.23086 -0.14284,0.34042 -0.126827,0.15051 -0.311297,0.29558 -0.543129,0.43279 -0.463665,0.27442 -1.115292,0.5188 -1.868025,0.72361 -0.752733,0.2048 -1.606392,0.36992 -2.473594,0.48326 -0.867202,0.11333 -1.747778,0.17534 -2.554849,0.17534 -1.056172,0 -2.063514,-0.062 -2.979945,-0.17534 -0.916431,-0.11334 -1.742138,-0.27846 -2.43596,-0.48326 -0.693821,-0.20481 -1.255587,-0.44919 -1.64393,-0.72361 -0.194172,-0.13721 -0.345069,-0.28228 -0.447334,-0.43279 -0.07536,-0.11091 -0.0949,-0.22786 -0.115468,-0.3447 -0.0011,-1.9e-4 -0.05987,-0.009 -0.05987,-0.009 z" />
  </g>
</svg>
