<?xml version="1.0" encoding="UTF-8" standalone="no"?>
<svg
   xmlns:dc="http://purl.org/dc/elements/1.1/"
   xmlns:cc="http://creativecommons.org/ns#"
   xmlns:rdf="http://www.w3.org/1999/02/22-rdf-syntax-ns#"
   xmlns:svg="http://www.w3.org/2000/svg"
   xmlns="http://www.w3.org/2000/svg"
   xmlns:sodipodi="http://sodipodi.sourceforge.net/DTD/sodipodi-0.dtd"
   xmlns:inkscape="http://www.inkscape.org/namespaces/inkscape"
   width="53.763191mm"
   height="53.763191mm"
   viewBox="0 0 53.763191 53.763191"
   version="1.1"
   id="svg8451"
   inkscape:version="1.0.2 (e86c870879, 2021-01-15, custom)"
   sodipodi:docname="player-potrait.svg"
   inkscape:export-filename="/home/dikawfa/Projects/Godot/Tumpengan-GameBudaya/src/img/Player/player-potrait.png"
   inkscape:export-xdpi="96"
   inkscape:export-ydpi="96">
  <defs
     id="defs8445" />
  <sodipodi:namedview
     id="base"
     pagecolor="#ffffff"
     bordercolor="#666666"
     borderopacity="1.0"
     inkscape:pageopacity="0.0"
     inkscape:pageshadow="2"
     inkscape:zoom="1"
     inkscape:cx="100.56512"
     inkscape:cy="162.52506"
     inkscape:document-units="mm"
     inkscape:current-layer="layer1"
     inkscape:document-rotation="0"
     showgrid="false"
     inkscape:snap-page="true"
     inkscape:window-width="1366"
     inkscape:window-height="720"
     inkscape:window-x="0"
     inkscape:window-y="0"
     inkscape:window-maximized="1" />
  <metadata
     id="metadata8448">
    <rdf:RDF>
      <cc:Work
         rdf:about="">
        <dc:format>image/svg+xml</dc:format>
        <dc:type
           rdf:resource="http://purl.org/dc/dcmitype/StillImage" />
        <dc:title></dc:title>
      </cc:Work>
    </rdf:RDF>
  </metadata>
  <g
     inkscape:label="Layer 1"
     inkscape:groupmode="layer"
     id="layer1"
     transform="translate(-79.225479,-53.805763)">
    <g
       id="g9385"
       transform="matrix(0.51124194,0,0,0.50907675,69.701417,55.953249)"
       style="stroke-width:0.51863">
      <g
         id="g9227"
         style="stroke-width:0.51863">
        <path
           style="fill:#977251;fill-opacity:1;stroke:#000000;stroke-width:0;stroke-linecap:butt;stroke-linejoin:miter;stroke-miterlimit:4;stroke-dasharray:none;stroke-opacity:1"
           d="m 77.934424,151.78964 c 0.220012,1.04913 0.42224,2.16929 0.58429,3.33102 5.024373,0.31089 8.134625,-0.21099 8.134625,-0.21099 -0.198489,-1.47845 -0.582975,-3.38572 -0.979152,-5.16612 -1.345363,-0.11163 -4.721387,0.0771 -7.739763,2.04609 z"
           id="path3278"
           sodipodi:nodetypes="ccccc"
           inkscape:transform-center-x="-1.7385118"
           inkscape:transform-center-y="12.600934"
           inkscape:export-filename="/home/dikawfa/Projects/Godot/Tumpenganassets/Player/idle/idle01.png"
           inkscape:export-xdpi="96"
           inkscape:export-ydpi="96" />
        <path
           style="fill:#000000;stroke:#000000;stroke-width:0.0832938px;stroke-linecap:butt;stroke-linejoin:miter;stroke-opacity:1"
           d="m 84.860788,136.71326 -10.633552,0.0634 c 0,0 2.283928,7.02046 3.300491,15.58248 6.268587,0.45568 10.149026,-0.30927 10.149026,-0.30927 -0.637968,-5.58256 -2.815965,-15.33652 -2.815965,-15.33652 z"
           id="path3280"
           sodipodi:nodetypes="ccccc"
           inkscape:transform-center-x="-0.39662471"
           inkscape:transform-center-y="4.7406251"
           inkscape:export-filename="/home/dikawfa/Projects/Godot/Tumpenganassets/Player/idle/idle01.png"
           inkscape:export-xdpi="96"
           inkscape:export-ydpi="96" />
        <path
           id="path3282"
           style="fill:#000000;stroke:#b0e0e6;stroke-width:0;stroke-linecap:square;stroke-miterlimit:2.66667;paint-order:markers fill stroke"
           d="m 86.723727,153.45296 c 1.919473,0 3.465826,1.81564 3.465826,4.06942 0,0.0862 -0.01677,0.16676 -0.02098,0.25178 H 76.356284 c 0,-0.085 -0.02098,-0.16538 -0.02098,-0.25178 0,-2.25378 -0.725991,-4.06942 3.463561,-4.06942 z"
           sodipodi:nodetypes="ssccsss"
           inkscape:transform-center-x="-2.6830129"
           inkscape:transform-center-y="15.745553"
           inkscape:export-filename="/home/dikawfa/Projects/Godot/Tumpenganassets/Player/idle/idle01.png"
           inkscape:export-xdpi="96"
           inkscape:export-ydpi="96" />
        <g
           id="g9094"
           style="stroke-width:0.51863">
          <path
             style="fill:#977251;fill-opacity:1;stroke:#000000;stroke-width:0;stroke-linecap:butt;stroke-linejoin:miter;stroke-miterlimit:4;stroke-dasharray:none;stroke-opacity:1"
             d="m 67.8008,151.22792 c -0.270601,1.22062 -0.522027,2.55118 -0.715923,3.94129 -5.024379,0.31089 -8.134627,-0.211 -8.134627,-0.211 0.164837,-1.2278 0.457951,-2.75135 0.77951,-4.25237 3.37875,-0.9737 4.486827,-0.3997 8.07104,0.52208 z"
             id="path3284"
             sodipodi:nodetypes="ccccc"
             inkscape:export-filename="/home/dikawfa/Projects/Godot/Tumpenganassets/Player/idle/idle01.png"
             inkscape:export-xdpi="96"
             inkscape:export-ydpi="96" />
          <path
             id="path3286"
             style="fill:#000000;stroke:#b0e0e6;stroke-width:0;stroke-linecap:square;stroke-miterlimit:2.66667;paint-order:markers fill stroke"
             d="m 60.071401,153.45296 c -3.775739,0 -3.465813,1.81564 -3.465813,4.06942 0,0.0862 0.01675,0.16676 0.021,0.25178 H 70.43885 c 0,-0.085 0.02098,-0.16538 0.02098,-0.25178 0,-2.25378 -1.544101,-4.06942 -3.463591,-4.06942 z"
             sodipodi:nodetypes="ssccsss"
             inkscape:export-filename="/home/dikawfa/Projects/Godot/Tumpenganassets/Player/idle/idle01.png"
             inkscape:export-xdpi="96"
             inkscape:export-ydpi="96" />
          <path
             style="fill:#000000;stroke:#000000;stroke-width:0.0832938px;stroke-linecap:butt;stroke-linejoin:miter;stroke-opacity:1"
             d="m 61.265351,136.71326 10.633559,0.0634 c 0,0 -2.283935,7.02046 -3.300498,15.58248 -6.268587,0.45568 -10.149012,-0.30927 -10.149012,-0.30927 0.637962,-5.58256 2.815951,-15.33652 2.815951,-15.33652 z"
             id="path3288"
             sodipodi:nodetypes="ccccc"
             inkscape:export-filename="/home/dikawfa/Projects/Godot/Tumpenganassets/Player/idle/idle01.png"
             inkscape:export-xdpi="96"
             inkscape:export-ydpi="96" />
        </g>
        <g
           id="g8733"
           style="stroke-width:0.51863">
          <g
             id="g8716"
             transform="matrix(-1,0,0,1,146.02603,0)"
             style="stroke-width:0.51863">
            <path
               id="path8712"
               style="fill:#977251;fill-opacity:1;stroke:none;stroke-width:0;stroke-linecap:square;stroke-miterlimit:4;stroke-dasharray:none;paint-order:markers fill stroke"
               d="m 57.363468,134.67263 c 0.143216,1.48682 -0.168884,2.74137 -3.89418,3.0922 -3.34195,0.315 -4.354539,-0.86271 -4.497751,-2.34952 -0.06555,-0.68046 0.165567,-1.26431 0.793581,-1.80316 0.129669,-0.11121 0.153805,-3.77471 0.306084,-3.87466 0.721849,-0.47376 1.68461,-0.8105 2.762025,-0.91428 1.080599,-0.10409 2.092728,0.0439 2.892847,0.37319 0.161328,0.0664 0.431505,3.69758 0.574382,3.77814 0.726241,0.40942 0.997091,1.0138 1.063012,1.69809 z"
               sodipodi:nodetypes="sssssssss"
               inkscape:transform-center-x="12.969472"
               inkscape:transform-center-y="20.164046" />
            <path
               style="fill:#000e62;fill-opacity:1;stroke:#000000;stroke-width:0;stroke-linecap:butt;stroke-linejoin:miter;stroke-miterlimit:4;stroke-dasharray:none;stroke-opacity:1"
               d="m 59.502415,88.711478 c -3.659443,1.464042 -6.934029,7.206025 -8.797457,14.859822 -2.048252,8.41294 -2.467475,19.08619 -1.593022,27.76922 0,0 4.134002,2.2413 7.925666,-0.78751 0.976974,-11.2934 0.43584,-20.06532 2.445456,-23.92505 2.009617,-3.85974 5.518785,-11.856493 5.494311,-14.017235 -0.02613,-2.30499 -1.714062,-5.288444 -5.474954,-3.899247 z"
               id="path8714"
               sodipodi:nodetypes="cscczsc"
               inkscape:transform-center-x="0.47263625"
               inkscape:transform-center-y="-0.22704227" />
          </g>
          <path
             id="path3276"
             style="fill:#806248;fill-opacity:1;stroke:none;stroke-width:0;stroke-linecap:square;stroke-miterlimit:4;stroke-dasharray:none;paint-order:markers fill stroke"
             d="M 82.040788,77.824089 H 66.519076 v 31.815481 h 15.521712 z"
             inkscape:export-filename="/home/dikawfa/Projects/Godot/Tumpenganassets/Player/idle/idle01.png"
             inkscape:export-xdpi="96"
             inkscape:export-ydpi="96" />
          <path
             style="fill:#977251;fill-opacity:1;stroke:none;stroke-width:0;stroke-linecap:butt;stroke-linejoin:miter;stroke-miterlimit:4;stroke-dasharray:none;stroke-opacity:1"
             d="m 102.75835,40.549791 c 2.10177,4.88175 -0.73366,15.897401 0.0659,23.686648 0.52473,5.111555 3.50715,8.427152 0.90978,12.216254 C 97.178874,86.01584 69.45219,87.738679 59.352065,78.046465 49.2518,68.354204 49.996238,47.066491 49.996238,47.066491 l 12.642577,-20.902099 26.531046,0.776275 c 0,0 10.107561,5.523824 13.588519,13.609124 z"
             id="path3290"
             sodipodi:nodetypes="ssszcccs"
             inkscape:export-filename="/home/dikawfa/Projects/Godot/Tumpenganassets/Player/idle/idle01.png"
             inkscape:export-xdpi="96"
             inkscape:export-ydpi="96" />
          <path
             style="fill:#837dfb;fill-opacity:1;stroke:#000000;stroke-width:0;stroke-linecap:butt;stroke-linejoin:miter;stroke-miterlimit:4;stroke-dasharray:none;stroke-opacity:1"
             d="m 82.991627,86.895093 c 10.923164,10.050898 11.23885,35.008627 6.926726,52.725847 -1.576403,5.58242 -29.163443,5.82233 -35.852127,-1.3879 -2.801337,-8.83049 -3.74085,-39.853336 7.283475,-49.935558 1.87181,-0.756741 2.780415,-1.31878 4.777238,-1.478039 1.515888,-0.120877 6.531402,6.285351 10.574122,8.819111 0.197689,0.08888 0.253689,1.219325 0.785203,2.554465 0.853137,-0.068 0.378489,-2.02589 1.772865,-3.404077 2.77347,-2.74125 2.508373,-5.6744 2.453357,-7.791852 -0.01126,-0.427585 0.852753,-0.06788 1.279141,-0.101997 z"
             id="path3298"
             sodipodi:nodetypes="ccccsccssc"
             inkscape:export-filename="/home/dikawfa/Projects/Godot/Tumpenganassets/Player/idle/idle01.png"
             inkscape:export-xdpi="96"
             inkscape:export-ydpi="96" />
          <path
             style="fill:#000000;fill-opacity:1;stroke:#000000;stroke-width:0.624736px;stroke-linecap:butt;stroke-linejoin:miter;stroke-opacity:1"
             d="m 46.478137,60.619905 11.661313,8.178347 0.160025,-11.326961 -1.564138,-7.858012 5.102103,-10.360163 12.114471,0.855563 -3.466933,-5.263325 19.848823,5.884875 -2.359863,-4.606225 13.650012,7.7611 -0.72875,-3.335313 7.505,5.333375 -1.33379,-15.433912 4.05389,0.5312 -9.61979,-15.921812 4.89053,-1.569613 -17.04829,-1.734462 1.340776,-4.0749012 -20.297061,3.9707252 0.299011,-9.1134999 -9.069411,7.4716379 -13.89004,-5.2728129 1.802613,9.0106379 -12.805388,5.070713 7.363913,1.143437 -10.009325,10.907275 10.671237,-2.565262 -14.360125,11.097662 8.124037,5.404425 -0.01825,7.434387 z"
             id="path3300"
             sodipodi:nodetypes="ccccccccccccccccccccccccccccccc"
             inkscape:export-filename="/home/dikawfa/Projects/Godot/Tumpenganassets/Player/idle/idle01.png"
             inkscape:export-xdpi="96"
             inkscape:export-ydpi="96" />
          <path
             style="fill:#977251;fill-opacity:1;stroke:#000000;stroke-width:0;stroke-linecap:butt;stroke-linejoin:miter;stroke-miterlimit:4;stroke-dasharray:none;stroke-opacity:1"
             d="m 55.320137,71.311117 c -1.631812,0.0075 -2.936312,0.456901 -4.568125,0.4632 C 43.311051,66.820202 42.2149,56.102929 50.630137,54.820804 l 3.730788,2.529988 1.274925,9.157712 2.046162,2.175887 c -0.886262,1.668385 -1.47545,0.958341 -2.361687,2.626726 z"
             id="path3302"
             sodipodi:nodetypes="cccccccc"
             inkscape:export-filename="/home/dikawfa/Projects/Godot/Tumpenganassets/Player/idle/idle01.png"
             inkscape:export-xdpi="96"
             inkscape:export-ydpi="96" />
          <path
             style="fill:#000e62;fill-opacity:1;stroke:#000000;stroke-width:0;stroke-linecap:butt;stroke-linejoin:miter;stroke-miterlimit:4;stroke-dasharray:none;stroke-opacity:1"
             d="m 78.099935,94.912089 c 0,0 -0.756012,2.136901 -0.697523,4.297315 l -0.607822,43.524106 1.965386,-0.0673 1.111123,-48.095516 z"
             id="path3304"
             sodipodi:nodetypes="cccccc"
             inkscape:export-filename="/home/dikawfa/Projects/Godot/Tumpenganassets/Player/idle/idle01.png"
             inkscape:export-xdpi="96"
             inkscape:export-ydpi="96" />
          <path
             id="path3306"
             style="fill:#000e62;fill-opacity:1;stroke:none;stroke-width:0;stroke-linecap:square;stroke-miterlimit:4;stroke-dasharray:none;paint-order:markers fill stroke"
             d="m 82.991627,86.895093 c 0,0 -0.131716,-2.096912 -0.970175,-2.414163 0,0 -0.03473,5.517138 -3.921511,10.431159 0.709635,-0.137286 1.59837,0.618827 3.288195,2.603887 0,-4.106269 1.603491,-10.620883 1.603491,-10.620883 z"
             sodipodi:nodetypes="ccccc"
             inkscape:export-filename="/home/dikawfa/Projects/Godot/Tumpenganassets/Player/idle/idle01.png"
             inkscape:export-xdpi="96"
             inkscape:export-ydpi="96" />
          <path
             style="fill:#837dfb;fill-opacity:1;stroke:#000000;stroke-width:0;stroke-linecap:butt;stroke-linejoin:miter;stroke-miterlimit:4;stroke-dasharray:none;stroke-opacity:1"
             d="m 72.869227,96.048065 1.514797,3.713938 -0.607823,43.504067 -2.672325,-0.2337 -0.403123,-49.047214 z"
             id="path3308"
             sodipodi:nodetypes="cccccc"
             inkscape:export-filename="/home/dikawfa/Projects/Godot/Tumpenganassets/Player/idle/idle01.png"
             inkscape:export-xdpi="96"
             inkscape:export-ydpi="96" />
          <path
             id="path3310"
             style="fill:#000e62;fill-opacity:1;stroke:none;stroke-width:0;stroke-linecap:square;stroke-miterlimit:4;stroke-dasharray:none;paint-order:markers fill stroke"
             d="m 65.568853,87.031289 c 0,0 0.314146,-2.233108 1.003461,-2.550359 -0.476812,1.250335 5.056101,7.833464 10.326436,11.246513 0,0 -3.376789,-0.08188 -3.051111,2.017422 -7.425002,-4.898749 -8.278792,-10.713576 -8.278786,-10.713576 z"
             sodipodi:nodetypes="ccccc"
             inkscape:export-filename="/home/dikawfa/Projects/Godot/Tumpenganassets/Player/idle/idle01.png"
             inkscape:export-xdpi="96"
             inkscape:export-ydpi="96" />
          <g
             id="g8710"
             style="stroke-width:0.51863">
            <path
               id="path8681"
               style="fill:#977251;fill-opacity:1;stroke:none;stroke-width:0;stroke-linecap:square;stroke-miterlimit:4;stroke-dasharray:none;paint-order:markers fill stroke"
               d="m 57.363468,134.67263 c 0.143216,1.48682 -0.168884,2.74137 -3.89418,3.0922 -3.34195,0.315 -4.354539,-0.86271 -4.497751,-2.34952 -0.06555,-0.68046 0.165567,-1.26431 0.793581,-1.80316 0.129669,-0.11121 0.153805,-3.77471 0.306084,-3.87466 0.721849,-0.47376 1.68461,-0.8105 2.762025,-0.91428 1.080599,-0.10409 2.092728,0.0439 2.892847,0.37319 0.161328,0.0664 0.431505,3.69758 0.574382,3.77814 0.726241,0.40942 0.997091,1.0138 1.063012,1.69809 z"
               sodipodi:nodetypes="sssssssss"
               inkscape:transform-center-x="12.969472"
               inkscape:transform-center-y="20.164046" />
            <path
               style="fill:#000e62;fill-opacity:1;stroke:#000000;stroke-width:0;stroke-linecap:butt;stroke-linejoin:miter;stroke-miterlimit:4;stroke-dasharray:none;stroke-opacity:1"
               d="m 59.502415,88.711478 c -3.659443,1.464042 -6.934029,7.206025 -8.797457,14.859822 -2.048252,8.41294 -2.467475,19.08619 -1.593022,27.76922 0,0 4.134002,2.2413 7.925666,-0.78751 0.976974,-11.2934 0.43584,-20.06532 2.445456,-23.92505 2.009617,-3.85974 5.518785,-11.856493 5.494311,-14.017235 -0.02613,-2.30499 -1.714062,-5.288444 -5.474954,-3.899247 z"
               id="path8683"
               sodipodi:nodetypes="cscczsc"
               inkscape:transform-center-x="0.47263625"
               inkscape:transform-center-y="-0.22704227" />
          </g>
        </g>
      </g>
    </g>
  </g>
</svg>
