<?xml version="1.0" encoding="UTF-8" standalone="no"?>
<svg
   xmlns:dc="http://purl.org/dc/elements/1.1/"
   xmlns:cc="http://creativecommons.org/ns#"
   xmlns:rdf="http://www.w3.org/1999/02/22-rdf-syntax-ns#"
   xmlns:svg="http://www.w3.org/2000/svg"
   xmlns="http://www.w3.org/2000/svg"
   xmlns:sodipodi="http://sodipodi.sourceforge.net/DTD/sodipodi-0.dtd"
   xmlns:inkscape="http://www.inkscape.org/namespaces/inkscape"
   width="53.763191mm"
   height="53.763191mm"
   viewBox="0 0 53.763191 53.763191"
   version="1.1"
   id="svg8451"
   inkscape:version="1.0.2 (e86c870879, 2021-01-15, custom)"
   sodipodi:docname="bapak-potrait.svg"
   inkscape:export-filename="/home/dikawfa/Projects/Godot/Tumpengan-GameBudaya/src/img/Player/player-potrait.png"
   inkscape:export-xdpi="96"
   inkscape:export-ydpi="96">
  <defs
     id="defs8445" />
  <sodipodi:namedview
     id="base"
     pagecolor="#ffffff"
     bordercolor="#666666"
     borderopacity="1.0"
     inkscape:pageopacity="0.0"
     inkscape:pageshadow="2"
     inkscape:zoom="1"
     inkscape:cx="100.56512"
     inkscape:cy="162.52506"
     inkscape:document-units="mm"
     inkscape:current-layer="layer1"
     inkscape:document-rotation="0"
     showgrid="false"
     inkscape:snap-page="true"
     inkscape:window-width="1366"
     inkscape:window-height="720"
     inkscape:window-x="0"
     inkscape:window-y="0"
     inkscape:window-maximized="1" />
  <metadata
     id="metadata8448">
    <rdf:RDF>
      <cc:Work
         rdf:about="">
        <dc:format>image/svg+xml</dc:format>
        <dc:type
           rdf:resource="http://purl.org/dc/dcmitype/StillImage" />
        <dc:title></dc:title>
      </cc:Work>
    </rdf:RDF>
  </metadata>
  <g
     inkscape:label="Layer 1"
     inkscape:groupmode="layer"
     id="layer1"
     transform="translate(-79.225479,-53.805763)">
    <path
       id="path2301"
       style="fill:#806248;fill-opacity:1;stroke:none;stroke-width:0;stroke-linecap:square;stroke-miterlimit:4;stroke-dasharray:none;paint-order:markers fill stroke"
       d="m 104.95837,92.302749 h 8.57078 v 17.585271 h -8.57078 z" />
    <path
       style="fill:#977251;fill-opacity:1;stroke:#000000;stroke-width:0;stroke-linecap:butt;stroke-linejoin:miter;stroke-miterlimit:4;stroke-dasharray:none;stroke-opacity:1"
       d="m 104.12149,132.74141 c -0.15351,0.65774 -0.29457,1.35998 -0.40763,2.08831 -3.50544,0.19491 -5.67539,-0.13243 -5.67539,-0.13243 0.138566,-0.9269 0.406729,-2.12262 0.683133,-3.23879 0.938629,-0.07 3.294027,0.0483 5.399887,1.28276 z"
       id="path2305"
       sodipodi:nodetypes="ccccc" />
    <path
       id="path2400"
       style="fill:#977251;fill-opacity:1;stroke:none;stroke-width:0;stroke-linecap:square;stroke-miterlimit:4;stroke-dasharray:none;paint-order:markers fill stroke"
       d="m 93.393049,124.15699 c 0,1.32223 -0.317963,2.40116 -3.078595,2.39411 -2.476542,-0.006 -3.136888,-1.12974 -3.136888,-2.45197 0,-0.60513 0.21105,-1.09994 0.710368,-1.52145 0.10311,-0.087 0.379974,-3.31293 0.498877,-3.38808 0.563637,-0.35619 1.294493,-0.57119 2.09306,-0.57119 0.800963,0 1.533774,0.21624 2.098063,0.57435 0.113843,0.0723 0.05539,3.29465 0.154473,3.37779 0.504386,0.42239 0.660546,0.9779 0.660546,1.58644 z"
       sodipodi:nodetypes="sssssssss" />
    <path
       style="fill:#141714;fill-opacity:1;stroke:#000000;stroke-width:0;stroke-linecap:butt;stroke-linejoin:miter;stroke-miterlimit:4;stroke-dasharray:none;stroke-opacity:1"
       d="m 97.899175,95.32614 c -5.919108,1.790246 -9.962944,9.6064 -10.37182,24.35147 0,0 2.802489,2.45388 5.872727,0.24395 1.824476,-9.79263 0.294938,-7.4977 3.602686,-12.77301 0.997792,-3.82597 1.600297,-7.716823 0.896407,-11.822315 z"
       id="path2402"
       sodipodi:nodetypes="ccccc" />
    <path
       style="fill:#604635;fill-opacity:1;stroke:#b7a088;stroke-width:0.132557;stroke-linecap:butt;stroke-linejoin:miter;stroke-miterlimit:4;stroke-dasharray:none;stroke-opacity:1"
       d="m 91.338599,101.642 c 1.32533,2.26822 4.391486,2.18483 6.351347,1.57389 l 0.22184,-1.53519 c -2.357371,0.74209 -3.768237,0.52592 -5.897624,-1.26918 z"
       id="path2404"
       sodipodi:nodetypes="ccccc" />
    <path
       style="fill:#604635;fill-opacity:1;stroke:#b7a088;stroke-width:0.132557;stroke-linecap:butt;stroke-linejoin:miter;stroke-miterlimit:4;stroke-dasharray:none;stroke-opacity:1"
       d="m 87.819973,117.95774 c 1.223159,2.26821 3.757888,1.48467 5.566674,0.87375 l 0.242693,-1.35348 c -2.175633,0.74208 -3.763894,1.0719 -5.729102,-0.72317 z"
       id="path2406"
       sodipodi:nodetypes="ccccc" />
    <path
       style="fill:#604635;fill-opacity:1;stroke:#b7a088;stroke-width:0.132557;stroke-linecap:butt;stroke-linejoin:miter;stroke-miterlimit:4;stroke-dasharray:none;stroke-opacity:1"
       d="m 88.034684,114.76322 c 1.297559,2.26819 3.976335,1.48043 5.895132,0.8695 l 0.214001,-1.4037 c -2.307951,0.74211 -3.939238,1.12635 -6.023981,-0.66874 z"
       id="path2408"
       sodipodi:nodetypes="ccccc" />
    <path
       style="fill:#604635;fill-opacity:1;stroke:#b7a088;stroke-width:0.132557;stroke-linecap:butt;stroke-linejoin:miter;stroke-miterlimit:4;stroke-dasharray:none;stroke-opacity:1"
       d="m 88.427058,111.71794 c 1.292366,2.26821 3.970548,1.48469 5.881678,0.87375 l 0.256453,-1.35348 c -2.298752,0.74211 -3.852285,1.04097 -5.92871,-0.75412 z"
       id="path2410"
       sodipodi:nodetypes="ccccc" />
    <path
       style="fill:#604635;fill-opacity:1;stroke:#b7a088;stroke-width:0.132557;stroke-linecap:butt;stroke-linejoin:miter;stroke-miterlimit:4;stroke-dasharray:none;stroke-opacity:1"
       d="m 88.961468,108.52342 c 1.515854,2.26822 4.113426,1.7096 6.355027,1.09868 l 0.844526,-1.57843 c -2.696236,0.74209 -4.436219,1.00318 -6.871708,-0.79192 z"
       id="path2412"
       sodipodi:nodetypes="ccccc" />
    <path
       style="fill:#604635;fill-opacity:1;stroke:#b7a088;stroke-width:0.132557;stroke-linecap:butt;stroke-linejoin:miter;stroke-miterlimit:4;stroke-dasharray:none;stroke-opacity:1"
       d="m 89.913417,104.95422 c 1.515835,2.26821 4.804463,2.17355 7.046056,1.56262 l 0.653082,-1.88259 c -2.696254,0.74209 -4.751643,0.87331 -7.187133,-0.92178 z"
       id="path2414"
       sodipodi:nodetypes="ccccc" />
    <path
       style="fill:#000000;stroke:#000000;stroke-width:0.043344px;stroke-linecap:butt;stroke-linejoin:miter;stroke-opacity:1"
       d="m 99.289093,123.2896 7.418857,0.0397 c 0,0 -1.59346,4.40135 -2.30269,9.76912 -4.37349,0.28568 -7.080819,-0.19392 -7.080819,-0.19392 0.445099,-3.4999 1.964652,-9.61495 1.964652,-9.61495 z"
       id="path2307"
       sodipodi:nodetypes="ccccc" />
    <path
       id="path2309"
       style="fill:#000000;stroke:#b0e0e6;stroke-width:0;stroke-linecap:square;stroke-miterlimit:2.66667;paint-order:markers fill stroke"
       d="m 97.989348,133.78419 c -1.339167,0 -2.418049,1.13827 -2.418049,2.55125 0,0.0542 0.0115,0.10445 0.01533,0.15792 h 9.636611 c 0,-0.0533 0.0153,-0.10369 0.0153,-0.15792 0,-1.41298 0.50652,-2.55125 -2.41646,-2.55125 z"
       sodipodi:nodetypes="ssccsss" />
    <path
       style="fill:#977251;fill-opacity:1;stroke:#000000;stroke-width:0;stroke-linecap:butt;stroke-linejoin:miter;stroke-miterlimit:4;stroke-dasharray:none;stroke-opacity:1"
       d="m 111.19156,132.38925 c 0.18877,0.76524 0.36422,1.59941 0.49949,2.4709 3.50542,0.19492 5.67539,-0.13243 5.67539,-0.13243 -0.115,-0.76972 -0.31951,-1.72489 -0.54384,-2.66591 -2.35732,-0.61044 -3.13039,-0.25057 -5.63104,0.3273 z"
       id="path2311"
       sodipodi:nodetypes="ccccc" />
    <path
       id="path2313"
       style="fill:#000000;stroke:#b0e0e6;stroke-width:0;stroke-linecap:square;stroke-miterlimit:2.66667;paint-order:markers fill stroke"
       d="m 116.58424,133.78419 c 2.63425,0 2.41803,1.13827 2.41803,2.55125 0,0.0542 -0.0115,0.10445 -0.0153,0.15792 h -9.63659 c 0,-0.0533 -0.0153,-0.10369 -0.0153,-0.15792 0,-1.41298 1.07729,-2.55125 2.41647,-2.55125 z"
       sodipodi:nodetypes="ssccsss" />
    <path
       style="fill:#000000;stroke:#000000;stroke-width:0.043344px;stroke-linecap:butt;stroke-linejoin:miter;stroke-opacity:1"
       d="m 117.14226,123.2896 -7.42439,0.0397 c 0,0 0.97832,4.40135 0.93732,9.76912 4.33356,0.28568 7.1079,-0.19392 7.1079,-0.19392 0.0441,-3.4999 -0.62083,-9.61495 -0.62083,-9.61495 z"
       id="path2315"
       sodipodi:nodetypes="ccccc" />
    <path
       style="fill:#141714;fill-opacity:1;stroke:#000000;stroke-width:0;stroke-linecap:butt;stroke-linejoin:miter;stroke-miterlimit:4;stroke-dasharray:none;stroke-opacity:1"
       d="m 99.619429,93.770134 c -7.393316,6.193684 -7.606991,21.573436 -4.688333,32.491336 1.06698,3.44007 19.739204,3.58791 24.266414,-0.85526 1.89609,-5.44162 2.53198,-24.55888 -4.9298,-30.771848 -1.26694,-0.466353 -1.88192,-0.812692 -3.23347,-0.910839 -1.02602,-0.07455 -4.42076,3.873245 -7.15705,5.434617 -0.13378,0.055 -0.17172,0.751401 -0.53146,1.57416 -0.57745,-0.042 -0.25618,-1.248443 -1.19997,-2.097722 -1.87722,-1.689225 -1.69779,-3.496739 -1.66055,-4.801581 0.008,-0.263487 -0.577169,-0.04197 -0.865781,-0.06286 z"
       id="path2321"
       sodipodi:nodetypes="ccccsccssc" />
    <path
       style="fill:#604635;fill-opacity:1;stroke:#b7a088;stroke-width:0.132557;stroke-linecap:butt;stroke-linejoin:miter;stroke-miterlimit:4;stroke-dasharray:none;stroke-opacity:1"
       d="m 113.79539,98.327202 c 0,0 0.51153,1.315997 0.47195,2.646478 0.76177,8.394 0.48608,17.45788 0.49189,26.36999 l -1.41043,0.39282 c 0.0226,-10.08806 0.0245,-20.16402 -0.7518,-29.619476 z"
       id="path2380"
       sodipodi:nodetypes="cccccc" />
    <path
       style="fill:#604635;fill-opacity:1;stroke:#b7a088;stroke-width:0.132557;stroke-linecap:butt;stroke-linejoin:miter;stroke-miterlimit:4;stroke-dasharray:none;stroke-opacity:1"
       d="m 117.40385,96.969367 c 0,0 0.51152,1.315997 0.47195,2.646502 l 0.48682,26.457281 -1.411,0.73989 c -0.0558,-11.91172 -0.38156,-21.1727 -0.74617,-30.05386 z"
       id="path2382"
       sodipodi:nodetypes="cccccc" />
    <path
       style="fill:#604635;fill-opacity:1;stroke:#b7a088;stroke-width:0.132557;stroke-linecap:butt;stroke-linejoin:miter;stroke-miterlimit:4;stroke-dasharray:none;stroke-opacity:1"
       d="m 96.959952,98.157511 c 0,0 -0.556929,1.170339 -0.596486,2.500829 -1.85355,11.32288 -0.349272,17.68993 0.411271,26.80419 l -1.258557,-0.67082 c -1.482123,-9.78262 -1.811501,-18.86683 0.245375,-28.844387 z"
       id="path2386"
       sodipodi:nodetypes="cccccc" />
    <path
       style="fill:#604635;fill-opacity:1;stroke:#b7a088;stroke-width:0.132557;stroke-linecap:butt;stroke-linejoin:miter;stroke-miterlimit:4;stroke-dasharray:none;stroke-opacity:1"
       d="m 99.400195,98.875353 c 0,0 0.511545,1.316017 0.471969,2.646507 -1.121851,8.25282 -0.01533,17.71297 0.411276,26.80417 l -1.512371,-0.16865 C 97.815863,118.06506 97.152086,108.1339 98.201798,98.665185 Z"
       id="path2384"
       sodipodi:nodetypes="cccccc" />
    <path
       style="fill:#604635;fill-opacity:1;stroke:#b7a088;stroke-width:0.132557;stroke-linecap:butt;stroke-linejoin:miter;stroke-miterlimit:4;stroke-dasharray:none;stroke-opacity:1"
       d="m 102.9303,99.187904 c 0,0 0.51153,1.315996 0.47197,2.646466 1.39178,8.43106 0.21778,17.68796 0.41125,26.80422 l -1.32981,-0.0414 c -0.20214,-10.33459 -0.0153,-20.67564 -0.75181,-29.619455 z"
       id="path2327"
       sodipodi:nodetypes="cccccc" />
    <path
       id="path2335"
       style="fill:#977251;fill-opacity:1;stroke:none;stroke-width:0;stroke-linecap:square;stroke-miterlimit:4;stroke-dasharray:none;paint-order:markers fill stroke"
       d="m 118.71279,123.77211 c 0,1.32224 0.31794,2.40118 3.07857,2.39411 2.47656,-0.006 3.13689,-1.12973 3.13689,-2.45197 0,-0.60513 -0.21103,-1.09995 -0.71037,-1.52145 -0.10311,-0.087 -0.37997,-3.31294 -0.49888,-3.38808 -0.56361,-0.35619 -1.29447,-0.57119 -2.09306,-0.57119 -0.80094,0 -1.53377,0.21624 -2.09806,0.57437 -0.11384,0.0722 -0.0554,3.29465 -0.15447,3.37777 -0.50438,0.42239 -0.66054,0.9779 -0.66054,1.58644 z"
       sodipodi:nodetypes="sssssssss" />
    <path
       style="fill:#604635;fill-opacity:1;stroke:#b7a088;stroke-width:0.132557;stroke-linecap:butt;stroke-linejoin:miter;stroke-miterlimit:4;stroke-dasharray:none;stroke-opacity:1"
       d="m 110.13412,99.187904 c 0,0 0.51153,1.315996 0.47195,2.646466 1.01661,4.73914 0.88958,16.8548 0.41127,26.326 l -1.32382,0.18954 c 0.0351,-10.23086 -0.31759,-20.80046 -0.75782,-29.372175 z"
       id="path2378"
       sodipodi:nodetypes="cccccc" />
    <path
       style="fill:#141714;fill-opacity:1;stroke:#000000;stroke-width:0;stroke-linecap:butt;stroke-linejoin:miter;stroke-miterlimit:4;stroke-dasharray:none;stroke-opacity:1"
       d="m 114.20665,94.941259 c 5.9191,1.790265 9.96295,9.606421 10.37183,24.351511 0,0 -2.80251,2.45386 -5.87274,0.24393 -1.82448,-9.79263 -0.29492,-7.4977 -3.60267,-12.77299 -0.99781,-3.82595 -1.60031,-7.716806 -0.89642,-11.822317 z"
       id="path2337"
       sodipodi:nodetypes="ccccc" />
    <path
       style="fill:#604635;fill-opacity:1;stroke:#b7a088;stroke-width:0.132557;stroke-linecap:butt;stroke-linejoin:miter;stroke-miterlimit:4;stroke-dasharray:none;stroke-opacity:1"
       d="m 106.59159,99.187904 c 0,0 0.51153,1.315996 0.47195,2.646466 0.87096,8.16345 0.34456,17.69494 0.41128,26.80422 l -1.32984,-0.0414 c -0.12477,-10.25014 0.0339,-20.66568 -0.7518,-29.619455 z"
       id="path2376"
       sodipodi:nodetypes="cccccc" />
    <path
       style="fill:#604635;fill-opacity:1;stroke:#b7a088;stroke-width:0.132557;stroke-linecap:butt;stroke-linejoin:miter;stroke-miterlimit:4;stroke-dasharray:none;stroke-opacity:1"
       d="m 120.76721,101.25714 c -1.32533,2.26823 -4.39147,2.18483 -6.35133,1.57389 l -0.22184,-1.53521 c 2.35737,0.7421 3.76823,0.52592 5.89761,-1.26918 z"
       id="path2398"
       sodipodi:nodetypes="ccccc" />
    <path
       style="fill:#977251;fill-opacity:1;stroke:none;stroke-width:0;stroke-linecap:butt;stroke-linejoin:miter;stroke-miterlimit:4;stroke-dasharray:none;stroke-opacity:1"
       d="m 90.553237,69.969694 c -1.40617,3.269322 -1.075106,8.416456 -0.150066,13.577945 -1.218329,4.527516 -2.088211,9.30376 -0.901869,12.022496 4.755611,10.898465 33.324298,7.012775 33.227938,-0.86877 -0.15313,-12.520798 -2.90937,-6.138258 -2.38125,-8.302364 1.66151,-6.808378 5.50518,-12.065063 5.50518,-12.065063 L 117.3948,60.335771 99.644516,60.855653 c 0,0 -6.76235,3.699318 -9.091241,9.114041 z"
       id="path2317"
       sodipodi:nodetypes="scssscccss" />
    <path
       style="fill:#000000;fill-opacity:1;stroke:#000000;stroke-width:0.299506px;stroke-linecap:butt;stroke-linejoin:miter;stroke-opacity:1"
       d="m 124.95755,82.011221 -3.18135,3.952302 c 0.16904,3.315491 0.92251,7.223636 0.50696,9.946473 -0.20091,1.316438 -1.36695,2.50324 -2.58135,3.047079 -7.58801,3.398225 -16.11592,5.122675 -24.726691,1.870035 -2.170343,-0.81982 -4.162324,-2.226129 -4.932201,-4.416531 -0.330317,-0.939874 -0.660653,-1.879768 -0.990989,-2.819604 l 3.243927,3.621564 c 4.33307,4.837531 11.192024,4.740861 17.123924,2.000702 2.10399,-0.9719 3.00785,-5.888436 4.11609,-6.882759 l 5.52386,-4.547237 -0.0999,-6.745093 0.97514,-4.679382 -3.18081,-6.169382 C 105.37277,70.039514 98.594594,66.478091 87.725411,74.137531 86.212662,57.239801 104.63988,50.746695 116.79822,59.61674 c 6.04042,-5.592405 11.60348,13.997095 8.15926,22.394481 z"
       id="path2323"
       sodipodi:nodetypes="ccsssscsscccccccc" />
    <rect
       style="fill:none;fill-opacity:1;stroke:#000000;stroke-width:0.281801;stroke-linecap:square;stroke-miterlimit:4;stroke-dasharray:none;stroke-opacity:1;paint-order:markers fill stroke"
       id="rect2339"
       width="9.5650587"
       height="4.5580664"
       x="101.54946"
       y="79.521439"
       ry="1.0559322" />
    <rect
       style="fill:none;fill-opacity:1;stroke:#000000;stroke-width:0.253603;stroke-linecap:square;stroke-miterlimit:4;stroke-dasharray:none;stroke-opacity:1;paint-order:markers fill stroke"
       id="rect2341"
       width="7.630837"
       height="4.6272025"
       x="91.106117"
       y="79.486847"
       ry="1.0719484" />
    <rect
       style="fill:none;fill-opacity:1;stroke:#000000;stroke-width:0.275318;stroke-linecap:square;stroke-miterlimit:4;stroke-dasharray:none;stroke-opacity:1;paint-order:markers fill stroke"
       id="rect2343"
       width="2.7601476"
       height="1.782974"
       x="98.769821"
       y="80.908928"
       ry="0.41304794" />
    <path
       id="rect2345"
       style="fill:none;fill-opacity:1;stroke:#000000;stroke-width:0.223747;stroke-linecap:square;stroke-miterlimit:4;stroke-dasharray:none;stroke-opacity:1;paint-order:markers fill stroke"
       d="m 90.204962,80.80303 1.149008,-5.37e-4 c 0.177472,-7.6e-5 0.320542,0.206182 0.320542,0.462406 v 1.071138 c 0,0.256147 -0.142974,0.462865 -0.320542,0.462367 l -0.840981,-0.0019"
       sodipodi:nodetypes="cssssc" />
    <rect
       style="fill:#000000;fill-opacity:1;stroke:none;stroke-width:0;stroke-linecap:square;stroke-miterlimit:4;stroke-dasharray:none;stroke-opacity:1;paint-order:markers fill stroke"
       id="rect2348"
       width="8.8268061"
       height="1.3587811"
       x="111.44328"
       y="81.121071"
       ry="0.31477842" />
    <path
       style="fill:#977251;fill-opacity:1;stroke:#000000;stroke-width:0;stroke-linecap:butt;stroke-linejoin:miter;stroke-miterlimit:4;stroke-dasharray:none;stroke-opacity:1"
       d="m 122.05285,88.702843 c 0.90105,0.0057 1.62136,0.252543 2.52241,0.25605 4.10877,-2.738285 4.71403,-8.662004 0.0673,-9.370685 l -2.06006,1.398408 -0.70398,5.061695 -1.12985,1.202671 c 0.48937,0.922166 0.81471,0.529714 1.30408,1.451861 z"
       id="path2325"
       sodipodi:nodetypes="cccccccc" />
    <path
       style="fill:#000000;fill-opacity:1;stroke:#000000;stroke-width:0;stroke-linecap:butt;stroke-linejoin:miter;stroke-miterlimit:4;stroke-dasharray:none;stroke-opacity:1"
       d="m 97.040294,101.23253 1.573197,6.46534 0.18073,-0.82843 0.532072,1.70998 0.971367,-2.74963 0.45784,1.49088 2.4577,-5.92224 z"
       id="path2350"
       sodipodi:nodetypes="cccccccc" />
    <path
       style="fill:#000000;fill-opacity:1;stroke:#000000;stroke-width:0;stroke-linecap:butt;stroke-linejoin:miter;stroke-miterlimit:4;stroke-dasharray:none;stroke-opacity:1"
       d="m 97.916539,98.125083 0.538415,2.962237 0.0619,-0.37958 0.182072,0.78349 0.332425,-1.2598 0.156581,0.68305 0.841108,-2.713406 z"
       id="path2352"
       sodipodi:nodetypes="cccccccc" />
    <path
       style="fill:#000000;fill-opacity:1;stroke:#000000;stroke-width:0;stroke-linecap:butt;stroke-linejoin:miter;stroke-miterlimit:4;stroke-dasharray:none;stroke-opacity:1"
       d="m 98.86176,91.680312 -3.78629,0.555454 c -1.330409,0.195162 -2.614311,1.329087 -3.325657,2.285271 -0.298866,0.397549 -0.423576,0.51879 0.963563,-0.04274 0.298061,-0.120551 0.4751,-0.198095 0.4751,-0.198095 0.106369,0.168465 -0.298414,0.582631 0.146233,0.27123 0.281349,-0.196868 0.825648,-0.686852 1.20131,-0.92 0.218103,-0.135308 -0.0987,0.390286 0.06459,0.275906 l 1.792929,-0.768592 -0.08567,0.241734 2.52848,-0.586233 z"
       id="path2354"
       sodipodi:nodetypes="cscscssccccc" />
    <path
       style="fill:#000000;fill-opacity:1;stroke:#000000;stroke-width:0;stroke-linecap:butt;stroke-linejoin:miter;stroke-miterlimit:4;stroke-dasharray:none;stroke-opacity:1"
       d="m 98.852772,91.696335 4.072298,0.594896 c 1.33054,0.194414 2.6143,1.329106 3.32567,2.285271 0.29886,0.397568 0.42355,0.51879 -0.96359,-0.04274 -0.29804,-0.120551 -0.47507,-0.198114 -0.47507,-0.198114 -0.10637,0.168465 0.29841,0.582649 -0.14642,0.271249 -0.28137,-0.197117 -0.82567,-0.686833 -1.20131,-0.919981 -0.21813,-0.135308 0.0987,0.390286 -0.0646,0.275906 l -1.79293,-0.768592 0.0857,0.241734 -2.885399,-0.65245 z"
       id="path2356"
       sodipodi:nodetypes="cscscssccccc" />
    <path
       style="fill:#604635;fill-opacity:1;stroke:#b7a088;stroke-width:0.132557;stroke-linecap:butt;stroke-linejoin:miter;stroke-miterlimit:4;stroke-dasharray:none;stroke-opacity:1"
       d="m 124.28584,117.57286 c -1.22314,2.26823 -3.75789,1.48469 -5.56667,0.87375 l -0.24269,-1.35348 c 2.17563,0.7421 3.76389,1.07192 5.72912,-0.72317 z"
       id="path2388"
       sodipodi:nodetypes="ccccc" />
    <path
       style="fill:#604635;fill-opacity:1;stroke:#b7a088;stroke-width:0.132557;stroke-linecap:butt;stroke-linejoin:miter;stroke-miterlimit:4;stroke-dasharray:none;stroke-opacity:1"
       d="m 124.07113,114.37834 c -1.29754,2.26821 -3.97634,1.48045 -5.89512,0.86952 l -0.21399,-1.40368 c 2.30795,0.74208 3.93923,1.12633 6.02396,-0.66874 z"
       id="path2390"
       sodipodi:nodetypes="ccccc" />
    <path
       style="fill:#604635;fill-opacity:1;stroke:#b7a088;stroke-width:0.132557;stroke-linecap:butt;stroke-linejoin:miter;stroke-miterlimit:4;stroke-dasharray:none;stroke-opacity:1"
       d="m 123.67877,111.33308 c -1.29238,2.26823 -3.97056,1.48467 -5.88168,0.87375 l -0.25646,-1.35348 c 2.29875,0.74209 3.8523,1.04095 5.9287,-0.75414 z"
       id="path2392"
       sodipodi:nodetypes="ccccc" />
    <path
       style="fill:#604635;fill-opacity:1;stroke:#b7a088;stroke-width:0.132557;stroke-linecap:butt;stroke-linejoin:miter;stroke-miterlimit:4;stroke-dasharray:none;stroke-opacity:1"
       d="m 123.14435,108.13854 c -1.51586,2.26822 -4.11343,1.70962 -6.35502,1.09868 l -0.84453,-1.57841 c 2.69626,0.74211 4.43621,1.00316 6.8717,-0.79194 z"
       id="path2394"
       sodipodi:nodetypes="ccccc" />
    <path
       style="fill:#604635;fill-opacity:1;stroke:#b7a088;stroke-width:0.132557;stroke-linecap:butt;stroke-linejoin:miter;stroke-miterlimit:4;stroke-dasharray:none;stroke-opacity:1"
       d="m 122.19242,104.56934 c -1.51586,2.26823 -4.80446,2.17355 -7.04607,1.56261 l -0.65308,-1.88258 c 2.69625,0.74209 4.75165,0.87331 7.18712,-0.92176 z"
       id="path2396"
       sodipodi:nodetypes="ccccc" />
  </g>
</svg>
