<?xml version="1.0" encoding="UTF-8" standalone="no"?>
<svg
   xmlns:dc="http://purl.org/dc/elements/1.1/"
   xmlns:cc="http://creativecommons.org/ns#"
   xmlns:rdf="http://www.w3.org/1999/02/22-rdf-syntax-ns#"
   xmlns:svg="http://www.w3.org/2000/svg"
   xmlns="http://www.w3.org/2000/svg"
   xmlns:sodipodi="http://sodipodi.sourceforge.net/DTD/sodipodi-0.dtd"
   xmlns:inkscape="http://www.inkscape.org/namespaces/inkscape"
   width="21.246275mm"
   height="42.333347mm"
   viewBox="0 0 21.246275 42.333347"
   version="1.1"
   id="svg14109"
   inkscape:version="1.0.2 (e86c870879, 2021-01-15, custom)"
   sodipodi:docname="bapak.svg">
  <defs
     id="defs14103" />
  <sodipodi:namedview
     id="base"
     pagecolor="#ffffff"
     bordercolor="#666666"
     borderopacity="1.0"
     inkscape:pageopacity="0.0"
     inkscape:pageshadow="2"
     inkscape:zoom="0.35"
     inkscape:cx="262.84554"
     inkscape:cy="214.02702"
     inkscape:document-units="mm"
     inkscape:current-layer="layer1"
     inkscape:document-rotation="0"
     showgrid="false"
     inkscape:window-width="1366"
     inkscape:window-height="720"
     inkscape:window-x="0"
     inkscape:window-y="0"
     inkscape:window-maximized="1" />
  <metadata
     id="metadata14106">
    <rdf:RDF>
      <cc:Work
         rdf:about="">
        <dc:format>image/svg+xml</dc:format>
        <dc:type
           rdf:resource="http://purl.org/dc/dcmitype/StillImage" />
        <dc:title></dc:title>
      </cc:Work>
    </rdf:RDF>
  </metadata>
  <g
     inkscape:label="Layer 1"
     inkscape:groupmode="layer"
     id="layer1"
     transform="translate(-36.288785,-91.538683)">
    <path
       id="path2301"
       style="fill:#806248;fill-opacity:1;stroke:none;stroke-width:0;stroke-linecap:square;stroke-miterlimit:4;stroke-dasharray:none;paint-order:markers fill stroke"
       d="m 45.5663,110.81461 h 4.471986 v 9.1755 H 45.5663 Z" />
    <path
       style="fill:#977251;fill-opacity:1;stroke:#000000;stroke-width:0;stroke-linecap:butt;stroke-linejoin:miter;stroke-miterlimit:4;stroke-dasharray:none;stroke-opacity:1"
       d="m 45.129644,131.91437 c -0.08009,0.34319 -0.153706,0.7096 -0.212697,1.08962 -1.829033,0.1017 -2.96126,-0.0691 -2.96126,-0.0691 0.07226,-0.48363 0.212222,-1.10752 0.35644,-1.68991 0.489753,-0.0365 1.718734,0.0252 2.817517,0.66931 z"
       id="path2305"
       sodipodi:nodetypes="ccccc" />
    <path
       id="path2400"
       style="fill:#977251;fill-opacity:1;stroke:none;stroke-width:0;stroke-linecap:square;stroke-miterlimit:4;stroke-dasharray:none;paint-order:markers fill stroke"
       d="m 39.531836,127.43526 c 0,0.6899 -0.165892,1.25286 -1.606311,1.24918 -1.292198,-0.003 -1.63674,-0.58947 -1.63674,-1.27937 0,-0.31574 0.110111,-0.57392 0.370645,-0.79385 0.05379,-0.0454 0.198258,-1.7286 0.260299,-1.76781 0.294089,-0.18585 0.675429,-0.29803 1.092101,-0.29803 0.417917,0 0.800281,0.11283 1.094715,0.29968 0.05938,0.0377 0.02888,1.71906 0.08064,1.76244 0.263169,0.22039 0.344646,0.51024 0.344646,0.82776 z"
       sodipodi:nodetypes="sssssssss" />
    <path
       style="fill:#141714;fill-opacity:1;stroke:#000000;stroke-width:0;stroke-linecap:butt;stroke-linejoin:miter;stroke-miterlimit:4;stroke-dasharray:none;stroke-opacity:1"
       d="m 41.883015,112.39213 c -3.088426,0.9341 -5.198387,5.01235 -5.411729,12.70591 0,0 1.462269,1.28037 3.064222,0.12729 0.951965,-5.10952 0.153888,-3.91209 1.87978,-6.6646 0.520625,-1.99628 0.834995,-4.02642 0.467727,-6.16855 z"
       id="path2402"
       sodipodi:nodetypes="ccccc" />
    <path
       style="fill:#604635;fill-opacity:1;stroke:#b7a088;stroke-width:0.132557;stroke-linecap:butt;stroke-linejoin:miter;stroke-miterlimit:4;stroke-dasharray:none;stroke-opacity:1"
       d="m 38.459891,115.68757 c 0.69152,1.18349 2.29135,1.13998 3.313954,0.82121 l 0.115747,-0.80102 c -1.230009,0.3872 -1.96616,0.27441 -3.077214,-0.66222 z"
       id="path2404"
       sodipodi:nodetypes="ccccc" />
    <path
       style="fill:#604635;fill-opacity:1;stroke:#b7a088;stroke-width:0.132557;stroke-linecap:butt;stroke-linejoin:miter;stroke-miterlimit:4;stroke-dasharray:none;stroke-opacity:1"
       d="m 36.62397,124.20066 c 0.638208,1.18349 1.960763,0.77466 2.904529,0.4559 l 0.126636,-0.70621 c -1.13518,0.3872 -1.963895,0.55929 -2.989288,-0.37733 z"
       id="path2406"
       sodipodi:nodetypes="ccccc" />
    <path
       style="fill:#604635;fill-opacity:1;stroke:#b7a088;stroke-width:0.132557;stroke-linecap:butt;stroke-linejoin:miter;stroke-miterlimit:4;stroke-dasharray:none;stroke-opacity:1"
       d="m 36.736004,122.53385 c 0.677022,1.18348 2.074741,0.77245 3.075905,0.45368 l 0.111658,-0.73241 c -1.204219,0.38721 -2.05538,0.5877 -3.143136,-0.34893 z"
       id="path2408"
       sodipodi:nodetypes="ccccc" />
    <path
       style="fill:#604635;fill-opacity:1;stroke:#b7a088;stroke-width:0.132557;stroke-linecap:butt;stroke-linejoin:miter;stroke-miterlimit:4;stroke-dasharray:none;stroke-opacity:1"
       d="m 36.940727,120.94491 c 0.674323,1.18349 2.071721,0.77467 3.068892,0.4559 l 0.13381,-0.70621 c -1.199418,0.38721 -2.010012,0.54315 -3.09343,-0.39348 z"
       id="path2410"
       sodipodi:nodetypes="ccccc" />
    <path
       style="fill:#604635;fill-opacity:1;stroke:#b7a088;stroke-width:0.132557;stroke-linecap:butt;stroke-linejoin:miter;stroke-miterlimit:4;stroke-dasharray:none;stroke-opacity:1"
       d="m 37.21957,119.2781 c 0.790927,1.18349 2.14627,0.89202 3.315873,0.57326 l 0.44065,-0.82358 c -1.406826,0.3872 -2.314691,0.52343 -3.585458,-0.4132 z"
       id="path2412"
       sodipodi:nodetypes="ccccc" />
    <path
       style="fill:#604635;fill-opacity:1;stroke:#b7a088;stroke-width:0.132557;stroke-linecap:butt;stroke-linejoin:miter;stroke-miterlimit:4;stroke-dasharray:none;stroke-opacity:1"
       d="m 37.716268,117.41579 c 0.790927,1.18349 2.506828,1.1341 3.676433,0.81533 l 0.340758,-0.98228 c -1.406826,0.3872 -2.479272,0.45567 -3.750038,-0.48096 z"
       id="path2414"
       sodipodi:nodetypes="ccccc" />
    <path
       style="fill:#000000;stroke:#000000;stroke-width:0.043344px;stroke-linecap:butt;stroke-linejoin:miter;stroke-opacity:1"
       d="m 42.60823,126.98268 3.870949,0.0207 c 0,0 -0.831423,2.2965 -1.201481,5.09725 -2.281962,0.14906 -3.694567,-0.10118 -3.694567,-0.10118 0.232241,-1.82615 1.025099,-5.01681 1.025099,-5.01681 z"
       id="path2307"
       sodipodi:nodetypes="ccccc" />
    <path
       id="path2309"
       style="fill:#000000;stroke:#b0e0e6;stroke-width:0;stroke-linecap:square;stroke-miterlimit:2.66667;paint-order:markers fill stroke"
       d="m 41.930063,132.45846 c -0.698746,0 -1.261668,0.59392 -1.261668,1.33117 0,0.0283 0.0061,0.0545 0.0077,0.0824 h 5.028108 c 0,-0.0278 0.0077,-0.0541 0.0077,-0.0824 0,-0.73725 0.264285,-1.33117 -1.260847,-1.33117 z"
       sodipodi:nodetypes="ssccsss" />
    <path
       style="fill:#977251;fill-opacity:1;stroke:#000000;stroke-width:0;stroke-linecap:butt;stroke-linejoin:miter;stroke-miterlimit:4;stroke-dasharray:none;stroke-opacity:1"
       d="m 48.818601,131.73062 c 0.09851,0.39928 0.190038,0.83453 0.260621,1.28925 1.829029,0.1017 2.961259,-0.0691 2.961259,-0.0691 -0.06,-0.40162 -0.166709,-0.9 -0.283765,-1.391 -1.229975,-0.31851 -1.633344,-0.13074 -2.938115,0.17078 z"
       id="path2311"
       sodipodi:nodetypes="ccccc" />
    <path
       id="path2313"
       style="fill:#000000;stroke:#b0e0e6;stroke-width:0;stroke-linecap:square;stroke-miterlimit:2.66667;paint-order:markers fill stroke"
       d="m 51.632351,132.45846 c 1.374483,0 1.261661,0.59392 1.261661,1.33117 0,0.0283 -0.0061,0.0545 -0.0077,0.0824 h -5.0281 c 0,-0.0278 -0.0077,-0.0541 -0.0077,-0.0824 0,-0.73725 0.562097,-1.33117 1.260851,-1.33117 z"
       sodipodi:nodetypes="ssccsss" />
    <path
       style="fill:#000000;stroke:#000000;stroke-width:0.043344px;stroke-linecap:butt;stroke-linejoin:miter;stroke-opacity:1"
       d="m 51.923515,126.98268 -3.873846,0.0207 c 0,0 0.510457,2.2965 0.48907,5.09725 2.261134,0.14906 3.7087,-0.10118 3.7087,-0.10118 0.02299,-1.82615 -0.323924,-5.01681 -0.323924,-5.01681 z"
       id="path2315"
       sodipodi:nodetypes="ccccc" />
    <path
       style="fill:#141714;fill-opacity:1;stroke:#000000;stroke-width:0;stroke-linecap:butt;stroke-linejoin:miter;stroke-miterlimit:4;stroke-dasharray:none;stroke-opacity:1"
       d="m 42.780591,111.58025 c -3.857622,3.23169 -3.969112,11.25641 -2.446243,16.95307 0.556722,1.79493 10.299358,1.87207 12.661537,-0.44625 0.989322,-2.83929 1.321119,-12.81414 -2.572234,-16.05589 -0.661048,-0.24333 -0.981927,-0.42404 -1.687129,-0.47525 -0.535349,-0.0389 -2.30663,2.02095 -3.734355,2.83563 -0.06982,0.0287 -0.08959,0.39206 -0.2773,0.82135 -0.301298,-0.0219 -0.133668,-0.6514 -0.626109,-1.09453 -0.979479,-0.88139 -0.885857,-1.8245 -0.866427,-2.50533 0.004,-0.13748 -0.301155,-0.0219 -0.45174,-0.0328 z"
       id="path2321"
       sodipodi:nodetypes="ccccsccssc" />
    <path
       style="fill:#604635;fill-opacity:1;stroke:#b7a088;stroke-width:0.132557;stroke-linecap:butt;stroke-linejoin:miter;stroke-miterlimit:4;stroke-dasharray:none;stroke-opacity:1"
       d="m 50.177212,113.958 c 0,0 0.266902,0.68665 0.246253,1.38086 0.39747,4.37975 0.253611,9.10903 0.25665,13.75912 l -0.735924,0.20496 c 0.01176,-5.26367 0.01278,-10.52102 -0.392273,-15.45461 z"
       id="path2380"
       sodipodi:nodetypes="cccccc" />
    <path
       style="fill:#604635;fill-opacity:1;stroke:#b7a088;stroke-width:0.132557;stroke-linecap:butt;stroke-linejoin:miter;stroke-miterlimit:4;stroke-dasharray:none;stroke-opacity:1"
       d="m 52.060002,113.24952 c 0,0 0.266903,0.68665 0.246253,1.38087 l 0.25401,13.80467 -0.736226,0.38605 c -0.02905,-6.2152 -0.199086,-11.04732 -0.389331,-15.68126 z"
       id="path2382"
       sodipodi:nodetypes="cccccc" />
    <path
       style="fill:#604635;fill-opacity:1;stroke:#b7a088;stroke-width:0.132557;stroke-linecap:butt;stroke-linejoin:miter;stroke-miterlimit:4;stroke-dasharray:none;stroke-opacity:1"
       d="m 41.392954,113.86946 c 0,0 -0.290589,0.61065 -0.311238,1.30486 -0.967127,5.90796 -0.182237,9.23011 0.21459,13.98568 l -0.656672,-0.35002 c -0.77333,-5.1043 -0.945196,-9.84418 0.128027,-15.05019 z"
       id="path2386"
       sodipodi:nodetypes="cccccc" />
    <path
       style="fill:#604635;fill-opacity:1;stroke:#b7a088;stroke-width:0.132557;stroke-linecap:butt;stroke-linejoin:miter;stroke-miterlimit:4;stroke-dasharray:none;stroke-opacity:1"
       d="m 42.666203,114.24401 c 0,0 0.266903,0.68666 0.246253,1.38087 -0.585343,4.30609 -0.0077,9.24213 0.21459,13.98567 l -0.789106,-0.088 c -0.498399,-5.26589 -0.84474,-10.44769 -0.297029,-15.3882 z"
       id="path2384"
       sodipodi:nodetypes="cccccc" />
    <path
       style="fill:#604635;fill-opacity:1;stroke:#b7a088;stroke-width:0.132557;stroke-linecap:butt;stroke-linejoin:miter;stroke-miterlimit:4;stroke-dasharray:none;stroke-opacity:1"
       d="m 44.508113,114.40709 c 0,0 0.266902,0.68665 0.246253,1.38085 0.72619,4.39909 0.113638,9.22908 0.214589,13.98569 l -0.693863,-0.0216 c -0.105472,-5.3923 -0.0084,-10.78797 -0.392273,-15.4546 z"
       id="path2327"
       sodipodi:nodetypes="cccccc" />
    <path
       id="path2335"
       style="fill:#977251;fill-opacity:1;stroke:none;stroke-width:0;stroke-linecap:square;stroke-miterlimit:4;stroke-dasharray:none;paint-order:markers fill stroke"
       d="m 52.742968,127.23444 c 0,0.68991 0.165892,1.25287 1.606311,1.24918 1.292198,-0.003 1.636739,-0.58946 1.636739,-1.27937 0,-0.31574 -0.110111,-0.57392 -0.370645,-0.79385 -0.05379,-0.0454 -0.198258,-1.7286 -0.260298,-1.76781 -0.294089,-0.18585 -0.675429,-0.29803 -1.092101,-0.29803 -0.417917,0 -0.800281,0.11283 -1.094715,0.29969 -0.05937,0.0377 -0.02887,1.71906 -0.08064,1.76243 -0.263169,0.22039 -0.344646,0.51024 -0.344646,0.82776 z"
       sodipodi:nodetypes="sssssssss" />
    <path
       style="fill:#604635;fill-opacity:1;stroke:#b7a088;stroke-width:0.132557;stroke-linecap:butt;stroke-linejoin:miter;stroke-miterlimit:4;stroke-dasharray:none;stroke-opacity:1"
       d="m 48.266859,114.40709 c 0,0 0.266902,0.68665 0.246252,1.38085 0.530441,2.47275 0.464156,8.79436 0.214589,13.73617 l -0.690732,0.0989 c 0.01829,-5.33818 -0.165712,-10.8531 -0.395404,-15.32558 z"
       id="path2378"
       sodipodi:nodetypes="cccccc" />
    <path
       style="fill:#141714;fill-opacity:1;stroke:#000000;stroke-width:0;stroke-linecap:butt;stroke-linejoin:miter;stroke-miterlimit:4;stroke-dasharray:none;stroke-opacity:1"
       d="m 50.391789,112.19131 c 3.088425,0.93411 5.198387,5.01236 5.411729,12.70593 0,0 -1.46227,1.28036 -3.064223,0.12728 -0.951964,-5.10952 -0.153887,-3.91209 -1.879779,-6.66459 -0.520624,-1.99627 -0.834995,-4.02641 -0.467727,-6.16855 z"
       id="path2337"
       sodipodi:nodetypes="ccccc" />
    <path
       style="fill:#604635;fill-opacity:1;stroke:#b7a088;stroke-width:0.132557;stroke-linecap:butt;stroke-linejoin:miter;stroke-miterlimit:4;stroke-dasharray:none;stroke-opacity:1"
       d="m 46.418467,114.40709 c 0,0 0.266902,0.68665 0.246252,1.38085 0.454446,4.25946 0.179784,9.23272 0.214591,13.98569 l -0.693865,-0.0216 c -0.06508,-5.34824 0.01769,-10.78277 -0.392272,-15.4546 z"
       id="path2376"
       sodipodi:nodetypes="cccccc" />
    <path
       style="fill:#604635;fill-opacity:1;stroke:#b7a088;stroke-width:0.132557;stroke-linecap:butt;stroke-linejoin:miter;stroke-miterlimit:4;stroke-dasharray:none;stroke-opacity:1"
       d="m 53.814913,115.48676 c -0.69152,1.1835 -2.29135,1.13998 -3.313955,0.82121 l -0.115747,-0.80103 c 1.230009,0.38721 1.966159,0.27441 3.077212,-0.66222 z"
       id="path2398"
       sodipodi:nodetypes="ccccc" />
    <path
       style="fill:#977251;fill-opacity:1;stroke:none;stroke-width:0;stroke-linecap:butt;stroke-linejoin:miter;stroke-miterlimit:4;stroke-dasharray:none;stroke-opacity:1"
       d="m 38.050107,99.161855 c -0.733697,1.705835 -0.560954,4.391465 -0.07834,7.084585 -0.635688,2.36233 -1.089562,4.85444 -0.470565,6.273 2.481334,5.68651 17.387683,3.65907 17.337396,-0.4533 -0.07989,-6.533 -1.518031,-3.20277 -1.24247,-4.33194 0.866928,-3.55242 2.87245,-6.29521 2.87245,-6.29521 L 52.055243,94.135148 42.793638,94.4064 c 0,0 -3.528399,1.930199 -4.74355,4.755455 z"
       id="path2317"
       sodipodi:nodetypes="scssscccss" />
    <path
       style="fill:#000000;fill-opacity:1;stroke:#000000;stroke-width:0.299507px;stroke-linecap:butt;stroke-linejoin:miter;stroke-opacity:1"
       d="m 56.001309,105.44478 -1.659938,2.0622 c 0.08818,1.72993 0.481343,3.76909 0.264518,5.18979 -0.104833,0.68688 -0.71324,1.30612 -1.346882,1.58988 -3.959205,1.7731 -8.408822,2.67287 -12.901682,0.97573 -1.132423,-0.42776 -2.171788,-1.16153 -2.573481,-2.30442 -0.172358,-0.4904 -0.344715,-0.98081 -0.517072,-1.47119 l 1.692584,1.88963 c 2.260873,2.52409 5.839684,2.47365 8.934781,1.04391 1.097802,-0.50711 1.569413,-3.07242 2.147662,-3.59123 l 2.882192,-2.37262 -0.05206,-3.5194 0.508803,-2.44157 -1.659665,-3.219006 c -5.938508,-0.07819 -9.475173,-1.936454 -15.146396,2.060026 -0.789313,-8.816758 8.82549,-12.204681 15.169363,-7.576531 3.15172,-2.917969 6.054372,7.303281 4.257273,11.684801 z"
       id="path2323"
       sodipodi:nodetypes="ccsssscsscccccccc" />
    <rect
       style="fill:none;fill-opacity:1;stroke:#000000;stroke-width:0.281802;stroke-linecap:square;stroke-miterlimit:4;stroke-dasharray:none;stroke-opacity:1;paint-order:markers fill stroke"
       id="rect2339"
       width="4.9907784"
       height="2.3782709"
       x="43.787643"
       y="104.14568"
       ry="0.55095571" />
    <rect
       style="fill:none;fill-opacity:1;stroke:#000000;stroke-width:0.253604;stroke-linecap:square;stroke-miterlimit:4;stroke-dasharray:none;stroke-opacity:1;paint-order:markers fill stroke"
       id="rect2341"
       width="3.9815562"
       height="2.4143441"
       x="38.338585"
       y="104.12764"
       ry="0.55931252" />
    <rect
       style="fill:none;fill-opacity:1;stroke:#000000;stroke-width:0.275317;stroke-linecap:square;stroke-miterlimit:4;stroke-dasharray:none;stroke-opacity:1;paint-order:markers fill stroke"
       id="rect2343"
       width="1.4401673"
       height="0.93030566"
       x="42.337299"
       y="104.86964"
       ry="0.21551679" />
    <path
       id="rect2345"
       style="fill:none;fill-opacity:1;stroke:#000000;stroke-width:0.223748;stroke-linecap:square;stroke-miterlimit:4;stroke-dasharray:none;stroke-opacity:1;paint-order:markers fill stroke"
       d="m 37.86839,104.81438 0.599525,-2.8e-4 c 0.09265,-4e-5 0.167241,0.10758 0.167241,0.24127 v 0.55889 c 0,0.13365 -0.07458,0.24151 -0.167241,0.24125 l -0.4388,-10e-4"
       sodipodi:nodetypes="cssssc" />
    <rect
       style="fill:#000000;fill-opacity:1;stroke:none;stroke-width:0;stroke-linecap:square;stroke-miterlimit:4;stroke-dasharray:none;stroke-opacity:1;paint-order:markers fill stroke"
       id="rect2348"
       width="4.6055789"
       height="0.70897377"
       x="48.949951"
       y="104.98032"
       ry="0.16424252" />
    <path
       style="fill:#977251;fill-opacity:1;stroke:#000000;stroke-width:0;stroke-linecap:butt;stroke-linejoin:miter;stroke-miterlimit:4;stroke-dasharray:none;stroke-opacity:1"
       d="m 54.485716,108.93628 c 0.470145,0.003 0.845987,0.13177 1.316128,0.1336 2.143832,-1.42876 2.459646,-4.51959 0.03512,-4.88936 l -1.074883,0.72965 -0.367322,2.64105 -0.589522,0.62752 c 0.255342,0.48116 0.425094,0.27639 0.680429,0.75754 z"
       id="path2325"
       sodipodi:nodetypes="cccccccc" />
    <path
       style="fill:#000000;fill-opacity:1;stroke:#000000;stroke-width:0;stroke-linecap:butt;stroke-linejoin:miter;stroke-miterlimit:4;stroke-dasharray:none;stroke-opacity:1"
       d="m 41.434867,115.47392 0.820856,3.37343 0.09432,-0.43225 0.277622,0.89222 0.506825,-1.43468 0.238888,0.7779 1.282358,-3.09006 z"
       id="path2350"
       sodipodi:nodetypes="cccccccc" />
    <path
       style="fill:#000000;fill-opacity:1;stroke:#000000;stroke-width:0;stroke-linecap:butt;stroke-linejoin:miter;stroke-miterlimit:4;stroke-dasharray:none;stroke-opacity:1"
       d="m 41.892067,113.85254 0.280929,1.54561 0.03226,-0.19805 0.09502,0.4088 0.173456,-0.65733 0.08175,0.3564 0.43887,-1.41578 z"
       id="path2352"
       sodipodi:nodetypes="cccccccc" />
    <path
       style="fill:#000000;fill-opacity:1;stroke:#000000;stroke-width:0;stroke-linecap:butt;stroke-linejoin:miter;stroke-miterlimit:4;stroke-dasharray:none;stroke-opacity:1"
       d="m 42.385265,110.48984 -1.975587,0.28982 c -0.694171,0.10183 -1.364065,0.69348 -1.735231,1.19239 -0.155938,0.20743 -0.221004,0.27069 0.502761,-0.0223 0.155518,-0.0629 0.247889,-0.10336 0.247889,-0.10336 0.05554,0.0879 -0.155701,0.304 0.07633,0.14152 0.146804,-0.10272 0.430807,-0.35838 0.626813,-0.48003 0.113804,-0.0706 -0.0515,0.20364 0.03374,0.14396 l 0.935504,-0.40103 -0.04469,0.12613 1.319289,-0.30588 z"
       id="path2354"
       sodipodi:nodetypes="cscscssccccc" />
    <path
       style="fill:#000000;fill-opacity:1;stroke:#000000;stroke-width:0;stroke-linecap:butt;stroke-linejoin:miter;stroke-miterlimit:4;stroke-dasharray:none;stroke-opacity:1"
       d="m 42.380566,110.4982 2.124819,0.3104 c 0.694235,0.10144 1.364064,0.69349 1.735234,1.19239 0.155937,0.20744 0.221,0.27069 -0.502764,-0.0223 -0.155518,-0.0629 -0.247886,-0.10337 -0.247886,-0.10337 -0.05554,0.0879 0.155697,0.30401 -0.07635,0.14153 -0.146804,-0.10285 -0.430806,-0.35837 -0.626812,-0.48002 -0.113805,-0.0706 0.0515,0.20364 -0.03375,0.14396 l -0.935501,-0.40103 0.04469,0.12613 -1.505514,-0.34043 z"
       id="path2356"
       sodipodi:nodetypes="cscscssccccc" />
    <path
       style="fill:#604635;fill-opacity:1;stroke:#b7a088;stroke-width:0.132557;stroke-linecap:butt;stroke-linejoin:miter;stroke-miterlimit:4;stroke-dasharray:none;stroke-opacity:1"
       d="m 55.650833,123.99984 c -0.638207,1.1835 -1.960762,0.77467 -2.904528,0.4559 l -0.126636,-0.70621 c 1.135179,0.38721 1.963894,0.5593 2.989288,-0.37733 z"
       id="path2388"
       sodipodi:nodetypes="ccccc" />
    <path
       style="fill:#604635;fill-opacity:1;stroke:#b7a088;stroke-width:0.132557;stroke-linecap:butt;stroke-linejoin:miter;stroke-miterlimit:4;stroke-dasharray:none;stroke-opacity:1"
       d="m 55.5388,122.33303 c -0.677022,1.18349 -2.074741,0.77246 -3.075905,0.45369 l -0.111658,-0.7324 c 1.20422,0.3872 2.05538,0.58769 3.143136,-0.34893 z"
       id="path2390"
       sodipodi:nodetypes="ccccc" />
    <path
       style="fill:#604635;fill-opacity:1;stroke:#b7a088;stroke-width:0.132557;stroke-linecap:butt;stroke-linejoin:miter;stroke-miterlimit:4;stroke-dasharray:none;stroke-opacity:1"
       d="m 55.334077,120.7441 c -0.674323,1.1835 -2.071723,0.77466 -3.068892,0.4559 l -0.13381,-0.70621 c 1.199418,0.3872 2.010012,0.54314 3.09343,-0.39349 z"
       id="path2392"
       sodipodi:nodetypes="ccccc" />
    <path
       style="fill:#604635;fill-opacity:1;stroke:#b7a088;stroke-width:0.132557;stroke-linecap:butt;stroke-linejoin:miter;stroke-miterlimit:4;stroke-dasharray:none;stroke-opacity:1"
       d="m 55.055234,119.07728 c -0.790929,1.18349 -2.14627,0.89203 -3.315875,0.57326 l -0.440648,-0.82357 c 1.406825,0.38721 2.314691,0.52342 3.585458,-0.41321 z"
       id="path2394"
       sodipodi:nodetypes="ccccc" />
    <path
       style="fill:#604635;fill-opacity:1;stroke:#b7a088;stroke-width:0.132557;stroke-linecap:butt;stroke-linejoin:miter;stroke-miterlimit:4;stroke-dasharray:none;stroke-opacity:1"
       d="m 54.558536,117.21497 c -0.790929,1.1835 -2.506828,1.1341 -3.676433,0.81533 l -0.340758,-0.98228 c 1.406826,0.3872 2.479272,0.45567 3.750038,-0.48095 z"
       id="path2396"
       sodipodi:nodetypes="ccccc" />
  </g>
</svg>
