<?xml version="1.0" encoding="UTF-8" standalone="no"?>
<svg
   xmlns:dc="http://purl.org/dc/elements/1.1/"
   xmlns:cc="http://creativecommons.org/ns#"
   xmlns:rdf="http://www.w3.org/1999/02/22-rdf-syntax-ns#"
   xmlns:svg="http://www.w3.org/2000/svg"
   xmlns="http://www.w3.org/2000/svg"
   xmlns:xlink="http://www.w3.org/1999/xlink"
   xmlns:sodipodi="http://sodipodi.sourceforge.net/DTD/sodipodi-0.dtd"
   xmlns:inkscape="http://www.inkscape.org/namespaces/inkscape"
   width="23.773867mm"
   height="69.044182mm"
   viewBox="0 0 23.773867 69.044182"
   version="1.1"
   id="svg2988"
   inkscape:version="1.0.2 (e86c870879, 2021-01-15, custom)"
   sodipodi:docname="kuburan.svg"
   inkscape:export-filename="/home/dikawfa/Projects/Godot/Tumpengan-GameBudaya/src/img/env/kuburan.png"
   inkscape:export-xdpi="96"
   inkscape:export-ydpi="96">
  <defs
     id="defs2982">
    <linearGradient
       inkscape:collect="always"
       xlink:href="#linearGradient2749"
       id="linearGradient2751"
       x1="1596.4"
       y1="118.54313"
       x2="1775.6"
       y2="118.54313"
       gradientUnits="userSpaceOnUse" />
    <linearGradient
       inkscape:collect="always"
       id="linearGradient2749">
      <stop
         style="stop-color:#543c19;stop-opacity:1"
         offset="0"
         id="stop2745" />
      <stop
         style="stop-color:#836539;stop-opacity:1"
         offset="1"
         id="stop2747" />
    </linearGradient>
    <filter
       inkscape:label="Old Postcard"
       inkscape:menu="Image Paint and Draw"
       inkscape:menu-tooltip="Slightly posterize and draw edges like on old printed postcards"
       height="1.4"
       y="-0.2"
       width="1.4"
       x="-0.2"
       style="color-interpolation-filters:sRGB"
       id="filter2043">
      <feTurbulence
         baseFrequency="0.05"
         numOctaves="5"
         type="fractalNoise"
         result="result91"
         id="feTurbulence2037" />
      <feDisplacementMap
         scale="25"
         result="result5"
         xChannelSelector="R"
         in="SourceGraphic"
         in2="result91"
         id="feDisplacementMap2039"
         yChannelSelector="A" />
      <feComposite
         in="SourceGraphic"
         operator="atop"
         in2="result5"
         id="feComposite2041"
         result="fbSourceGraphic" />
      <feColorMatrix
         result="fbSourceGraphicAlpha"
         in="fbSourceGraphic"
         values="0 0 0 -1 0 0 0 0 -1 0 0 0 0 -1 0 0 0 0 1 0"
         id="feColorMatrix2899" />
      <feFlood
         id="feFlood2901"
         flood-color="rgb(255,204,0)"
         flood-opacity="0.1"
         result="result1"
         in="fbSourceGraphic" />
      <feBlend
         in2="fbSourceGraphic"
         id="feBlend2903"
         mode="darken"
         result="result6" />
      <feComposite
         in2="result6"
         id="feComposite2905"
         result="result8"
         operator="arithmetic"
         k2="1"
         k1="0"
         k3="0"
         k4="0" />
      <feColorMatrix
         id="feColorMatrix2907"
         result="result5"
         values="0"
         type="hueRotate"
         in="result8" />
      <feConvolveMatrix
         id="feConvolveMatrix2909"
         result="result1"
         order="3 3"
         kernelMatrix="0 -1 0 -1 5.05 -1 0 -1 0 "
         divisor="1"
         in="result5"
         targetX="1"
         targetY="1" />
      <feGaussianBlur
         id="feGaussianBlur2911"
         result="result2"
         stdDeviation="2"
         in="result1" />
      <feComponentTransfer
         id="feComponentTransfer2913"
         result="result4"
         in="result2">
        <feFuncR
           id="feFuncR2915"
           type="table"
           tableValues="0 0 0.2 0.2 0.4 0.4 0.6 0.6 0.8 0.8 1 1 1" />
        <feFuncG
           id="feFuncG2917"
           type="table"
           tableValues="0 0 0.2 0.2 0.4 0.4 0.6 0.6 0.8 0.8 1 1 1" />
        <feFuncB
           id="feFuncB2919"
           type="table"
           tableValues="0 0 0.2 0.2 0.4 0.4 0.6 0.6 0.8 0.8 1 1 1" />
      </feComponentTransfer>
      <feBlend
         in2="result1"
         id="feBlend2921"
         result="result3"
         mode="darken"
         in="result4" />
      <feColorMatrix
         id="feColorMatrix2923"
         type="saturate"
         values="1"
         result="result7" />
      <feComposite
         in2="fbSourceGraphic"
         id="feComposite2925"
         operator="in"
         result="fbSourceGraphic" />
    </filter>
    <linearGradient
       inkscape:collect="always"
       xlink:href="#linearGradient25630"
       id="linearGradient25632"
       x1="64.931709"
       y1="62.701248"
       x2="99.403053"
       y2="62.701248"
       gradientUnits="userSpaceOnUse"
       gradientTransform="matrix(0.33492318,0,0,0.3771538,197.18907,-28.329985)" />
    <linearGradient
       inkscape:collect="always"
       id="linearGradient25630">
      <stop
         style="stop-color:#a9a9a9;stop-opacity:1"
         offset="0"
         id="stop25628" />
      <stop
         style="stop-color:#d3d3d3;stop-opacity:1;"
         offset="1"
         id="stop25626" />
    </linearGradient>
    <linearGradient
       inkscape:collect="always"
       xlink:href="#linearGradient25640"
       id="linearGradient25642"
       x1="64.931755"
       y1="66.405418"
       x2="99.403053"
       y2="66.405418"
       gradientUnits="userSpaceOnUse"
       gradientTransform="matrix(0.33492318,0,0,0.3771538,197.18907,-28.329985)" />
    <linearGradient
       inkscape:collect="always"
       id="linearGradient25640">
      <stop
         style="stop-color:#dcdcdc;stop-opacity:1;"
         offset="0"
         id="stop25636" />
      <stop
         style="stop-color:#f5f5f5;stop-opacity:1"
         offset="1"
         id="stop25638" />
    </linearGradient>
    <inkscape:path-effect
       effect="simplify"
       id="path-effect25662"
       is_visible="true"
       lpeversion="1"
       steps="1"
       threshold="0.00387755"
       smooth_angles="360"
       helper_size="0"
       simplify_individual_paths="false"
       simplify_just_coalesce="false" />
    <inkscape:path-effect
       effect="simplify"
       id="path-effect25650"
       is_visible="true"
       lpeversion="1"
       steps="1"
       threshold="0.00387755"
       smooth_angles="360"
       helper_size="0"
       simplify_individual_paths="false"
       simplify_just_coalesce="false" />
    <inkscape:path-effect
       effect="simplify"
       id="path-effect25666"
       is_visible="true"
       lpeversion="1"
       steps="1"
       threshold="0.00387755"
       smooth_angles="360"
       helper_size="0"
       simplify_individual_paths="false"
       simplify_just_coalesce="false" />
    <inkscape:path-effect
       effect="simplify"
       id="path-effect25654"
       is_visible="true"
       lpeversion="1"
       steps="1"
       threshold="0.00387755"
       smooth_angles="360"
       helper_size="0"
       simplify_individual_paths="false"
       simplify_just_coalesce="false" />
    <inkscape:path-effect
       effect="simplify"
       id="path-effect25670"
       is_visible="true"
       lpeversion="1"
       steps="1"
       threshold="0.00387755"
       smooth_angles="360"
       helper_size="0"
       simplify_individual_paths="false"
       simplify_just_coalesce="false" />
    <inkscape:path-effect
       effect="simplify"
       id="path-effect25658"
       is_visible="true"
       lpeversion="1"
       steps="1"
       threshold="0.00387755"
       smooth_angles="360"
       helper_size="0"
       simplify_individual_paths="false"
       simplify_just_coalesce="false" />
  </defs>
  <sodipodi:namedview
     id="base"
     pagecolor="#ffffff"
     bordercolor="#666666"
     borderopacity="1.0"
     inkscape:pageopacity="0.0"
     inkscape:pageshadow="2"
     inkscape:zoom="0.35"
     inkscape:cx="-403.64441"
     inkscape:cy="636.19149"
     inkscape:document-units="mm"
     inkscape:current-layer="layer1"
     inkscape:document-rotation="0"
     showgrid="false"
     inkscape:window-width="1366"
     inkscape:window-height="720"
     inkscape:window-x="0"
     inkscape:window-y="0"
     inkscape:window-maximized="1" />
  <metadata
     id="metadata2985">
    <rdf:RDF>
      <cc:Work
         rdf:about="">
        <dc:format>image/svg+xml</dc:format>
        <dc:type
           rdf:resource="http://purl.org/dc/dcmitype/StillImage" />
        <dc:title></dc:title>
      </cc:Work>
    </rdf:RDF>
  </metadata>
  <g
     inkscape:label="Layer 1"
     inkscape:groupmode="layer"
     id="layer1"
     transform="translate(-212.63092,20.158997)">
    <path
       id="rect2035"
       style="fill:url(#linearGradient2751);fill-opacity:1;stroke:#ffe4e1;stroke-width:0;stroke-linecap:round;stroke-miterlimit:1.41;paint-order:stroke fill markers;filter:url(#filter2043)"
       transform="matrix(0.13266667,0,0,0.16593285,0.84184564,-5.3071038)"
       d="m 1622,-6.2479553 c 44.6234,-30.9683547 87.3887,-32.5288287 128,0 V 249.75203 L 1681.7389,267.14926 1622,249.75203 Z"
       sodipodi:nodetypes="cccccc" />
    <path
       id="path25624"
       style="fill:url(#linearGradient25632);fill-opacity:1;stroke:#329041;stroke-width:0;stroke-linecap:round;paint-order:fill markers stroke"
       d="m 219.11348,-9.309132 c 0,0 0.85219,-1.27638 1.44401,-1.680798 1.35552,-0.612598 2.73553,-0.882487 4.1525,-0.882487 1.41698,0 3.1096,0.195323 4.15023,0.882487 0.59113,0.404517 1.44172,1.680798 1.44172,1.680798 l 0.17724,1.3970415 0.003,10.4205666 H 218.9389 l -0.003,-10.4205666 z"
       sodipodi:nodetypes="cczccccccc" />
    <path
       id="rect25603"
       style="fill:url(#linearGradient25642);fill-opacity:1;stroke:#329041;stroke-width:0;stroke-linecap:round;paint-order:fill markers stroke"
       d="m 218.93626,-7.9120905 c 0,0 0.85219,-1.2763799 1.44401,-1.6807979 1.35549,-0.6125976 2.91275,-0.8824876 4.32972,-0.8824876 1.41698,0 3.28682,0.195323 4.32745,0.8824876 0.59116,0.4045167 1.44174,1.6807979 1.44174,1.6807979 l 0.003,11.8176078 v 0 c 0,0 -0.86326,-0.2097886 -1.5458,0 l -1.13919,-0.3286747 c 0,0 -0.16196,-0.6394857 -0.91819,-0.099688 -0.61404,0.2528631 -1.07185,-0.4166161 -1.07185,-0.4166161 L 225.0103,2.5313888 224.03127,3.048229 c -0.24178,-0.3563628 -1.14761,0.021447 -1.14761,0.021447 0.14023,0.5687777 -1.11882,0.4074777 -1.11882,0.4074777 0,0 -1.44332,-0.6269445 -1.30884,0.024675 l -1.51675,0.4036867 z"
       sodipodi:nodetypes="cczccccccccccccccc" />
    <path
       style="fill:none;stroke:#dddddd;stroke-width:1.32292;stroke-linecap:butt;stroke-linejoin:miter;stroke-miterlimit:4;stroke-dasharray:none;stroke-opacity:1"
       d="m 220.56514,-4.6253851 c 0.66903,-0.7477062 1.43561,-1.5712435 2.4422,-1.7311293 0.11614,-0.018448 0.41911,-0.1968037 0.35751,0.04708 -0.0533,0.2108781 -0.14931,0.4180791 -0.10157,0.646551 0.0756,0.3620461 0.1847,0.7773304 0.51661,0.9828855 0.31042,0.1922437 0.70318,0.073322 0.99242,-0.1015642 0.61324,-0.3707899 0.9749,-1.0415934 1.59863,-1.3972154 0.20705,-0.1180495 0.51087,-0.2033569 0.69585,-0.0097 0.24292,0.2543152 0.33801,0.6316995 0.29593,0.962806 -0.0237,0.1867865 0.0766,0.422822 0.28949,0.4073793 0.28274,-0.02051 0.50248,-0.2277618 0.71824,-0.3910218 0.30002,-0.2270184 0.58704,-0.5224289 0.96965,-0.5855827 0.0711,-0.011736 0.14477,-0.011277 0.21486,0.0065"
       id="path25660"
       inkscape:original-d="m 220.56514,-4.6253851 c 0.79372,-0.8805251 1.6411,-1.5543455 2.74645,-1.8152181 0.19225,-0.045373 -0.10456,0.441307 -0.0694,0.6589202 0.10216,0.6327151 0.36415,1.2962501 1.03095,1.1889721 0.92501,-0.1488096 1.43105,-1.3051133 2.20493,-1.6381364 0.96912,-0.4170265 0.85661,1.1526609 0.90776,1.2378462 0.426,0.7092968 1.427,-0.9820323 2.16913,-0.7954013"
       inkscape:path-effect="#path-effect25662"
       sodipodi:nodetypes="cscsssc" />
    <path
       style="opacity:0.3217;fill:none;stroke:#818181;stroke-width:1.32292;stroke-linecap:butt;stroke-linejoin:miter;stroke-miterlimit:4;stroke-dasharray:none;stroke-opacity:1"
       d="m 220.38789,-4.7038607 c 0.66356,-0.7412387 1.41058,-1.6409949 2.41746,-1.7231701 0.11673,-0.00953 0.43705,-0.2027573 0.38724,0.01723 -0.0497,0.2193525 -0.15599,0.4317452 -0.10653,0.6684435 0.0756,0.362044 0.18468,0.7773312 0.5166,0.9828854 0.31043,0.1922434 0.70319,0.073324 0.99243,-0.1015641 0.61324,-0.3707939 0.9749,-1.0416153 1.59865,-1.3972169 0.20706,-0.1180452 0.51088,-0.203362 0.69585,-0.0097 0.24291,0.254318 0.33802,0.6317023 0.29592,0.9628059 -0.0238,0.1867881 0.0766,0.4228205 0.28948,0.4073791 0.28275,-0.020509 0.50249,-0.2277659 0.71824,-0.3910213 0.30002,-0.2270185 0.58704,-0.5224288 0.96965,-0.5855837 0.0711,-0.011736 0.14477,-0.011277 0.21486,0.0065"
       id="path25648"
       inkscape:original-d="m 220.38789,-4.7038607 c 0.79375,-0.8805252 1.64111,-1.5543435 2.74648,-1.8152176 0.19222,-0.045373 -0.10459,0.4413088 -0.0694,0.658922 0.10216,0.6327127 0.36412,1.2962501 1.03095,1.1889719 0.92501,-0.1488096 1.43105,-1.3051152 2.20496,-1.6381381 0.96909,-0.4170249 0.85659,1.1526629 0.90773,1.237846 0.42601,0.7092989 1.427,-0.9820307 2.16913,-0.7954013"
       inkscape:path-effect="#path-effect25650"
       sodipodi:nodetypes="csssssc" />
    <path
       style="fill:none;stroke:#dddddd;stroke-width:0.793747;stroke-linecap:butt;stroke-linejoin:miter;stroke-miterlimit:4;stroke-dasharray:none;stroke-opacity:1"
       d="m 222.57991,-1.6909911 c 0.15054,-0.1416469 0.25896,-0.3191984 0.38957,-0.4777165 0.13236,-0.1606361 0.34092,-0.2572722 0.54058,-0.2542662 0.16544,0.00249 0.34462,0.019548 0.48298,0.1121422 0.0829,0.055471 0.0722,0.1687179 0.1,0.2568944 0.0547,0.1734932 0.17808,0.3499031 0.37175,0.3797205 0.17287,0.026615 0.35744,-0.052209 0.44575,-0.2106296 0.11507,-0.2064224 0.11179,-0.483052 0.30774,-0.63891 0.15454,-0.1229225 0.37798,-0.1062852 0.54005,-0.00436 0.25259,0.1588525 0.39438,0.4330753 0.55913,0.6733901 0.0651,0.094956 0.19463,0.074388 0.28517,0.029582 0.25344,-0.1254183 0.4512,-0.3593438 0.73095,-0.4276891 0.0514,-0.012565 0.1058,-0.016483 0.15778,-0.00472"
       id="path25664"
       sodipodi:nodetypes="csssssc"
       inkscape:original-d="m 222.57991,-1.6909911 c 0.43366,-0.4289446 0.30293,-0.6019538 0.90681,-0.7290371 0.10504,-0.022103 0.53655,0.059745 0.55573,0.1657511 0.0558,0.308224 0.19891,0.6314644 0.56325,0.5792041 0.50538,-0.072492 0.293,-0.7446099 0.71583,-0.9068408 0.52945,-0.2031529 0.95678,0.6703414 0.98475,0.7118392 0.23273,0.3455331 0.77959,-0.4783928 1.18504,-0.3874783"
       inkscape:path-effect="#path-effect25666" />
    <path
       style="opacity:0.3217;fill:none;stroke:#818181;stroke-width:0.793747;stroke-linecap:butt;stroke-linejoin:miter;stroke-miterlimit:4;stroke-dasharray:none;stroke-opacity:1"
       d="m 222.4027,-1.7694644 c 0.15053,-0.1416493 0.25893,-0.3192003 0.38954,-0.4777178 0.13236,-0.1606388 0.34092,-0.2572735 0.54058,-0.2542667 0.16544,0.00249 0.34461,0.019562 0.48299,0.112142 0.0829,0.055463 0.0722,0.1687128 0.1,0.2568951 0.0547,0.1734928 0.17808,0.3499023 0.37174,0.379721 0.17287,0.026618 0.35743,-0.052211 0.44574,-0.210629 0.11507,-0.2064227 0.11178,-0.4830462 0.30773,-0.6389114 0.15454,-0.1229287 0.378,-0.1062902 0.54007,-0.00436 0.25258,0.1588495 0.39437,0.4330747 0.55913,0.6733917 0.0651,0.094957 0.19463,0.074386 0.28517,0.029581 0.25345,-0.1254176 0.45121,-0.3593467 0.73095,-0.4276892 0.0514,-0.012565 0.1058,-0.016483 0.15778,-0.00472"
       id="path25652"
       sodipodi:nodetypes="csssssc"
       inkscape:original-d="m 222.4027,-1.7694644 c 0.43362,-0.428947 0.30289,-0.6019541 0.90678,-0.7290392 0.10504,-0.022101 0.53654,0.059745 0.55575,0.1657511 0.0558,0.3082258 0.19892,0.6314646 0.56325,0.579206 0.50535,-0.072492 0.293,-0.74461 0.7158,-0.9068427 0.52949,-0.2031527 0.95681,0.6703433 0.98478,0.7118413 0.23273,0.3455326 0.7796,-0.478395 1.18504,-0.3874786"
       inkscape:path-effect="#path-effect25654" />
    <path
       style="fill:none;stroke:#dddddd;stroke-width:0.793747;stroke-linecap:butt;stroke-linejoin:miter;stroke-miterlimit:4;stroke-dasharray:none;stroke-opacity:1"
       d="m 227.38753,0.14372047 c -0.37755,0.37766401 -0.82328,0.71592048 -1.34784,0.84712343 -0.0677,0.0169231 -0.2223,0.0943649 -0.1746,-0.0499829 0.0309,-0.0935596 0.0715,-0.1874749 0.0483,-0.29172534 -0.0428,-0.19275322 -0.12074,-0.41870865 -0.31788,-0.4962222 -0.18987,-0.07465547 -0.40111,-3.366e-5 -0.56607,0.10125485 -0.30896,0.18970816 -0.51907,0.50925063 -0.85269,0.66375585 -0.11924,0.0552216 -0.28407,0.0688762 -0.37406,-0.0449922 -0.11888,-0.1504293 -0.0758,-0.36195076 -0.13722,-0.53428527 -0.0377,-0.10576347 -0.17217,-0.11697995 -0.26515,-0.0762377 -0.27158,0.11900361 -0.47382,0.37165015 -0.7665,0.44315485 -0.0514,0.0125649 -0.1058,0.0164829 -0.15778,0.004719"
       id="path25668"
       inkscape:original-d="m 227.38753,0.14372047 c -0.4336,0.428947 -0.8966,0.75719701 -1.50048,0.88428033 -0.10502,0.022103 0.0572,-0.2149824 0.0379,-0.32099221 -0.0558,-0.30822608 -0.19894,-0.63146463 -0.56325,-0.57920413 -0.50535,0.0724916 -0.78181,0.63578396 -1.20462,0.79801455 -0.52946,0.20315259 -0.46799,-0.561517 -0.49593,-0.60301505 -0.23276,-0.34553286 -0.77962,0.47839498 -1.18507,0.38747859"
       inkscape:path-effect="#path-effect25670"
       sodipodi:nodetypes="csssscc" />
    <path
       style="opacity:0.3217;fill:none;stroke:#818181;stroke-width:0.793747;stroke-linecap:butt;stroke-linejoin:miter;stroke-miterlimit:4;stroke-dasharray:none;stroke-opacity:1"
       d="m 227.21031,0.06524691 c -0.37757,0.37765582 -0.82331,0.71589978 -1.34787,0.84712298 -0.0676,0.0169231 -0.22228,0.0943736 -0.17459,-0.0499835 0.0309,-0.0935618 0.0716,-0.18746725 0.0484,-0.29172437 -0.0428,-0.19275577 -0.12075,-0.41871757 -0.31788,-0.49622374 -0.18988,-0.0746553695 -0.40113,-3.796e-5 -0.5661,0.10125459 -0.30896,0.1897052 -0.51906,0.50925058 -0.85268,0.66375551 -0.11924,0.0552212 -0.28408,0.0688808 -0.37406,-0.0449915 -0.11887,-0.15043015 -0.0758,-0.36194871 -0.13723,-0.53428362 -0.0377,-0.1057619 -0.17216,-0.11698113 -0.26514,-0.0762382 -0.27158,0.11900568 -0.47383,0.37164967 -0.76651,0.4431545 -0.0514,0.0125649 -0.1058,0.0164834 -0.15778,0.004719"
       id="path25656"
       inkscape:original-d="m 227.21031,0.06524691 c -0.43363,0.42894673 -0.8966,0.75719489 -1.50051,0.88428035 -0.10501,0.0221007 0.0572,-0.21498242 0.038,-0.32099223 -0.0558,-0.30822582 -0.19894,-0.63146648 -0.56327,-0.57920598 -0.50536,0.07249186 -0.78182,0.63578369 -1.20462,0.79801428 -0.52946,0.20315287 -0.46797,-0.56151489 -0.49594,-0.60301266 -0.23273,-0.34553313 -0.77962,0.47839259 -1.18507,0.38747831"
       inkscape:path-effect="#path-effect25658"
       sodipodi:nodetypes="csssscc" />
  </g>
</svg>
