<?xml version="1.0" encoding="UTF-8" standalone="no"?>
<svg
   xmlns:dc="http://purl.org/dc/elements/1.1/"
   xmlns:cc="http://creativecommons.org/ns#"
   xmlns:rdf="http://www.w3.org/1999/02/22-rdf-syntax-ns#"
   xmlns:svg="http://www.w3.org/2000/svg"
   xmlns="http://www.w3.org/2000/svg"
   xmlns:xlink="http://www.w3.org/1999/xlink"
   xmlns:sodipodi="http://sodipodi.sourceforge.net/DTD/sodipodi-0.dtd"
   xmlns:inkscape="http://www.inkscape.org/namespaces/inkscape"
   width="56.325314"
   height="115.25068"
   viewBox="0 0 14.902741 30.49341"
   version="1.1"
   id="svg92095"
   inkscape:version="1.0.2 (e86c870879, 2021-01-15, custom)"
   sodipodi:docname="mawar.svg"
   inkscape:export-filename="/home/dikawfa/Projects/Godot/Tumpengan-GameBudaya/src/img/env/pohon.png"
   inkscape:export-xdpi="96"
   inkscape:export-ydpi="96">
  <defs
     id="defs92089">
    <linearGradient
       inkscape:collect="always"
       id="linearGradient1903">
      <stop
         style="stop-color:#002a00;stop-opacity:1;"
         offset="0"
         id="stop1899" />
      <stop
         style="stop-color:#004e00;stop-opacity:1"
         offset="1"
         id="stop1901" />
    </linearGradient>
    <linearGradient
       inkscape:collect="always"
       id="linearGradient1813">
      <stop
         style="stop-color:#006400;stop-opacity:1"
         offset="0"
         id="stop1809" />
      <stop
         style="stop-color:#2b4300;stop-opacity:1"
         offset="1"
         id="stop1811" />
    </linearGradient>
    <linearGradient
       inkscape:collect="always"
       xlink:href="#linearGradient1813"
       id="linearGradient1787"
       x1="84.2976"
       y1="147.66312"
       x2="83.853523"
       y2="143.35582"
       gradientUnits="userSpaceOnUse"
       gradientTransform="matrix(1,0,0,1.0867299,0,-12.421965)" />
    <linearGradient
       inkscape:collect="always"
       xlink:href="#linearGradient1813"
       id="linearGradient1806"
       gradientUnits="userSpaceOnUse"
       gradientTransform="matrix(3.7795275,0,0,4.1073255,-158.40116,-358.81181)"
       x1="84.296455"
       y1="144.44244"
       x2="84.239662"
       y2="148.28255" />
    <linearGradient
       inkscape:collect="always"
       xlink:href="#linearGradient1813"
       id="linearGradient1825"
       gradientUnits="userSpaceOnUse"
       gradientTransform="matrix(1,0,0,1.0867299,0,-12.421965)"
       x1="84.2976"
       y1="147.66312"
       x2="83.853523"
       y2="143.35582" />
    <linearGradient
       inkscape:collect="always"
       xlink:href="#linearGradient1813"
       id="linearGradient1827"
       gradientUnits="userSpaceOnUse"
       gradientTransform="matrix(3.7795275,0,0,4.1073255,-158.40116,-358.81181)"
       x1="84.296455"
       y1="144.44244"
       x2="84.239662"
       y2="148.28255" />
    <linearGradient
       inkscape:collect="always"
       xlink:href="#linearGradient1813"
       id="linearGradient1835"
       gradientUnits="userSpaceOnUse"
       gradientTransform="matrix(1,0,0,1.0867299,0,-12.421965)"
       x1="84.2976"
       y1="147.66312"
       x2="83.853523"
       y2="143.35582" />
    <linearGradient
       inkscape:collect="always"
       xlink:href="#linearGradient1813"
       id="linearGradient1837"
       gradientUnits="userSpaceOnUse"
       gradientTransform="matrix(3.7795275,0,0,4.1073255,-158.40116,-358.81181)"
       x1="84.296455"
       y1="144.44244"
       x2="84.239662"
       y2="148.28255" />
    <linearGradient
       inkscape:collect="always"
       xlink:href="#linearGradient1813"
       id="linearGradient1845"
       gradientUnits="userSpaceOnUse"
       gradientTransform="matrix(1,0,0,1.0867299,0,-12.421965)"
       x1="84.2976"
       y1="147.66312"
       x2="83.853523"
       y2="143.35582" />
    <linearGradient
       inkscape:collect="always"
       xlink:href="#linearGradient1813"
       id="linearGradient1847"
       gradientUnits="userSpaceOnUse"
       gradientTransform="matrix(3.7795275,0,0,4.1073255,-158.40116,-358.81181)"
       x1="84.296455"
       y1="144.44244"
       x2="84.239662"
       y2="148.28255" />
    <linearGradient
       inkscape:collect="always"
       xlink:href="#linearGradient1813"
       id="linearGradient1855"
       gradientUnits="userSpaceOnUse"
       gradientTransform="matrix(1,0,0,1.0867299,0,-12.421965)"
       x1="84.2976"
       y1="147.66312"
       x2="83.853523"
       y2="143.35582" />
    <linearGradient
       inkscape:collect="always"
       xlink:href="#linearGradient1813"
       id="linearGradient1857"
       gradientUnits="userSpaceOnUse"
       gradientTransform="matrix(3.7795275,0,0,4.1073255,-158.40116,-358.81181)"
       x1="84.296455"
       y1="144.44244"
       x2="84.239662"
       y2="148.28255" />
    <linearGradient
       inkscape:collect="always"
       xlink:href="#linearGradient1813"
       id="linearGradient1865"
       gradientUnits="userSpaceOnUse"
       gradientTransform="matrix(1,0,0,1.0867299,0,-12.421965)"
       x1="84.2976"
       y1="147.66312"
       x2="83.853523"
       y2="143.35582" />
    <linearGradient
       inkscape:collect="always"
       xlink:href="#linearGradient1813"
       id="linearGradient1867"
       gradientUnits="userSpaceOnUse"
       gradientTransform="matrix(3.7795275,0,0,4.1073255,-158.40116,-358.81181)"
       x1="84.296455"
       y1="144.44244"
       x2="84.239662"
       y2="148.28255" />
    <linearGradient
       inkscape:collect="always"
       xlink:href="#linearGradient1813"
       id="linearGradient1875"
       gradientUnits="userSpaceOnUse"
       gradientTransform="matrix(1,0,0,1.0867299,0,-12.421965)"
       x1="84.2976"
       y1="147.66312"
       x2="83.853523"
       y2="143.35582" />
    <linearGradient
       inkscape:collect="always"
       xlink:href="#linearGradient1813"
       id="linearGradient1877"
       gradientUnits="userSpaceOnUse"
       gradientTransform="matrix(3.7795275,0,0,4.1073255,-158.40116,-358.81181)"
       x1="84.296455"
       y1="144.44244"
       x2="84.239662"
       y2="148.28255" />
    <linearGradient
       inkscape:collect="always"
       xlink:href="#linearGradient1903"
       id="linearGradient1905"
       x1="55.828949"
       y1="158.18796"
       x2="55.496666"
       y2="178.69484"
       gradientUnits="userSpaceOnUse" />
    <linearGradient
       inkscape:collect="always"
       xlink:href="#linearGradient1903"
       id="linearGradient2073"
       gradientUnits="userSpaceOnUse"
       x1="55.828949"
       y1="158.18796"
       x2="55.496666"
       y2="178.69484"
       gradientTransform="matrix(0.34547378,0.34547378,-0.14892409,0.14892409,63.299323,114.73482)" />
    <linearGradient
       inkscape:collect="always"
       xlink:href="#linearGradient1903"
       id="linearGradient2077"
       gradientUnits="userSpaceOnUse"
       x1="55.828949"
       y1="158.18796"
       x2="55.496666"
       y2="178.69484"
       gradientTransform="matrix(0.67103734,-0.28993189,0.10894895,0.25215849,-0.87944103,138.31359)" />
  </defs>
  <sodipodi:namedview
     id="base"
     pagecolor="#ffffff"
     bordercolor="#666666"
     borderopacity="1.0"
     inkscape:pageopacity="0.0"
     inkscape:pageshadow="2"
     inkscape:zoom="5.1482882"
     inkscape:cx="30.579358"
     inkscape:cy="36.000482"
     inkscape:document-units="px"
     inkscape:current-layer="layer1"
     inkscape:document-rotation="0"
     showgrid="false"
     inkscape:window-width="1366"
     inkscape:window-height="720"
     inkscape:window-x="0"
     inkscape:window-y="0"
     inkscape:window-maximized="1"
     inkscape:object-nodes="false"
     units="px"
     objecttolerance="5.1" />
  <metadata
     id="metadata92092">
    <rdf:RDF>
      <cc:Work
         rdf:about="">
        <dc:format>image/svg+xml</dc:format>
        <dc:type
           rdf:resource="http://purl.org/dc/dcmitype/StillImage" />
        <dc:title></dc:title>
      </cc:Work>
    </rdf:RDF>
  </metadata>
  <g
     inkscape:label="Layer 1"
     inkscape:groupmode="layer"
     id="layer1"
     transform="translate(-48.658441,-148.37316)">
    <g
       id="g1873"
       transform="matrix(-0.63916159,0.76907247,0.76907247,0.63916159,-5.6652421,7.3966143)">
      <path
         id="path1869"
         style="opacity:1;fill:url(#linearGradient1875);fill-opacity:1;stroke:#ffe4e1;stroke-width:0;stroke-linecap:round;stroke-miterlimit:1.41;stroke-dasharray:none;paint-order:stroke fill markers"
         d="m 86.583791,146.59969 c 10e-7,1.86329 -2.667195,3.37381 -2.667195,3.37381 0,0 -1.608863,-1.5105 -1.608862,-3.37381 -10e-7,-1.86331 1.608862,-3.37381 1.608862,-3.37381 0,0 2.667196,1.51051 2.667195,3.37381 z"
         sodipodi:nodetypes="scscs" />
      <path
         id="path1871"
         style="opacity:1;fill:url(#linearGradient1877);fill-opacity:1;stroke:#ffe4e1;stroke-width:0;stroke-linecap:round;stroke-miterlimit:1.41;stroke-dasharray:none;paint-order:stroke fill markers"
         d="m 158.67578,230.10352 c 1.18748,8.21335 0.73012,16.31866 -0.36719,24.38281 0.1538,0.15652 0.45508,0.48047 0.45508,0.48047 0,0 0.24187,-0.14289 0.5918,-0.36133 3.4002,-9.22101 -0.3262,-24.57079 -0.67969,-24.50195 z"
         transform="matrix(0.26458334,0,0,0.26458334,41.910308,82.513661)" />
    </g>
    <g
       id="g1833"
       transform="matrix(-0.25113363,-0.33181308,0.32488868,-0.2676823,30.951267,232.61587)"
       style="stroke-width:2.39028">
      <path
         id="path1829"
         style="opacity:1;fill:url(#linearGradient1835);fill-opacity:1;stroke:#ffe4e1;stroke-width:0;stroke-linecap:round;stroke-miterlimit:1.41;stroke-dasharray:none;paint-order:stroke fill markers"
         d="m 86.583791,146.59969 c 10e-7,1.86329 -2.667195,3.37381 -2.667195,3.37381 0,0 -1.608863,-1.5105 -1.608862,-3.37381 -10e-7,-1.86331 1.608862,-3.37381 1.608862,-3.37381 0,0 2.667196,1.51051 2.667195,3.37381 z"
         sodipodi:nodetypes="scscs" />
      <path
         id="path1831"
         style="opacity:1;fill:url(#linearGradient1837);fill-opacity:1;stroke:#ffe4e1;stroke-width:0;stroke-linecap:round;stroke-miterlimit:1.41;stroke-dasharray:none;paint-order:stroke fill markers"
         d="m 158.67578,230.10352 c 1.18748,8.21335 0.73012,16.31866 -0.36719,24.38281 0.1538,0.15652 0.45508,0.48047 0.45508,0.48047 0,0 0.24187,-0.14289 0.5918,-0.36133 3.4002,-9.22101 -0.3262,-24.57079 -0.67969,-24.50195 z"
         transform="matrix(0.26458334,0,0,0.26458334,41.910308,82.513661)" />
    </g>
    <path
       id="path2071"
       style="opacity:1;fill:url(#linearGradient2073);fill-opacity:1;stroke:#ffe4e1;stroke-width:0;stroke-linecap:round;stroke-miterlimit:1.41;stroke-dasharray:none;paint-order:stroke fill markers"
       d="m 59.626094,157.05753 0.149883,0.14988 -3.456758,3.82238 -0.114393,-0.96251 z"
       sodipodi:nodetypes="ccccc" />
    <g
       id="g1817"
       transform="translate(-27.729066,6.4345144)">
      <path
         id="path1779"
         style="opacity:1;fill:url(#linearGradient1787);fill-opacity:1;stroke:#ffe4e1;stroke-width:0;stroke-linecap:round;stroke-miterlimit:1.41;stroke-dasharray:none;paint-order:stroke fill markers"
         d="m 86.583791,146.59969 c 10e-7,1.86329 -2.667195,3.37381 -2.667195,3.37381 0,0 -1.608863,-1.5105 -1.608862,-3.37381 -10e-7,-1.86331 1.608862,-3.37381 1.608862,-3.37381 0,0 2.667196,1.51051 2.667195,3.37381 z"
         sodipodi:nodetypes="scscs" />
      <path
         id="path1801"
         style="opacity:1;fill:url(#linearGradient1806);fill-opacity:1;stroke:#ffe4e1;stroke-width:0;stroke-linecap:round;stroke-miterlimit:1.41;stroke-dasharray:none;paint-order:stroke fill markers"
         d="m 158.67578,230.10352 c 1.18748,8.21335 0.73012,16.31866 -0.36719,24.38281 0.1538,0.15652 0.45508,0.48047 0.45508,0.48047 0,0 0.24187,-0.14289 0.5918,-0.36133 3.4002,-9.22101 -0.3262,-24.57079 -0.67969,-24.50195 z"
         transform="matrix(0.26458334,0,0,0.26458334,41.910308,82.513661)" />
    </g>
    <path
       id="path2075"
       style="opacity:1;fill:url(#linearGradient2077);fill-opacity:1;stroke:#ffe4e1;stroke-width:0;stroke-linecap:round;stroke-miterlimit:1.41;stroke-dasharray:none;paint-order:stroke fill markers"
       d="m 53.481015,161.03585 0.29114,-0.12571 2.169092,4.7245 -0.152696,1.71725 z"
       sodipodi:nodetypes="ccccc" />
    <path
       id="rect1897"
       style="opacity:1;fill:url(#linearGradient1905);fill-opacity:1;stroke:#ffe4e1;stroke-width:0;stroke-linecap:round;stroke-miterlimit:1.41;stroke-dasharray:none;paint-order:stroke fill markers"
       d="m 55.936924,154.42746 h 0.433847 l 0.529167,24.43911 h -1.492181 z"
       sodipodi:nodetypes="ccccc" />
    <g
       id="g1863"
       transform="matrix(-0.4798018,-0.37220033,-0.37220033,0.47980181,152.60632,114.91014)"
       style="stroke-width:1.64679">
      <path
         id="path1859"
         style="opacity:1;fill:url(#linearGradient1865);fill-opacity:1;stroke:#ffe4e1;stroke-width:0;stroke-linecap:round;stroke-miterlimit:1.41;stroke-dasharray:none;paint-order:stroke fill markers"
         d="m 86.583791,146.59969 c 10e-7,1.86329 -2.667195,3.37381 -2.667195,3.37381 0,0 -1.608863,-1.5105 -1.608862,-3.37381 -10e-7,-1.86331 1.608862,-3.37381 1.608862,-3.37381 0,0 2.667196,1.51051 2.667195,3.37381 z"
         sodipodi:nodetypes="scscs" />
      <path
         id="path1861"
         style="opacity:1;fill:url(#linearGradient1867);fill-opacity:1;stroke:#ffe4e1;stroke-width:0;stroke-linecap:round;stroke-miterlimit:1.41;stroke-dasharray:none;paint-order:stroke fill markers"
         d="m 158.67578,230.10352 c 1.18748,8.21335 0.73012,16.31866 -0.36719,24.38281 0.1538,0.15652 0.45508,0.48047 0.45508,0.48047 0,0 0.24187,-0.14289 0.5918,-0.36133 3.4002,-9.22101 -0.3262,-24.57079 -0.67969,-24.50195 z"
         transform="matrix(0.26458334,0,0,0.26458334,41.910308,82.513661)" />
    </g>
    <g
       id="g1843"
       transform="matrix(0.79655187,-0.6045702,-0.6045702,-0.79655187,87.70585,328.38017)">
      <g
         id="g2081"
         transform="matrix(-0.63073061,-0.16900375,0.16900376,-0.63073061,104.62418,262.37382)"
         style="stroke-width:1.53144">
        <path
           id="path1839"
           style="opacity:1;fill:url(#linearGradient1845);fill-opacity:1;stroke:#ffe4e1;stroke-width:0;stroke-linecap:round;stroke-miterlimit:1.41;stroke-dasharray:none;paint-order:stroke fill markers"
           d="m 86.583791,146.59969 c 10e-7,1.86329 -2.667195,3.37381 -2.667195,3.37381 0,0 -1.608863,-1.5105 -1.608862,-3.37381 -10e-7,-1.86331 1.608862,-3.37381 1.608862,-3.37381 0,0 2.667196,1.51051 2.667195,3.37381 z"
           sodipodi:nodetypes="scscs" />
        <path
           id="path1841"
           style="opacity:1;fill:url(#linearGradient1847);fill-opacity:1;stroke:#ffe4e1;stroke-width:0;stroke-linecap:round;stroke-miterlimit:1.41;stroke-dasharray:none;paint-order:stroke fill markers"
           d="m 158.67578,230.10352 c 1.18748,8.21335 0.73012,16.31866 -0.36719,24.38281 0.1538,0.15652 0.45508,0.48047 0.45508,0.48047 0,0 0.24187,-0.14289 0.5918,-0.36133 3.4002,-9.22101 -0.3262,-24.57079 -0.67969,-24.50195 z"
           transform="matrix(0.26458334,0,0,0.26458334,41.910308,82.513661)" />
      </g>
    </g>
    <g
       id="g1853"
       transform="matrix(-0.35751766,-0.53504827,-0.53504826,0.35751766,164.95266,155.1803)"
       style="stroke-width:1.554"
       inkscape:transform-center-x="-1.4149314"
       inkscape:transform-center-y="-1.170652">
      <path
         id="path1849"
         style="opacity:1;fill:url(#linearGradient1855);fill-opacity:1;stroke:#ffe4e1;stroke-width:0;stroke-linecap:round;stroke-miterlimit:1.41;stroke-dasharray:none;paint-order:stroke fill markers"
         d="m 86.583791,146.59969 c 10e-7,1.86329 -2.667195,3.37381 -2.667195,3.37381 0,0 -1.608863,-1.5105 -1.608862,-3.37381 -10e-7,-1.86331 1.608862,-3.37381 1.608862,-3.37381 0,0 2.667196,1.51051 2.667195,3.37381 z"
         sodipodi:nodetypes="scscs" />
      <path
         id="path1851"
         style="opacity:1;fill:url(#linearGradient1857);fill-opacity:1;stroke:#ffe4e1;stroke-width:0;stroke-linecap:round;stroke-miterlimit:1.41;stroke-dasharray:none;paint-order:stroke fill markers"
         d="m 158.67578,230.10352 c 1.18748,8.21335 0.73012,16.31866 -0.36719,24.38281 0.1538,0.15652 0.45508,0.48047 0.45508,0.48047 0,0 0.24187,-0.14289 0.5918,-0.36133 3.4002,-9.22101 -0.3262,-24.57079 -0.67969,-24.50195 z"
         transform="matrix(0.26458334,0,0,0.26458334,41.910308,82.513661)" />
    </g>
    <g
       id="g1823"
       transform="rotate(37.19792,39.021073,119.60346)">
      <path
         id="path1819"
         style="opacity:1;fill:url(#linearGradient1825);fill-opacity:1;stroke:#ffe4e1;stroke-width:0;stroke-linecap:round;stroke-miterlimit:1.41;stroke-dasharray:none;paint-order:stroke fill markers"
         d="m 86.583791,146.59969 c 10e-7,1.86329 -2.667195,3.37381 -2.667195,3.37381 0,0 -1.608863,-1.5105 -1.608862,-3.37381 -10e-7,-1.86331 1.608862,-3.37381 1.608862,-3.37381 0,0 2.667196,1.51051 2.667195,3.37381 z"
         sodipodi:nodetypes="scscs" />
      <path
         id="path1821"
         style="opacity:1;fill:url(#linearGradient1827);fill-opacity:1;stroke:#ffe4e1;stroke-width:0;stroke-linecap:round;stroke-miterlimit:1.41;stroke-dasharray:none;paint-order:stroke fill markers"
         d="m 158.67578,230.10352 c 1.18748,8.21335 0.73012,16.31866 -0.36719,24.38281 0.1538,0.15652 0.45508,0.48047 0.45508,0.48047 0,0 0.24187,-0.14289 0.5918,-0.36133 3.4002,-9.22101 -0.3262,-24.57079 -0.67969,-24.50195 z"
         transform="matrix(0.26458334,0,0,0.26458334,41.910308,82.513661)" />
    </g>
  </g>
</svg>
