<?xml version="1.0" encoding="UTF-8" standalone="no"?>
<svg
   xmlns:dc="http://purl.org/dc/elements/1.1/"
   xmlns:cc="http://creativecommons.org/ns#"
   xmlns:rdf="http://www.w3.org/1999/02/22-rdf-syntax-ns#"
   xmlns:svg="http://www.w3.org/2000/svg"
   xmlns="http://www.w3.org/2000/svg"
   xmlns:xlink="http://www.w3.org/1999/xlink"
   xmlns:sodipodi="http://sodipodi.sourceforge.net/DTD/sodipodi-0.dtd"
   xmlns:inkscape="http://www.inkscape.org/namespaces/inkscape"
   width="106.28836"
   height="110.47683"
   viewBox="0 0 28.122131 29.230327"
   version="1.1"
   id="svg92095"
   inkscape:version="1.0.2 (e86c870879, 2021-01-15, custom)"
   sodipodi:docname="melati.svg"
   inkscape:export-filename="/home/dikawfa/Projects/Godot/Tumpengan-GameBudaya/src/img/env/pohon.png"
   inkscape:export-xdpi="96"
   inkscape:export-ydpi="96">
  <defs
     id="defs92089">
    <linearGradient
       inkscape:collect="always"
       id="linearGradient1813">
      <stop
         style="stop-color:#006400;stop-opacity:1"
         offset="0"
         id="stop1809" />
      <stop
         style="stop-color:#2b4300;stop-opacity:1"
         offset="1"
         id="stop1811" />
    </linearGradient>
    <linearGradient
       inkscape:collect="always"
       id="linearGradient984">
      <stop
         style="stop-color:#000000;stop-opacity:1"
         offset="0"
         id="stop980" />
      <stop
         style="stop-color:#525252;stop-opacity:1"
         offset="1"
         id="stop982" />
    </linearGradient>
    <linearGradient
       inkscape:collect="always"
       id="linearGradient930">
      <stop
         style="stop-color:#fffafa;stop-opacity:1"
         offset="0"
         id="stop926" />
      <stop
         style="stop-color:#ffe4e1;stop-opacity:1"
         offset="1"
         id="stop928" />
    </linearGradient>
    <linearGradient
       inkscape:collect="always"
       id="linearGradient882">
      <stop
         style="stop-color:#003f00;stop-opacity:1"
         offset="0"
         id="stop878" />
      <stop
         style="stop-color:#364736;stop-opacity:1"
         offset="1"
         id="stop880" />
    </linearGradient>
    <linearGradient
       inkscape:collect="always"
       xlink:href="#linearGradient882"
       id="linearGradient884"
       x1="65.710541"
       y1="101.12225"
       x2="64.963104"
       y2="119.272"
       gradientUnits="userSpaceOnUse"
       gradientTransform="matrix(1.397094,0,0,0.99205111,-37.317167,53.487874)" />
    <linearGradient
       inkscape:collect="always"
       xlink:href="#linearGradient930"
       id="linearGradient932"
       x1="70.679321"
       y1="139.9498"
       x2="74.367378"
       y2="145.2596"
       gradientUnits="userSpaceOnUse"
       gradientTransform="rotate(41.828909,74.399722,145.54102)" />
    <linearGradient
       inkscape:collect="always"
       xlink:href="#linearGradient930"
       id="linearGradient940"
       x1="74.367378"
       y1="145.2596"
       x2="70.679321"
       y2="139.9498"
       gradientUnits="userSpaceOnUse"
       gradientTransform="rotate(41.828909,74.399722,145.54102)" />
    <linearGradient
       inkscape:collect="always"
       xlink:href="#linearGradient930"
       id="linearGradient944"
       gradientUnits="userSpaceOnUse"
       x1="70.679321"
       y1="139.9498"
       x2="74.367378"
       y2="145.2596"
       gradientTransform="rotate(75,74.399722,145.54102)" />
    <linearGradient
       inkscape:collect="always"
       xlink:href="#linearGradient930"
       id="linearGradient946"
       gradientUnits="userSpaceOnUse"
       x1="74.367378"
       y1="145.2596"
       x2="70.679321"
       y2="139.9498"
       gradientTransform="rotate(75,74.399722,145.54102)" />
    <linearGradient
       inkscape:collect="always"
       xlink:href="#linearGradient930"
       id="linearGradient950"
       gradientUnits="userSpaceOnUse"
       gradientTransform="rotate(168.26789,74.399722,145.54102)"
       x1="70.679321"
       y1="139.9498"
       x2="74.367378"
       y2="145.2596" />
    <linearGradient
       inkscape:collect="always"
       xlink:href="#linearGradient930"
       id="linearGradient952"
       gradientUnits="userSpaceOnUse"
       gradientTransform="rotate(168.26789,74.399722,145.54102)"
       x1="74.367378"
       y1="145.2596"
       x2="70.679321"
       y2="139.9498" />
    <linearGradient
       inkscape:collect="always"
       xlink:href="#linearGradient930"
       id="linearGradient956"
       gradientUnits="userSpaceOnUse"
       gradientTransform="rotate(-75.948799,74.399722,145.54102)"
       x1="70.679321"
       y1="139.9498"
       x2="74.367378"
       y2="145.2596" />
    <linearGradient
       inkscape:collect="always"
       xlink:href="#linearGradient930"
       id="linearGradient958"
       gradientUnits="userSpaceOnUse"
       gradientTransform="rotate(-75.948799,74.399722,145.54102)"
       x1="74.367378"
       y1="145.2596"
       x2="70.679321"
       y2="139.9498" />
    <linearGradient
       inkscape:collect="always"
       xlink:href="#linearGradient930"
       id="linearGradient962"
       gradientUnits="userSpaceOnUse"
       gradientTransform="rotate(-132.80555,74.399722,145.54102)"
       x1="70.679321"
       y1="139.9498"
       x2="74.367378"
       y2="145.2596" />
    <linearGradient
       inkscape:collect="always"
       xlink:href="#linearGradient930"
       id="linearGradient964"
       gradientUnits="userSpaceOnUse"
       gradientTransform="rotate(-132.80555,74.399722,145.54102)"
       x1="74.367378"
       y1="145.2596"
       x2="70.679321"
       y2="139.9498" />
    <linearGradient
       inkscape:collect="always"
       xlink:href="#linearGradient930"
       id="linearGradient968"
       gradientUnits="userSpaceOnUse"
       gradientTransform="rotate(-18.416799,74.399722,145.54102)"
       x1="70.679321"
       y1="139.9498"
       x2="74.367378"
       y2="145.2596" />
    <linearGradient
       inkscape:collect="always"
       xlink:href="#linearGradient930"
       id="linearGradient970"
       gradientUnits="userSpaceOnUse"
       gradientTransform="rotate(-18.416799,74.399722,145.54102)"
       x1="74.367378"
       y1="145.2596"
       x2="70.679321"
       y2="139.9498" />
    <linearGradient
       inkscape:collect="always"
       xlink:href="#linearGradient930"
       id="linearGradient974"
       gradientUnits="userSpaceOnUse"
       gradientTransform="rotate(119.84679,74.399722,145.54102)"
       x1="70.679321"
       y1="139.9498"
       x2="74.367378"
       y2="145.2596" />
    <linearGradient
       inkscape:collect="always"
       xlink:href="#linearGradient930"
       id="linearGradient976"
       gradientUnits="userSpaceOnUse"
       gradientTransform="rotate(119.84679,74.399722,145.54102)"
       x1="74.367378"
       y1="145.2596"
       x2="70.679321"
       y2="139.9498" />
    <radialGradient
       inkscape:collect="always"
       xlink:href="#linearGradient984"
       id="radialGradient986"
       cx="73.925278"
       cy="145.10329"
       fx="73.925278"
       fy="145.10329"
       r="1.1329646"
       gradientTransform="matrix(0.58154665,0,0,0.58382935,31.638457,60.944046)"
       gradientUnits="userSpaceOnUse" />
    <linearGradient
       inkscape:collect="always"
       xlink:href="#linearGradient930"
       id="linearGradient1749"
       gradientUnits="userSpaceOnUse"
       gradientTransform="rotate(-18.416799,74.399722,145.54102)"
       x1="70.679321"
       y1="139.9498"
       x2="74.367378"
       y2="145.2596" />
    <linearGradient
       inkscape:collect="always"
       xlink:href="#linearGradient930"
       id="linearGradient1751"
       gradientUnits="userSpaceOnUse"
       gradientTransform="rotate(-18.416799,74.399722,145.54102)"
       x1="74.367378"
       y1="145.2596"
       x2="70.679321"
       y2="139.9498" />
    <linearGradient
       inkscape:collect="always"
       xlink:href="#linearGradient930"
       id="linearGradient1753"
       gradientUnits="userSpaceOnUse"
       gradientTransform="rotate(41.828909,74.399722,145.54102)"
       x1="70.679321"
       y1="139.9498"
       x2="74.367378"
       y2="145.2596" />
    <linearGradient
       inkscape:collect="always"
       xlink:href="#linearGradient930"
       id="linearGradient1755"
       gradientUnits="userSpaceOnUse"
       gradientTransform="rotate(41.828909,74.399722,145.54102)"
       x1="74.367378"
       y1="145.2596"
       x2="70.679321"
       y2="139.9498" />
    <linearGradient
       inkscape:collect="always"
       xlink:href="#linearGradient930"
       id="linearGradient1757"
       gradientUnits="userSpaceOnUse"
       gradientTransform="rotate(75,74.399722,145.54102)"
       x1="70.679321"
       y1="139.9498"
       x2="74.367378"
       y2="145.2596" />
    <linearGradient
       inkscape:collect="always"
       xlink:href="#linearGradient930"
       id="linearGradient1759"
       gradientUnits="userSpaceOnUse"
       gradientTransform="rotate(75,74.399722,145.54102)"
       x1="74.367378"
       y1="145.2596"
       x2="70.679321"
       y2="139.9498" />
    <linearGradient
       inkscape:collect="always"
       xlink:href="#linearGradient930"
       id="linearGradient1761"
       gradientUnits="userSpaceOnUse"
       gradientTransform="rotate(119.84679,74.399722,145.54102)"
       x1="70.679321"
       y1="139.9498"
       x2="74.367378"
       y2="145.2596" />
    <linearGradient
       inkscape:collect="always"
       xlink:href="#linearGradient930"
       id="linearGradient1763"
       gradientUnits="userSpaceOnUse"
       gradientTransform="rotate(119.84679,74.399722,145.54102)"
       x1="74.367378"
       y1="145.2596"
       x2="70.679321"
       y2="139.9498" />
    <linearGradient
       inkscape:collect="always"
       xlink:href="#linearGradient930"
       id="linearGradient1765"
       gradientUnits="userSpaceOnUse"
       gradientTransform="rotate(168.26789,74.399722,145.54102)"
       x1="70.679321"
       y1="139.9498"
       x2="74.367378"
       y2="145.2596" />
    <linearGradient
       inkscape:collect="always"
       xlink:href="#linearGradient930"
       id="linearGradient1767"
       gradientUnits="userSpaceOnUse"
       gradientTransform="rotate(168.26789,74.399722,145.54102)"
       x1="74.367378"
       y1="145.2596"
       x2="70.679321"
       y2="139.9498" />
    <radialGradient
       inkscape:collect="always"
       xlink:href="#linearGradient984"
       id="radialGradient1769"
       gradientUnits="userSpaceOnUse"
       gradientTransform="matrix(0.58154665,0,0,0.58382935,31.638457,60.944046)"
       cx="73.925278"
       cy="145.10329"
       fx="73.925278"
       fy="145.10329"
       r="1.1329646" />
    <linearGradient
       inkscape:collect="always"
       xlink:href="#linearGradient930"
       id="linearGradient1771"
       gradientUnits="userSpaceOnUse"
       gradientTransform="rotate(-132.80555,74.399722,145.54102)"
       x1="70.679321"
       y1="139.9498"
       x2="74.367378"
       y2="145.2596" />
    <linearGradient
       inkscape:collect="always"
       xlink:href="#linearGradient930"
       id="linearGradient1773"
       gradientUnits="userSpaceOnUse"
       gradientTransform="rotate(-132.80555,74.399722,145.54102)"
       x1="74.367378"
       y1="145.2596"
       x2="70.679321"
       y2="139.9498" />
    <linearGradient
       inkscape:collect="always"
       xlink:href="#linearGradient930"
       id="linearGradient1775"
       gradientUnits="userSpaceOnUse"
       gradientTransform="rotate(-75.948799,74.399722,145.54102)"
       x1="70.679321"
       y1="139.9498"
       x2="74.367378"
       y2="145.2596" />
    <linearGradient
       inkscape:collect="always"
       xlink:href="#linearGradient930"
       id="linearGradient1777"
       gradientUnits="userSpaceOnUse"
       gradientTransform="rotate(-75.948799,74.399722,145.54102)"
       x1="74.367378"
       y1="145.2596"
       x2="70.679321"
       y2="139.9498" />
    <linearGradient
       inkscape:collect="always"
       xlink:href="#linearGradient1813"
       id="linearGradient1787"
       x1="84.2976"
       y1="147.66312"
       x2="83.853523"
       y2="143.35582"
       gradientUnits="userSpaceOnUse"
       gradientTransform="matrix(1,0,0,1.0867299,0,-12.421965)" />
    <linearGradient
       inkscape:collect="always"
       xlink:href="#linearGradient1813"
       id="linearGradient1806"
       gradientUnits="userSpaceOnUse"
       gradientTransform="matrix(3.7795275,0,0,4.1073255,-158.40116,-358.81181)"
       x1="84.296455"
       y1="144.44244"
       x2="84.239662"
       y2="148.28255" />
    <linearGradient
       inkscape:collect="always"
       xlink:href="#linearGradient1813"
       id="linearGradient1825"
       gradientUnits="userSpaceOnUse"
       gradientTransform="matrix(1,0,0,1.0867299,0,-12.421965)"
       x1="84.2976"
       y1="147.66312"
       x2="83.853523"
       y2="143.35582" />
    <linearGradient
       inkscape:collect="always"
       xlink:href="#linearGradient1813"
       id="linearGradient1827"
       gradientUnits="userSpaceOnUse"
       gradientTransform="matrix(3.7795275,0,0,4.1073255,-158.40116,-358.81181)"
       x1="84.296455"
       y1="144.44244"
       x2="84.239662"
       y2="148.28255" />
    <linearGradient
       inkscape:collect="always"
       xlink:href="#linearGradient1813"
       id="linearGradient1835"
       gradientUnits="userSpaceOnUse"
       gradientTransform="matrix(1,0,0,1.0867299,0,-12.421965)"
       x1="84.2976"
       y1="147.66312"
       x2="83.853523"
       y2="143.35582" />
    <linearGradient
       inkscape:collect="always"
       xlink:href="#linearGradient1813"
       id="linearGradient1837"
       gradientUnits="userSpaceOnUse"
       gradientTransform="matrix(3.7795275,0,0,4.1073255,-158.40116,-358.81181)"
       x1="84.296455"
       y1="144.44244"
       x2="84.239662"
       y2="148.28255" />
    <linearGradient
       inkscape:collect="always"
       xlink:href="#linearGradient1813"
       id="linearGradient1845"
       gradientUnits="userSpaceOnUse"
       gradientTransform="matrix(1,0,0,1.0867299,0,-12.421965)"
       x1="84.2976"
       y1="147.66312"
       x2="83.853523"
       y2="143.35582" />
    <linearGradient
       inkscape:collect="always"
       xlink:href="#linearGradient1813"
       id="linearGradient1847"
       gradientUnits="userSpaceOnUse"
       gradientTransform="matrix(3.7795275,0,0,4.1073255,-158.40116,-358.81181)"
       x1="84.296455"
       y1="144.44244"
       x2="84.239662"
       y2="148.28255" />
    <linearGradient
       inkscape:collect="always"
       xlink:href="#linearGradient1813"
       id="linearGradient1855"
       gradientUnits="userSpaceOnUse"
       gradientTransform="matrix(1,0,0,1.0867299,0,-12.421965)"
       x1="84.2976"
       y1="147.66312"
       x2="83.853523"
       y2="143.35582" />
    <linearGradient
       inkscape:collect="always"
       xlink:href="#linearGradient1813"
       id="linearGradient1857"
       gradientUnits="userSpaceOnUse"
       gradientTransform="matrix(3.7795275,0,0,4.1073255,-158.40116,-358.81181)"
       x1="84.296455"
       y1="144.44244"
       x2="84.239662"
       y2="148.28255" />
    <linearGradient
       inkscape:collect="always"
       xlink:href="#linearGradient1813"
       id="linearGradient1865"
       gradientUnits="userSpaceOnUse"
       gradientTransform="matrix(1,0,0,1.0867299,0,-12.421965)"
       x1="84.2976"
       y1="147.66312"
       x2="83.853523"
       y2="143.35582" />
    <linearGradient
       inkscape:collect="always"
       xlink:href="#linearGradient1813"
       id="linearGradient1867"
       gradientUnits="userSpaceOnUse"
       gradientTransform="matrix(3.7795275,0,0,4.1073255,-158.40116,-358.81181)"
       x1="84.296455"
       y1="144.44244"
       x2="84.239662"
       y2="148.28255" />
    <linearGradient
       inkscape:collect="always"
       xlink:href="#linearGradient1813"
       id="linearGradient1875"
       gradientUnits="userSpaceOnUse"
       gradientTransform="matrix(1,0,0,1.0867299,0,-12.421965)"
       x1="84.2976"
       y1="147.66312"
       x2="83.853523"
       y2="143.35582" />
    <linearGradient
       inkscape:collect="always"
       xlink:href="#linearGradient1813"
       id="linearGradient1877"
       gradientUnits="userSpaceOnUse"
       gradientTransform="matrix(3.7795275,0,0,4.1073255,-158.40116,-358.81181)"
       x1="84.296455"
       y1="144.44244"
       x2="84.239662"
       y2="148.28255" />
  </defs>
  <sodipodi:namedview
     id="base"
     pagecolor="#ffffff"
     bordercolor="#666666"
     borderopacity="1.0"
     inkscape:pageopacity="0.0"
     inkscape:pageshadow="2"
     inkscape:zoom="1.4701203"
     inkscape:cx="153.71299"
     inkscape:cy="-14.585692"
     inkscape:document-units="px"
     inkscape:current-layer="layer1"
     inkscape:document-rotation="0"
     showgrid="false"
     inkscape:window-width="1366"
     inkscape:window-height="720"
     inkscape:window-x="0"
     inkscape:window-y="0"
     inkscape:window-maximized="1"
     inkscape:object-nodes="false"
     units="px"
     objecttolerance="5.1" />
  <metadata
     id="metadata92092">
    <rdf:RDF>
      <cc:Work
         rdf:about="">
        <dc:format>image/svg+xml</dc:format>
        <dc:type
           rdf:resource="http://purl.org/dc/dcmitype/StillImage" />
        <dc:title />
      </cc:Work>
    </rdf:RDF>
  </metadata>
  <g
     inkscape:label="Layer 1"
     inkscape:groupmode="layer"
     id="layer1"
     transform="translate(-42.94895,-150.18956)">
    <g
       id="g1873"
       transform="matrix(0.76907247,0.63916159,0.63916159,-0.76907247,-107.27761,221.88457)">
      <path
         id="path1869"
         style="opacity:1;fill:url(#linearGradient1875);fill-opacity:1;stroke:#ffe4e1;stroke-width:0;stroke-linecap:round;stroke-miterlimit:1.41;stroke-dasharray:none;paint-order:stroke fill markers"
         d="m 86.583791,146.59969 c 10e-7,1.86329 -2.667195,3.37381 -2.667195,3.37381 0,0 -1.608863,-1.5105 -1.608862,-3.37381 -10e-7,-1.86331 1.608862,-3.37381 1.608862,-3.37381 0,0 2.667196,1.51051 2.667195,3.37381 z"
         sodipodi:nodetypes="scscs" />
      <path
         id="path1871"
         style="opacity:1;fill:url(#linearGradient1877);fill-opacity:1;stroke:#ffe4e1;stroke-width:0;stroke-linecap:round;stroke-miterlimit:1.41;stroke-dasharray:none;paint-order:stroke fill markers"
         d="m 158.67578,230.10352 c 1.18748,8.21335 0.73012,16.31866 -0.36719,24.38281 0.1538,0.15652 0.45508,0.48047 0.45508,0.48047 0,0 0.24187,-0.14289 0.5918,-0.36133 3.4002,-9.22101 -0.3262,-24.57079 -0.67969,-24.50195 z"
         transform="matrix(0.26458334,0,0,0.26458334,41.910308,82.513661)" />
    </g>
    <path
       style="fill:url(#linearGradient884);fill-opacity:1;stroke:none;stroke-width:0.122054;stroke-linecap:butt;stroke-linejoin:miter;stroke-miterlimit:4;stroke-dasharray:none;stroke-opacity:1"
       d="m 49.55454,179.09227 c 0.853984,-0.14259 1.975358,-0.51914 1.975358,-0.51914 0,0 -0.307842,0.1958 -0.917271,0.84676 0.900982,-0.32356 1.368247,-0.67645 1.836406,-0.69081 0.683955,-0.021 0.972902,0.54842 1.94304,0.55289 -2.955398,-2.47703 -0.830551,-14.01961 -0.01175,-14.7807 -0.456758,-1.37564 3.312432,-3.98977 7.190705,-4.06501 l 3.577766,1.29138 0.04581,-0.57725 -3.075783,-0.96258 c 1.438365,-0.31578 2.87673,-0.63154 4.31509,-0.94733 -0.36869,-0.22618 -0.73736,0.0768 -1.10605,-0.14937 -1.432072,0.43566 -2.818683,0.42696 -4.29624,0.7778 -1.615908,0.3837 -3.303724,0.59324 -4.955585,0.88985 0.82206,-0.71004 1.323882,-1.69771 2.466181,-2.13012 1.009512,-0.38215 2.286032,-0.0675 3.429046,-0.10135 -0.07647,-0.28502 -0.682108,-0.0409 -0.758583,-0.32589 -0.942397,0.0806 -1.355631,-0.3681 -2.298028,-0.28756 0.234242,-0.27978 0.468479,-0.55957 0.702721,-0.83935 -0.227401,-0.0331 -0.454811,-0.066 -0.682211,-0.099 -0.465056,0.58443 -0.849956,1.20491 -1.395173,1.7533 -0.667376,0.67124 -1.485095,1.26035 -2.227643,1.89053 0,0 -1.125094,-1.92373 -0.695742,-2.83228 0.515344,-1.09052 3.553874,-2.35375 3.553874,-2.35375 l -0.461974,-0.38032 -3.315841,1.98303 c -0.642436,-0.48852 -0.171829,3.00829 -0.04942,5.22861 -0.872511,-0.99457 -0.510019,-7.0431 -6.381722,-7.32341 -0.341463,-0.003 -0.524614,0.63677 -0.200618,0.71339 l 2.941357,0.69559 c 2.176087,2.2516 2.311385,4.12882 2.380004,4.66612 -1.545327,-1.31403 -2.719871,-2.55377 -4.980529,-2.47709 -1.667613,-1.11 -4.402853,-1.26862 -2.892438,-0.48951 -1.559161,0.859 -0.16646,1.26209 0.611793,0.59704 l 5.076867,1.27823 -4.662357,0.5724 c 0.198169,0.24762 0.396339,-0.0339 0.594509,0.21367 1.444544,-0.21869 2.892021,-0.35514 4.333633,-0.1269 1.477637,0.88289 1.88183,1.6584 2.369146,3.31769 -3.213241,10.90546 0.774356,12.82017 -3.978341,15.19044 z"
       id="path876"
       sodipodi:nodetypes="cccsccccccccscscccccscscccccscccccccccccc" />
    <g
       id="g1833"
       transform="matrix(0.79655187,-0.6045702,-0.6045702,-0.79655187,86.179941,330.51763)">
      <path
         id="path1829"
         style="opacity:1;fill:url(#linearGradient1835);fill-opacity:1;stroke:#ffe4e1;stroke-width:0;stroke-linecap:round;stroke-miterlimit:1.41;stroke-dasharray:none;paint-order:stroke fill markers"
         d="m 86.583791,146.59969 c 10e-7,1.86329 -2.667195,3.37381 -2.667195,3.37381 0,0 -1.608863,-1.5105 -1.608862,-3.37381 -10e-7,-1.86331 1.608862,-3.37381 1.608862,-3.37381 0,0 2.667196,1.51051 2.667195,3.37381 z"
         sodipodi:nodetypes="scscs" />
      <path
         id="path1831"
         style="opacity:1;fill:url(#linearGradient1837);fill-opacity:1;stroke:#ffe4e1;stroke-width:0;stroke-linecap:round;stroke-miterlimit:1.41;stroke-dasharray:none;paint-order:stroke fill markers"
         d="m 158.67578,230.10352 c 1.18748,8.21335 0.73012,16.31866 -0.36719,24.38281 0.1538,0.15652 0.45508,0.48047 0.45508,0.48047 0,0 0.24187,-0.14289 0.5918,-0.36133 3.4002,-9.22101 -0.3262,-24.57079 -0.67969,-24.50195 z"
         transform="matrix(0.26458334,0,0,0.26458334,41.910308,82.513661)" />
    </g>
    <g
       id="g1843"
       transform="rotate(-142.80208,67.642373,160.32698)">
      <path
         id="path1839"
         style="opacity:1;fill:url(#linearGradient1845);fill-opacity:1;stroke:#ffe4e1;stroke-width:0;stroke-linecap:round;stroke-miterlimit:1.41;stroke-dasharray:none;paint-order:stroke fill markers"
         d="m 86.583791,146.59969 c 10e-7,1.86329 -2.667195,3.37381 -2.667195,3.37381 0,0 -1.608863,-1.5105 -1.608862,-3.37381 -10e-7,-1.86331 1.608862,-3.37381 1.608862,-3.37381 0,0 2.667196,1.51051 2.667195,3.37381 z"
         sodipodi:nodetypes="scscs" />
      <path
         id="path1841"
         style="opacity:1;fill:url(#linearGradient1847);fill-opacity:1;stroke:#ffe4e1;stroke-width:0;stroke-linecap:round;stroke-miterlimit:1.41;stroke-dasharray:none;paint-order:stroke fill markers"
         d="m 158.67578,230.10352 c 1.18748,8.21335 0.73012,16.31866 -0.36719,24.38281 0.1538,0.15652 0.45508,0.48047 0.45508,0.48047 0,0 0.24187,-0.14289 0.5918,-0.36133 3.4002,-9.22101 -0.3262,-24.57079 -0.67969,-24.50195 z"
         transform="matrix(0.26458334,0,0,0.26458334,41.910308,82.513661)" />
    </g>
    <g
       id="g1853"
       transform="rotate(-37.80208,83.15241,197.77998)">
      <path
         id="path1849"
         style="opacity:1;fill:url(#linearGradient1855);fill-opacity:1;stroke:#ffe4e1;stroke-width:0;stroke-linecap:round;stroke-miterlimit:1.41;stroke-dasharray:none;paint-order:stroke fill markers"
         d="m 86.583791,146.59969 c 10e-7,1.86329 -2.667195,3.37381 -2.667195,3.37381 0,0 -1.608863,-1.5105 -1.608862,-3.37381 -10e-7,-1.86331 1.608862,-3.37381 1.608862,-3.37381 0,0 2.667196,1.51051 2.667195,3.37381 z"
         sodipodi:nodetypes="scscs" />
      <path
         id="path1851"
         style="opacity:1;fill:url(#linearGradient1857);fill-opacity:1;stroke:#ffe4e1;stroke-width:0;stroke-linecap:round;stroke-miterlimit:1.41;stroke-dasharray:none;paint-order:stroke fill markers"
         d="m 158.67578,230.10352 c 1.18748,8.21335 0.73012,16.31866 -0.36719,24.38281 0.1538,0.15652 0.45508,0.48047 0.45508,0.48047 0,0 0.24187,-0.14289 0.5918,-0.36133 3.4002,-9.22101 -0.3262,-24.57079 -0.67969,-24.50195 z"
         transform="matrix(0.26458334,0,0,0.26458334,41.910308,82.513661)" />
    </g>
    <g
       id="g1729"
       transform="matrix(0.75144514,0,0,0.75161007,-7.6809243,47.169676)"
       style="stroke-width:1.33062;opacity:0">
      <path
         id="path966"
         style="fill:url(#linearGradient968);fill-opacity:1;stroke:url(#linearGradient970);stroke-width:1.05618;stroke-linecap:round;stroke-miterlimit:1.41;stroke-dasharray:none;paint-order:stroke fill markers"
         d="m 72.817451,141.7831 c 1.393042,1.05043 1.304338,3.28974 1.304338,3.28974 -0.584663,0.65892 -2.291366,0.45136 -3.772778,-0.50783 -1.464516,-0.94824 -1.915457,-2.65528 -1.304331,-3.28972 0,0 2.342772,-0.57049 3.772771,0.50781 z"
         sodipodi:nodetypes="sssss"
         inkscape:transform-center-x="2.9483737"
         inkscape:transform-center-y="-2.2511644" />
      <path
         id="path924"
         style="fill:url(#linearGradient932);fill-opacity:1;stroke:url(#linearGradient940);stroke-width:1.05618;stroke-linecap:round;stroke-miterlimit:1.41;stroke-dasharray:none;paint-order:stroke fill markers"
         d="m 76.876949,142.30237 c -0.220594,1.73069 -2.208704,2.76501 -2.208704,2.76501 -0.862193,-0.18058 -1.529016,-1.76527 -1.431482,-3.52741 0.09641,-1.74202 1.354616,-2.98069 2.208697,-2.765 0,0 1.657948,1.75079 1.431489,3.5274 z"
         sodipodi:nodetypes="sssss"
         inkscape:transform-center-x="-0.66301652"
         inkscape:transform-center-y="-3.6320424" />
      <path
         id="path942"
         style="fill:url(#linearGradient944);fill-opacity:1;stroke:url(#linearGradient946);stroke-width:1.05618;stroke-linecap:round;stroke-miterlimit:1.41;stroke-dasharray:none;paint-order:stroke fill markers"
         d="m 78.24526,144.18553 c -1.131577,1.32796 -3.361624,1.10595 -3.361624,1.10595 -0.62289,-0.62289 -0.313995,-2.31419 0.731779,-3.7358 1.033833,-1.4054 2.764729,-1.7538 3.361613,-1.10595 0,0 0.429843,2.37261 -0.731768,3.7358 z"
         sodipodi:nodetypes="sssss"
         inkscape:transform-center-x="-2.4094942"
         inkscape:transform-center-y="-2.8204002" />
      <path
         id="path972"
         style="fill:url(#linearGradient974);fill-opacity:1;stroke:url(#linearGradient976);stroke-width:1.05618;stroke-linecap:round;stroke-miterlimit:1.41;stroke-dasharray:none;paint-order:stroke fill markers"
         d="m 78.082101,147.29191 c -1.738784,0.14351 -3.163308,-1.58655 -3.163308,-1.58655 -0.0024,-0.8809 1.409379,-1.86219 3.153364,-2.1326 1.724094,-0.26735 3.196979,0.70627 3.163299,1.58654 0,0 -1.368439,1.9853 -3.153355,2.13261 z"
         sodipodi:nodetypes="sssss"
         inkscape:transform-center-x="-3.6776839"
         inkscape:transform-center-y="-0.12697079" />
      <path
         id="path948"
         style="fill:url(#linearGradient950);fill-opacity:1;stroke:url(#linearGradient952);stroke-width:1.05618;stroke-linecap:round;stroke-miterlimit:1.41;stroke-dasharray:none;paint-order:stroke fill markers"
         d="m 75.533796,149.45758 c -1.261297,-1.20544 -0.912525,-3.41921 -0.912525,-3.41921 0.657387,-0.58638 2.328326,-0.18156 3.688013,0.94354 1.344181,1.11228 1.593345,2.86021 0.912522,3.4192 0,0 -2.393254,0.2939 -3.68801,-0.94353 z"
         sodipodi:nodetypes="sssss"
         inkscape:transform-center-x="-2.682747"
         inkscape:transform-center-y="2.5601375" />
      <path
         sodipodi:type="star"
         style="opacity:1;fill:url(#radialGradient986);fill-opacity:1;stroke:#ffe4e1;stroke-width:0;stroke-linecap:round;stroke-miterlimit:1.41;stroke-dasharray:none;paint-order:stroke fill markers"
         id="path978"
         sodipodi:sides="7"
         sodipodi:cx="74.649055"
         sodipodi:cy="145.67395"
         sodipodi:r1="0.36545539"
         sodipodi:r2="0.6815297"
         sodipodi:arg1="0.80278105"
         sodipodi:arg2="1.25158"
         inkscape:flatsided="false"
         inkscape:rounded="0"
         inkscape:randomized="0"
         d="m 74.902941,145.93682 -0.04001,0.38423 -0.261104,-0.28471 -0.325347,0.20829 0.0598,-0.38165 -0.365696,-0.12451 0.335671,-0.1912 -0.130667,-0.36354 0.358776,0.14323 0.202756,-0.32883 0.111716,0.36981 0.3835,-0.0465 -0.21947,0.31791 0.275461,0.27084 z"
         inkscape:transform-center-x="-0.026455847"
         inkscape:transform-center-y="0.011191386" />
      <path
         id="path960"
         style="fill:url(#linearGradient962);fill-opacity:1;stroke:url(#linearGradient964);stroke-width:1.05618;stroke-linecap:round;stroke-miterlimit:1.41;stroke-dasharray:none;paint-order:stroke fill markers"
         d="m 71.630504,148.53384 c 0.381467,-1.70248 2.457583,-2.54636 2.457583,-2.54636 0.841539,0.2604 1.357244,1.90051 1.095367,3.64581 -0.258888,1.72538 -1.627402,2.84096 -2.457579,2.54635 0,0 -1.486967,-1.89815 -1.095371,-3.6458 z"
         sodipodi:nodetypes="sssss"
         inkscape:transform-center-x="0.99135126"
         inkscape:transform-center-y="3.5660982" />
      <path
         id="path954"
         style="fill:url(#linearGradient956);fill-opacity:1;stroke:url(#linearGradient958);stroke-width:1.05618;stroke-linecap:round;stroke-miterlimit:1.41;stroke-dasharray:none;paint-order:stroke fill markers"
         d="m 70.379793,144.85861 c 1.634053,-0.6114 3.475729,0.66557 3.475729,0.66557 0.242053,0.84699 -0.849264,2.1755 -2.453786,2.91044 -1.586218,0.72656 -3.268514,0.19062 -3.475716,-0.66557 0,0 0.776355,-2.28282 2.453773,-2.91044 z"
         sodipodi:nodetypes="sssss"
         inkscape:transform-center-x="3.4921534"
         inkscape:transform-center-y="1.1930815" />
    </g>
    <g
       id="g1863"
       transform="matrix(-0.79013276,-0.61293574,-0.61293574,0.79013276,216.97294,90.887104)">
      <path
         id="path1859"
         style="opacity:1;fill:url(#linearGradient1865);fill-opacity:1;stroke:#ffe4e1;stroke-width:0;stroke-linecap:round;stroke-miterlimit:1.41;stroke-dasharray:none;paint-order:stroke fill markers"
         d="m 86.583791,146.59969 c 10e-7,1.86329 -2.667195,3.37381 -2.667195,3.37381 0,0 -1.608863,-1.5105 -1.608862,-3.37381 -10e-7,-1.86331 1.608862,-3.37381 1.608862,-3.37381 0,0 2.667196,1.51051 2.667195,3.37381 z"
         sodipodi:nodetypes="scscs" />
      <path
         id="path1861"
         style="opacity:1;fill:url(#linearGradient1867);fill-opacity:1;stroke:#ffe4e1;stroke-width:0;stroke-linecap:round;stroke-miterlimit:1.41;stroke-dasharray:none;paint-order:stroke fill markers"
         d="m 158.67578,230.10352 c 1.18748,8.21335 0.73012,16.31866 -0.36719,24.38281 0.1538,0.15652 0.45508,0.48047 0.45508,0.48047 0,0 0.24187,-0.14289 0.5918,-0.36133 3.4002,-9.22101 -0.3262,-24.57079 -0.67969,-24.50195 z"
         transform="matrix(0.26458334,0,0,0.26458334,41.910308,82.513661)" />
    </g>
    <g
       id="g1747"
       transform="matrix(0.75144514,0,0,0.75161007,9.6297407,47.431292)"
       style="stroke-width:1.33062;opacity:0">
      <path
         id="path1731"
         style="fill:url(#linearGradient1749);fill-opacity:1;stroke:url(#linearGradient1751);stroke-width:1.05618;stroke-linecap:round;stroke-miterlimit:1.41;stroke-dasharray:none;paint-order:stroke fill markers"
         d="m 72.817451,141.7831 c 1.393042,1.05043 1.304338,3.28974 1.304338,3.28974 -0.584663,0.65892 -2.291366,0.45136 -3.772778,-0.50783 -1.464516,-0.94824 -1.915457,-2.65528 -1.304331,-3.28972 0,0 2.342772,-0.57049 3.772771,0.50781 z"
         sodipodi:nodetypes="sssss"
         inkscape:transform-center-x="2.9483737"
         inkscape:transform-center-y="-2.2511644" />
      <path
         id="path1733"
         style="fill:url(#linearGradient1753);fill-opacity:1;stroke:url(#linearGradient1755);stroke-width:1.05618;stroke-linecap:round;stroke-miterlimit:1.41;stroke-dasharray:none;paint-order:stroke fill markers"
         d="m 76.876949,142.30237 c -0.220594,1.73069 -2.208704,2.76501 -2.208704,2.76501 -0.862193,-0.18058 -1.529016,-1.76527 -1.431482,-3.52741 0.09641,-1.74202 1.354616,-2.98069 2.208697,-2.765 0,0 1.657948,1.75079 1.431489,3.5274 z"
         sodipodi:nodetypes="sssss"
         inkscape:transform-center-x="-0.66301652"
         inkscape:transform-center-y="-3.6320424" />
      <path
         id="path1735"
         style="fill:url(#linearGradient1757);fill-opacity:1;stroke:url(#linearGradient1759);stroke-width:1.05618;stroke-linecap:round;stroke-miterlimit:1.41;stroke-dasharray:none;paint-order:stroke fill markers"
         d="m 78.24526,144.18553 c -1.131577,1.32796 -3.361624,1.10595 -3.361624,1.10595 -0.62289,-0.62289 -0.313995,-2.31419 0.731779,-3.7358 1.033833,-1.4054 2.764729,-1.7538 3.361613,-1.10595 0,0 0.429843,2.37261 -0.731768,3.7358 z"
         sodipodi:nodetypes="sssss"
         inkscape:transform-center-x="-2.4094942"
         inkscape:transform-center-y="-2.8204002" />
      <path
         id="path1737"
         style="fill:url(#linearGradient1761);fill-opacity:1;stroke:url(#linearGradient1763);stroke-width:1.05618;stroke-linecap:round;stroke-miterlimit:1.41;stroke-dasharray:none;paint-order:stroke fill markers"
         d="m 78.082101,147.29191 c -1.738784,0.14351 -3.163308,-1.58655 -3.163308,-1.58655 -0.0024,-0.8809 1.409379,-1.86219 3.153364,-2.1326 1.724094,-0.26735 3.196979,0.70627 3.163299,1.58654 0,0 -1.368439,1.9853 -3.153355,2.13261 z"
         sodipodi:nodetypes="sssss"
         inkscape:transform-center-x="-3.6776839"
         inkscape:transform-center-y="-0.12697079" />
      <path
         id="path1739"
         style="fill:url(#linearGradient1765);fill-opacity:1;stroke:url(#linearGradient1767);stroke-width:1.05618;stroke-linecap:round;stroke-miterlimit:1.41;stroke-dasharray:none;paint-order:stroke fill markers"
         d="m 75.533796,149.45758 c -1.261297,-1.20544 -0.912525,-3.41921 -0.912525,-3.41921 0.657387,-0.58638 2.328326,-0.18156 3.688013,0.94354 1.344181,1.11228 1.593345,2.86021 0.912522,3.4192 0,0 -2.393254,0.2939 -3.68801,-0.94353 z"
         sodipodi:nodetypes="sssss"
         inkscape:transform-center-x="-2.682747"
         inkscape:transform-center-y="2.5601375" />
      <path
         sodipodi:type="star"
         style="opacity:1;fill:url(#radialGradient1769);fill-opacity:1;stroke:#ffe4e1;stroke-width:0;stroke-linecap:round;stroke-miterlimit:1.41;stroke-dasharray:none;paint-order:stroke fill markers"
         id="path1741"
         sodipodi:sides="7"
         sodipodi:cx="74.649055"
         sodipodi:cy="145.67395"
         sodipodi:r1="0.36545539"
         sodipodi:r2="0.6815297"
         sodipodi:arg1="0.80278105"
         sodipodi:arg2="1.25158"
         inkscape:flatsided="false"
         inkscape:rounded="0"
         inkscape:randomized="0"
         d="m 74.902941,145.93682 -0.04001,0.38423 -0.261104,-0.28471 -0.325347,0.20829 0.0598,-0.38165 -0.365696,-0.12451 0.335671,-0.1912 -0.130667,-0.36354 0.358776,0.14323 0.202756,-0.32883 0.111716,0.36981 0.3835,-0.0465 -0.21947,0.31791 0.275461,0.27084 z"
         inkscape:transform-center-x="-0.026455847"
         inkscape:transform-center-y="0.011191386" />
      <path
         id="path1743"
         style="fill:url(#linearGradient1771);fill-opacity:1;stroke:url(#linearGradient1773);stroke-width:1.05618;stroke-linecap:round;stroke-miterlimit:1.41;stroke-dasharray:none;paint-order:stroke fill markers"
         d="m 71.630504,148.53384 c 0.381467,-1.70248 2.457583,-2.54636 2.457583,-2.54636 0.841539,0.2604 1.357244,1.90051 1.095367,3.64581 -0.258888,1.72538 -1.627402,2.84096 -2.457579,2.54635 0,0 -1.486967,-1.89815 -1.095371,-3.6458 z"
         sodipodi:nodetypes="sssss"
         inkscape:transform-center-x="0.99135126"
         inkscape:transform-center-y="3.5660982" />
      <path
         id="path1745"
         style="fill:url(#linearGradient1775);fill-opacity:1;stroke:url(#linearGradient1777);stroke-width:1.05618;stroke-linecap:round;stroke-miterlimit:1.41;stroke-dasharray:none;paint-order:stroke fill markers"
         d="m 70.379793,144.85861 c 1.634053,-0.6114 3.475729,0.66557 3.475729,0.66557 0.242053,0.84699 -0.849264,2.1755 -2.453786,2.91044 -1.586218,0.72656 -3.268514,0.19062 -3.475716,-0.66557 0,0 0.776355,-2.28282 2.453773,-2.91044 z"
         sodipodi:nodetypes="sssss"
         inkscape:transform-center-x="3.4921534"
         inkscape:transform-center-y="1.1930815" />
    </g>
    <g
       id="g1817"
       transform="translate(-28.7874,6.9636811)">
      <path
         id="path1779"
         style="opacity:1;fill:url(#linearGradient1787);fill-opacity:1;stroke:#ffe4e1;stroke-width:0;stroke-linecap:round;stroke-miterlimit:1.41;stroke-dasharray:none;paint-order:stroke fill markers"
         d="m 86.583791,146.59969 c 10e-7,1.86329 -2.667195,3.37381 -2.667195,3.37381 0,0 -1.608863,-1.5105 -1.608862,-3.37381 -10e-7,-1.86331 1.608862,-3.37381 1.608862,-3.37381 0,0 2.667196,1.51051 2.667195,3.37381 z"
         sodipodi:nodetypes="scscs" />
      <path
         id="path1801"
         style="opacity:1;fill:url(#linearGradient1806);fill-opacity:1;stroke:#ffe4e1;stroke-width:0;stroke-linecap:round;stroke-miterlimit:1.41;stroke-dasharray:none;paint-order:stroke fill markers"
         d="m 158.67578,230.10352 c 1.18748,8.21335 0.73012,16.31866 -0.36719,24.38281 0.1538,0.15652 0.45508,0.48047 0.45508,0.48047 0,0 0.24187,-0.14289 0.5918,-0.36133 3.4002,-9.22101 -0.3262,-24.57079 -0.67969,-24.50195 z"
         transform="matrix(0.26458334,0,0,0.26458334,41.910308,82.513661)" />
    </g>
    <g
       id="g1823"
       transform="matrix(0.79655187,-0.6045702,-0.6045702,-0.79655187,79.300731,332.10514)">
      <path
         id="path1819"
         style="opacity:1;fill:url(#linearGradient1825);fill-opacity:1;stroke:#ffe4e1;stroke-width:0;stroke-linecap:round;stroke-miterlimit:1.41;stroke-dasharray:none;paint-order:stroke fill markers"
         d="m 86.583791,146.59969 c 10e-7,1.86329 -2.667195,3.37381 -2.667195,3.37381 0,0 -1.608863,-1.5105 -1.608862,-3.37381 -10e-7,-1.86331 1.608862,-3.37381 1.608862,-3.37381 0,0 2.667196,1.51051 2.667195,3.37381 z"
         sodipodi:nodetypes="scscs" />
      <path
         id="path1821"
         style="opacity:1;fill:url(#linearGradient1827);fill-opacity:1;stroke:#ffe4e1;stroke-width:0;stroke-linecap:round;stroke-miterlimit:1.41;stroke-dasharray:none;paint-order:stroke fill markers"
         d="m 158.67578,230.10352 c 1.18748,8.21335 0.73012,16.31866 -0.36719,24.38281 0.1538,0.15652 0.45508,0.48047 0.45508,0.48047 0,0 0.24187,-0.14289 0.5918,-0.36133 3.4002,-9.22101 -0.3262,-24.57079 -0.67969,-24.50195 z"
         transform="matrix(0.26458334,0,0,0.26458334,41.910308,82.513661)" />
    </g>
  </g>
</svg>
