<?xml version="1.0" encoding="UTF-8" standalone="no"?>
<svg
   xmlns:dc="http://purl.org/dc/elements/1.1/"
   xmlns:cc="http://creativecommons.org/ns#"
   xmlns:rdf="http://www.w3.org/1999/02/22-rdf-syntax-ns#"
   xmlns:svg="http://www.w3.org/2000/svg"
   xmlns="http://www.w3.org/2000/svg"
   xmlns:xlink="http://www.w3.org/1999/xlink"
   xmlns:sodipodi="http://sodipodi.sourceforge.net/DTD/sodipodi-0.dtd"
   xmlns:inkscape="http://www.inkscape.org/namespaces/inkscape"
   width="17.462496mm"
   height="21.166668mm"
   viewBox="0 0 17.462496 21.166668"
   version="1.1"
   id="svg25040"
   inkscape:version="1.0.2 (e86c870879, 2021-01-15, custom)"
   sodipodi:docname="nisan.svg">
  <defs
     id="defs25034">
    <inkscape:path-effect
       effect="simplify"
       id="path-effect25670"
       is_visible="true"
       lpeversion="1"
       steps="1"
       threshold="0.00387755"
       smooth_angles="360"
       helper_size="0"
       simplify_individual_paths="false"
       simplify_just_coalesce="false" />
    <inkscape:path-effect
       effect="simplify"
       id="path-effect25666"
       is_visible="true"
       lpeversion="1"
       steps="1"
       threshold="0.00387755"
       smooth_angles="360"
       helper_size="0"
       simplify_individual_paths="false"
       simplify_just_coalesce="false" />
    <inkscape:path-effect
       effect="simplify"
       id="path-effect25662"
       is_visible="true"
       lpeversion="1"
       steps="1"
       threshold="0.00387755"
       smooth_angles="360"
       helper_size="0"
       simplify_individual_paths="false"
       simplify_just_coalesce="false" />
    <inkscape:path-effect
       effect="simplify"
       id="path-effect25658"
       is_visible="true"
       lpeversion="1"
       steps="1"
       threshold="0.00387755"
       smooth_angles="360"
       helper_size="0"
       simplify_individual_paths="false"
       simplify_just_coalesce="false" />
    <inkscape:path-effect
       effect="simplify"
       id="path-effect25654"
       is_visible="true"
       lpeversion="1"
       steps="1"
       threshold="0.00387755"
       smooth_angles="360"
       helper_size="0"
       simplify_individual_paths="false"
       simplify_just_coalesce="false" />
    <inkscape:path-effect
       effect="simplify"
       id="path-effect25650"
       is_visible="true"
       lpeversion="1"
       steps="1"
       threshold="0.00387755"
       smooth_angles="360"
       helper_size="0"
       simplify_individual_paths="false"
       simplify_just_coalesce="false" />
    <inkscape:path-effect
       effect="simplify"
       id="path-effect25646"
       is_visible="true"
       lpeversion="1"
       steps="1"
       threshold="0.00387755"
       smooth_angles="360"
       helper_size="0"
       simplify_individual_paths="false"
       simplify_just_coalesce="false" />
    <linearGradient
       inkscape:collect="always"
       id="linearGradient25640">
      <stop
         style="stop-color:#dcdcdc;stop-opacity:1;"
         offset="0"
         id="stop25636" />
      <stop
         style="stop-color:#f5f5f5;stop-opacity:1"
         offset="1"
         id="stop25638" />
    </linearGradient>
    <linearGradient
       inkscape:collect="always"
       id="linearGradient25630">
      <stop
         style="stop-color:#a9a9a9;stop-opacity:1"
         offset="0"
         id="stop25628" />
      <stop
         style="stop-color:#d3d3d3;stop-opacity:1;"
         offset="1"
         id="stop25626" />
    </linearGradient>
    <linearGradient
       inkscape:collect="always"
       xlink:href="#linearGradient25630"
       id="linearGradient25632"
       x1="64.931709"
       y1="62.701248"
       x2="99.403053"
       y2="62.701248"
       gradientUnits="userSpaceOnUse"
       gradientTransform="matrix(0.50657971,0,0,0.50596537,32.03862,21.557809)" />
    <linearGradient
       inkscape:collect="always"
       xlink:href="#linearGradient25640"
       id="linearGradient25642"
       x1="64.931755"
       y1="66.405418"
       x2="99.403053"
       y2="66.405418"
       gradientUnits="userSpaceOnUse"
       gradientTransform="matrix(0.50657971,0,0,0.50596537,32.03862,21.557809)" />
  </defs>
  <sodipodi:namedview
     id="base"
     pagecolor="#ffffff"
     bordercolor="#666666"
     borderopacity="1.0"
     inkscape:pageopacity="0.0"
     inkscape:pageshadow="2"
     inkscape:zoom="1.2477283"
     inkscape:cx="65.142739"
     inkscape:cy="79.056788"
     inkscape:document-units="mm"
     inkscape:current-layer="layer1"
     inkscape:document-rotation="0"
     showgrid="false"
     inkscape:window-width="1366"
     inkscape:window-height="720"
     inkscape:window-x="0"
     inkscape:window-y="0"
     inkscape:window-maximized="1" />
  <metadata
     id="metadata25037">
    <rdf:RDF>
      <cc:Work
         rdf:about="">
        <dc:format>image/svg+xml</dc:format>
        <dc:type
           rdf:resource="http://purl.org/dc/dcmitype/StillImage" />
        <dc:title></dc:title>
      </cc:Work>
    </rdf:RDF>
  </metadata>
  <g
     inkscape:label="Layer 1"
     inkscape:groupmode="layer"
     id="layer1"
     transform="translate(-64.931699,-43.636227)">
    <path
       id="path25624"
       style="fill:url(#linearGradient25632);fill-opacity:1;stroke:#329041;stroke-width:0;stroke-linecap:round;paint-order:fill markers stroke"
       d="m 65.199795,47.074966 c 0,0 1.288971,-1.712308 2.184108,-2.254849 2.05024,-0.821823 4.137554,-1.18389 6.280784,-1.18389 2.143229,0 4.70332,0.262034 6.277309,1.18389 0.894115,0.542673 2.180633,2.254849 2.180633,2.254849 l 0.268065,1.874182 0.0035,13.979564 H 64.935204 L 64.9317,48.949148 Z"
       sodipodi:nodetypes="cczccccccc" />
    <path
       id="rect25603"
       style="fill:url(#linearGradient25642);fill-opacity:1;stroke:#329041;stroke-width:0;stroke-linecap:round;paint-order:fill markers stroke"
       d="m 64.931729,48.949148 c 0,0 1.288971,-1.712309 2.184109,-2.25485 2.05024,-0.821823 4.405619,-1.183889 6.548849,-1.183889 2.143229,0 4.971385,0.262033 6.545374,1.183889 0.894115,0.542673 2.180633,2.25485 2.180633,2.25485 l 0.0035,15.853746 h -17.45899 z"
       sodipodi:nodetypes="cczccccc" />
    <path
       style="fill:none;stroke:#dddddd;stroke-width:1.32292;stroke-linecap:butt;stroke-linejoin:miter;stroke-miterlimit:4;stroke-dasharray:none;stroke-opacity:1"
       d="m 67.395481,53.358381 c 1.037609,-1.031971 2.225959,-2.124813 3.693897,-2.322371 0.176799,-0.02379 0.648389,-0.28296 0.531564,0.09435 -0.08351,0.269708 -0.211378,0.536228 -0.144528,0.836184 0.118507,0.531742 0.336203,1.152854 0.880028,1.366526 0.514866,0.202294 1.088828,0.0075 1.540103,-0.262334 0.852976,-0.510104 1.428823,-1.386739 2.33375,-1.821093 0.330117,-0.158452 0.793367,-0.237344 1.06096,0.06919 0.358577,0.410754 0.233507,1.017 0.408562,1.502756 0.105229,0.291998 0.476939,0.321757 0.734053,0.209947 0.751665,-0.326873 1.312855,-1.023767 2.122048,-1.220384 0.142424,-0.03461 0.292897,-0.04539 0.436824,-0.01299"
       id="path25660"
       inkscape:path-effect="#path-effect25662"
       inkscape:original-d="m 67.395481,53.358381 c 1.200508,-1.181256 2.482221,-2.085208 4.154073,-2.43518 0.290765,-0.06087 -0.158171,0.592031 -0.105035,0.883967 0.154518,0.848808 0.55074,1.738965 1.55935,1.595048 1.399085,-0.199634 2.164469,-1.750858 3.335009,-2.19762 1.465798,-0.559454 1.295623,1.546337 1.373007,1.660616 0.644343,0.951548 2.158367,-1.317431 3.280857,-1.06706" />
    <path
       style="opacity:0.3217;fill:none;stroke:#818181;stroke-width:1.32292;stroke-linecap:butt;stroke-linejoin:miter;stroke-miterlimit:4;stroke-dasharray:none;stroke-opacity:1"
       d="m 67.127416,53.253105 c 1.037608,-1.031971 2.225958,-2.124821 3.693897,-2.322371 0.176799,-0.02379 0.648391,-0.282959 0.531565,0.09435 -0.08351,0.269708 -0.211365,0.536229 -0.144515,0.836184 0.118507,0.531742 0.336202,1.152854 0.880027,1.366526 0.514866,0.202294 1.088827,0.0075 1.540102,-0.262334 0.852976,-0.510104 1.428824,-1.386738 2.333752,-1.821093 0.330116,-0.158452 0.793366,-0.237344 1.06096,0.06919 0.358577,0.410753 0.233507,1.016999 0.408561,1.502754 0.105229,0.291998 0.476939,0.321759 0.734053,0.209949 0.751665,-0.326874 1.312855,-1.023767 2.122049,-1.220384 0.142424,-0.03461 0.292896,-0.04539 0.436824,-0.013"
       id="path25648"
       inkscape:path-effect="#path-effect25650"
       inkscape:original-d="m 67.127416,53.253105 c 1.200508,-1.181257 2.482221,-2.085208 4.154073,-2.43518 0.290765,-0.06087 -0.158171,0.592031 -0.105021,0.883967 0.154517,0.848808 0.55074,1.738965 1.559348,1.595048 1.399085,-0.199634 2.16447,-1.750858 3.335011,-2.19762 1.465798,-0.559455 1.295623,1.546337 1.373006,1.660614 0.644342,0.95155 2.158367,-1.317429 3.280858,-1.067058" />
    <path
       style="fill:none;stroke:#dddddd;stroke-width:0.793748;stroke-linecap:butt;stroke-linejoin:miter;stroke-miterlimit:4;stroke-dasharray:none;stroke-opacity:1"
       d="m 70.442883,57.294977 c 0.224413,-0.186791 0.389917,-0.430085 0.589211,-0.640874 0.211016,-0.223187 0.522327,-0.345365 0.817646,-0.341107 0.248785,0.0036 0.511697,0.02917 0.730532,0.150442 0.121486,0.06733 0.109516,0.225121 0.151218,0.344634 0.08656,0.248065 0.288035,0.472905 0.562266,0.509408 0.260562,0.03468 0.548208,-0.06473 0.687267,-0.304121 0.158719,-0.273238 0.174094,-0.643429 0.452393,-0.835566 0.262726,-0.181385 0.617189,-0.133178 0.878746,0.02977 0.336766,0.209801 0.534927,0.567606 0.783775,0.867759 0.123416,0.148861 0.337306,0.08672 0.486624,0.01487 0.364681,-0.175488 0.673709,-0.483917 1.080973,-0.554904 0.06859,-0.01196 0.139489,-0.01407 0.207999,-3.67e-4"
       id="path25664"
       inkscape:path-effect="#path-effect25666"
       inkscape:original-d="m 70.442883,57.294977 c 0.655877,-0.575445 0.458168,-0.807542 1.371557,-0.97803 0.158856,-0.02965 0.811539,0.08015 0.840573,0.222361 0.08442,0.413495 0.300889,0.847132 0.851926,0.777024 0.764368,-0.09725 0.443187,-0.998921 1.082693,-1.21656 0.800815,-0.272537 1.44718,0.899288 1.489458,0.954959 0.352026,0.463545 1.179189,-0.641783 1.792443,-0.519816"
       sodipodi:nodetypes="csssssc" />
    <path
       style="opacity:0.3217;fill:none;stroke:#818181;stroke-width:0.793748;stroke-linecap:butt;stroke-linejoin:miter;stroke-miterlimit:4;stroke-dasharray:none;stroke-opacity:1"
       d="m 70.174818,57.189701 c 0.224413,-0.186792 0.389918,-0.430084 0.589212,-0.640874 0.211015,-0.223187 0.522326,-0.345365 0.817645,-0.341107 0.248785,0.0036 0.511697,0.02917 0.730532,0.150442 0.121486,0.06733 0.109516,0.225121 0.151218,0.344634 0.08656,0.248065 0.288035,0.472905 0.562266,0.509408 0.260562,0.03468 0.548208,-0.06473 0.687267,-0.304121 0.158719,-0.273238 0.174093,-0.64343 0.452393,-0.835567 0.262726,-0.181385 0.617189,-0.133177 0.878746,0.02977 0.336766,0.209801 0.534927,0.567606 0.783775,0.867759 0.123416,0.148861 0.337306,0.08672 0.486624,0.01487 0.364681,-0.175488 0.673709,-0.483917 1.080973,-0.554904 0.06859,-0.01196 0.139489,-0.01407 0.207999,-3.67e-4"
       id="path25652"
       inkscape:path-effect="#path-effect25654"
       inkscape:original-d="m 70.174818,57.189701 c 0.655877,-0.575446 0.458168,-0.807542 1.371557,-0.97803 0.158856,-0.02965 0.811539,0.08015 0.840573,0.222361 0.08442,0.413495 0.300889,0.847132 0.851926,0.777024 0.764368,-0.09725 0.443187,-0.998921 1.082693,-1.216561 0.800815,-0.272536 1.44718,0.899289 1.489458,0.95496 0.352026,0.463545 1.179189,-0.641783 1.792443,-0.519816"
       sodipodi:nodetypes="csssssc" />
    <path
       style="fill:none;stroke:#dddddd;stroke-width:0.793748;stroke-linecap:butt;stroke-linejoin:miter;stroke-miterlimit:4;stroke-dasharray:none;stroke-opacity:1"
       d="m 77.714518,59.756309 c -0.590397,0.525158 -1.292202,0.922846 -2.059257,1.141459 -0.102827,0.02931 -0.318485,0.117077 -0.237127,-0.08875 0.04676,-0.118298 0.0986,-0.238903 0.06683,-0.374679 -0.06602,-0.282136 -0.217801,-0.598909 -0.518791,-0.678564 -0.318373,-0.08425 -0.650099,0.04154 -0.919785,0.208577 -0.430592,0.266698 -0.765017,0.680193 -1.254841,0.852999 -0.185324,0.06538 -0.418695,0.03983 -0.541228,-0.133348 -0.141812,-0.200427 -0.04139,-0.492517 -0.172006,-0.68745 -0.100145,-0.149463 -0.302939,-0.123722 -0.448197,-0.06027 -0.390018,0.170355 -0.708397,0.505149 -1.136247,0.579724 -0.06859,0.01196 -0.139489,0.01407 -0.207999,3.67e-4"
       id="path25668"
       inkscape:path-effect="#path-effect25670"
       inkscape:original-d="m 77.714518,59.756309 c -0.655877,0.575447 -1.356121,1.015806 -2.26951,1.186294 -0.158856,0.02965 0.08642,-0.288407 0.05738,-0.430623 -0.08442,-0.413495 -0.300889,-0.847133 -0.851926,-0.777024 -0.764368,0.09725 -1.182525,0.852927 -1.822029,1.070565 -0.800815,0.272538 -0.707844,-0.753294 -0.750122,-0.808965 -0.352026,-0.463544 -1.179189,0.641783 -1.792443,0.519816" />
    <path
       style="opacity:0.3217;fill:none;stroke:#818181;stroke-width:0.793748;stroke-linecap:butt;stroke-linejoin:miter;stroke-miterlimit:4;stroke-dasharray:none;stroke-opacity:1"
       d="m 77.446453,59.651033 c -0.590397,0.525158 -1.292202,0.922846 -2.059257,1.141459 -0.102827,0.02931 -0.318485,0.117077 -0.237127,-0.08875 0.04676,-0.118298 0.0986,-0.238904 0.06683,-0.37468 -0.06602,-0.282135 -0.2178,-0.598908 -0.51879,-0.678563 -0.318373,-0.08426 -0.650099,0.04154 -0.919785,0.208577 -0.430592,0.266699 -0.765017,0.680196 -1.254841,0.852999 -0.185325,0.06538 -0.418696,0.03983 -0.541229,-0.133349 -0.141811,-0.200427 -0.04139,-0.492516 -0.172005,-0.687449 -0.100145,-0.149463 -0.302939,-0.123722 -0.448197,-0.06028 -0.390018,0.170355 -0.708397,0.505149 -1.136247,0.579724 -0.06859,0.01195 -0.139489,0.01406 -0.207999,3.67e-4"
       id="path25656"
       inkscape:path-effect="#path-effect25658"
       inkscape:original-d="m 77.446453,59.651033 c -0.655877,0.575447 -1.356121,1.015806 -2.26951,1.186294 -0.158856,0.02965 0.08642,-0.288407 0.05738,-0.430623 -0.08442,-0.413496 -0.300888,-0.847133 -0.851925,-0.777024 -0.764368,0.09725 -1.182525,0.852927 -1.82203,1.070565 -0.800814,0.272536 -0.707843,-0.753294 -0.750121,-0.808965 -0.352026,-0.463545 -1.179189,0.641783 -1.792443,0.519816" />
  </g>
</svg>
