<?xml version="1.0" encoding="UTF-8" standalone="no"?>
<svg
   xmlns:dc="http://purl.org/dc/elements/1.1/"
   xmlns:cc="http://creativecommons.org/ns#"
   xmlns:rdf="http://www.w3.org/1999/02/22-rdf-syntax-ns#"
   xmlns:svg="http://www.w3.org/2000/svg"
   xmlns="http://www.w3.org/2000/svg"
   xmlns:xlink="http://www.w3.org/1999/xlink"
   xmlns:sodipodi="http://sodipodi.sourceforge.net/DTD/sodipodi-0.dtd"
   xmlns:inkscape="http://www.inkscape.org/namespaces/inkscape"
   width="11.641667mm"
   height="27.252083mm"
   viewBox="0 0 11.641667 27.252083"
   version="1.1"
   id="svg5860"
   inkscape:version="1.0.2 (e86c870879, 2021-01-15, custom)"
   sodipodi:docname="pisang.svg">
  <defs
     id="defs5854">
    <linearGradient
       inkscape:collect="always"
       xlink:href="#linearGradient82883"
       id="linearGradient83077"
       x1="1457.615"
       y1="170.15718"
       x2="1462.505"
       y2="170.15718"
       gradientUnits="userSpaceOnUse"
       gradientTransform="matrix(1,0,0,12.038399,0,-1917.288)" />
    <linearGradient
       inkscape:collect="always"
       id="linearGradient82883">
      <stop
         style="stop-color:#008000;stop-opacity:1"
         offset="0"
         id="stop82879" />
      <stop
         style="stop-color:#7cfc00;stop-opacity:1"
         offset="1"
         id="stop82881" />
    </linearGradient>
    <linearGradient
       inkscape:collect="always"
       xlink:href="#linearGradient83000"
       id="linearGradient83047"
       gradientUnits="userSpaceOnUse"
       gradientTransform="matrix(-0.84024244,-0.06030724,-0.06030724,0.84024244,2692.3223,93.49498)"
       x1="1471.5939"
       y1="132.00952"
       x2="1462.0884"
       y2="130.57088" />
    <linearGradient
       inkscape:collect="always"
       id="linearGradient83000">
      <stop
         style="stop-color:#94ff00;stop-opacity:1;"
         offset="0"
         id="stop82996" />
      <stop
         style="stop-color:#fff768;stop-opacity:1"
         offset="1"
         id="stop82998" />
    </linearGradient>
    <linearGradient
       inkscape:collect="always"
       xlink:href="#linearGradient83000"
       id="linearGradient83045"
       gradientUnits="userSpaceOnUse"
       gradientTransform="matrix(-0.83818818,-0.08417195,-0.08417195,0.83818818,2697.5218,130.74816)"
       x1="1471.5939"
       y1="132.00952"
       x2="1462.0884"
       y2="130.57088" />
    <linearGradient
       inkscape:collect="always"
       xlink:href="#linearGradient83000"
       id="linearGradient83043"
       gradientUnits="userSpaceOnUse"
       gradientTransform="matrix(0.84126241,0.04383946,-0.04383946,0.84126241,242.89834,-59.260702)"
       x1="1459.472"
       y1="132.12918"
       x2="1469.7954"
       y2="132.12918" />
    <linearGradient
       inkscape:collect="always"
       xlink:href="#linearGradient83000"
       id="linearGradient83041"
       gradientUnits="userSpaceOnUse"
       gradientTransform="matrix(0.84202869,-0.02514036,0.02514036,0.84202869,227.60478,43.728151)"
       x1="1459.472"
       y1="132.12918"
       x2="1469.7954"
       y2="132.12918" />
    <linearGradient
       inkscape:collect="always"
       xlink:href="#linearGradient83000"
       id="linearGradient83097"
       gradientUnits="userSpaceOnUse"
       gradientTransform="matrix(-0.99945806,0.03291734,0.03291734,0.99945806,2911.6737,-48.19723)"
       x1="1471.5939"
       y1="132.00952"
       x2="1462.0884"
       y2="130.57088" />
    <linearGradient
       inkscape:collect="always"
       xlink:href="#linearGradient83000"
       id="linearGradient83007"
       gradientUnits="userSpaceOnUse"
       x1="1471.5939"
       y1="132.00952"
       x2="1462.0884"
       y2="130.57088"
       gradientTransform="matrix(-0.99499559,-0.09991876,-0.09991876,0.99499559,2928.6962,149.09167)" />
    <linearGradient
       inkscape:collect="always"
       xlink:href="#linearGradient83000"
       id="linearGradient83011"
       gradientUnits="userSpaceOnUse"
       gradientTransform="rotate(8.5719794,1468.3778,172.14588)"
       x1="1459.472"
       y1="132.12918"
       x2="1469.7954"
       y2="132.12918" />
    <linearGradient
       inkscape:collect="always"
       xlink:href="#linearGradient83000"
       id="linearGradient83002"
       x1="1459.472"
       y1="132.12918"
       x2="1469.7954"
       y2="132.12918"
       gradientUnits="userSpaceOnUse"
       gradientTransform="rotate(-1.7101661,1532.4139,133.12917)" />
    <linearGradient
       inkscape:collect="always"
       xlink:href="#linearGradient83000"
       id="linearGradient83099"
       gradientUnits="userSpaceOnUse"
       gradientTransform="matrix(-1.0036844,0.12331576,0.06551584,0.77636271,2911.4272,-132.27518)"
       x1="1471.5939"
       y1="132.00952"
       x2="1462.0884"
       y2="130.57088" />
    <linearGradient
       inkscape:collect="always"
       xlink:href="#linearGradient83059"
       id="linearGradient83069"
       gradientUnits="userSpaceOnUse"
       x1="1462.5031"
       y1="177.04445"
       x2="1463.9554"
       y2="182.71091"
       gradientTransform="matrix(0.77545219,0,0,0.91353053,326.88087,18.788787)" />
    <linearGradient
       inkscape:collect="always"
       id="linearGradient83059">
      <stop
         style="stop-color:#006400;stop-opacity:1;"
         offset="0"
         id="stop83055" />
      <stop
         style="stop-color:#008b00;stop-opacity:1"
         offset="1"
         id="stop83057" />
    </linearGradient>
    <linearGradient
       inkscape:collect="always"
       xlink:href="#linearGradient83059"
       id="linearGradient83065"
       gradientUnits="userSpaceOnUse"
       x1="1461.7014"
       y1="170.54056"
       x2="1463.5254"
       y2="181.73314"
       gradientTransform="matrix(-1,0,0,1,2920.9337,-2)" />
    <linearGradient
       inkscape:collect="always"
       xlink:href="#linearGradient83000"
       id="linearGradient83029"
       gradientUnits="userSpaceOnUse"
       gradientTransform="matrix(-1.007229,-0.07771082,-0.10114725,0.77384792,2946.7312,164.70033)"
       x1="1471.5939"
       y1="132.00952"
       x2="1462.0884"
       y2="130.57088" />
    <linearGradient
       inkscape:collect="always"
       xlink:href="#linearGradient83000"
       id="linearGradient83101"
       gradientUnits="userSpaceOnUse"
       gradientTransform="matrix(1.0002729,0.1518487,-0.13811703,0.76612029,25.965399,-172.6759)"
       x1="1459.472"
       y1="132.12918"
       x2="1469.7954"
       y2="132.12918" />
    <linearGradient
       inkscape:collect="always"
       xlink:href="#linearGradient83000"
       id="linearGradient83025"
       gradientUnits="userSpaceOnUse"
       gradientTransform="matrix(1.0118439,-0.02321057,0.03021052,0.77739358,-21.303812,84.360075)"
       x1="1459.472"
       y1="132.12918"
       x2="1469.7954"
       y2="132.12918" />
    <linearGradient
       inkscape:collect="always"
       xlink:href="#linearGradient83059"
       id="linearGradient83061"
       x1="1460.1151"
       y1="171.42239"
       x2="1464.4467"
       y2="181.12416"
       gradientUnits="userSpaceOnUse"
       gradientTransform="translate(0,-2)" />
  </defs>
  <sodipodi:namedview
     id="base"
     pagecolor="#ffffff"
     bordercolor="#666666"
     borderopacity="1.0"
     inkscape:pageopacity="0.0"
     inkscape:pageshadow="2"
     inkscape:zoom="0.35"
     inkscape:cx="36.023524"
     inkscape:cy="242.78454"
     inkscape:document-units="mm"
     inkscape:current-layer="layer1"
     inkscape:document-rotation="0"
     showgrid="false"
     inkscape:window-width="1366"
     inkscape:window-height="720"
     inkscape:window-x="0"
     inkscape:window-y="0"
     inkscape:window-maximized="1" />
  <metadata
     id="metadata5857">
    <rdf:RDF>
      <cc:Work
         rdf:about="">
        <dc:format>image/svg+xml</dc:format>
        <dc:type
           rdf:resource="http://purl.org/dc/dcmitype/StillImage" />
        <dc:title></dc:title>
      </cc:Work>
    </rdf:RDF>
  </metadata>
  <g
     inkscape:label="Layer 1"
     inkscape:groupmode="layer"
     id="layer1"
     transform="translate(-96.302109,-83.929924)">
    <g
       id="g83095"
       transform="matrix(0.27529343,-0.06780319,0.06845316,0.27267951,-309.78755,159.07635)"
       inkscape:export-xdpi="96"
       inkscape:export-ydpi="96"
       style="opacity:1;stroke-width:0.921568">
      <path
         id="rect83049"
         style="opacity:1;fill:url(#linearGradient83077);fill-opacity:1;stroke:#ffffff;stroke-width:0;stroke-linecap:square;stroke-miterlimit:4;stroke-dasharray:none;paint-order:markers fill stroke"
         d="m 1459.615,88.571691 h 4.89 l -3.4343,85.120869 h -2.0214 z"
         sodipodi:nodetypes="ccccc" />
      <path
         id="path83033"
         style="opacity:1;fill:url(#linearGradient83047);fill-opacity:1;stroke:#ffffff;stroke-width:0;stroke-linecap:square;stroke-miterlimit:4;stroke-dasharray:none;paint-order:markers fill stroke"
         d="m 1455.6108,103.32852 c -0.3304,-1.22317 -1.0087,-2.32457 -1.5129,-3.48686 l -1.687,-0.12108 c -3.0851,4.39396 -4.0246,6.57521 -4.2477,9.4286 -0.3756,5.23396 -0.053,10.3363 0.5536,15.8225 0.5602,2.68998 2.7087,5.18023 4.6355,7.56431 l 1.7525,0.12578 c 0.6704,-1.07798 1.4456,-2.09741 2.0109,-3.23396 0.7901,-1.58819 0.5155,-3.26761 0.3615,-5.03472 -0.187,-2.14152 -0.6221,-9.91157 -0.6521,-14.45067 -0.015,-2.24144 -0.6301,-4.44991 -1.2143,-6.61391 z"
         sodipodi:nodetypes="sccccccssss" />
      <path
         id="path83035"
         style="opacity:1;fill:url(#linearGradient83045);fill-opacity:1;stroke:#ffffff;stroke-width:0;stroke-linecap:square;stroke-miterlimit:4;stroke-dasharray:none;paint-order:markers fill stroke"
         d="m 1461.0306,105.41655 c -0.2954,-1.23207 -0.9422,-2.35231 -1.4131,-3.52846 l -1.6829,-0.169 c -3.2088,4.30447 -4.2099,6.45813 -4.514,9.30402 -0.5243,5.22117 -0.3472,10.33061 0.1034,15.83185 0.4835,2.70481 2.5604,5.25514 4.4187,7.69304 l 1.7481,0.17555 c 0.7007,-1.05849 1.5046,-2.05546 2.1021,-3.17548 0.8349,-1.56508 0.6082,-3.25163 0.5044,-5.0224 -0.1259,-2.14597 -0.34,-9.92525 -0.2409,-14.46337 0.049,-2.24096 -0.5033,-4.46603 -1.0258,-6.64576 z"
         sodipodi:nodetypes="sccccccssss" />
      <path
         id="path83037"
         style="opacity:1;fill:url(#linearGradient83043);fill-opacity:1;stroke:#ffffff;stroke-width:0;stroke-linecap:square;stroke-miterlimit:4;stroke-dasharray:none;paint-order:markers fill stroke"
         d="m 1468.9445,103.10771 c 0.4785,-1.17308 1.2877,-2.18236 1.9314,-3.27354 l 1.6891,0.088 c 2.5193,4.74108 3.1825,7.02158 3.0517,9.88068 -0.2731,5.24033 -1.2226,10.26389 -2.5017,15.63328 -0.8879,2.60029 -3.3274,4.80637 -5.5336,6.93447 l -1.7547,-0.0915 c -0.5322,-1.15245 -1.1757,-2.25974 -1.5964,-3.45738 -0.588,-1.67353 -0.1084,-3.30626 0.2626,-5.04082 0.4497,-2.10211 1.8404,-9.75906 2.4302,-14.25978 0.2913,-2.22249 1.1745,-4.33814 2.0214,-6.41349 z"
         sodipodi:nodetypes="sccccccssss" />
      <path
         id="path83039"
         style="opacity:1;fill:url(#linearGradient83041);fill-opacity:1;stroke:#ffffff;stroke-width:0;stroke-linecap:square;stroke-miterlimit:4;stroke-dasharray:none;paint-order:markers fill stroke"
         d="m 1462.8252,105.23598 c 0.381,-1.20831 1.1048,-2.28041 1.6571,-3.4206 l 1.6907,-0.0505 c 2.8988,4.51905 3.7462,6.73765 3.8498,9.59787 0.1566,5.24509 -0.3786,10.3295 -1.2142,15.78555 -0.6722,2.66421 -2.9229,5.0625 -4.9476,7.36398 l -1.7563,0.0524 c -0.6247,-1.10504 -1.3567,-2.15596 -1.874,-3.31516 -0.7229,-1.61981 -0.3785,-3.2863 -0.1507,-5.04541 0.2762,-2.13185 1.0358,-9.87692 1.2554,-14.41081 0.1084,-2.23887 0.8155,-4.41969 1.4898,-6.55737 z"
         sodipodi:nodetypes="sccccccssss" />
      <path
         id="path83013"
         style="opacity:1;fill:url(#linearGradient83097);fill-opacity:1;stroke:#ffffff;stroke-width:0;stroke-linecap:square;stroke-miterlimit:4;stroke-dasharray:none;paint-order:markers fill stroke"
         d="m 1452.8378,116.655 c -0.5416,-1.40313 -1.4789,-2.61939 -2.2181,-3.92911 l -2.0067,0.0661 c -3.0978,5.56977 -3.9368,8.26136 -3.8465,11.65769 0.205,6.22574 1.2181,12.20956 2.6141,18.61137 0.9946,3.10636 3.8398,5.7801 6.41,8.35597 l 2.0845,-0.0686 c 0.6579,-1.35573 1.4468,-2.65531 1.9734,-4.06717 0.7359,-1.97291 0.2037,-3.92161 -0.1971,-5.98875 -0.4861,-2.50511 -1.9626,-11.62447 -2.5604,-16.97958 -0.2957,-2.64436 -1.2953,-5.17547 -2.2532,-7.65788 z"
         sodipodi:nodetypes="sccccccssss" />
      <path
         id="path83005"
         style="opacity:1;fill:url(#linearGradient83007);fill-opacity:1;stroke:#ffffff;stroke-width:0;stroke-linecap:square;stroke-miterlimit:4;stroke-dasharray:none;paint-order:markers fill stroke"
         d="m 1460.8834,119.02105 c -0.3507,-1.46257 -1.1184,-2.79238 -1.6775,-4.18857 l -1.9977,-0.20061 c -3.8091,5.10975 -4.9975,7.66631 -5.3585,11.04461 -0.6224,6.19794 -0.4121,12.26325 0.1228,18.79365 0.5739,3.21083 3.0394,6.23827 5.2453,9.13225 l 2.0752,0.20839 c 0.8318,-1.25651 1.7861,-2.43999 2.4953,-3.76954 0.9911,-1.85788 0.722,-3.85995 0.5988,-5.96199 -0.1495,-2.54744 -0.4036,-11.78206 -0.286,-17.16916 0.058,-2.6602 -0.5975,-5.30153 -1.2177,-7.88905 z"
         sodipodi:nodetypes="sccccccssss" />
      <path
         id="path83009"
         style="opacity:1;fill:url(#linearGradient83011);fill-opacity:1;stroke:#ffffff;stroke-width:0;stroke-linecap:square;stroke-miterlimit:4;stroke-dasharray:none;paint-order:markers fill stroke"
         d="m 1471.7849,116.62961 c 0.701,-1.33059 1.7736,-2.42945 2.6604,-3.64418 l 1.9854,0.29929 c 2.4282,5.89253 2.948,8.66347 2.463,12.0262 -0.9285,6.15953 -2.631,11.98479 -4.763,18.18049 -1.3496,2.96942 -4.4867,5.29374 -7.3393,7.55289 l -2.0624,-0.31093 c -0.4956,-1.42308 -1.1278,-2.80566 -1.4864,-4.26924 -0.5012,-2.04514 0.2542,-3.91867 0.893,-5.92505 0.7744,-2.43151 3.3026,-11.31694 4.5198,-16.56605 0.6011,-2.59206 1.8891,-4.98946 3.1295,-7.34344 z"
         sodipodi:nodetypes="sccccccssss" />
      <path
         id="rect82994"
         style="opacity:1;fill:url(#linearGradient83002);fill-opacity:1;stroke:#ffffff;stroke-width:0;stroke-linecap:square;stroke-miterlimit:4;stroke-dasharray:none;paint-order:markers fill stroke"
         d="m 1463.0137,118.80669 c 0.4523,-1.43435 1.3115,-2.70702 1.9672,-4.06052 l 2.0069,-0.0599 c 3.4411,5.36447 4.4471,7.99813 4.5701,11.39343 0.1859,6.22634 -0.4495,12.26194 -1.4414,18.7387 -0.7979,3.16263 -3.4697,6.00958 -5.8732,8.74162 l -2.0848,0.0622 c -0.7416,-1.31178 -1.6105,-2.5593 -2.2246,-3.93536 -0.8582,-1.92284 -0.4494,-3.9011 -0.1789,-5.9893 0.3279,-2.53068 1.2295,-11.72469 1.4902,-17.10677 0.1287,-2.65772 0.9681,-5.24652 1.7685,-7.78412 z"
         sodipodi:nodetypes="sccccccssss" />
      <path
         id="path83017"
         style="opacity:1;fill:url(#linearGradient83099);fill-opacity:1;stroke:#ffffff;stroke-width:0;stroke-linecap:square;stroke-miterlimit:4;stroke-dasharray:none;paint-order:markers fill stroke"
         d="m 1450.2117,138.82802 c -0.5901,-1.04152 -1.5718,-1.89863 -2.3574,-2.848 l -2.0151,0.24758 c -2.9335,4.64705 -3.6896,6.82846 -3.4887,9.4688 0.4081,4.83604 1.6214,9.40433 3.2317,14.26149 1.1008,2.32579 4.0477,4.13337 6.7151,5.89147 l 2.0933,-0.25719 c 0.6175,-1.12177 1.3683,-2.2125 1.8518,-3.36517 0.6759,-1.61079 0.078,-3.07879 -0.3923,-4.652 -0.57,-1.9065 -2.3501,-8.87538 -3.1248,-12.99397 -0.3828,-2.03376 -1.4702,-3.91031 -2.5136,-5.75303 z"
         sodipodi:nodetypes="sccccccssss" />
      <path
         id="path83067"
         style="opacity:1;fill:url(#linearGradient83069);fill-opacity:1;stroke:#ffffff;stroke-width:0;stroke-linecap:square;stroke-miterlimit:4;stroke-dasharray:none;paint-order:markers fill stroke"
         d="m 1460.1251,175.02893 c 0,0 4.9927,2.55999 4.5009,5.8043 -0.3796,2.50476 -1.5251,4.76102 -2.2876,7.14153 -3.7146,-2.10684 -5.963,-5.24206 -6.6089,-9.66737 1.4004,-3.09855 4.3956,-3.27846 4.3956,-3.27846 z"
         sodipodi:nodetypes="csccc" />
      <path
         id="path83063"
         style="opacity:1;fill:url(#linearGradient83065);fill-opacity:1;stroke:#ffffff;stroke-width:0;stroke-linecap:square;stroke-miterlimit:4;stroke-dasharray:none;paint-order:markers fill stroke"
         d="m 1459.5358,169.02893 c 0,0 -6.3523,2.78798 -5.8043,6.3537 0.5244,3.4122 1.8777,6.64428 2.8166,9.96642 4.7902,-2.30625 7.8232,-7.88715 8.6561,-12.73133 -1.8059,-3.39185 -5.6684,-3.58879 -5.6684,-3.58879 z"
         sodipodi:nodetypes="csccc" />
      <path
         id="path83019"
         style="opacity:1;fill:url(#linearGradient83029);fill-opacity:1;stroke:#ffffff;stroke-width:0;stroke-linecap:square;stroke-miterlimit:4;stroke-dasharray:none;paint-order:markers fill stroke"
         d="m 1460.8719,141.31321 c -0.355,-1.1375 -1.1322,-2.17175 -1.6982,-3.25762 l -2.0222,-0.15602 c -3.8559,3.97405 -5.0589,5.96239 -5.4243,8.58983 -0.6302,4.82038 -0.4172,9.53761 0.1242,14.61658 0.581,2.49718 3.0768,4.85174 5.3098,7.10251 l 2.1007,0.16207 c 0.8421,-0.97723 1.8081,-1.89768 2.5261,-2.93172 1.0032,-1.44495 0.7308,-3.00204 0.6061,-4.63688 -0.1513,-1.98125 -0.4085,-9.16337 -0.2895,-13.35314 0.059,-2.06895 -0.6049,-4.12322 -1.2327,-6.13563 z"
         sodipodi:nodetypes="sccccccssss" />
      <path
         id="path83021"
         style="opacity:1;fill:url(#linearGradient83101);fill-opacity:1;stroke:#ffffff;stroke-width:0;stroke-linecap:square;stroke-miterlimit:4;stroke-dasharray:none;paint-order:markers fill stroke"
         d="m 1473.7127,138.98879 c 0.6912,-1.01293 1.7603,-1.83169 2.6405,-2.7475 l 2.0084,0.30481 c 2.5255,4.68466 3.0851,6.86523 2.6375,9.47138 -0.8605,4.77224 -2.5065,9.25584 -4.5816,14.01305 -1.3255,2.26819 -4.4639,3.9688 -7.3158,5.62882 l -2.0863,-0.3168 c -0.5181,-1.12809 -1.1739,-2.22953 -1.5542,-3.3843 -0.5316,-1.61363 0.2075,-3.04819 0.8274,-4.59058 0.7516,-1.86919 3.1929,-8.71066 4.3562,-12.76222 0.5745,-2.0007 1.845,-3.82482 3.0679,-5.61679 z"
         sodipodi:nodetypes="sccccccssss" />
      <path
         id="path83023"
         style="opacity:1;fill:url(#linearGradient83025);fill-opacity:1;stroke:#ffffff;stroke-width:0;stroke-linecap:square;stroke-miterlimit:4;stroke-dasharray:none;paint-order:markers fill stroke"
         d="m 1463.0284,141.14649 c 0.4579,-1.11555 1.3277,-2.10536 1.9913,-3.15803 l 2.0316,-0.0466 c 3.4834,4.17217 4.5019,6.22047 4.6263,8.86113 0.1882,4.84247 -0.455,9.5366 -1.4591,14.57384 -0.8076,2.4597 -3.5123,4.67389 -5.9454,6.7987 l -2.1104,0.0484 c -0.7508,-1.02023 -1.6303,-1.99048 -2.2519,-3.06069 -0.8688,-1.49548 -0.455,-3.03405 -0.1811,-4.65812 0.3319,-1.96822 1.2445,-9.11876 1.5085,-13.30462 0.1303,-2.06702 0.98,-4.08043 1.7902,-6.05402 z"
         sodipodi:nodetypes="sccccccssss" />
      <path
         id="rect83052"
         style="opacity:1;fill:url(#linearGradient83061);fill-opacity:1;stroke:#ffffff;stroke-width:0;stroke-linecap:square;stroke-miterlimit:4;stroke-dasharray:none;paint-order:markers fill stroke"
         d="m 1461.3979,169.02893 c 0,0 6.4385,2.8023 5.8043,6.3537 -0.4896,2.74184 -1.9667,5.21167 -2.9501,7.8175 -4.7902,-2.30625 -7.6897,-5.73823 -8.5226,-10.58241 1.8059,-3.39185 5.6684,-3.58879 5.6684,-3.58879 z"
         sodipodi:nodetypes="csccc" />
    </g>
  </g>
</svg>
