<?xml version="1.0" encoding="UTF-8" standalone="no"?>
<svg
   xmlns:dc="http://purl.org/dc/elements/1.1/"
   xmlns:cc="http://creativecommons.org/ns#"
   xmlns:rdf="http://www.w3.org/1999/02/22-rdf-syntax-ns#"
   xmlns:svg="http://www.w3.org/2000/svg"
   xmlns="http://www.w3.org/2000/svg"
   xmlns:xlink="http://www.w3.org/1999/xlink"
   xmlns:sodipodi="http://sodipodi.sourceforge.net/DTD/sodipodi-0.dtd"
   xmlns:inkscape="http://www.inkscape.org/namespaces/inkscape"
   width="68.954483mm"
   height="74.083336mm"
   viewBox="0 0 68.954483 74.083336"
   version="1.1"
   id="svg3875"
   inkscape:version="1.0.2 (e86c870879, 2021-01-15, custom)"
   sodipodi:docname="pohon-pisang.svg">
  <defs
     id="defs3869">
    <linearGradient
       inkscape:collect="always"
       xlink:href="#linearGradient82883"
       id="linearGradient82954"
       gradientUnits="userSpaceOnUse"
       x1="1208.6326"
       y1="136.51302"
       x2="1333.0636"
       y2="123.02715" />
    <linearGradient
       inkscape:collect="always"
       id="linearGradient82883">
      <stop
         style="stop-color:#008000;stop-opacity:1"
         offset="0"
         id="stop82879" />
      <stop
         style="stop-color:#7cfc00;stop-opacity:1"
         offset="1"
         id="stop82881" />
    </linearGradient>
    <linearGradient
       inkscape:collect="always"
       xlink:href="#linearGradient82883"
       id="linearGradient82956"
       gradientUnits="userSpaceOnUse"
       x1="1326.2786"
       y1="126.2168"
       x2="1192.7943"
       y2="167.69176" />
    <linearGradient
       inkscape:collect="always"
       xlink:href="#linearGradient82913"
       id="linearGradient82958"
       gradientUnits="userSpaceOnUse"
       x1="1209.4932"
       y1="155.7338"
       x2="1340.5889"
       y2="128.91328" />
    <linearGradient
       inkscape:collect="always"
       id="linearGradient82913">
      <stop
         style="stop-color:#8ffe8f;stop-opacity:1"
         offset="0"
         id="stop82909" />
      <stop
         style="stop-color:#5bba00;stop-opacity:1"
         offset="1"
         id="stop82911" />
    </linearGradient>
    <linearGradient
       inkscape:collect="always"
       xlink:href="#linearGradient82814"
       id="linearGradient82833"
       gradientUnits="userSpaceOnUse"
       gradientTransform="matrix(0.20790863,0,0,0.23536989,-138.31608,44.955051)"
       x1="1244.0225"
       y1="202.80891"
       x2="1249.181"
       y2="202.56346" />
    <linearGradient
       inkscape:collect="always"
       id="linearGradient82814">
      <stop
         style="stop-color:#3dc04f;stop-opacity:1;"
         offset="0"
         id="stop82810" />
      <stop
         style="stop-color:#00ab01;stop-opacity:1"
         offset="1"
         id="stop82812" />
    </linearGradient>
    <linearGradient
       inkscape:collect="always"
       xlink:href="#linearGradient82814"
       id="linearGradient82827"
       gradientUnits="userSpaceOnUse"
       gradientTransform="matrix(-0.20790863,0,0,0.23536989,380.71705,50.133188)"
       x1="1248.9623"
       y1="211.29358"
       x2="1236.9103"
       y2="211.50525" />
    <linearGradient
       inkscape:collect="always"
       xlink:href="#linearGradient82814"
       id="linearGradient82829"
       gradientUnits="userSpaceOnUse"
       x1="1241.5574"
       y1="203.16826"
       x2="1254.8069"
       y2="203.79457"
       gradientTransform="matrix(0.20790863,0,0,0.23536989,-138.7881,50.133188)" />
    <linearGradient
       inkscape:collect="always"
       xlink:href="#linearGradient82883"
       id="linearGradient82899"
       x1="1208.6326"
       y1="136.51302"
       x2="1333.0636"
       y2="123.02715"
       gradientUnits="userSpaceOnUse"
       gradientTransform="matrix(0.28095898,0,0,0.28019693,-256.59917,49.165771)" />
    <linearGradient
       inkscape:collect="always"
       xlink:href="#linearGradient82814"
       id="linearGradient82816"
       x1="1234.3937"
       y1="203.71674"
       x2="1264.3247"
       y2="203.71674"
       gradientUnits="userSpaceOnUse"
       gradientTransform="matrix(0.23601002,0,0,0.23536989,-174.31738,62.766936)" />
    <linearGradient
       inkscape:collect="always"
       xlink:href="#linearGradient82814"
       id="linearGradient82821"
       gradientUnits="userSpaceOnUse"
       x1="1250.0773"
       y1="215.48466"
       x2="1235.5104"
       y2="216.44516"
       gradientTransform="matrix(-0.23601002,0,0,0.23536989,415.40523,62.766936)" />
    <linearGradient
       inkscape:collect="always"
       xlink:href="#linearGradient82883"
       id="linearGradient82877"
       x1="1326.2786"
       y1="126.2168"
       x2="1192.7943"
       y2="167.69176"
       gradientUnits="userSpaceOnUse"
       gradientTransform="matrix(0.28095898,0,0,0.28019693,-256.59917,49.165771)" />
    <linearGradient
       inkscape:collect="always"
       xlink:href="#linearGradient82913"
       id="linearGradient82907"
       x1="1209.4932"
       y1="155.7338"
       x2="1340.5889"
       y2="128.91328"
       gradientUnits="userSpaceOnUse"
       gradientTransform="matrix(0.28095898,0,0,0.28019693,-256.59917,49.165771)" />
    <linearGradient
       inkscape:collect="always"
       xlink:href="#linearGradient82883"
       id="linearGradient6779"
       gradientUnits="userSpaceOnUse"
       x1="1208.6326"
       y1="136.51302"
       x2="1333.0636"
       y2="123.02715" />
    <linearGradient
       inkscape:collect="always"
       xlink:href="#linearGradient82883"
       id="linearGradient6781"
       gradientUnits="userSpaceOnUse"
       x1="1326.2786"
       y1="126.2168"
       x2="1192.7943"
       y2="167.69176" />
    <linearGradient
       inkscape:collect="always"
       xlink:href="#linearGradient82913"
       id="linearGradient6783"
       gradientUnits="userSpaceOnUse"
       x1="1209.4932"
       y1="155.7338"
       x2="1340.5889"
       y2="128.91328" />
    <linearGradient
       inkscape:collect="always"
       xlink:href="#linearGradient82883"
       id="linearGradient6785"
       gradientUnits="userSpaceOnUse"
       x1="1208.6326"
       y1="136.51302"
       x2="1333.0636"
       y2="123.02715" />
    <linearGradient
       inkscape:collect="always"
       xlink:href="#linearGradient82883"
       id="linearGradient6787"
       gradientUnits="userSpaceOnUse"
       x1="1326.2786"
       y1="126.2168"
       x2="1192.7943"
       y2="167.69176" />
    <linearGradient
       inkscape:collect="always"
       xlink:href="#linearGradient82913"
       id="linearGradient6789"
       gradientUnits="userSpaceOnUse"
       x1="1209.4932"
       y1="155.7338"
       x2="1340.5889"
       y2="128.91328" />
    <linearGradient
       inkscape:collect="always"
       xlink:href="#linearGradient82883"
       id="linearGradient6791"
       gradientUnits="userSpaceOnUse"
       x1="1208.6326"
       y1="136.51302"
       x2="1333.0636"
       y2="123.02715" />
    <linearGradient
       inkscape:collect="always"
       xlink:href="#linearGradient82883"
       id="linearGradient6793"
       gradientUnits="userSpaceOnUse"
       x1="1326.2786"
       y1="126.2168"
       x2="1192.7943"
       y2="167.69176" />
    <linearGradient
       inkscape:collect="always"
       xlink:href="#linearGradient82913"
       id="linearGradient6795"
       gradientUnits="userSpaceOnUse"
       x1="1209.4932"
       y1="155.7338"
       x2="1340.5889"
       y2="128.91328" />
    <linearGradient
       inkscape:collect="always"
       xlink:href="#linearGradient82883"
       id="linearGradient6797"
       gradientUnits="userSpaceOnUse"
       x1="1208.6326"
       y1="136.51302"
       x2="1333.0636"
       y2="123.02715" />
    <linearGradient
       inkscape:collect="always"
       xlink:href="#linearGradient82883"
       id="linearGradient6799"
       gradientUnits="userSpaceOnUse"
       x1="1326.2786"
       y1="126.2168"
       x2="1192.7943"
       y2="167.69176" />
    <linearGradient
       inkscape:collect="always"
       xlink:href="#linearGradient82913"
       id="linearGradient6801"
       gradientUnits="userSpaceOnUse"
       x1="1209.4932"
       y1="155.7338"
       x2="1340.5889"
       y2="128.91328" />
  </defs>
  <sodipodi:namedview
     id="base"
     pagecolor="#ffffff"
     bordercolor="#666666"
     borderopacity="1.0"
     inkscape:pageopacity="0.0"
     inkscape:pageshadow="2"
     inkscape:zoom="1.9928572"
     inkscape:cx="130.30768"
     inkscape:cy="140"
     inkscape:document-units="mm"
     inkscape:current-layer="layer1"
     inkscape:document-rotation="0"
     showgrid="false"
     inkscape:window-width="1366"
     inkscape:window-height="720"
     inkscape:window-x="0"
     inkscape:window-y="0"
     inkscape:window-maximized="1" />
  <metadata
     id="metadata3872">
    <rdf:RDF>
      <cc:Work
         rdf:about="">
        <dc:format>image/svg+xml</dc:format>
        <dc:type
           rdf:resource="http://purl.org/dc/dcmitype/StillImage" />
        <dc:title></dc:title>
      </cc:Work>
    </rdf:RDF>
  </metadata>
  <g
     inkscape:label="Layer 1"
     inkscape:groupmode="layer"
     id="layer1"
     transform="translate(-82.977011,-60.098211)">
    <g
       id="g82952"
       transform="matrix(0.2177767,0.17703263,-0.1775141,0.21718602,-147.11015,-179.77835)"
       inkscape:transform-center-x="55.284749"
       inkscape:transform-center-y="-32.924285"
       inkscape:export-xdpi="96"
       inkscape:export-ydpi="96"
       style="stroke-width:0.927311">
      <path
         id="path82946"
         style="opacity:1;fill:url(#linearGradient6779);fill-opacity:1;stroke:#ffffff;stroke-width:0;stroke-linecap:square;stroke-miterlimit:1.41;paint-order:markers fill stroke"
         d="m 1208.6326,156.51411 c 22.7357,-16.61521 46.6235,-29.32862 72.382,-34.68817 21.1128,-2.5634 54.1998,0.93357 62.4151,6.11925 -17.3674,-8.12375 -56.5503,-14.80362 -78.84,-9.58839 -3.3292,0.74251 -6.7849,1.82697 -10.2793,3.18811 -0.2946,0.11468 2.819,1.6796 2.5238,1.79821 -0.3118,0.12538 -4.0321,-1.19528 -4.3445,-1.06565 -2.9136,1.20942 -5.8436,2.60219 -8.7397,4.14075 -5.1109,2.7151 -10.117,5.88433 -14.7422,9.30172 -0.3391,0.25064 -1.0114,0.75582 -1.0114,0.75582 l 2.862,1.02021 -3.7854,-0.31487 c 0,0 -14.6033,12.96005 -18.4404,19.33301 z"
         sodipodi:nodetypes="cccccccsscccc" />
      <path
         id="path82948"
         style="opacity:1;fill:url(#linearGradient6781);fill-opacity:1;stroke:#ffffff;stroke-width:0;stroke-linecap:square;stroke-miterlimit:1.41;paint-order:markers fill stroke"
         d="m 1208.6326,156.51411 c 22.7357,-16.61521 46.6235,-29.32862 72.382,-34.68817 21.1128,-2.5634 54.1998,0.93357 62.4151,6.11925 0,0 -1.6999,4.47038 -5.6162,6.2321 -9.7157,4.18069 -19.4076,8.19963 -32.3259,12.34241 -0.2138,0.0686 -4.7122,-12.60524 -4.9278,-12.53659 -0.1833,0.0583 3.9165,12.85913 3.7319,12.91751 -5.6932,1.8013 -12.0129,3.62755 -19.2244,5.50212 -2.5313,0.56455 -5.7653,1.34803 -9.3122,2.20759 -0.1445,0.0351 -6.585,-20.62729 -6.7304,-20.59196 -0.2104,0.051 5.8737,20.79963 5.6614,20.85098 -5.441,1.31787 -11.5058,2.77659 -16.8552,3.88483 -0.6906,0.14307 -7.2629,-21.10858 -7.2629,-21.10858 0.8373,3.83723 5.8262,21.3086 5.1316,21.43867 -6.5459,1.2259 -12.8149,2.04805 -17.7584,1.89771 -10.9766,-0.33384 -19.4505,-1.03047 -29.3086,-4.46787 z"
         sodipodi:nodetypes="ccccccccccccccsc" />
      <path
         style="fill:url(#linearGradient6783);fill-opacity:1;stroke:#000000;stroke-width:0;stroke-linecap:butt;stroke-linejoin:miter;stroke-miterlimit:4;stroke-dasharray:none;stroke-opacity:1"
         d="m 1208.6326,156.51411 c 23.7157,-13.97735 42.8796,-27.27741 68.9117,-33.4549 14.66,-3.47887 47.54,1.44316 65.8854,4.88598 0,0 -3.9917,-1.84361 -7.1114,-2.99639 -9.8198,-2.67554 -43.5428,-7.79811 -60.8923,-3.96012 -23.1494,5.12098 -43.2408,18.84626 -58.3996,29.39006 -2.7979,2.04512 -5.5958,4.09025 -8.3938,6.13537 z"
         id="path82950"
         sodipodi:nodetypes="csccscc" />
    </g>
    <g
       id="g82966"
       transform="matrix(-0.04002986,0.20421121,0.20961882,0.01663282,147.31028,-189.32139)"
       inkscape:transform-center-x="-15.744809"
       inkscape:transform-center-y="-45.395474"
       inkscape:export-xdpi="96"
       inkscape:export-ydpi="96"
       style="stroke-width:0.927311">
      <path
         id="path82960"
         style="opacity:1;fill:url(#linearGradient6785);fill-opacity:1;stroke:#ffffff;stroke-width:0;stroke-linecap:square;stroke-miterlimit:1.41;paint-order:markers fill stroke"
         d="m 1208.6326,156.51411 c 22.7357,-16.61521 46.6235,-29.32862 72.382,-34.68817 21.1128,-2.5634 54.1998,0.93357 62.4151,6.11925 -17.3674,-8.12375 -56.5503,-14.80362 -78.84,-9.58839 -3.3292,0.74251 -6.7849,1.82697 -10.2793,3.18811 -0.2946,0.11468 2.819,1.6796 2.5238,1.79821 -0.3118,0.12538 -4.0321,-1.19528 -4.3445,-1.06565 -2.9136,1.20942 -5.8436,2.60219 -8.7397,4.14075 -5.1109,2.7151 -10.117,5.88433 -14.7422,9.30172 -0.3391,0.25064 -1.0114,0.75582 -1.0114,0.75582 l 2.862,1.02021 -3.7854,-0.31487 c 0,0 -14.6033,12.96005 -18.4404,19.33301 z"
         sodipodi:nodetypes="cccccccsscccc" />
      <path
         id="path82962"
         style="opacity:1;fill:url(#linearGradient6787);fill-opacity:1;stroke:#ffffff;stroke-width:0;stroke-linecap:square;stroke-miterlimit:1.41;paint-order:markers fill stroke"
         d="m 1208.6326,156.51411 c 22.7357,-16.61521 46.6235,-29.32862 72.382,-34.68817 21.1128,-2.5634 54.1998,0.93357 62.4151,6.11925 0,0 -1.6999,4.47038 -5.6162,6.2321 -9.7157,4.18069 -19.4076,8.19963 -32.3259,12.34241 -0.2138,0.0686 -4.7122,-12.60524 -4.9278,-12.53659 -0.1833,0.0583 3.9165,12.85913 3.7319,12.91751 -5.6932,1.8013 -12.0129,3.62755 -19.2244,5.50212 -2.5313,0.56455 -5.7653,1.34803 -9.3122,2.20759 -0.1445,0.0351 -6.585,-20.62729 -6.7304,-20.59196 -0.2104,0.051 5.8737,20.79963 5.6614,20.85098 -5.441,1.31787 -11.5058,2.77659 -16.8552,3.88483 -0.6906,0.14307 -7.2629,-21.10858 -7.2629,-21.10858 0.8373,3.83723 5.8262,21.3086 5.1316,21.43867 -6.5459,1.2259 -12.8149,2.04805 -17.7584,1.89771 -10.9766,-0.33384 -19.4505,-1.03047 -29.3086,-4.46787 z"
         sodipodi:nodetypes="ccccccccccccccsc" />
      <path
         style="fill:url(#linearGradient6789);fill-opacity:1;stroke:#000000;stroke-width:0;stroke-linecap:butt;stroke-linejoin:miter;stroke-miterlimit:4;stroke-dasharray:none;stroke-opacity:1"
         d="m 1208.6326,156.51411 c 23.7157,-13.97735 42.8796,-27.27741 68.9117,-33.4549 14.66,-3.47887 47.54,1.44316 65.8854,4.88598 0,0 -3.9917,-1.84361 -7.1114,-2.99639 -9.8198,-2.67554 -43.5428,-7.79811 -60.8923,-3.96012 -23.1494,5.12098 -43.2408,18.84626 -58.3996,29.39006 -2.7979,2.04512 -5.5958,4.09025 -8.3938,6.13537 z"
         id="path82964"
         sodipodi:nodetypes="csccscc" />
    </g>
    <path
       id="path82831"
       style="fill:url(#linearGradient82833);fill-opacity:1;stroke:#ffffff;stroke-width:0;stroke-linecap:square;stroke-miterlimit:1.41;paint-order:markers fill stroke"
       d="m 121.04104,82.560123 c 0.31273,1.790255 1.58846,3.948549 1.708,5.846248 0.27046,4.294069 -0.33791,9.791158 0.13712,15.363289 l -4.0609,0.22623 0.54511,-15.223074 z"
       sodipodi:nodetypes="cscccc"
       inkscape:export-xdpi="96"
       inkscape:export-ydpi="96" />
    <g
       id="g82938"
       transform="matrix(-0.19485712,0.20185815,0.20240714,0.1943286,355.76258,-210.03296)"
       inkscape:transform-center-x="-51.029709"
       inkscape:transform-center-y="-38.398092"
       inkscape:export-xdpi="96"
       inkscape:export-ydpi="96"
       style="stroke-width:0.927311">
      <path
         id="path82932"
         style="opacity:1;fill:url(#linearGradient6791);fill-opacity:1;stroke:#ffffff;stroke-width:0;stroke-linecap:square;stroke-miterlimit:1.41;paint-order:markers fill stroke"
         d="m 1208.6326,156.51411 c 22.7357,-16.61521 46.6235,-29.32862 72.382,-34.68817 21.1128,-2.5634 54.1998,0.93357 62.4151,6.11925 -17.3674,-8.12375 -56.5503,-14.80362 -78.84,-9.58839 -3.3292,0.74251 -6.7849,1.82697 -10.2793,3.18811 -0.2946,0.11468 2.819,1.6796 2.5238,1.79821 -0.3118,0.12538 -4.0321,-1.19528 -4.3445,-1.06565 -2.9136,1.20942 -5.8436,2.60219 -8.7397,4.14075 -5.1109,2.7151 -10.117,5.88433 -14.7422,9.30172 -0.3391,0.25064 -1.0114,0.75582 -1.0114,0.75582 l 2.862,1.02021 -3.7854,-0.31487 c 0,0 -14.6033,12.96005 -18.4404,19.33301 z"
         sodipodi:nodetypes="cccccccsscccc" />
      <path
         id="path82934"
         style="opacity:1;fill:url(#linearGradient6793);fill-opacity:1;stroke:#ffffff;stroke-width:0;stroke-linecap:square;stroke-miterlimit:1.41;paint-order:markers fill stroke"
         d="m 1208.6326,156.51411 c 22.7357,-16.61521 46.6235,-29.32862 72.382,-34.68817 21.1128,-2.5634 54.1998,0.93357 62.4151,6.11925 0,0 -1.6999,4.47038 -5.6162,6.2321 -9.7157,4.18069 -19.4076,8.19963 -32.3259,12.34241 -0.2138,0.0686 -4.7122,-12.60524 -4.9278,-12.53659 -0.1833,0.0583 3.9165,12.85913 3.7319,12.91751 -5.6932,1.8013 -12.0129,3.62755 -19.2244,5.50212 -2.5313,0.56455 -5.7653,1.34803 -9.3122,2.20759 -0.1445,0.0351 -6.585,-20.62729 -6.7304,-20.59196 -0.2104,0.051 5.8737,20.79963 5.6614,20.85098 -5.441,1.31787 -11.5058,2.77659 -16.8552,3.88483 -0.6906,0.14307 -7.2629,-21.10858 -7.2629,-21.10858 0.8373,3.83723 5.8262,21.3086 5.1316,21.43867 -6.5459,1.2259 -12.8149,2.04805 -17.7584,1.89771 -10.9766,-0.33384 -19.4505,-1.03047 -29.3086,-4.46787 z"
         sodipodi:nodetypes="ccccccccccccccsc" />
      <path
         style="fill:url(#linearGradient6795);fill-opacity:1;stroke:#000000;stroke-width:0;stroke-linecap:butt;stroke-linejoin:miter;stroke-miterlimit:4;stroke-dasharray:none;stroke-opacity:1"
         d="m 1208.6326,156.51411 c 23.7157,-13.97735 42.8796,-27.27741 68.9117,-33.4549 14.66,-3.47887 47.54,1.44316 65.8854,4.88598 0,0 -3.9917,-1.84361 -7.1114,-2.99639 -9.8198,-2.67554 -43.5428,-7.79811 -60.8923,-3.96012 -23.1494,5.12098 -43.2408,18.84626 -58.3996,29.39006 -2.7979,2.04512 -5.5958,4.09025 -8.3938,6.13537 z"
         id="path82936"
         sodipodi:nodetypes="csccscc" />
    </g>
    <path
       id="path82825"
       style="fill:url(#linearGradient82827);fill-opacity:1;stroke:#ffffff;stroke-width:0;stroke-linecap:square;stroke-miterlimit:1.41;paint-order:markers fill stroke"
       d="m 123.47052,91.182604 c -2.06729,7.434107 -4.06641,16.955386 -4.42312,29.835556 l 4.55655,0.12921 z"
       sodipodi:nodetypes="cccc"
       inkscape:export-xdpi="96"
       inkscape:export-ydpi="96" />
    <path
       id="path82823"
       style="fill:url(#linearGradient82829);fill-opacity:1;stroke:#ffffff;stroke-width:0;stroke-linecap:square;stroke-miterlimit:1.41;paint-order:markers fill stroke"
       d="m 119.23954,87.628391 c 2.54751,11.659383 3.64662,16.612009 3.89233,30.223799 l -5.27886,3.29518 z"
       sodipodi:nodetypes="cccc"
       inkscape:export-xdpi="96"
       inkscape:export-ydpi="96" />
    <path
       id="path82849"
       style="fill:url(#linearGradient82899);fill-opacity:1;stroke:#ffffff;stroke-width:0;stroke-linecap:square;stroke-miterlimit:1.41;paint-order:markers fill stroke"
       d="m 82.977011,93.020545 c 6.387808,-4.655527 13.099298,-8.217795 20.336379,-9.719521 5.93182,-0.718254 15.2279,0.261585 17.53607,1.714602 -4.8795,-2.27626 -15.88831,-4.147931 -22.150812,-2.686643 -0.93536,0.20805 -1.906262,0.511915 -2.88805,0.893296 -0.08277,0.03209 0.792019,0.470616 0.709077,0.50386 -0.0876,0.03511 -1.132843,-0.334923 -1.220613,-0.298598 -0.81862,0.338875 -1.641809,0.729131 -2.455513,1.160234 -1.435955,0.76076 -2.842452,1.648769 -4.14195,2.606304 -0.09525,0.07022 -0.284169,0.211777 -0.284169,0.211777 l 0.804105,0.285859 -1.06353,-0.0882 c 0,0 -4.102922,3.631362 -5.180994,5.417051 z"
       sodipodi:nodetypes="cccccccsscccc"
       inkscape:export-xdpi="96"
       inkscape:export-ydpi="96" />
    <path
       id="rect82808"
       style="fill:url(#linearGradient82816);fill-opacity:1;stroke:#ffffff;stroke-width:0;stroke-linecap:square;stroke-miterlimit:1.41;paint-order:markers fill stroke"
       d="m 117.99102,100.78791 c 3.70769,15.26639 4.25448,17.43695 6.08492,32.9932 0,0 -2.64103,0.32484 -3.96276,0.31114 -1.0417,-0.0108 -3.10124,-0.31114 -3.10124,-0.31114 z"
       sodipodi:nodetypes="ccscc"
       inkscape:export-xdpi="96"
       inkscape:export-ydpi="96" />
    <path
       id="path82819"
       style="fill:url(#linearGradient82821);fill-opacity:1;stroke:#ffffff;stroke-width:0;stroke-linecap:square;stroke-miterlimit:1.41;paint-order:markers fill stroke"
       d="m 123.62761,102.49132 c -2.34672,7.43411 -4.85501,18.28042 -5.25992,31.16059 0,0 1.29451,0.51521 1.86418,0.52812 1.33307,0.0302 3.84407,-0.39892 3.84407,-0.39892 z"
       sodipodi:nodetypes="ccscc"
       inkscape:export-xdpi="96"
       inkscape:export-ydpi="96" />
    <path
       id="rect82835"
       style="fill:url(#linearGradient82877);fill-opacity:1;stroke:#ffffff;stroke-width:0;stroke-linecap:square;stroke-miterlimit:1.41;paint-order:markers fill stroke"
       d="m 82.977011,93.020545 c 6.387808,-4.655527 13.099298,-8.217795 20.336379,-9.719521 5.93182,-0.718254 15.2279,0.261585 17.53607,1.714602 0,0 -0.47759,1.252579 -1.57792,1.746209 -2.72971,1.171423 -5.45274,2.297518 -9.08226,3.458312 -0.06,0.01917 -1.32393,-3.531952 -1.3845,-3.512719 -0.0515,0.01637 1.10039,3.603083 1.04851,3.619442 -1.59956,0.504721 -3.37514,1.016432 -5.40125,1.54168 -0.71119,0.158189 -1.61981,0.37772 -2.61637,0.618563 -0.0406,0.0097 -1.850094,-5.779706 -1.890951,-5.769809 -0.05911,0.01432 1.650271,5.827995 1.590611,5.842383 -1.5287,0.369266 -3.232648,0.77799 -4.735601,1.088521 -0.194055,0.04006 -2.040604,-5.914558 -2.040604,-5.914558 0.235254,1.075178 1.636923,5.970601 1.441783,6.007044 -1.839121,0.343495 -3.600471,0.57386 -4.989369,0.531731 -3.083991,-0.09359 -5.464819,-0.288734 -8.234528,-1.25188 z"
       sodipodi:nodetypes="ccccccccccccccsc"
       inkscape:export-xdpi="96"
       inkscape:export-ydpi="96" />
    <path
       style="fill:url(#linearGradient82907);fill-opacity:1;stroke:#000000;stroke-width:0;stroke-linecap:butt;stroke-linejoin:miter;stroke-miterlimit:4;stroke-dasharray:none;stroke-opacity:1"
       d="m 82.977011,93.020545 c 6.663147,-3.916414 12.047397,-7.643052 19.361369,-9.373958 4.11886,-0.974777 13.35677,0.404363 18.51108,1.369039 0,0 -1.12149,-0.516579 -1.998,-0.839591 -2.75896,-0.749668 -12.23374,-2.185002 -17.10825,-1.109608 -6.504034,1.434882 -12.148879,5.28066 -16.407884,8.235004 -0.786106,0.573042 -1.572182,1.146083 -2.358315,1.719114 z"
       id="path82851"
       sodipodi:nodetypes="csccscc"
       inkscape:export-xdpi="96"
       inkscape:export-ydpi="96" />
    <g
       id="g82924"
       transform="matrix(-0.24300913,-0.14062997,-0.14101244,0.24235001,465.62053,242.63398)"
       inkscape:transform-center-x="-49.469353"
       inkscape:transform-center-y="40.388534"
       inkscape:export-xdpi="96"
       inkscape:export-ydpi="96"
       style="stroke-width:0.927311">
      <path
         id="path82915"
         style="opacity:1;fill:url(#linearGradient6797);fill-opacity:1;stroke:#ffffff;stroke-width:0;stroke-linecap:square;stroke-miterlimit:1.41;paint-order:markers fill stroke"
         d="m 1208.6326,156.51411 c 22.7357,-16.61521 46.6235,-29.32862 72.382,-34.68817 21.1128,-2.5634 54.1998,0.93357 62.4151,6.11925 -17.3674,-8.12375 -56.5503,-14.80362 -78.84,-9.58839 -3.3292,0.74251 -6.7849,1.82697 -10.2793,3.18811 -0.2946,0.11468 2.819,1.6796 2.5238,1.79821 -0.3118,0.12538 -4.0321,-1.19528 -4.3445,-1.06565 -2.9136,1.20942 -5.8436,2.60219 -8.7397,4.14075 -5.1109,2.7151 -10.117,5.88433 -14.7422,9.30172 -0.3391,0.25064 -1.0114,0.75582 -1.0114,0.75582 l 2.862,1.02021 -3.7854,-0.31487 c 0,0 -14.6033,12.96005 -18.4404,19.33301 z"
         sodipodi:nodetypes="cccccccsscccc" />
      <path
         id="path82917"
         style="opacity:1;fill:url(#linearGradient6799);fill-opacity:1;stroke:#ffffff;stroke-width:0;stroke-linecap:square;stroke-miterlimit:1.41;paint-order:markers fill stroke"
         d="m 1208.6326,156.51411 c 22.7357,-16.61521 46.6235,-29.32862 72.382,-34.68817 21.1128,-2.5634 54.1998,0.93357 62.4151,6.11925 0,0 -1.6999,4.47038 -5.6162,6.2321 -9.7157,4.18069 -19.4076,8.19963 -32.3259,12.34241 -0.2138,0.0686 -4.7122,-12.60524 -4.9278,-12.53659 -0.1833,0.0583 3.9165,12.85913 3.7319,12.91751 -5.6932,1.8013 -12.0129,3.62755 -19.2244,5.50212 -2.5313,0.56455 -5.7653,1.34803 -9.3122,2.20759 -0.1445,0.0351 -6.585,-20.62729 -6.7304,-20.59196 -0.2104,0.051 5.8737,20.79963 5.6614,20.85098 -5.441,1.31787 -11.5058,2.77659 -16.8552,3.88483 -0.6906,0.14307 -7.2629,-21.10858 -7.2629,-21.10858 0.8373,3.83723 5.8262,21.3086 5.1316,21.43867 -6.5459,1.2259 -12.8149,2.04805 -17.7584,1.89771 -10.9766,-0.33384 -19.4505,-1.03047 -29.3086,-4.46787 z"
         sodipodi:nodetypes="ccccccccccccccsc" />
      <path
         style="fill:url(#linearGradient6801);fill-opacity:1;stroke:#000000;stroke-width:0;stroke-linecap:butt;stroke-linejoin:miter;stroke-miterlimit:4;stroke-dasharray:none;stroke-opacity:1"
         d="m 1208.6326,156.51411 c 23.7157,-13.97735 42.8796,-27.27741 68.9117,-33.4549 14.66,-3.47887 47.54,1.44316 65.8854,4.88598 0,0 -3.9917,-1.84361 -7.1114,-2.99639 -9.8198,-2.67554 -43.5428,-7.79811 -60.8923,-3.96012 -23.1494,5.12098 -43.2408,18.84626 -58.3996,29.39006 -2.7979,2.04512 -5.5958,4.09025 -8.3938,6.13537 z"
         id="path82919"
         sodipodi:nodetypes="csccscc" />
    </g>
    <g
       id="g82986"
       transform="matrix(0.19606182,-0.11874952,0.20710545,0.23912809,-168.92862,213.91623)"
       inkscape:transform-center-x="36.757703"
       inkscape:transform-center-y="35.320296"
       inkscape:export-xdpi="96"
       inkscape:export-ydpi="96"
       style="stroke-width:0.927311">
      <path
         id="path82980"
         style="opacity:1;fill:url(#linearGradient82954);fill-opacity:1;stroke:#ffffff;stroke-width:0;stroke-linecap:square;stroke-miterlimit:1.41;paint-order:markers fill stroke"
         d="m 1208.6326,156.51411 c 22.7357,-16.61521 46.6235,-29.32862 72.382,-34.68817 21.1128,-2.5634 54.1998,0.93357 62.4151,6.11925 -17.3674,-8.12375 -56.5503,-14.80362 -78.84,-9.58839 -3.3292,0.74251 -6.7849,1.82697 -10.2793,3.18811 -0.2946,0.11468 2.819,1.6796 2.5238,1.79821 -0.3118,0.12538 -4.0321,-1.19528 -4.3445,-1.06565 -2.9136,1.20942 -5.8436,2.60219 -8.7397,4.14075 -5.1109,2.7151 -10.117,5.88433 -14.7422,9.30172 -0.3391,0.25064 -1.0114,0.75582 -1.0114,0.75582 l 2.862,1.02021 -3.7854,-0.31487 c 0,0 -14.6033,12.96005 -18.4404,19.33301 z"
         sodipodi:nodetypes="cccccccsscccc" />
      <path
         id="path82982"
         style="opacity:1;fill:url(#linearGradient82956);fill-opacity:1;stroke:#ffffff;stroke-width:0;stroke-linecap:square;stroke-miterlimit:1.41;paint-order:markers fill stroke"
         d="m 1208.6326,156.51411 c 22.7357,-16.61521 46.6235,-29.32862 72.382,-34.68817 21.1128,-2.5634 54.1998,0.93357 62.4151,6.11925 0,0 -1.6999,4.47038 -5.6162,6.2321 -9.7157,4.18069 -19.4076,8.19963 -32.3259,12.34241 -0.2138,0.0686 -4.7122,-12.60524 -4.9278,-12.53659 -0.1833,0.0583 3.9165,12.85913 3.7319,12.91751 -5.6932,1.8013 -12.0129,3.62755 -19.2244,5.50212 -2.5313,0.56455 -5.7653,1.34803 -9.3122,2.20759 -0.1445,0.0351 -6.585,-20.62729 -6.7304,-20.59196 -0.2104,0.051 5.8737,20.79963 5.6614,20.85098 -5.441,1.31787 -11.5058,2.77659 -16.8552,3.88483 -0.6906,0.14307 -7.2629,-21.10858 -7.2629,-21.10858 0.8373,3.83723 5.8262,21.3086 5.1316,21.43867 -6.5459,1.2259 -12.8149,2.04805 -17.7584,1.89771 -10.9766,-0.33384 -19.4505,-1.03047 -29.3086,-4.46787 z"
         sodipodi:nodetypes="ccccccccccccccsc" />
      <path
         style="fill:url(#linearGradient82958);fill-opacity:1;stroke:#000000;stroke-width:0;stroke-linecap:butt;stroke-linejoin:miter;stroke-miterlimit:4;stroke-dasharray:none;stroke-opacity:1"
         d="m 1208.6326,156.51411 c 23.7157,-13.97735 42.8796,-27.27741 68.9117,-33.4549 14.66,-3.47887 47.54,1.44316 65.8854,4.88598 0,0 -3.9917,-1.84361 -7.1114,-2.99639 -9.8198,-2.67554 -43.5428,-7.79811 -60.8923,-3.96012 -23.1494,5.12098 -43.2408,18.84626 -58.3996,29.39006 -2.7979,2.04512 -5.5958,4.09025 -8.3938,6.13537 z"
         id="path82984"
         sodipodi:nodetypes="csccscc" />
    </g>
  </g>
</svg>
