<?xml version="1.0" encoding="UTF-8" standalone="no"?>
<svg
   xmlns:dc="http://purl.org/dc/elements/1.1/"
   xmlns:cc="http://creativecommons.org/ns#"
   xmlns:rdf="http://www.w3.org/1999/02/22-rdf-syntax-ns#"
   xmlns:svg="http://www.w3.org/2000/svg"
   xmlns="http://www.w3.org/2000/svg"
   xmlns:xlink="http://www.w3.org/1999/xlink"
   xmlns:sodipodi="http://sodipodi.sourceforge.net/DTD/sodipodi-0.dtd"
   xmlns:inkscape="http://www.inkscape.org/namespaces/inkscape"
   width="86.93187mm"
   height="97.895828mm"
   viewBox="0 0 86.931873 97.89583"
   version="1.1"
   id="svg92095"
   inkscape:version="1.0.2 (e86c870879, 2021-01-15, custom)"
   sodipodi:docname="pohon.svg"
   inkscape:export-filename="/home/dikawfa/Projects/Godot/Tumpengan-GameBudaya/src/img/env/pohon.png"
   inkscape:export-xdpi="96"
   inkscape:export-ydpi="96">
  <defs
     id="defs92089">
    <linearGradient
       inkscape:collect="always"
       id="linearGradient1693">
      <stop
         style="stop-color:#556b2f;stop-opacity:1"
         offset="0"
         id="stop1689" />
      <stop
         style="stop-color:#87a257;stop-opacity:1"
         offset="1"
         id="stop1691" />
    </linearGradient>
    <linearGradient
       inkscape:collect="always"
       id="linearGradient1599">
      <stop
         style="stop-color:#819b54;stop-opacity:1"
         offset="0"
         id="stop1595" />
      <stop
         style="stop-color:#7ac970;stop-opacity:1"
         offset="1"
         id="stop1597" />
    </linearGradient>
    <linearGradient
       inkscape:collect="always"
       id="linearGradient882">
      <stop
         style="stop-color:#003f00;stop-opacity:1"
         offset="0"
         id="stop878" />
      <stop
         style="stop-color:#364736;stop-opacity:1"
         offset="1"
         id="stop880" />
    </linearGradient>
    <linearGradient
       inkscape:collect="always"
       xlink:href="#linearGradient882"
       id="linearGradient884"
       x1="64.819977"
       y1="101.54765"
       x2="64.963104"
       y2="119.272"
       gradientUnits="userSpaceOnUse"
       gradientTransform="matrix(3.0486536,0,0,2.1647936,-111.70431,-95.143502)" />
    <linearGradient
       inkscape:collect="always"
       xlink:href="#linearGradient1599"
       id="linearGradient1447"
       gradientUnits="userSpaceOnUse"
       x1="52.087242"
       y1="95.372635"
       x2="52.029217"
       y2="98.073555"
       gradientTransform="matrix(-2.7712826,-0.98578893,-1.0534438,2.7152915,326.99003,-88.007118)" />
    <linearGradient
       inkscape:collect="always"
       xlink:href="#linearGradient1693"
       id="linearGradient1449"
       gradientUnits="userSpaceOnUse"
       gradientTransform="matrix(2.8961221,0.24491548,-0.29485295,2.8258243,-39.44363,-167.76527)"
       x1="52.614994"
       y1="92.62999"
       x2="52.029217"
       y2="98.073555" />
    <linearGradient
       inkscape:collect="always"
       xlink:href="#linearGradient1693"
       id="linearGradient1451"
       gradientUnits="userSpaceOnUse"
       gradientTransform="matrix(2.3699088,0.20041535,-0.2412794,2.3123838,-14.533954,-123.80898)"
       x1="53.415665"
       y1="90.646629"
       x2="52.029217"
       y2="98.073555" />
    <linearGradient
       inkscape:collect="always"
       xlink:href="#linearGradient1693"
       id="linearGradient1453"
       gradientUnits="userSpaceOnUse"
       gradientTransform="matrix(1.8237629,0.1542296,-0.18567652,1.7794946,8.1635229,-78.958925)"
       x1="53.953201"
       y1="96.597076"
       x2="55.156521"
       y2="89.141495" />
    <linearGradient
       inkscape:collect="always"
       xlink:href="#linearGradient1693"
       id="linearGradient1623"
       gradientUnits="userSpaceOnUse"
       gradientTransform="matrix(-2.7530215,-0.97929318,-1.0465022,2.6973994,325.11153,-86.883488)"
       x1="52.087242"
       y1="95.372635"
       x2="52.029217"
       y2="98.073555" />
    <linearGradient
       inkscape:collect="always"
       xlink:href="#linearGradient1693"
       id="linearGradient1625"
       gradientUnits="userSpaceOnUse"
       gradientTransform="matrix(2.8770384,0.24330164,-0.29291005,2.8072038,-38.907556,-166.11608)"
       x1="52.614994"
       y1="92.62999"
       x2="52.029217"
       y2="98.073555" />
    <linearGradient
       inkscape:collect="always"
       xlink:href="#linearGradient1693"
       id="linearGradient1627"
       gradientUnits="userSpaceOnUse"
       gradientTransform="matrix(2.3542925,0.19909473,-0.23968952,2.2971466,-14.16202,-122.44944)"
       x1="53.415665"
       y1="90.646629"
       x2="52.029217"
       y2="98.073555" />
    <linearGradient
       inkscape:collect="always"
       xlink:href="#linearGradient1693"
       id="linearGradient1629"
       gradientUnits="userSpaceOnUse"
       gradientTransform="matrix(1.8117454,0.15321332,-0.18445302,1.7677688,8.3858948,-77.894917)"
       x1="53.953201"
       y1="96.597076"
       x2="55.156521"
       y2="89.141495" />
    <linearGradient
       inkscape:collect="always"
       xlink:href="#linearGradient1693"
       id="linearGradient1641"
       gradientUnits="userSpaceOnUse"
       gradientTransform="matrix(-2.7530215,-0.97929318,-1.0465022,2.6973994,325.11153,-86.883488)"
       x1="52.087242"
       y1="95.372635"
       x2="52.029217"
       y2="98.073555" />
    <linearGradient
       inkscape:collect="always"
       xlink:href="#linearGradient1693"
       id="linearGradient1643"
       gradientUnits="userSpaceOnUse"
       gradientTransform="matrix(2.8770384,0.24330164,-0.29291005,2.8072038,-38.907556,-166.11608)"
       x1="52.614994"
       y1="92.62999"
       x2="52.029217"
       y2="98.073555" />
    <linearGradient
       inkscape:collect="always"
       xlink:href="#linearGradient1693"
       id="linearGradient1645"
       gradientUnits="userSpaceOnUse"
       gradientTransform="matrix(2.3542925,0.19909473,-0.23968952,2.2971466,-14.16202,-122.44944)"
       x1="53.415665"
       y1="90.646629"
       x2="52.029217"
       y2="98.073555" />
    <linearGradient
       inkscape:collect="always"
       xlink:href="#linearGradient1693"
       id="linearGradient1647"
       gradientUnits="userSpaceOnUse"
       gradientTransform="matrix(1.8117454,0.15321332,-0.18445302,1.7677688,8.3858948,-77.894917)"
       x1="53.953201"
       y1="96.597076"
       x2="55.156521"
       y2="89.141495" />
    <linearGradient
       inkscape:collect="always"
       xlink:href="#linearGradient1693"
       id="linearGradient1659"
       gradientUnits="userSpaceOnUse"
       gradientTransform="matrix(-2.7530215,-0.97929318,-1.0465022,2.6973994,325.11153,-86.883488)"
       x1="52.087242"
       y1="95.372635"
       x2="52.029217"
       y2="98.073555" />
    <linearGradient
       inkscape:collect="always"
       xlink:href="#linearGradient1693"
       id="linearGradient1661"
       gradientUnits="userSpaceOnUse"
       gradientTransform="matrix(2.8770384,0.24330164,-0.29291005,2.8072038,-38.907556,-166.11608)"
       x1="52.614994"
       y1="92.62999"
       x2="52.029217"
       y2="98.073555" />
    <linearGradient
       inkscape:collect="always"
       xlink:href="#linearGradient1693"
       id="linearGradient1663"
       gradientUnits="userSpaceOnUse"
       gradientTransform="matrix(2.3542925,0.19909473,-0.23968952,2.2971466,-14.16202,-122.44944)"
       x1="53.415665"
       y1="90.646629"
       x2="52.029217"
       y2="98.073555" />
    <linearGradient
       inkscape:collect="always"
       xlink:href="#linearGradient1693"
       id="linearGradient1665"
       gradientUnits="userSpaceOnUse"
       gradientTransform="matrix(1.8117454,0.15321332,-0.18445302,1.7677688,8.3858948,-77.894917)"
       x1="53.953201"
       y1="96.597076"
       x2="55.156521"
       y2="89.141495" />
    <linearGradient
       inkscape:collect="always"
       xlink:href="#linearGradient1693"
       id="linearGradient1677"
       gradientUnits="userSpaceOnUse"
       gradientTransform="matrix(-2.7530215,-0.97929318,-1.0465022,2.6973994,325.11153,-86.883488)"
       x1="52.087242"
       y1="95.372635"
       x2="52.029217"
       y2="98.073555" />
    <linearGradient
       inkscape:collect="always"
       xlink:href="#linearGradient1693"
       id="linearGradient1679"
       gradientUnits="userSpaceOnUse"
       gradientTransform="matrix(2.8770384,0.24330164,-0.29291005,2.8072038,-38.907556,-166.11608)"
       x1="52.614994"
       y1="92.62999"
       x2="52.029217"
       y2="98.073555" />
    <linearGradient
       inkscape:collect="always"
       xlink:href="#linearGradient1693"
       id="linearGradient1681"
       gradientUnits="userSpaceOnUse"
       gradientTransform="matrix(2.3542925,0.19909473,-0.23968952,2.2971466,-14.16202,-122.44944)"
       x1="53.415665"
       y1="90.646629"
       x2="52.029217"
       y2="98.073555" />
    <linearGradient
       inkscape:collect="always"
       xlink:href="#linearGradient1693"
       id="linearGradient1683"
       gradientUnits="userSpaceOnUse"
       gradientTransform="matrix(1.8117454,0.15321332,-0.18445302,1.7677688,8.3858948,-77.894917)"
       x1="53.953201"
       y1="96.597076"
       x2="55.156521"
       y2="89.141495" />
  </defs>
  <sodipodi:namedview
     id="base"
     pagecolor="#ffffff"
     bordercolor="#666666"
     borderopacity="1.0"
     inkscape:pageopacity="0.0"
     inkscape:pageshadow="2"
     inkscape:zoom="1.7735147"
     inkscape:cx="134.51509"
     inkscape:cy="117.7894"
     inkscape:document-units="mm"
     inkscape:current-layer="layer1"
     inkscape:document-rotation="0"
     showgrid="false"
     inkscape:window-width="1366"
     inkscape:window-height="720"
     inkscape:window-x="0"
     inkscape:window-y="0"
     inkscape:window-maximized="1"
     inkscape:object-nodes="false" />
  <metadata
     id="metadata92092">
    <rdf:RDF>
      <cc:Work
         rdf:about="">
        <dc:format>image/svg+xml</dc:format>
        <dc:type
           rdf:resource="http://purl.org/dc/dcmitype/StillImage" />
        <dc:title />
      </cc:Work>
    </rdf:RDF>
  </metadata>
  <g
     inkscape:label="Layer 1"
     inkscape:groupmode="layer"
     id="layer1"
     transform="translate(-41.910307,-82.513659)">
    <path
       style="fill:url(#linearGradient884);fill-opacity:1;stroke:none;stroke-width:0.264583;stroke-linecap:butt;stroke-linejoin:miter;stroke-miterlimit:4;stroke-dasharray:none;stroke-opacity:1"
       d="m 77.442459,176.26712 c -1.115978,1.95576 -6.424766,2.91077 -6.424766,2.91077 -1.089613,2.06664 5.276675,-1.62027 8.330702,-1.21183 1.260446,0.16863 -3.131186,2.22662 -1.868955,2.3883 2.5946,0.33235 4.919693,-1.67065 7.556121,-1.65984 2.116985,0.009 3.75696,1.70521 5.873936,1.71496 0.798733,0.004 -1.058646,-1.53956 -0.288189,-1.68919 2.089192,-0.40574 8.182779,1.42342 6.460983,0.49035 l -6.316003,-3.42271 c -3.151811,-1.70802 -2.332531,-10.89904 -2.449593,-16.19691 -0.0922,-4.17226 0.820256,-8.32523 1.230385,-12.48784 2.587376,-2.0068 4.34353,-4.79155 7.762128,-6.0204 4.136512,-1.48691 9.569542,-3.18711 13.702572,-1.69531 l 7.80718,2.81798 0.1,-2.41436 -6.71179,-2.10048 c 3.13871,-0.68907 6.27743,-1.37812 9.41613,-2.0672 -0.80452,-0.49356 -1.60902,-0.98713 -2.41355,-1.48068 -3.12499,0.95068 -6.15076,2.08641 -9.375,2.85199 -3.52614,0.83728 -7.20918,1.29453 -10.813775,1.94178 1.793845,-1.5494 2.888895,-3.70464 5.381545,-4.64821 2.2029,-0.8339 4.98845,-0.14742 7.48266,-0.22117 -0.16687,-0.62194 -0.33374,-1.24391 -0.50062,-1.86586 -2.05644,0.17579 -4.11289,0.35147 -6.16933,0.52722 0.51115,-0.61052 1.02229,-1.22105 1.53343,-1.83158 -0.49622,-0.0722 -0.99246,-0.14394 -1.48868,-0.21604 -1.01481,1.27531 -1.85472,2.62929 -3.04446,3.82593 -1.4563,1.46474 -3.240681,2.75026 -4.861023,4.1254 0,0 -2.455113,-4.19783 -1.518206,-6.18042 1.124551,-2.37966 7.755049,-5.1362 7.755049,-5.1362 l -1.00809,-0.82992 c -2.41188,1.44241 -4.823753,2.88483 -7.235629,4.32724 l -2.586629,-5.73843 -2.330629,1.63113 c 0,0 2.122394,3.88043 2.729125,5.90758 0.662563,2.21372 1.976606,4.60647 0.972142,6.75429 -0.65771,1.4064 -4.235854,3.2737 -4.235854,3.2737 l 5.07621,-11.73996 c 0.218016,-0.50421 -1.910191,-0.95972 -2.148769,-0.45629 l -4.602505,9.7118 -3.010251,-6.56276 c -0.354427,-0.77272 -2.771994,1.06321 -2.306817,1.8057 l 3.191869,5.09478 c 0,0 -5.943407,-2.47741 -7.789183,-4.44677 -1.754605,-1.87206 -2.848688,-4.23856 -2.63279,-6.48209 0.162645,-1.69013 3.992605,-4.49403 2.900388,-4.64622 -1.092244,-0.15219 -2.431696,-0.97067 -3.27673,-0.45626 -1.27974,0.77901 -1.051966,2.2743 -1.577948,3.41146 -2.472194,-0.54427 -4.828529,-1.6077 -7.416583,-1.63279 -0.745118,-0.007 -1.144784,1.38953 -0.437775,1.55672 l 6.418448,1.51787 c 2.702107,0.639 1.744623,3.85028 2.616934,5.77541 -3.53369,-0.71778 -7.288754,-1.02229 -10.601069,-2.15336 -2.384127,-0.81414 -4.097402,-2.37696 -6.1461,-3.56546 -0.991845,-1.00256 -1.473071,-2.40522 -2.975527,-3.00766 -0.800818,-0.32111 -3.088578,0.29607 -2.514555,0.8063 l 3.350237,2.97786 c 1.42789,0.9585 2.85578,1.91699 4.283671,2.8755 -3.706819,0.0105 -7.413639,0.0223 -11.12046,0.0335 v 1.38769 c 4.151826,-0.0394 8.542005,-1.10371 12.455477,-0.11846 l 11.078431,2.78927 -10.173912,1.24907 c 0.432433,0.54033 0.864868,1.08064 1.297302,1.62097 3.152195,-0.47721 6.310792,-1.92969 9.456589,-1.43163 3.439375,0.54453 5.776407,2.86703 8.664612,4.30056 0.257093,0.9108 0.51417,1.82164 0.771258,2.73245 -0.564109,4.96191 -0.359283,10.09464 -0.879481,14.96735 -0.549269,5.14501 -1.67552,10.92912 -4.404249,15.7113 z"
       id="path876"
       sodipodi:nodetypes="sssssssssscsscccccscscccccscscccccsscsscsscsssscssscscssccccscccsccsss" />
    <path
       id="path1437"
       style="fill:url(#linearGradient1447);fill-opacity:1;stroke:none;stroke-width:0.264585;stroke-linecap:square;stroke-miterlimit:4;stroke-dasharray:none;paint-order:markers fill stroke"
       d="m 65.016806,105.43393 c -4.302483,2.02753 -3.813183,4.02215 -0.721985,5.93376 -1.986177,3.22348 -1.331804,5.21995 2.063122,5.78917 0.103399,3.34218 2.020869,4.42564 4.454248,4.99282 0.841609,3.07322 1.846376,6.17956 6.45139,3.54467 3.575424,3.27483 8.967625,2.10061 10.793954,0.95462 2.332872,1.64903 4.618817,1.72951 6.778195,-0.99725 3.704063,2.93596 5.146594,-0.31078 5.51,-3.09528 4.87477,0.43109 5.7427,-1.41328 3.49898,-4.94595 3.92714,-2.53525 3.31463,-4.39097 0.72199,-5.93375 1.91704,-2.68225 2.0793,-4.92726 -2.06313,-5.78917 0.93359,-4.6558 -1.73997,-4.74304 -4.454244,-4.99281 -0.422362,-3.666077 -1.986758,-5.830637 -6.451391,-3.544677 -2.273711,-3.720191 -4.696482,-5.06782 -7.303565,-1.348184 -2.367848,-2.978818 -4.658877,-4.019972 -6.778197,0.997261 -4.603652,-2.76427 -4.686635,0.751351 -5.510003,3.0953 -3.936138,-1.527619 -7.579354,1.79821 -6.989364,5.33947 z"
       sodipodi:nodetypes="ccccccccccccccccc" />
    <path
       id="path1439"
       style="fill:url(#linearGradient1449);fill-opacity:1;stroke:none;stroke-width:0.264585;stroke-linecap:square;stroke-miterlimit:4;stroke-dasharray:none;paint-order:markers fill stroke"
       d="m 104.86138,108.8736 c 2.88916,3.52684 1.55547,5.09365 -2.04178,5.53859 0.30047,3.65111 -1.18002,5.15304 -4.439519,4.2884 -1.601084,2.91408 -3.786243,3.09957 -6.194451,2.62063 -2.132459,2.37873 -4.424173,4.721 -7.306553,0.53515 -4.641229,1.4554 -8.879547,-1.75588 -9.977066,-3.5053 -2.807982,0.51829 -4.865966,-0.33167 -5.54399,-3.61329 -4.60193,1.10387 -4.411127,-2.34872 -3.47475,-4.9577 -4.505763,-1.58332 -4.440319,-3.56395 -0.860335,-5.78402 -2.32789,-3.82457 -0.947979,-5.218914 2.041776,-5.53855 -0.483821,-3.144612 0.38677,-5.19542 4.439518,-4.288427 1.277365,-4.493668 3.681202,-3.49347 6.194445,-2.620618 2.029486,-3.07198 4.390716,-4.355863 7.306552,-0.535155 3.691204,-2.373812 6.442553,-2.589335 7.068033,1.750764 3.439585,-1.680232 5.935997,-1.677806 5.543989,3.613299 5.319951,-0.589555 3.805351,2.553003 3.474761,4.957707 4.17102,0.23513 5.89071,4.64448 3.76937,7.53852 z"
       sodipodi:nodetypes="ccccccccccccccccc" />
    <path
       id="path1441"
       style="fill:url(#linearGradient1451);fill-opacity:1;stroke:none;stroke-width:0.264585;stroke-linecap:square;stroke-miterlimit:4;stroke-dasharray:none;paint-order:markers fill stroke"
       d="m 103.55143,102.56577 c 2.36422,2.88602 1.27285,4.16813 -1.67078,4.53223 0.24589,2.98773 -0.96562,4.21676 -3.632877,3.50924 -1.310173,2.38458 -3.098298,2.53639 -5.068944,2.14447 -1.745001,1.9465 -3.62032,3.8632 -5.978984,0.4379 -3.797938,1.19098 -7.266169,-1.43684 -8.164272,-2.8684 -2.297787,0.42413 -3.98184,-0.27142 -4.536671,-2.95677 -3.765778,0.90331 -3.609644,-1.92197 -2.843403,-4.05691 -3.68713,-1.2955 -3.633531,-2.91639 -0.704014,-4.733069 -1.904928,-3.129673 -0.775737,-4.270672 1.670776,-4.532238 -0.39591,-2.573247 0.316501,-4.25143 3.632878,-3.509237 1.045271,-3.677188 3.012343,-2.858724 5.068942,-2.144461 1.660735,-2.513814 3.592939,-3.564422 5.978979,-0.437921 3.020531,-1.942501 5.271972,-2.118862 5.783801,1.432658 2.81463,-1.374941 4.857453,-1.372957 4.53667,2.956775 4.353339,-0.482429 3.113929,2.089134 2.843409,4.056915 3.41317,0.192398 4.82039,3.800598 3.08449,6.168818 z"
       sodipodi:nodetypes="ccccccccccccccccc" />
    <path
       id="path1443"
       style="fill:url(#linearGradient1453);fill-opacity:1;stroke:none;stroke-width:0.264585;stroke-linecap:square;stroke-miterlimit:4;stroke-dasharray:none;paint-order:markers fill stroke"
       d="m 99.036113,95.247726 c 1.819377,2.220928 0.979517,3.20759 -1.28575,3.487786 0.189211,2.299188 -0.743094,3.244988 -2.795678,2.700528 -1.008235,1.83505 -2.384296,1.95188 -3.900808,1.65026 -1.342863,1.49796 -2.786014,2.97295 -4.601122,0.337 -2.922705,0.91651 -5.59168,-1.10573 -6.282811,-2.20739 -1.768264,0.32637 -3.064225,-0.20885 -3.491194,-2.275377 -2.897954,0.69514 -2.7778,-1.479046 -2.18814,-3.122002 -2.83743,-0.996955 -2.796185,-2.244301 -0.541777,-3.64233 -1.465932,-2.408436 -0.596969,-3.286492 1.285749,-3.487779 -0.304675,-1.980244 0.24356,-3.271691 2.79568,-2.700534 0.804376,-2.829787 2.318146,-2.199928 3.900801,-1.650271 1.278017,-1.934507 2.764947,-2.742999 4.601126,-0.337002 2.324448,-1.49485 4.057039,-1.630569 4.45092,1.102503 2.165998,-1.058085 3.73805,-1.056559 3.491194,2.275383 3.350111,-0.371251 2.396325,1.607697 2.188142,3.122002 2.626606,0.14807 3.709535,2.924756 2.373673,4.747205 z"
       sodipodi:nodetypes="ccccccccccccccccc" />
    <g
       id="g1639"
       transform="matrix(0.62301368,0.57189483,-0.57189483,0.62301368,119.01418,14.837449)"
       style="stroke-width:1.18246">
      <path
         id="path1631"
         style="fill:url(#linearGradient1641);fill-opacity:1;stroke:none;stroke-width:0.312859;stroke-linecap:square;stroke-miterlimit:4;stroke-dasharray:none;paint-order:markers fill stroke"
         d="m 64.864549,105.2829 c -4.274132,2.01417 -3.788056,3.99565 -0.717227,5.89466 -1.97309,3.20224 -1.323028,5.18556 2.049527,5.75102 0.102718,3.32016 2.007553,4.39648 4.424897,4.95992 0.836064,3.05297 1.83421,6.13885 6.40888,3.52132 3.551864,3.25325 8.908533,2.08677 10.722828,0.94833 2.3175,1.63816 4.588382,1.71811 6.733531,-0.99068 3.679655,2.91661 5.112681,-0.30873 5.473693,-3.07489 4.842652,0.42825 5.704862,-1.40396 3.475922,-4.91335 3.90126,-2.51855 3.29279,-4.36204 0.71723,-5.89465 1.90441,-2.66458 2.0656,-4.8948 -2.04953,-5.75103 0.92744,-4.62512 -1.72851,-4.71178 -4.424895,-4.95991 -0.419579,-3.641918 -1.973666,-5.792215 -6.40888,-3.521318 -2.258729,-3.695677 -4.665535,-5.034426 -7.255439,-1.3393 -2.352245,-2.95919 -4.628178,-3.993483 -6.733533,0.99069 -4.573317,-2.746056 -4.655753,0.7464 -5.473695,3.0749 -3.910202,-1.51755 -7.529411,1.786368 -6.943309,5.304288 z"
         sodipodi:nodetypes="ccccccccccccccccc" />
      <path
         id="path1633"
         style="fill:url(#linearGradient1643);fill-opacity:1;stroke:none;stroke-width:0.312859;stroke-linecap:square;stroke-miterlimit:4;stroke-dasharray:none;paint-order:markers fill stroke"
         d="m 104.44657,108.69991 c 2.87012,3.5036 1.54522,5.06008 -2.02832,5.50209 0.29849,3.62705 -1.17225,5.11908 -4.410269,4.26014 -1.590534,2.89488 -3.761294,3.07915 -6.153634,2.60336 -2.118407,2.36306 -4.39502,4.6899 -7.258407,0.53163 -4.610646,1.44581 -8.821036,-1.74431 -9.911323,-3.4822 -2.789479,0.51487 -4.833902,-0.32949 -5.507459,-3.58949 -4.571606,1.0966 -4.38206,-2.33324 -3.451853,-4.92503 -4.476073,-1.57288 -4.41106,-3.54046 -0.854666,-5.7459 -2.312551,-3.79937 -0.941732,-5.184528 2.028322,-5.502058 -0.480633,-3.123891 0.384221,-5.161185 4.410264,-4.260169 1.268948,-4.464057 3.656945,-3.47045 6.153628,-2.60335 2.016112,-3.051737 4.361783,-4.32716 7.258406,-0.531628 3.666881,-2.35817 6.4001,-2.572273 7.021459,1.739227 3.41692,-1.66916 5.896882,-1.66675 5.507457,3.58949 5.284895,-0.58567 3.780275,2.53618 3.451865,4.925038 4.14354,0.23358 5.85189,4.61388 3.74453,7.48885 z"
         sodipodi:nodetypes="ccccccccccccccccc" />
      <path
         id="path1635"
         style="fill:url(#linearGradient1645);fill-opacity:1;stroke:none;stroke-width:0.312859;stroke-linecap:square;stroke-miterlimit:4;stroke-dasharray:none;paint-order:markers fill stroke"
         d="m 103.14525,102.43364 c 2.34864,2.867 1.26447,4.14067 -1.65977,4.50237 0.24427,2.96804 -0.95925,4.18897 -3.608936,3.48611 -1.301539,2.36887 -3.077882,2.51968 -5.035542,2.13034 -1.733503,1.93368 -3.596465,3.83775 -5.939586,0.43502 -3.772912,1.18313 -7.21829,-1.42738 -8.110475,-2.8495 -2.282646,0.42133 -3.955602,-0.26963 -4.506777,-2.93729 -3.740964,0.89736 -3.585859,-1.9093 -2.824667,-4.03018 -3.662834,-1.28696 -3.609588,-2.89717 -0.699375,-4.701878 -1.892375,-3.10905 -0.770625,-4.242531 1.659767,-4.502373 -0.393301,-2.556291 0.314415,-4.223416 3.60894,-3.486113 1.038383,-3.652958 2.992493,-2.839887 5.03554,-2.130331 1.649792,-2.497249 3.569264,-3.540934 5.939581,-0.435035 3.000628,-1.929701 5.237233,-2.1049 5.74569,1.423218 2.796083,-1.365881 4.825445,-1.36391 4.506776,2.937291 4.324654,-0.47925 3.093414,2.075368 2.824674,4.030183 3.39068,0.19113 4.78863,3.775558 3.06416,6.128168 z"
         sodipodi:nodetypes="ccccccccccccccccc" />
      <path
         id="path1637"
         style="fill:url(#linearGradient1647);fill-opacity:1;stroke:none;stroke-width:0.312859;stroke-linecap:square;stroke-miterlimit:4;stroke-dasharray:none;paint-order:markers fill stroke"
         d="m 98.65969,95.163818 c 1.80739,2.206294 0.973066,3.186454 -1.277278,3.464804 0.187964,2.284038 -0.738197,3.223608 -2.777256,2.682738 -1.001591,1.82295 -2.368585,1.93901 -3.875104,1.63938 -1.334014,1.48809 -2.767656,2.95336 -4.570804,0.33478 -2.903446,0.91047 -5.554834,-1.09844 -6.241411,-2.19284 -1.756612,0.32422 -3.044033,-0.20748 -3.468189,-2.260388 -2.878858,0.69056 -2.759496,-1.4693 -2.173721,-3.10143 -2.818733,-0.990386 -2.77776,-2.229512 -0.538207,-3.618329 -1.456273,-2.392566 -0.593036,-3.264836 1.277276,-3.464797 -0.302667,-1.967195 0.241955,-3.250132 2.777259,-2.682739 0.799075,-2.81114 2.30287,-2.185432 3.875097,-1.639397 1.269595,-1.921759 2.746727,-2.724924 4.570807,-0.334781 2.309131,-1.485 4.030306,-1.619825 4.421591,1.095238 2.151726,-1.051113 3.713419,-1.049597 3.468189,2.26039 3.328036,-0.368805 2.380535,1.597103 2.173724,3.10143 2.609298,0.147094 3.685092,2.905483 2.358032,4.715924 z"
         sodipodi:nodetypes="ccccccccccccccccc" />
    </g>
    <g
       id="g1621"
       transform="matrix(0.6398156,0.17143808,-0.17143808,0.6398156,70.948066,37.889617)"
       style="stroke-width:1.5097">
      <path
         id="path1613"
         style="fill:url(#linearGradient1623);fill-opacity:1;stroke:none;stroke-width:0.399442;stroke-linecap:square;stroke-miterlimit:4;stroke-dasharray:none;paint-order:markers fill stroke"
         d="m 64.864549,105.2829 c -4.274132,2.01417 -3.788056,3.99565 -0.717227,5.89466 -1.97309,3.20224 -1.323028,5.18556 2.049527,5.75102 0.102718,3.32016 2.007553,4.39648 4.424897,4.95992 0.836064,3.05297 1.83421,6.13885 6.40888,3.52132 3.551864,3.25325 8.908533,2.08677 10.722828,0.94833 2.3175,1.63816 4.588382,1.71811 6.733531,-0.99068 3.679655,2.91661 5.112681,-0.30873 5.473693,-3.07489 4.842652,0.42825 5.704862,-1.40396 3.475922,-4.91335 3.90126,-2.51855 3.29279,-4.36204 0.71723,-5.89465 1.90441,-2.66458 2.0656,-4.8948 -2.04953,-5.75103 0.92744,-4.62512 -1.72851,-4.71178 -4.424895,-4.95991 -0.419579,-3.641918 -1.973666,-5.792215 -6.40888,-3.521318 -2.258729,-3.695677 -4.665535,-5.034426 -7.255439,-1.3393 -2.352245,-2.95919 -4.628178,-3.993483 -6.733533,0.99069 -4.573317,-2.746056 -4.655753,0.7464 -5.473695,3.0749 -3.910202,-1.51755 -7.529411,1.786368 -6.943309,5.304288 z"
         sodipodi:nodetypes="ccccccccccccccccc" />
      <path
         id="path1615"
         style="fill:url(#linearGradient1625);fill-opacity:1;stroke:none;stroke-width:0.399442;stroke-linecap:square;stroke-miterlimit:4;stroke-dasharray:none;paint-order:markers fill stroke"
         d="m 104.44657,108.69991 c 2.87012,3.5036 1.54522,5.06008 -2.02832,5.50209 0.29849,3.62705 -1.17225,5.11908 -4.410269,4.26014 -1.590534,2.89488 -3.761294,3.07915 -6.153634,2.60336 -2.118407,2.36306 -4.39502,4.6899 -7.258407,0.53163 -4.610646,1.44581 -8.821036,-1.74431 -9.911323,-3.4822 -2.789479,0.51487 -4.833902,-0.32949 -5.507459,-3.58949 -4.571606,1.0966 -4.38206,-2.33324 -3.451853,-4.92503 -4.476073,-1.57288 -4.41106,-3.54046 -0.854666,-5.7459 -2.312551,-3.79937 -0.941732,-5.184528 2.028322,-5.502058 -0.480633,-3.123891 0.384221,-5.161185 4.410264,-4.260169 1.268948,-4.464057 3.656945,-3.47045 6.153628,-2.60335 2.016112,-3.051737 4.361783,-4.32716 7.258406,-0.531628 3.666881,-2.35817 6.4001,-2.572273 7.021459,1.739227 3.41692,-1.66916 5.896882,-1.66675 5.507457,3.58949 5.284895,-0.58567 3.780275,2.53618 3.451865,4.925038 4.14354,0.23358 5.85189,4.61388 3.74453,7.48885 z"
         sodipodi:nodetypes="ccccccccccccccccc" />
      <path
         id="path1617"
         style="fill:url(#linearGradient1627);fill-opacity:1;stroke:none;stroke-width:0.399442;stroke-linecap:square;stroke-miterlimit:4;stroke-dasharray:none;paint-order:markers fill stroke"
         d="m 103.14525,102.43364 c 2.34864,2.867 1.26447,4.14067 -1.65977,4.50237 0.24427,2.96804 -0.95925,4.18897 -3.608936,3.48611 -1.301539,2.36887 -3.077882,2.51968 -5.035542,2.13034 -1.733503,1.93368 -3.596465,3.83775 -5.939586,0.43502 -3.772912,1.18313 -7.21829,-1.42738 -8.110475,-2.8495 -2.282646,0.42133 -3.955602,-0.26963 -4.506777,-2.93729 -3.740964,0.89736 -3.585859,-1.9093 -2.824667,-4.03018 -3.662834,-1.28696 -3.609588,-2.89717 -0.699375,-4.701878 -1.892375,-3.10905 -0.770625,-4.242531 1.659767,-4.502373 -0.393301,-2.556291 0.314415,-4.223416 3.60894,-3.486113 1.038383,-3.652958 2.992493,-2.839887 5.03554,-2.130331 1.649792,-2.497249 3.569264,-3.540934 5.939581,-0.435035 3.000628,-1.929701 5.237233,-2.1049 5.74569,1.423218 2.796083,-1.365881 4.825445,-1.36391 4.506776,2.937291 4.324654,-0.47925 3.093414,2.075368 2.824674,4.030183 3.39068,0.19113 4.78863,3.775558 3.06416,6.128168 z"
         sodipodi:nodetypes="ccccccccccccccccc" />
      <path
         id="path1619"
         style="fill:url(#linearGradient1629);fill-opacity:1;stroke:none;stroke-width:0.399442;stroke-linecap:square;stroke-miterlimit:4;stroke-dasharray:none;paint-order:markers fill stroke"
         d="m 98.65969,95.163818 c 1.80739,2.206294 0.973066,3.186454 -1.277278,3.464804 0.187964,2.284038 -0.738197,3.223608 -2.777256,2.682738 -1.001591,1.82295 -2.368585,1.93901 -3.875104,1.63938 -1.334014,1.48809 -2.767656,2.95336 -4.570804,0.33478 -2.903446,0.91047 -5.554834,-1.09844 -6.241411,-2.19284 -1.756612,0.32422 -3.044033,-0.20748 -3.468189,-2.260388 -2.878858,0.69056 -2.759496,-1.4693 -2.173721,-3.10143 -2.818733,-0.990386 -2.77776,-2.229512 -0.538207,-3.618329 -1.456273,-2.392566 -0.593036,-3.264836 1.277276,-3.464797 -0.302667,-1.967195 0.241955,-3.250132 2.777259,-2.682739 0.799075,-2.81114 2.30287,-2.185432 3.875097,-1.639397 1.269595,-1.921759 2.746727,-2.724924 4.570807,-0.334781 2.309131,-1.485 4.030306,-1.619825 4.421591,1.095238 2.151726,-1.051113 3.713419,-1.049597 3.468189,2.26039 3.328036,-0.368805 2.380535,1.597103 2.173724,3.10143 2.609298,0.147094 3.685092,2.905483 2.358032,4.715924 z"
         sodipodi:nodetypes="ccccccccccccccccc" />
    </g>
    <g
       id="g1675"
       transform="matrix(-0.50535702,0.02476712,0.02476712,0.50535702,123.02808,70.680016)"
       style="stroke-width:1.97644">
      <path
         id="path1667"
         style="fill:url(#linearGradient1677);fill-opacity:1;stroke:none;stroke-width:0.522932;stroke-linecap:square;stroke-miterlimit:4;stroke-dasharray:none;paint-order:markers fill stroke"
         d="m 64.864549,105.2829 c -4.274132,2.01417 -3.788056,3.99565 -0.717227,5.89466 -1.97309,3.20224 -1.323028,5.18556 2.049527,5.75102 0.102718,3.32016 2.007553,4.39648 4.424897,4.95992 0.836064,3.05297 1.83421,6.13885 6.40888,3.52132 3.551864,3.25325 8.908533,2.08677 10.722828,0.94833 2.3175,1.63816 4.588382,1.71811 6.733531,-0.99068 3.679655,2.91661 5.112681,-0.30873 5.473693,-3.07489 4.842652,0.42825 5.704862,-1.40396 3.475922,-4.91335 3.90126,-2.51855 3.29279,-4.36204 0.71723,-5.89465 1.90441,-2.66458 2.0656,-4.8948 -2.04953,-5.75103 0.92744,-4.62512 -1.72851,-4.71178 -4.424895,-4.95991 -0.419579,-3.641918 -1.973666,-5.792215 -6.40888,-3.521318 -2.258729,-3.695677 -4.665535,-5.034426 -7.255439,-1.3393 -2.352245,-2.95919 -4.628178,-3.993483 -6.733533,0.99069 -4.573317,-2.746056 -4.655753,0.7464 -5.473695,3.0749 -3.910202,-1.51755 -7.529411,1.786368 -6.943309,5.304288 z"
         sodipodi:nodetypes="ccccccccccccccccc" />
      <path
         id="path1669"
         style="fill:url(#linearGradient1679);fill-opacity:1;stroke:none;stroke-width:0.522932;stroke-linecap:square;stroke-miterlimit:4;stroke-dasharray:none;paint-order:markers fill stroke"
         d="m 104.44657,108.69991 c 2.87012,3.5036 1.54522,5.06008 -2.02832,5.50209 0.29849,3.62705 -1.17225,5.11908 -4.410269,4.26014 -1.590534,2.89488 -3.761294,3.07915 -6.153634,2.60336 -2.118407,2.36306 -4.39502,4.6899 -7.258407,0.53163 -4.610646,1.44581 -8.821036,-1.74431 -9.911323,-3.4822 -2.789479,0.51487 -4.833902,-0.32949 -5.507459,-3.58949 -4.571606,1.0966 -4.38206,-2.33324 -3.451853,-4.92503 -4.476073,-1.57288 -4.41106,-3.54046 -0.854666,-5.7459 -2.312551,-3.79937 -0.941732,-5.184528 2.028322,-5.502058 -0.480633,-3.123891 0.384221,-5.161185 4.410264,-4.260169 1.268948,-4.464057 3.656945,-3.47045 6.153628,-2.60335 2.016112,-3.051737 4.361783,-4.32716 7.258406,-0.531628 3.666881,-2.35817 6.4001,-2.572273 7.021459,1.739227 3.41692,-1.66916 5.896882,-1.66675 5.507457,3.58949 5.284895,-0.58567 3.780275,2.53618 3.451865,4.925038 4.14354,0.23358 5.85189,4.61388 3.74453,7.48885 z"
         sodipodi:nodetypes="ccccccccccccccccc" />
      <path
         id="path1671"
         style="fill:url(#linearGradient1681);fill-opacity:1;stroke:none;stroke-width:0.522932;stroke-linecap:square;stroke-miterlimit:4;stroke-dasharray:none;paint-order:markers fill stroke"
         d="m 103.14525,102.43364 c 2.34864,2.867 1.26447,4.14067 -1.65977,4.50237 0.24427,2.96804 -0.95925,4.18897 -3.608936,3.48611 -1.301539,2.36887 -3.077882,2.51968 -5.035542,2.13034 -1.733503,1.93368 -3.596465,3.83775 -5.939586,0.43502 -3.772912,1.18313 -7.21829,-1.42738 -8.110475,-2.8495 -2.282646,0.42133 -3.955602,-0.26963 -4.506777,-2.93729 -3.740964,0.89736 -3.585859,-1.9093 -2.824667,-4.03018 -3.662834,-1.28696 -3.609588,-2.89717 -0.699375,-4.701878 -1.892375,-3.10905 -0.770625,-4.242531 1.659767,-4.502373 -0.393301,-2.556291 0.314415,-4.223416 3.60894,-3.486113 1.038383,-3.652958 2.992493,-2.839887 5.03554,-2.130331 1.649792,-2.497249 3.569264,-3.540934 5.939581,-0.435035 3.000628,-1.929701 5.237233,-2.1049 5.74569,1.423218 2.796083,-1.365881 4.825445,-1.36391 4.506776,2.937291 4.324654,-0.47925 3.093414,2.075368 2.824674,4.030183 3.39068,0.19113 4.78863,3.775558 3.06416,6.128168 z"
         sodipodi:nodetypes="ccccccccccccccccc" />
      <path
         id="path1673"
         style="fill:url(#linearGradient1683);fill-opacity:1;stroke:none;stroke-width:0.522932;stroke-linecap:square;stroke-miterlimit:4;stroke-dasharray:none;paint-order:markers fill stroke"
         d="m 98.65969,95.163818 c 1.80739,2.206294 0.973066,3.186454 -1.277278,3.464804 0.187964,2.284038 -0.738197,3.223608 -2.777256,2.682738 -1.001591,1.82295 -2.368585,1.93901 -3.875104,1.63938 -1.334014,1.48809 -2.767656,2.95336 -4.570804,0.33478 -2.903446,0.91047 -5.554834,-1.09844 -6.241411,-2.19284 -1.756612,0.32422 -3.044033,-0.20748 -3.468189,-2.260388 -2.878858,0.69056 -2.759496,-1.4693 -2.173721,-3.10143 -2.818733,-0.990386 -2.77776,-2.229512 -0.538207,-3.618329 -1.456273,-2.392566 -0.593036,-3.264836 1.277276,-3.464797 -0.302667,-1.967195 0.241955,-3.250132 2.777259,-2.682739 0.799075,-2.81114 2.30287,-2.185432 3.875097,-1.639397 1.269595,-1.921759 2.746727,-2.724924 4.570807,-0.334781 2.309131,-1.485 4.030306,-1.619825 4.421591,1.095238 2.151726,-1.051113 3.713419,-1.049597 3.468189,2.26039 3.328036,-0.368805 2.380535,1.597103 2.173724,3.10143 2.609298,0.147094 3.685092,2.905483 2.358032,4.715924 z"
         sodipodi:nodetypes="ccccccccccccccccc" />
    </g>
    <g
       id="g1657"
       transform="matrix(-0.62301368,0.57189483,0.57189483,0.62301368,51.738308,6.7602306)"
       style="stroke-width:1.18246">
      <path
         id="path1649"
         style="fill:url(#linearGradient1659);fill-opacity:1;stroke:none;stroke-width:0.312859;stroke-linecap:square;stroke-miterlimit:4;stroke-dasharray:none;paint-order:markers fill stroke"
         d="m 64.864549,105.2829 c -4.274132,2.01417 -3.788056,3.99565 -0.717227,5.89466 -1.97309,3.20224 -1.323028,5.18556 2.049527,5.75102 0.102718,3.32016 2.007553,4.39648 4.424897,4.95992 0.836064,3.05297 1.83421,6.13885 6.40888,3.52132 3.551864,3.25325 8.908533,2.08677 10.722828,0.94833 2.3175,1.63816 4.588382,1.71811 6.733531,-0.99068 3.679655,2.91661 5.112681,-0.30873 5.473693,-3.07489 4.842652,0.42825 5.704862,-1.40396 3.475922,-4.91335 3.90126,-2.51855 3.29279,-4.36204 0.71723,-5.89465 1.90441,-2.66458 2.0656,-4.8948 -2.04953,-5.75103 0.92744,-4.62512 -1.72851,-4.71178 -4.424895,-4.95991 -0.419579,-3.641918 -1.973666,-5.792215 -6.40888,-3.521318 -2.258729,-3.695677 -4.665535,-5.034426 -7.255439,-1.3393 -2.352245,-2.95919 -4.628178,-3.993483 -6.733533,0.99069 -4.573317,-2.746056 -4.655753,0.7464 -5.473695,3.0749 -3.910202,-1.51755 -7.529411,1.786368 -6.943309,5.304288 z"
         sodipodi:nodetypes="ccccccccccccccccc" />
      <path
         id="path1651"
         style="fill:url(#linearGradient1661);fill-opacity:1;stroke:none;stroke-width:0.312859;stroke-linecap:square;stroke-miterlimit:4;stroke-dasharray:none;paint-order:markers fill stroke"
         d="m 104.44657,108.69991 c 2.87012,3.5036 1.54522,5.06008 -2.02832,5.50209 0.29849,3.62705 -1.17225,5.11908 -4.410269,4.26014 -1.590534,2.89488 -3.761294,3.07915 -6.153634,2.60336 -2.118407,2.36306 -4.39502,4.6899 -7.258407,0.53163 -4.610646,1.44581 -8.821036,-1.74431 -9.911323,-3.4822 -2.789479,0.51487 -4.833902,-0.32949 -5.507459,-3.58949 -4.571606,1.0966 -4.38206,-2.33324 -3.451853,-4.92503 -4.476073,-1.57288 -4.41106,-3.54046 -0.854666,-5.7459 -2.312551,-3.79937 -0.941732,-5.184528 2.028322,-5.502058 -0.480633,-3.123891 0.384221,-5.161185 4.410264,-4.260169 1.268948,-4.464057 3.656945,-3.47045 6.153628,-2.60335 2.016112,-3.051737 4.361783,-4.32716 7.258406,-0.531628 3.666881,-2.35817 6.4001,-2.572273 7.021459,1.739227 3.41692,-1.66916 5.896882,-1.66675 5.507457,3.58949 5.284895,-0.58567 3.780275,2.53618 3.451865,4.925038 4.14354,0.23358 5.85189,4.61388 3.74453,7.48885 z"
         sodipodi:nodetypes="ccccccccccccccccc" />
      <path
         id="path1653"
         style="fill:url(#linearGradient1663);fill-opacity:1;stroke:none;stroke-width:0.312859;stroke-linecap:square;stroke-miterlimit:4;stroke-dasharray:none;paint-order:markers fill stroke"
         d="m 103.14525,102.43364 c 2.34864,2.867 1.26447,4.14067 -1.65977,4.50237 0.24427,2.96804 -0.95925,4.18897 -3.608936,3.48611 -1.301539,2.36887 -3.077882,2.51968 -5.035542,2.13034 -1.733503,1.93368 -3.596465,3.83775 -5.939586,0.43502 -3.772912,1.18313 -7.21829,-1.42738 -8.110475,-2.8495 -2.282646,0.42133 -3.955602,-0.26963 -4.506777,-2.93729 -3.740964,0.89736 -3.585859,-1.9093 -2.824667,-4.03018 -3.662834,-1.28696 -3.609588,-2.89717 -0.699375,-4.701878 -1.892375,-3.10905 -0.770625,-4.242531 1.659767,-4.502373 -0.393301,-2.556291 0.314415,-4.223416 3.60894,-3.486113 1.038383,-3.652958 2.992493,-2.839887 5.03554,-2.130331 1.649792,-2.497249 3.569264,-3.540934 5.939581,-0.435035 3.000628,-1.929701 5.237233,-2.1049 5.74569,1.423218 2.796083,-1.365881 4.825445,-1.36391 4.506776,2.937291 4.324654,-0.47925 3.093414,2.075368 2.824674,4.030183 3.39068,0.19113 4.78863,3.775558 3.06416,6.128168 z"
         sodipodi:nodetypes="ccccccccccccccccc" />
      <path
         id="path1655"
         style="fill:url(#linearGradient1665);fill-opacity:1;stroke:none;stroke-width:0.312859;stroke-linecap:square;stroke-miterlimit:4;stroke-dasharray:none;paint-order:markers fill stroke"
         d="m 98.65969,95.163818 c 1.80739,2.206294 0.973066,3.186454 -1.277278,3.464804 0.187964,2.284038 -0.738197,3.223608 -2.777256,2.682738 -1.001591,1.82295 -2.368585,1.93901 -3.875104,1.63938 -1.334014,1.48809 -2.767656,2.95336 -4.570804,0.33478 -2.903446,0.91047 -5.554834,-1.09844 -6.241411,-2.19284 -1.756612,0.32422 -3.044033,-0.20748 -3.468189,-2.260388 -2.878858,0.69056 -2.759496,-1.4693 -2.173721,-3.10143 -2.818733,-0.990386 -2.77776,-2.229512 -0.538207,-3.618329 -1.456273,-2.392566 -0.593036,-3.264836 1.277276,-3.464797 -0.302667,-1.967195 0.241955,-3.250132 2.777259,-2.682739 0.799075,-2.81114 2.30287,-2.185432 3.875097,-1.639397 1.269595,-1.921759 2.746727,-2.724924 4.570807,-0.334781 2.309131,-1.485 4.030306,-1.619825 4.421591,1.095238 2.151726,-1.051113 3.713419,-1.049597 3.468189,2.26039 3.328036,-0.368805 2.380535,1.597103 2.173724,3.10143 2.609298,0.147094 3.685092,2.905483 2.358032,4.715924 z"
         sodipodi:nodetypes="ccccccccccccccccc" />
    </g>
  </g>
</svg>
