<?xml version="1.0" encoding="UTF-8" standalone="no"?>
<svg
   xmlns:dc="http://purl.org/dc/elements/1.1/"
   xmlns:cc="http://creativecommons.org/ns#"
   xmlns:rdf="http://www.w3.org/1999/02/22-rdf-syntax-ns#"
   xmlns:svg="http://www.w3.org/2000/svg"
   xmlns="http://www.w3.org/2000/svg"
   xmlns:xlink="http://www.w3.org/1999/xlink"
   xmlns:sodipodi="http://sodipodi.sourceforge.net/DTD/sodipodi-0.dtd"
   xmlns:inkscape="http://www.inkscape.org/namespaces/inkscape"
   width="86.359039mm"
   height="97.250755mm"
   viewBox="0 0 86.359043 97.250757"
   version="1.1"
   id="svg92095"
   inkscape:version="1.0.2 (e86c870879, 2021-01-15, custom)"
   sodipodi:docname="pohon.svg"
   inkscape:export-filename="/home/dikawfa/Projects/Godot/Tumpengan-GameBudaya/src/img/env/pohon.png"
   inkscape:export-xdpi="96"
   inkscape:export-ydpi="96">
  <defs
     id="defs92089">
    <linearGradient
       inkscape:collect="always"
       id="linearGradient1693">
      <stop
         style="stop-color:#556b2f;stop-opacity:1"
         offset="0"
         id="stop1689" />
      <stop
         style="stop-color:#87a257;stop-opacity:1"
         offset="1"
         id="stop1691" />
    </linearGradient>
    <linearGradient
       inkscape:collect="always"
       id="linearGradient1599">
      <stop
         style="stop-color:#819b54;stop-opacity:1"
         offset="0"
         id="stop1595" />
      <stop
         style="stop-color:#7ac970;stop-opacity:1"
         offset="1"
         id="stop1597" />
    </linearGradient>
    <linearGradient
       inkscape:collect="always"
       id="linearGradient882">
      <stop
         style="stop-color:#003f00;stop-opacity:1"
         offset="0"
         id="stop878" />
      <stop
         style="stop-color:#364736;stop-opacity:1"
         offset="1"
         id="stop880" />
    </linearGradient>
    <linearGradient
       inkscape:collect="always"
       xlink:href="#linearGradient882"
       id="linearGradient884"
       x1="64.819977"
       y1="101.54765"
       x2="64.963104"
       y2="119.272"
       gradientUnits="userSpaceOnUse"
       gradientTransform="matrix(3.0285648,0,0,2.1505289,-110.69208,-93.972847)" />
    <linearGradient
       inkscape:collect="always"
       xlink:href="#linearGradient1599"
       id="linearGradient1447"
       gradientUnits="userSpaceOnUse"
       x1="52.087242"
       y1="95.372635"
       x2="52.029217"
       y2="98.073555"
       gradientTransform="matrix(-2.7530215,-0.97929318,-1.0465022,2.6973994,325.11153,-86.883488)" />
    <linearGradient
       inkscape:collect="always"
       xlink:href="#linearGradient1693"
       id="linearGradient1449"
       gradientUnits="userSpaceOnUse"
       gradientTransform="matrix(2.8770384,0.24330164,-0.29291005,2.8072038,-38.907556,-166.11608)"
       x1="52.614994"
       y1="92.62999"
       x2="52.029217"
       y2="98.073555" />
    <linearGradient
       inkscape:collect="always"
       xlink:href="#linearGradient1693"
       id="linearGradient1451"
       gradientUnits="userSpaceOnUse"
       gradientTransform="matrix(2.3542925,0.19909473,-0.23968952,2.2971466,-14.16202,-122.44944)"
       x1="53.415665"
       y1="90.646629"
       x2="52.029217"
       y2="98.073555" />
    <linearGradient
       inkscape:collect="always"
       xlink:href="#linearGradient1693"
       id="linearGradient1453"
       gradientUnits="userSpaceOnUse"
       gradientTransform="matrix(1.8117454,0.15321332,-0.18445302,1.7677688,8.3858948,-77.894917)"
       x1="53.953201"
       y1="96.597076"
       x2="55.156521"
       y2="89.141495" />
    <linearGradient
       inkscape:collect="always"
       xlink:href="#linearGradient1693"
       id="linearGradient1623"
       gradientUnits="userSpaceOnUse"
       gradientTransform="matrix(-2.7530215,-0.97929318,-1.0465022,2.6973994,325.11153,-86.883488)"
       x1="52.087242"
       y1="95.372635"
       x2="52.029217"
       y2="98.073555" />
    <linearGradient
       inkscape:collect="always"
       xlink:href="#linearGradient1693"
       id="linearGradient1625"
       gradientUnits="userSpaceOnUse"
       gradientTransform="matrix(2.8770384,0.24330164,-0.29291005,2.8072038,-38.907556,-166.11608)"
       x1="52.614994"
       y1="92.62999"
       x2="52.029217"
       y2="98.073555" />
    <linearGradient
       inkscape:collect="always"
       xlink:href="#linearGradient1693"
       id="linearGradient1627"
       gradientUnits="userSpaceOnUse"
       gradientTransform="matrix(2.3542925,0.19909473,-0.23968952,2.2971466,-14.16202,-122.44944)"
       x1="53.415665"
       y1="90.646629"
       x2="52.029217"
       y2="98.073555" />
    <linearGradient
       inkscape:collect="always"
       xlink:href="#linearGradient1693"
       id="linearGradient1629"
       gradientUnits="userSpaceOnUse"
       gradientTransform="matrix(1.8117454,0.15321332,-0.18445302,1.7677688,8.3858948,-77.894917)"
       x1="53.953201"
       y1="96.597076"
       x2="55.156521"
       y2="89.141495" />
    <linearGradient
       inkscape:collect="always"
       xlink:href="#linearGradient1693"
       id="linearGradient1641"
       gradientUnits="userSpaceOnUse"
       gradientTransform="matrix(-2.7530215,-0.97929318,-1.0465022,2.6973994,325.11153,-86.883488)"
       x1="52.087242"
       y1="95.372635"
       x2="52.029217"
       y2="98.073555" />
    <linearGradient
       inkscape:collect="always"
       xlink:href="#linearGradient1693"
       id="linearGradient1643"
       gradientUnits="userSpaceOnUse"
       gradientTransform="matrix(2.8770384,0.24330164,-0.29291005,2.8072038,-38.907556,-166.11608)"
       x1="52.614994"
       y1="92.62999"
       x2="52.029217"
       y2="98.073555" />
    <linearGradient
       inkscape:collect="always"
       xlink:href="#linearGradient1693"
       id="linearGradient1645"
       gradientUnits="userSpaceOnUse"
       gradientTransform="matrix(2.3542925,0.19909473,-0.23968952,2.2971466,-14.16202,-122.44944)"
       x1="53.415665"
       y1="90.646629"
       x2="52.029217"
       y2="98.073555" />
    <linearGradient
       inkscape:collect="always"
       xlink:href="#linearGradient1693"
       id="linearGradient1647"
       gradientUnits="userSpaceOnUse"
       gradientTransform="matrix(1.8117454,0.15321332,-0.18445302,1.7677688,8.3858948,-77.894917)"
       x1="53.953201"
       y1="96.597076"
       x2="55.156521"
       y2="89.141495" />
    <linearGradient
       inkscape:collect="always"
       xlink:href="#linearGradient1693"
       id="linearGradient1659"
       gradientUnits="userSpaceOnUse"
       gradientTransform="matrix(-2.7530215,-0.97929318,-1.0465022,2.6973994,325.11153,-86.883488)"
       x1="52.087242"
       y1="95.372635"
       x2="52.029217"
       y2="98.073555" />
    <linearGradient
       inkscape:collect="always"
       xlink:href="#linearGradient1693"
       id="linearGradient1661"
       gradientUnits="userSpaceOnUse"
       gradientTransform="matrix(2.8770384,0.24330164,-0.29291005,2.8072038,-38.907556,-166.11608)"
       x1="52.614994"
       y1="92.62999"
       x2="52.029217"
       y2="98.073555" />
    <linearGradient
       inkscape:collect="always"
       xlink:href="#linearGradient1693"
       id="linearGradient1663"
       gradientUnits="userSpaceOnUse"
       gradientTransform="matrix(2.3542925,0.19909473,-0.23968952,2.2971466,-14.16202,-122.44944)"
       x1="53.415665"
       y1="90.646629"
       x2="52.029217"
       y2="98.073555" />
    <linearGradient
       inkscape:collect="always"
       xlink:href="#linearGradient1693"
       id="linearGradient1665"
       gradientUnits="userSpaceOnUse"
       gradientTransform="matrix(1.8117454,0.15321332,-0.18445302,1.7677688,8.3858948,-77.894917)"
       x1="53.953201"
       y1="96.597076"
       x2="55.156521"
       y2="89.141495" />
    <linearGradient
       inkscape:collect="always"
       xlink:href="#linearGradient1693"
       id="linearGradient1677"
       gradientUnits="userSpaceOnUse"
       gradientTransform="matrix(-2.7530215,-0.97929318,-1.0465022,2.6973994,325.11153,-86.883488)"
       x1="52.087242"
       y1="95.372635"
       x2="52.029217"
       y2="98.073555" />
    <linearGradient
       inkscape:collect="always"
       xlink:href="#linearGradient1693"
       id="linearGradient1679"
       gradientUnits="userSpaceOnUse"
       gradientTransform="matrix(2.8770384,0.24330164,-0.29291005,2.8072038,-38.907556,-166.11608)"
       x1="52.614994"
       y1="92.62999"
       x2="52.029217"
       y2="98.073555" />
    <linearGradient
       inkscape:collect="always"
       xlink:href="#linearGradient1693"
       id="linearGradient1681"
       gradientUnits="userSpaceOnUse"
       gradientTransform="matrix(2.3542925,0.19909473,-0.23968952,2.2971466,-14.16202,-122.44944)"
       x1="53.415665"
       y1="90.646629"
       x2="52.029217"
       y2="98.073555" />
    <linearGradient
       inkscape:collect="always"
       xlink:href="#linearGradient1693"
       id="linearGradient1683"
       gradientUnits="userSpaceOnUse"
       gradientTransform="matrix(1.8117454,0.15321332,-0.18445302,1.7677688,8.3858948,-77.894917)"
       x1="53.953201"
       y1="96.597076"
       x2="55.156521"
       y2="89.141495" />
  </defs>
  <sodipodi:namedview
     id="base"
     pagecolor="#ffffff"
     bordercolor="#666666"
     borderopacity="1.0"
     inkscape:pageopacity="0.0"
     inkscape:pageshadow="2"
     inkscape:zoom="1.7735147"
     inkscape:cx="134.51509"
     inkscape:cy="117.78939"
     inkscape:document-units="mm"
     inkscape:current-layer="layer1"
     inkscape:document-rotation="0"
     showgrid="false"
     inkscape:window-width="1366"
     inkscape:window-height="720"
     inkscape:window-x="0"
     inkscape:window-y="0"
     inkscape:window-maximized="1"
     inkscape:object-nodes="false" />
  <metadata
     id="metadata92092">
    <rdf:RDF>
      <cc:Work
         rdf:about="">
        <dc:format>image/svg+xml</dc:format>
        <dc:type
           rdf:resource="http://purl.org/dc/dcmitype/StillImage" />
        <dc:title></dc:title>
      </cc:Work>
    </rdf:RDF>
  </metadata>
  <g
     inkscape:label="Layer 1"
     inkscape:groupmode="layer"
     id="layer1"
     transform="translate(-41.910308,-82.513661)">
    <path
       style="fill:url(#linearGradient884);fill-opacity:1;stroke:none;stroke-width:0.264583;stroke-linecap:butt;stroke-linejoin:miter;stroke-miterlimit:4;stroke-dasharray:none;stroke-opacity:1"
       d="m 77.208325,175.64934 c -1.108625,1.94288 -6.382431,2.89159 -6.382431,2.89159 -1.082433,2.05303 5.241905,-1.60959 8.275808,-1.20384 1.25214,0.16752 -3.110554,2.21195 -1.85664,2.37256 2.577503,0.33016 4.887275,-1.65964 7.506331,-1.6489 2.103035,0.009 3.732204,1.69397 5.83523,1.70366 0.79347,0.004 -1.05167,-1.52942 -0.28629,-1.67806 2.075426,-0.40307 8.12886,1.41404 6.418409,0.48712 l -6.274384,-3.40016 c -3.131043,-1.69676 -2.317161,-10.82722 -2.433452,-16.09018 -0.09159,-4.14477 0.814851,-8.27037 1.222278,-12.40555 2.570327,-1.99358 4.314909,-4.75998 7.71098,-5.98073 4.109256,-1.47711 9.506486,-3.16611 13.612276,-1.68414 l 7.75574,2.79941 0.0993,-2.39845 -6.66756,-2.08664 c 3.11803,-0.68453 6.23606,-1.36904 9.35408,-2.05358 -0.79922,-0.49031 -1.59842,-0.98062 -2.39764,-1.47092 -3.1044,0.94441 -6.11024,2.07266 -9.31323,2.8332 -3.5029,0.83176 -7.16168,1.28599 -10.742518,1.92898 1.782028,-1.53919 2.869858,-3.68023 5.346088,-4.61758 2.18838,-0.82841 4.95557,-0.14645 7.43335,-0.21971 -0.16577,-0.61785 -0.33154,-1.23572 -0.49732,-1.85357 -2.04289,0.17463 -4.08579,0.34916 -6.12868,0.52375 0.50778,-0.6065 1.01555,-1.21301 1.52333,-1.81951 -0.49295,-0.0717 -0.98592,-0.143 -1.47887,-0.21462 -1.00813,1.26691 -1.8425,2.61196 -3.0244,3.80072 -1.44671,1.45509 -3.21933,2.73214 -4.828995,4.09822 0,0 -2.438935,-4.17017 -1.508202,-6.1397 1.117141,-2.36398 7.703947,-5.10236 7.703947,-5.10236 l -1.00145,-0.82445 c -2.395985,1.43291 -4.791964,2.86582 -7.187947,4.29873 l -2.569585,-5.70062 -2.315271,1.62038 c 0,0 2.108408,3.85486 2.711141,5.86866 0.658198,2.19913 1.963582,4.57611 0.965737,6.70978 -0.653376,1.39713 -4.207943,3.25213 -4.207943,3.25213 l 5.042761,-11.6626 c 0.21658,-0.50089 -1.897604,-0.9534 -2.13461,-0.45329 l -4.572177,9.64781 -2.990415,-6.51952 c -0.352092,-0.76762 -2.753729,1.05621 -2.291617,1.79381 l 3.170837,5.0612 c 0,0 -5.904244,-2.46108 -7.737857,-4.41746 -1.743044,-1.85973 -2.829917,-4.21063 -2.615442,-6.43938 0.161573,-1.67899 3.966296,-4.46442 2.881276,-4.61561 -1.085046,-0.15118 -2.415672,-0.96427 -3.255138,-0.45325 -1.271307,0.77388 -1.045034,2.25931 -1.56755,3.38898 -2.455904,-0.54068 -4.796712,-1.5971 -7.367712,-1.62203 -0.740209,-0.007 -1.137241,1.38037 -0.434891,1.54646 l 6.376155,1.50787 c 2.684301,0.63479 1.733127,3.82491 2.59969,5.73735 -3.510406,-0.71305 -7.240726,-1.01555 -10.531215,-2.13917 -2.368417,-0.80877 -4.070402,-2.36129 -6.105601,-3.54196 -0.985309,-0.99596 -1.463364,-2.38937 -2.95592,-2.98784 -0.795541,-0.319 -3.068226,0.29412 -2.497985,0.80098 l 3.32816,2.95824 c 1.418482,0.95219 2.836963,1.90436 4.255445,2.85655 -3.682394,0.0104 -7.364788,0.0222 -11.047183,0.0333 v 1.37855 c 4.124468,-0.0391 8.485718,-1.09644 12.373403,-0.11768 l 11.005431,2.77089 -10.106872,1.24084 c 0.429583,0.53677 0.859169,1.07352 1.288753,1.61029 3.131424,-0.47407 6.269208,-1.91698 9.394276,-1.4222 3.416712,0.54094 5.738344,2.84814 8.607517,4.27222 0.255399,0.9048 0.510782,1.80964 0.766176,2.71445 -0.560392,4.92921 -0.356915,10.02812 -0.873685,14.86872 -0.54565,5.11111 -1.66448,10.85711 -4.375228,15.60777 z"
       id="path876"
       sodipodi:nodetypes="sssssssssscsscccccscscccccscscccccsscsscsscsssscssscscssccccscccsccsss" />
    <path
       id="path1437"
       style="fill:url(#linearGradient1447);fill-opacity:1;stroke:none;stroke-width:0.264585;stroke-linecap:square;stroke-miterlimit:4;stroke-dasharray:none;paint-order:markers fill stroke"
       d="m 64.864549,105.2829 c -4.274132,2.01417 -3.788056,3.99565 -0.717227,5.89466 -1.97309,3.20224 -1.323028,5.18556 2.049527,5.75102 0.102718,3.32016 2.007553,4.39648 4.424897,4.95992 0.836064,3.05297 1.83421,6.13885 6.40888,3.52132 3.551864,3.25325 8.908533,2.08677 10.722828,0.94833 2.3175,1.63816 4.588382,1.71811 6.733531,-0.99068 3.679655,2.91661 5.112681,-0.30873 5.473693,-3.07489 4.842652,0.42825 5.704862,-1.40396 3.475922,-4.91335 3.90126,-2.51855 3.29279,-4.36204 0.71723,-5.89465 1.90441,-2.66458 2.0656,-4.8948 -2.04953,-5.75103 0.92744,-4.62512 -1.72851,-4.71178 -4.424895,-4.95991 -0.419579,-3.641918 -1.973666,-5.792215 -6.40888,-3.521318 -2.258729,-3.695677 -4.665535,-5.034426 -7.255439,-1.3393 -2.352245,-2.95919 -4.628178,-3.993483 -6.733533,0.99069 -4.573317,-2.746056 -4.655753,0.7464 -5.473695,3.0749 -3.910202,-1.51755 -7.529411,1.786368 -6.943309,5.304288 z"
       sodipodi:nodetypes="ccccccccccccccccc" />
    <path
       id="path1439"
       style="fill:url(#linearGradient1449);fill-opacity:1.0;stroke:none;stroke-width:0.264585;stroke-linecap:square;stroke-miterlimit:4;stroke-dasharray:none;paint-order:markers fill stroke"
       d="m 104.44657,108.69991 c 2.87012,3.5036 1.54522,5.06008 -2.02832,5.50209 0.29849,3.62705 -1.17225,5.11908 -4.410269,4.26014 -1.590534,2.89488 -3.761294,3.07915 -6.153634,2.60336 -2.118407,2.36306 -4.39502,4.6899 -7.258407,0.53163 -4.610646,1.44581 -8.821036,-1.74431 -9.911323,-3.4822 -2.789479,0.51487 -4.833902,-0.32949 -5.507459,-3.58949 -4.571606,1.0966 -4.38206,-2.33324 -3.451853,-4.92503 -4.476073,-1.57288 -4.41106,-3.54046 -0.854666,-5.7459 -2.312551,-3.79937 -0.941732,-5.184528 2.028322,-5.502058 -0.480633,-3.123891 0.384221,-5.161185 4.410264,-4.260169 1.268948,-4.464057 3.656945,-3.47045 6.153628,-2.60335 2.016112,-3.051737 4.361783,-4.32716 7.258406,-0.531628 3.666881,-2.35817 6.4001,-2.572273 7.021459,1.739227 3.41692,-1.66916 5.896882,-1.66675 5.507457,3.58949 5.284895,-0.58567 3.780275,2.53618 3.451865,4.925038 4.14354,0.23358 5.85189,4.61388 3.74453,7.48885 z"
       sodipodi:nodetypes="ccccccccccccccccc" />
    <path
       id="path1441"
       style="fill:url(#linearGradient1451);fill-opacity:1.0;stroke:none;stroke-width:0.264585;stroke-linecap:square;stroke-miterlimit:4;stroke-dasharray:none;paint-order:markers fill stroke"
       d="m 103.14525,102.43364 c 2.34864,2.867 1.26447,4.14067 -1.65977,4.50237 0.24427,2.96804 -0.95925,4.18897 -3.608936,3.48611 -1.301539,2.36887 -3.077882,2.51968 -5.035542,2.13034 -1.733503,1.93368 -3.596465,3.83775 -5.939586,0.43502 -3.772912,1.18313 -7.21829,-1.42738 -8.110475,-2.8495 -2.282646,0.42133 -3.955602,-0.26963 -4.506777,-2.93729 -3.740964,0.89736 -3.585859,-1.9093 -2.824667,-4.03018 -3.662834,-1.28696 -3.609588,-2.89717 -0.699375,-4.701878 -1.892375,-3.10905 -0.770625,-4.242531 1.659767,-4.502373 -0.393301,-2.556291 0.314415,-4.223416 3.60894,-3.486113 1.038383,-3.652958 2.992493,-2.839887 5.03554,-2.130331 1.649792,-2.497249 3.569264,-3.540934 5.939581,-0.435035 3.000628,-1.929701 5.237233,-2.1049 5.74569,1.423218 2.796083,-1.365881 4.825445,-1.36391 4.506776,2.937291 4.324654,-0.47925 3.093414,2.075368 2.824674,4.030183 3.39068,0.19113 4.78863,3.775558 3.06416,6.128168 z"
       sodipodi:nodetypes="ccccccccccccccccc" />
    <path
       id="path1443"
       style="fill:url(#linearGradient1453);fill-opacity:1;stroke:none;stroke-width:0.264585;stroke-linecap:square;stroke-miterlimit:4;stroke-dasharray:none;paint-order:markers fill stroke"
       d="m 98.65969,95.163818 c 1.80739,2.206294 0.973066,3.186454 -1.277278,3.464804 0.187964,2.284038 -0.738197,3.223608 -2.777256,2.682738 -1.001591,1.82295 -2.368585,1.93901 -3.875104,1.63938 -1.334014,1.48809 -2.767656,2.95336 -4.570804,0.33478 -2.903446,0.91047 -5.554834,-1.09844 -6.241411,-2.19284 -1.756612,0.32422 -3.044033,-0.20748 -3.468189,-2.260388 -2.878858,0.69056 -2.759496,-1.4693 -2.173721,-3.10143 -2.818733,-0.990386 -2.77776,-2.229512 -0.538207,-3.618329 -1.456273,-2.392566 -0.593036,-3.264836 1.277276,-3.464797 -0.302667,-1.967195 0.241955,-3.250132 2.777259,-2.682739 0.799075,-2.81114 2.30287,-2.185432 3.875097,-1.639397 1.269595,-1.921759 2.746727,-2.724924 4.570807,-0.334781 2.309131,-1.485 4.030306,-1.619825 4.421591,1.095238 2.151726,-1.051113 3.713419,-1.049597 3.468189,2.26039 3.328036,-0.368805 2.380535,1.597103 2.173724,3.10143 2.609298,0.147094 3.685092,2.905483 2.358032,4.715924 z"
       sodipodi:nodetypes="ccccccccccccccccc" />
    <g
       id="g1639"
       transform="matrix(0.61890838,0.56812638,-0.56812638,0.61890838,118.50611,15.283396)"
       style="stroke-width:1.1903">
      <path
         id="path1631"
         style="fill:url(#linearGradient1641);fill-opacity:1.0;stroke:none;stroke-width:0.314934;stroke-linecap:square;stroke-miterlimit:4;stroke-dasharray:none;paint-order:markers fill stroke"
         d="m 64.864549,105.2829 c -4.274132,2.01417 -3.788056,3.99565 -0.717227,5.89466 -1.97309,3.20224 -1.323028,5.18556 2.049527,5.75102 0.102718,3.32016 2.007553,4.39648 4.424897,4.95992 0.836064,3.05297 1.83421,6.13885 6.40888,3.52132 3.551864,3.25325 8.908533,2.08677 10.722828,0.94833 2.3175,1.63816 4.588382,1.71811 6.733531,-0.99068 3.679655,2.91661 5.112681,-0.30873 5.473693,-3.07489 4.842652,0.42825 5.704862,-1.40396 3.475922,-4.91335 3.90126,-2.51855 3.29279,-4.36204 0.71723,-5.89465 1.90441,-2.66458 2.0656,-4.8948 -2.04953,-5.75103 0.92744,-4.62512 -1.72851,-4.71178 -4.424895,-4.95991 -0.419579,-3.641918 -1.973666,-5.792215 -6.40888,-3.521318 -2.258729,-3.695677 -4.665535,-5.034426 -7.255439,-1.3393 -2.352245,-2.95919 -4.628178,-3.993483 -6.733533,0.99069 -4.573317,-2.746056 -4.655753,0.7464 -5.473695,3.0749 -3.910202,-1.51755 -7.529411,1.786368 -6.943309,5.304288 z"
         sodipodi:nodetypes="ccccccccccccccccc" />
      <path
         id="path1633"
         style="fill:url(#linearGradient1643);fill-opacity:1.0;stroke:none;stroke-width:0.314934;stroke-linecap:square;stroke-miterlimit:4;stroke-dasharray:none;paint-order:markers fill stroke"
         d="m 104.44657,108.69991 c 2.87012,3.5036 1.54522,5.06008 -2.02832,5.50209 0.29849,3.62705 -1.17225,5.11908 -4.410269,4.26014 -1.590534,2.89488 -3.761294,3.07915 -6.153634,2.60336 -2.118407,2.36306 -4.39502,4.6899 -7.258407,0.53163 -4.610646,1.44581 -8.821036,-1.74431 -9.911323,-3.4822 -2.789479,0.51487 -4.833902,-0.32949 -5.507459,-3.58949 -4.571606,1.0966 -4.38206,-2.33324 -3.451853,-4.92503 -4.476073,-1.57288 -4.41106,-3.54046 -0.854666,-5.7459 -2.312551,-3.79937 -0.941732,-5.184528 2.028322,-5.502058 -0.480633,-3.123891 0.384221,-5.161185 4.410264,-4.260169 1.268948,-4.464057 3.656945,-3.47045 6.153628,-2.60335 2.016112,-3.051737 4.361783,-4.32716 7.258406,-0.531628 3.666881,-2.35817 6.4001,-2.572273 7.021459,1.739227 3.41692,-1.66916 5.896882,-1.66675 5.507457,3.58949 5.284895,-0.58567 3.780275,2.53618 3.451865,4.925038 4.14354,0.23358 5.85189,4.61388 3.74453,7.48885 z"
         sodipodi:nodetypes="ccccccccccccccccc" />
      <path
         id="path1635"
         style="fill:url(#linearGradient1645);fill-opacity:1.0;stroke:none;stroke-width:0.314934;stroke-linecap:square;stroke-miterlimit:4;stroke-dasharray:none;paint-order:markers fill stroke"
         d="m 103.14525,102.43364 c 2.34864,2.867 1.26447,4.14067 -1.65977,4.50237 0.24427,2.96804 -0.95925,4.18897 -3.608936,3.48611 -1.301539,2.36887 -3.077882,2.51968 -5.035542,2.13034 -1.733503,1.93368 -3.596465,3.83775 -5.939586,0.43502 -3.772912,1.18313 -7.21829,-1.42738 -8.110475,-2.8495 -2.282646,0.42133 -3.955602,-0.26963 -4.506777,-2.93729 -3.740964,0.89736 -3.585859,-1.9093 -2.824667,-4.03018 -3.662834,-1.28696 -3.609588,-2.89717 -0.699375,-4.701878 -1.892375,-3.10905 -0.770625,-4.242531 1.659767,-4.502373 -0.393301,-2.556291 0.314415,-4.223416 3.60894,-3.486113 1.038383,-3.652958 2.992493,-2.839887 5.03554,-2.130331 1.649792,-2.497249 3.569264,-3.540934 5.939581,-0.435035 3.000628,-1.929701 5.237233,-2.1049 5.74569,1.423218 2.796083,-1.365881 4.825445,-1.36391 4.506776,2.937291 4.324654,-0.47925 3.093414,2.075368 2.824674,4.030183 3.39068,0.19113 4.78863,3.775558 3.06416,6.128168 z"
         sodipodi:nodetypes="ccccccccccccccccc" />
      <path
         id="path1637"
         style="fill:url(#linearGradient1647);fill-opacity:1.0;stroke:none;stroke-width:0.314934;stroke-linecap:square;stroke-miterlimit:4;stroke-dasharray:none;paint-order:markers fill stroke"
         d="m 98.65969,95.163818 c 1.80739,2.206294 0.973066,3.186454 -1.277278,3.464804 0.187964,2.284038 -0.738197,3.223608 -2.777256,2.682738 -1.001591,1.82295 -2.368585,1.93901 -3.875104,1.63938 -1.334014,1.48809 -2.767656,2.95336 -4.570804,0.33478 -2.903446,0.91047 -5.554834,-1.09844 -6.241411,-2.19284 -1.756612,0.32422 -3.044033,-0.20748 -3.468189,-2.260388 -2.878858,0.69056 -2.759496,-1.4693 -2.173721,-3.10143 -2.818733,-0.990386 -2.77776,-2.229512 -0.538207,-3.618329 -1.456273,-2.392566 -0.593036,-3.264836 1.277276,-3.464797 -0.302667,-1.967195 0.241955,-3.250132 2.777259,-2.682739 0.799075,-2.81114 2.30287,-2.185432 3.875097,-1.639397 1.269595,-1.921759 2.746727,-2.724924 4.570807,-0.334781 2.309131,-1.485 4.030306,-1.619825 4.421591,1.095238 2.151726,-1.051113 3.713419,-1.049597 3.468189,2.26039 3.328036,-0.368805 2.380535,1.597103 2.173724,3.10143 2.609298,0.147094 3.685092,2.905483 2.358032,4.715924 z"
         sodipodi:nodetypes="ccccccccccccccccc" />
    </g>
    <g
       id="g1621"
       transform="matrix(0.63559959,0.1703084,-0.1703084,0.63559959,70.756724,38.183663)"
       style="stroke-width:1.51971">
      <path
         id="path1613"
         style="fill:url(#linearGradient1623);fill-opacity:1.0;stroke:none;stroke-width:0.402092;stroke-linecap:square;stroke-miterlimit:4;stroke-dasharray:none;paint-order:markers fill stroke"
         d="m 64.864549,105.2829 c -4.274132,2.01417 -3.788056,3.99565 -0.717227,5.89466 -1.97309,3.20224 -1.323028,5.18556 2.049527,5.75102 0.102718,3.32016 2.007553,4.39648 4.424897,4.95992 0.836064,3.05297 1.83421,6.13885 6.40888,3.52132 3.551864,3.25325 8.908533,2.08677 10.722828,0.94833 2.3175,1.63816 4.588382,1.71811 6.733531,-0.99068 3.679655,2.91661 5.112681,-0.30873 5.473693,-3.07489 4.842652,0.42825 5.704862,-1.40396 3.475922,-4.91335 3.90126,-2.51855 3.29279,-4.36204 0.71723,-5.89465 1.90441,-2.66458 2.0656,-4.8948 -2.04953,-5.75103 0.92744,-4.62512 -1.72851,-4.71178 -4.424895,-4.95991 -0.419579,-3.641918 -1.973666,-5.792215 -6.40888,-3.521318 -2.258729,-3.695677 -4.665535,-5.034426 -7.255439,-1.3393 -2.352245,-2.95919 -4.628178,-3.993483 -6.733533,0.99069 -4.573317,-2.746056 -4.655753,0.7464 -5.473695,3.0749 -3.910202,-1.51755 -7.529411,1.786368 -6.943309,5.304288 z"
         sodipodi:nodetypes="ccccccccccccccccc" />
      <path
         id="path1615"
         style="fill:url(#linearGradient1625);fill-opacity:1.0;stroke:none;stroke-width:0.402092;stroke-linecap:square;stroke-miterlimit:4;stroke-dasharray:none;paint-order:markers fill stroke"
         d="m 104.44657,108.69991 c 2.87012,3.5036 1.54522,5.06008 -2.02832,5.50209 0.29849,3.62705 -1.17225,5.11908 -4.410269,4.26014 -1.590534,2.89488 -3.761294,3.07915 -6.153634,2.60336 -2.118407,2.36306 -4.39502,4.6899 -7.258407,0.53163 -4.610646,1.44581 -8.821036,-1.74431 -9.911323,-3.4822 -2.789479,0.51487 -4.833902,-0.32949 -5.507459,-3.58949 -4.571606,1.0966 -4.38206,-2.33324 -3.451853,-4.92503 -4.476073,-1.57288 -4.41106,-3.54046 -0.854666,-5.7459 -2.312551,-3.79937 -0.941732,-5.184528 2.028322,-5.502058 -0.480633,-3.123891 0.384221,-5.161185 4.410264,-4.260169 1.268948,-4.464057 3.656945,-3.47045 6.153628,-2.60335 2.016112,-3.051737 4.361783,-4.32716 7.258406,-0.531628 3.666881,-2.35817 6.4001,-2.572273 7.021459,1.739227 3.41692,-1.66916 5.896882,-1.66675 5.507457,3.58949 5.284895,-0.58567 3.780275,2.53618 3.451865,4.925038 4.14354,0.23358 5.85189,4.61388 3.74453,7.48885 z"
         sodipodi:nodetypes="ccccccccccccccccc" />
      <path
         id="path1617"
         style="fill:url(#linearGradient1627);fill-opacity:1.0;stroke:none;stroke-width:0.402092;stroke-linecap:square;stroke-miterlimit:4;stroke-dasharray:none;paint-order:markers fill stroke"
         d="m 103.14525,102.43364 c 2.34864,2.867 1.26447,4.14067 -1.65977,4.50237 0.24427,2.96804 -0.95925,4.18897 -3.608936,3.48611 -1.301539,2.36887 -3.077882,2.51968 -5.035542,2.13034 -1.733503,1.93368 -3.596465,3.83775 -5.939586,0.43502 -3.772912,1.18313 -7.21829,-1.42738 -8.110475,-2.8495 -2.282646,0.42133 -3.955602,-0.26963 -4.506777,-2.93729 -3.740964,0.89736 -3.585859,-1.9093 -2.824667,-4.03018 -3.662834,-1.28696 -3.609588,-2.89717 -0.699375,-4.701878 -1.892375,-3.10905 -0.770625,-4.242531 1.659767,-4.502373 -0.393301,-2.556291 0.314415,-4.223416 3.60894,-3.486113 1.038383,-3.652958 2.992493,-2.839887 5.03554,-2.130331 1.649792,-2.497249 3.569264,-3.540934 5.939581,-0.435035 3.000628,-1.929701 5.237233,-2.1049 5.74569,1.423218 2.796083,-1.365881 4.825445,-1.36391 4.506776,2.937291 4.324654,-0.47925 3.093414,2.075368 2.824674,4.030183 3.39068,0.19113 4.78863,3.775558 3.06416,6.128168 z"
         sodipodi:nodetypes="ccccccccccccccccc" />
      <path
         id="path1619"
         style="fill:url(#linearGradient1629);fill-opacity:1.0;stroke:none;stroke-width:0.402092;stroke-linecap:square;stroke-miterlimit:4;stroke-dasharray:none;paint-order:markers fill stroke"
         d="m 98.65969,95.163818 c 1.80739,2.206294 0.973066,3.186454 -1.277278,3.464804 0.187964,2.284038 -0.738197,3.223608 -2.777256,2.682738 -1.001591,1.82295 -2.368585,1.93901 -3.875104,1.63938 -1.334014,1.48809 -2.767656,2.95336 -4.570804,0.33478 -2.903446,0.91047 -5.554834,-1.09844 -6.241411,-2.19284 -1.756612,0.32422 -3.044033,-0.20748 -3.468189,-2.260388 -2.878858,0.69056 -2.759496,-1.4693 -2.173721,-3.10143 -2.818733,-0.990386 -2.77776,-2.229512 -0.538207,-3.618329 -1.456273,-2.392566 -0.593036,-3.264836 1.277276,-3.464797 -0.302667,-1.967195 0.241955,-3.250132 2.777259,-2.682739 0.799075,-2.81114 2.30287,-2.185432 3.875097,-1.639397 1.269595,-1.921759 2.746727,-2.724924 4.570807,-0.334781 2.309131,-1.485 4.030306,-1.619825 4.421591,1.095238 2.151726,-1.051113 3.713419,-1.049597 3.468189,2.26039 3.328036,-0.368805 2.380535,1.597103 2.173724,3.10143 2.609298,0.147094 3.685092,2.905483 2.358032,4.715924 z"
         sodipodi:nodetypes="ccccccccccccccccc" />
    </g>
    <g
       id="g1675"
       transform="matrix(-0.50202701,0.02460392,0.02460392,0.50202701,122.49356,70.757993)"
       style="stroke-width:1.98955">
      <path
         id="path1667"
         style="fill:url(#linearGradient1677);fill-opacity:1.0;stroke:none;stroke-width:0.526401;stroke-linecap:square;stroke-miterlimit:4;stroke-dasharray:none;paint-order:markers fill stroke"
         d="m 64.864549,105.2829 c -4.274132,2.01417 -3.788056,3.99565 -0.717227,5.89466 -1.97309,3.20224 -1.323028,5.18556 2.049527,5.75102 0.102718,3.32016 2.007553,4.39648 4.424897,4.95992 0.836064,3.05297 1.83421,6.13885 6.40888,3.52132 3.551864,3.25325 8.908533,2.08677 10.722828,0.94833 2.3175,1.63816 4.588382,1.71811 6.733531,-0.99068 3.679655,2.91661 5.112681,-0.30873 5.473693,-3.07489 4.842652,0.42825 5.704862,-1.40396 3.475922,-4.91335 3.90126,-2.51855 3.29279,-4.36204 0.71723,-5.89465 1.90441,-2.66458 2.0656,-4.8948 -2.04953,-5.75103 0.92744,-4.62512 -1.72851,-4.71178 -4.424895,-4.95991 -0.419579,-3.641918 -1.973666,-5.792215 -6.40888,-3.521318 -2.258729,-3.695677 -4.665535,-5.034426 -7.255439,-1.3393 -2.352245,-2.95919 -4.628178,-3.993483 -6.733533,0.99069 -4.573317,-2.746056 -4.655753,0.7464 -5.473695,3.0749 -3.910202,-1.51755 -7.529411,1.786368 -6.943309,5.304288 z"
         sodipodi:nodetypes="ccccccccccccccccc" />
      <path
         id="path1669"
         style="fill:url(#linearGradient1679);fill-opacity:1.0;stroke:none;stroke-width:0.526401;stroke-linecap:square;stroke-miterlimit:4;stroke-dasharray:none;paint-order:markers fill stroke"
         d="m 104.44657,108.69991 c 2.87012,3.5036 1.54522,5.06008 -2.02832,5.50209 0.29849,3.62705 -1.17225,5.11908 -4.410269,4.26014 -1.590534,2.89488 -3.761294,3.07915 -6.153634,2.60336 -2.118407,2.36306 -4.39502,4.6899 -7.258407,0.53163 -4.610646,1.44581 -8.821036,-1.74431 -9.911323,-3.4822 -2.789479,0.51487 -4.833902,-0.32949 -5.507459,-3.58949 -4.571606,1.0966 -4.38206,-2.33324 -3.451853,-4.92503 -4.476073,-1.57288 -4.41106,-3.54046 -0.854666,-5.7459 -2.312551,-3.79937 -0.941732,-5.184528 2.028322,-5.502058 -0.480633,-3.123891 0.384221,-5.161185 4.410264,-4.260169 1.268948,-4.464057 3.656945,-3.47045 6.153628,-2.60335 2.016112,-3.051737 4.361783,-4.32716 7.258406,-0.531628 3.666881,-2.35817 6.4001,-2.572273 7.021459,1.739227 3.41692,-1.66916 5.896882,-1.66675 5.507457,3.58949 5.284895,-0.58567 3.780275,2.53618 3.451865,4.925038 4.14354,0.23358 5.85189,4.61388 3.74453,7.48885 z"
         sodipodi:nodetypes="ccccccccccccccccc" />
      <path
         id="path1671"
         style="fill:url(#linearGradient1681);fill-opacity:1.0;stroke:none;stroke-width:0.526401;stroke-linecap:square;stroke-miterlimit:4;stroke-dasharray:none;paint-order:markers fill stroke"
         d="m 103.14525,102.43364 c 2.34864,2.867 1.26447,4.14067 -1.65977,4.50237 0.24427,2.96804 -0.95925,4.18897 -3.608936,3.48611 -1.301539,2.36887 -3.077882,2.51968 -5.035542,2.13034 -1.733503,1.93368 -3.596465,3.83775 -5.939586,0.43502 -3.772912,1.18313 -7.21829,-1.42738 -8.110475,-2.8495 -2.282646,0.42133 -3.955602,-0.26963 -4.506777,-2.93729 -3.740964,0.89736 -3.585859,-1.9093 -2.824667,-4.03018 -3.662834,-1.28696 -3.609588,-2.89717 -0.699375,-4.701878 -1.892375,-3.10905 -0.770625,-4.242531 1.659767,-4.502373 -0.393301,-2.556291 0.314415,-4.223416 3.60894,-3.486113 1.038383,-3.652958 2.992493,-2.839887 5.03554,-2.130331 1.649792,-2.497249 3.569264,-3.540934 5.939581,-0.435035 3.000628,-1.929701 5.237233,-2.1049 5.74569,1.423218 2.796083,-1.365881 4.825445,-1.36391 4.506776,2.937291 4.324654,-0.47925 3.093414,2.075368 2.824674,4.030183 3.39068,0.19113 4.78863,3.775558 3.06416,6.128168 z"
         sodipodi:nodetypes="ccccccccccccccccc" />
      <path
         id="path1673"
         style="fill:url(#linearGradient1683);fill-opacity:1.0;stroke:none;stroke-width:0.526401;stroke-linecap:square;stroke-miterlimit:4;stroke-dasharray:none;paint-order:markers fill stroke"
         d="m 98.65969,95.163818 c 1.80739,2.206294 0.973066,3.186454 -1.277278,3.464804 0.187964,2.284038 -0.738197,3.223608 -2.777256,2.682738 -1.001591,1.82295 -2.368585,1.93901 -3.875104,1.63938 -1.334014,1.48809 -2.767656,2.95336 -4.570804,0.33478 -2.903446,0.91047 -5.554834,-1.09844 -6.241411,-2.19284 -1.756612,0.32422 -3.044033,-0.20748 -3.468189,-2.260388 -2.878858,0.69056 -2.759496,-1.4693 -2.173721,-3.10143 -2.818733,-0.990386 -2.77776,-2.229512 -0.538207,-3.618329 -1.456273,-2.392566 -0.593036,-3.264836 1.277276,-3.464797 -0.302667,-1.967195 0.241955,-3.250132 2.777259,-2.682739 0.799075,-2.81114 2.30287,-2.185432 3.875097,-1.639397 1.269595,-1.921759 2.746727,-2.724924 4.570807,-0.334781 2.309131,-1.485 4.030306,-1.619825 4.421591,1.095238 2.151726,-1.051113 3.713419,-1.049597 3.468189,2.26039 3.328036,-0.368805 2.380535,1.597103 2.173724,3.10143 2.609298,0.147094 3.685092,2.905483 2.358032,4.715924 z"
         sodipodi:nodetypes="ccccccccccccccccc" />
    </g>
    <g
       id="g1657"
       transform="matrix(-0.61890838,0.56812638,0.56812638,0.61890838,51.673547,7.2594016)"
       style="stroke-width:1.1903">
      <path
         id="path1649"
         style="fill:url(#linearGradient1659);fill-opacity:1.0;stroke:none;stroke-width:0.314934;stroke-linecap:square;stroke-miterlimit:4;stroke-dasharray:none;paint-order:markers fill stroke"
         d="m 64.864549,105.2829 c -4.274132,2.01417 -3.788056,3.99565 -0.717227,5.89466 -1.97309,3.20224 -1.323028,5.18556 2.049527,5.75102 0.102718,3.32016 2.007553,4.39648 4.424897,4.95992 0.836064,3.05297 1.83421,6.13885 6.40888,3.52132 3.551864,3.25325 8.908533,2.08677 10.722828,0.94833 2.3175,1.63816 4.588382,1.71811 6.733531,-0.99068 3.679655,2.91661 5.112681,-0.30873 5.473693,-3.07489 4.842652,0.42825 5.704862,-1.40396 3.475922,-4.91335 3.90126,-2.51855 3.29279,-4.36204 0.71723,-5.89465 1.90441,-2.66458 2.0656,-4.8948 -2.04953,-5.75103 0.92744,-4.62512 -1.72851,-4.71178 -4.424895,-4.95991 -0.419579,-3.641918 -1.973666,-5.792215 -6.40888,-3.521318 -2.258729,-3.695677 -4.665535,-5.034426 -7.255439,-1.3393 -2.352245,-2.95919 -4.628178,-3.993483 -6.733533,0.99069 -4.573317,-2.746056 -4.655753,0.7464 -5.473695,3.0749 -3.910202,-1.51755 -7.529411,1.786368 -6.943309,5.304288 z"
         sodipodi:nodetypes="ccccccccccccccccc" />
      <path
         id="path1651"
         style="fill:url(#linearGradient1661);fill-opacity:1.0;stroke:none;stroke-width:0.314934;stroke-linecap:square;stroke-miterlimit:4;stroke-dasharray:none;paint-order:markers fill stroke"
         d="m 104.44657,108.69991 c 2.87012,3.5036 1.54522,5.06008 -2.02832,5.50209 0.29849,3.62705 -1.17225,5.11908 -4.410269,4.26014 -1.590534,2.89488 -3.761294,3.07915 -6.153634,2.60336 -2.118407,2.36306 -4.39502,4.6899 -7.258407,0.53163 -4.610646,1.44581 -8.821036,-1.74431 -9.911323,-3.4822 -2.789479,0.51487 -4.833902,-0.32949 -5.507459,-3.58949 -4.571606,1.0966 -4.38206,-2.33324 -3.451853,-4.92503 -4.476073,-1.57288 -4.41106,-3.54046 -0.854666,-5.7459 -2.312551,-3.79937 -0.941732,-5.184528 2.028322,-5.502058 -0.480633,-3.123891 0.384221,-5.161185 4.410264,-4.260169 1.268948,-4.464057 3.656945,-3.47045 6.153628,-2.60335 2.016112,-3.051737 4.361783,-4.32716 7.258406,-0.531628 3.666881,-2.35817 6.4001,-2.572273 7.021459,1.739227 3.41692,-1.66916 5.896882,-1.66675 5.507457,3.58949 5.284895,-0.58567 3.780275,2.53618 3.451865,4.925038 4.14354,0.23358 5.85189,4.61388 3.74453,7.48885 z"
         sodipodi:nodetypes="ccccccccccccccccc" />
      <path
         id="path1653"
         style="fill:url(#linearGradient1663);fill-opacity:1.0;stroke:none;stroke-width:0.314934;stroke-linecap:square;stroke-miterlimit:4;stroke-dasharray:none;paint-order:markers fill stroke"
         d="m 103.14525,102.43364 c 2.34864,2.867 1.26447,4.14067 -1.65977,4.50237 0.24427,2.96804 -0.95925,4.18897 -3.608936,3.48611 -1.301539,2.36887 -3.077882,2.51968 -5.035542,2.13034 -1.733503,1.93368 -3.596465,3.83775 -5.939586,0.43502 -3.772912,1.18313 -7.21829,-1.42738 -8.110475,-2.8495 -2.282646,0.42133 -3.955602,-0.26963 -4.506777,-2.93729 -3.740964,0.89736 -3.585859,-1.9093 -2.824667,-4.03018 -3.662834,-1.28696 -3.609588,-2.89717 -0.699375,-4.701878 -1.892375,-3.10905 -0.770625,-4.242531 1.659767,-4.502373 -0.393301,-2.556291 0.314415,-4.223416 3.60894,-3.486113 1.038383,-3.652958 2.992493,-2.839887 5.03554,-2.130331 1.649792,-2.497249 3.569264,-3.540934 5.939581,-0.435035 3.000628,-1.929701 5.237233,-2.1049 5.74569,1.423218 2.796083,-1.365881 4.825445,-1.36391 4.506776,2.937291 4.324654,-0.47925 3.093414,2.075368 2.824674,4.030183 3.39068,0.19113 4.78863,3.775558 3.06416,6.128168 z"
         sodipodi:nodetypes="ccccccccccccccccc" />
      <path
         id="path1655"
         style="fill:url(#linearGradient1665);fill-opacity:1.0;stroke:none;stroke-width:0.314934;stroke-linecap:square;stroke-miterlimit:4;stroke-dasharray:none;paint-order:markers fill stroke"
         d="m 98.65969,95.163818 c 1.80739,2.206294 0.973066,3.186454 -1.277278,3.464804 0.187964,2.284038 -0.738197,3.223608 -2.777256,2.682738 -1.001591,1.82295 -2.368585,1.93901 -3.875104,1.63938 -1.334014,1.48809 -2.767656,2.95336 -4.570804,0.33478 -2.903446,0.91047 -5.554834,-1.09844 -6.241411,-2.19284 -1.756612,0.32422 -3.044033,-0.20748 -3.468189,-2.260388 -2.878858,0.69056 -2.759496,-1.4693 -2.173721,-3.10143 -2.818733,-0.990386 -2.77776,-2.229512 -0.538207,-3.618329 -1.456273,-2.392566 -0.593036,-3.264836 1.277276,-3.464797 -0.302667,-1.967195 0.241955,-3.250132 2.777259,-2.682739 0.799075,-2.81114 2.30287,-2.185432 3.875097,-1.639397 1.269595,-1.921759 2.746727,-2.724924 4.570807,-0.334781 2.309131,-1.485 4.030306,-1.619825 4.421591,1.095238 2.151726,-1.051113 3.713419,-1.049597 3.468189,2.26039 3.328036,-0.368805 2.380535,1.597103 2.173724,3.10143 2.609298,0.147094 3.685092,2.905483 2.358032,4.715924 z"
         sodipodi:nodetypes="ccccccccccccccccc" />
    </g>
  </g>
</svg>
