<?xml version="1.0" encoding="UTF-8" standalone="no"?>
<svg
   xmlns:dc="http://purl.org/dc/elements/1.1/"
   xmlns:cc="http://creativecommons.org/ns#"
   xmlns:rdf="http://www.w3.org/1999/02/22-rdf-syntax-ns#"
   xmlns:svg="http://www.w3.org/2000/svg"
   xmlns="http://www.w3.org/2000/svg"
   xmlns:xlink="http://www.w3.org/1999/xlink"
   xmlns:sodipodi="http://sodipodi.sourceforge.net/DTD/sodipodi-0.dtd"
   xmlns:inkscape="http://www.inkscape.org/namespaces/inkscape"
   width="63.855499mm"
   height="68.791672mm"
   viewBox="0 0 63.855499 68.791672"
   version="1.1"
   id="svg90832"
   inkscape:version="1.0.2 (e86c870879, 2021-01-15, custom)"
   sodipodi:docname="pohon-pisang.svg">
  <defs
     id="defs90826">
    <linearGradient
       inkscape:collect="always"
       xlink:href="#linearGradient82883"
       id="linearGradient82954"
       gradientUnits="userSpaceOnUse"
       x1="1208.6326"
       y1="136.51302"
       x2="1333.0636"
       y2="123.02715" />
    <linearGradient
       inkscape:collect="always"
       id="linearGradient82883">
      <stop
         style="stop-color:#008000;stop-opacity:1"
         offset="0"
         id="stop82879" />
      <stop
         style="stop-color:#7cfc00;stop-opacity:1"
         offset="1"
         id="stop82881" />
    </linearGradient>
    <linearGradient
       inkscape:collect="always"
       xlink:href="#linearGradient82883"
       id="linearGradient82956"
       gradientUnits="userSpaceOnUse"
       x1="1326.2786"
       y1="126.2168"
       x2="1192.7943"
       y2="167.69176" />
    <linearGradient
       inkscape:collect="always"
       xlink:href="#linearGradient82913"
       id="linearGradient82958"
       gradientUnits="userSpaceOnUse"
       x1="1209.4932"
       y1="155.7338"
       x2="1340.5889"
       y2="128.91328" />
    <linearGradient
       inkscape:collect="always"
       id="linearGradient82913">
      <stop
         style="stop-color:#8ffe8f;stop-opacity:1"
         offset="0"
         id="stop82909" />
      <stop
         style="stop-color:#5bba00;stop-opacity:1"
         offset="1"
         id="stop82911" />
    </linearGradient>
    <linearGradient
       inkscape:collect="always"
       xlink:href="#linearGradient82814"
       id="linearGradient82833"
       gradientUnits="userSpaceOnUse"
       gradientTransform="matrix(0.19253439,0,0,0.21855777,-121.95209,77.030752)"
       x1="1244.0225"
       y1="202.80891"
       x2="1249.181"
       y2="202.56346" />
    <linearGradient
       inkscape:collect="always"
       id="linearGradient82814">
      <stop
         style="stop-color:#3dc04f;stop-opacity:1;"
         offset="0"
         id="stop82810" />
      <stop
         style="stop-color:#00ab01;stop-opacity:1"
         offset="1"
         id="stop82812" />
    </linearGradient>
    <linearGradient
       inkscape:collect="always"
       xlink:href="#linearGradient82814"
       id="linearGradient82827"
       gradientUnits="userSpaceOnUse"
       gradientTransform="matrix(-0.19253439,0,0,0.21855777,358.70005,81.839023)"
       x1="1248.9623"
       y1="211.29358"
       x2="1236.9103"
       y2="211.50525" />
    <linearGradient
       inkscape:collect="always"
       xlink:href="#linearGradient82814"
       id="linearGradient82829"
       gradientUnits="userSpaceOnUse"
       x1="1241.5574"
       y1="203.16826"
       x2="1254.8069"
       y2="203.79457"
       gradientTransform="matrix(0.19253439,0,0,0.21855777,-122.38921,81.839023)" />
    <linearGradient
       inkscape:collect="always"
       xlink:href="#linearGradient82883"
       id="linearGradient82899"
       x1="1208.6326"
       y1="136.51302"
       x2="1333.0636"
       y2="123.02715"
       gradientUnits="userSpaceOnUse"
       gradientTransform="matrix(0.26018288,0,0,0.26018288,-231.48849,80.940707)" />
    <linearGradient
       inkscape:collect="always"
       xlink:href="#linearGradient82814"
       id="linearGradient82816"
       x1="1234.3937"
       y1="203.71674"
       x2="1264.3247"
       y2="203.71674"
       gradientUnits="userSpaceOnUse"
       gradientTransform="matrix(0.21855777,0,0,0.21855777,-155.2912,93.570361)" />
    <linearGradient
       inkscape:collect="always"
       xlink:href="#linearGradient82814"
       id="linearGradient82821"
       gradientUnits="userSpaceOnUse"
       x1="1250.0773"
       y1="215.48466"
       x2="1235.5104"
       y2="216.44516"
       gradientTransform="matrix(-0.21855777,0,0,0.21855777,390.82314,93.570361)" />
    <linearGradient
       inkscape:collect="always"
       xlink:href="#linearGradient82883"
       id="linearGradient83077"
       x1="1457.615"
       y1="170.15718"
       x2="1462.505"
       y2="170.15718"
       gradientUnits="userSpaceOnUse"
       gradientTransform="matrix(1,0,0,12.038399,0,-1917.288)" />
    <linearGradient
       inkscape:collect="always"
       xlink:href="#linearGradient83000"
       id="linearGradient83047"
       gradientUnits="userSpaceOnUse"
       gradientTransform="matrix(-0.84024244,-0.06030724,-0.06030724,0.84024244,2692.3223,93.49498)"
       x1="1471.5939"
       y1="132.00952"
       x2="1462.0884"
       y2="130.57088" />
    <linearGradient
       inkscape:collect="always"
       id="linearGradient83000">
      <stop
         style="stop-color:#94ff00;stop-opacity:1;"
         offset="0"
         id="stop82996" />
      <stop
         style="stop-color:#fff768;stop-opacity:1"
         offset="1"
         id="stop82998" />
    </linearGradient>
    <linearGradient
       inkscape:collect="always"
       xlink:href="#linearGradient83000"
       id="linearGradient83045"
       gradientUnits="userSpaceOnUse"
       gradientTransform="matrix(-0.83818818,-0.08417195,-0.08417195,0.83818818,2697.5218,130.74816)"
       x1="1471.5939"
       y1="132.00952"
       x2="1462.0884"
       y2="130.57088" />
    <linearGradient
       inkscape:collect="always"
       xlink:href="#linearGradient83000"
       id="linearGradient83043"
       gradientUnits="userSpaceOnUse"
       gradientTransform="matrix(0.84126241,0.04383946,-0.04383946,0.84126241,242.89834,-59.260702)"
       x1="1459.472"
       y1="132.12918"
       x2="1469.7954"
       y2="132.12918" />
    <linearGradient
       inkscape:collect="always"
       xlink:href="#linearGradient83000"
       id="linearGradient83041"
       gradientUnits="userSpaceOnUse"
       gradientTransform="matrix(0.84202869,-0.02514036,0.02514036,0.84202869,227.60478,43.728151)"
       x1="1459.472"
       y1="132.12918"
       x2="1469.7954"
       y2="132.12918" />
    <linearGradient
       inkscape:collect="always"
       xlink:href="#linearGradient83000"
       id="linearGradient83097"
       gradientUnits="userSpaceOnUse"
       gradientTransform="matrix(-0.99945806,0.03291734,0.03291734,0.99945806,2911.6737,-48.19723)"
       x1="1471.5939"
       y1="132.00952"
       x2="1462.0884"
       y2="130.57088" />
    <linearGradient
       inkscape:collect="always"
       xlink:href="#linearGradient83000"
       id="linearGradient83007"
       gradientUnits="userSpaceOnUse"
       x1="1471.5939"
       y1="132.00952"
       x2="1462.0884"
       y2="130.57088"
       gradientTransform="matrix(-0.99499559,-0.09991876,-0.09991876,0.99499559,2928.6962,149.09167)" />
    <linearGradient
       inkscape:collect="always"
       xlink:href="#linearGradient83000"
       id="linearGradient83011"
       gradientUnits="userSpaceOnUse"
       gradientTransform="rotate(8.5719794,1468.3778,172.14588)"
       x1="1459.472"
       y1="132.12918"
       x2="1469.7954"
       y2="132.12918" />
    <linearGradient
       inkscape:collect="always"
       xlink:href="#linearGradient83000"
       id="linearGradient83002"
       x1="1459.472"
       y1="132.12918"
       x2="1469.7954"
       y2="132.12918"
       gradientUnits="userSpaceOnUse"
       gradientTransform="rotate(-1.7101661,1532.4139,133.12917)" />
    <linearGradient
       inkscape:collect="always"
       xlink:href="#linearGradient83000"
       id="linearGradient83099"
       gradientUnits="userSpaceOnUse"
       gradientTransform="matrix(-1.0036844,0.12331576,0.06551584,0.77636271,2911.4272,-132.27518)"
       x1="1471.5939"
       y1="132.00952"
       x2="1462.0884"
       y2="130.57088" />
    <linearGradient
       inkscape:collect="always"
       xlink:href="#linearGradient83059"
       id="linearGradient83069"
       gradientUnits="userSpaceOnUse"
       x1="1462.5031"
       y1="177.04445"
       x2="1463.9554"
       y2="182.71091"
       gradientTransform="matrix(0.77545219,0,0,0.91353053,326.88087,18.788787)" />
    <linearGradient
       inkscape:collect="always"
       id="linearGradient83059">
      <stop
         style="stop-color:#006400;stop-opacity:1;"
         offset="0"
         id="stop83055" />
      <stop
         style="stop-color:#008b00;stop-opacity:1"
         offset="1"
         id="stop83057" />
    </linearGradient>
    <linearGradient
       inkscape:collect="always"
       xlink:href="#linearGradient83059"
       id="linearGradient83065"
       gradientUnits="userSpaceOnUse"
       x1="1461.7014"
       y1="170.54056"
       x2="1463.5254"
       y2="181.73314"
       gradientTransform="matrix(-1,0,0,1,2920.9337,-2)" />
    <linearGradient
       inkscape:collect="always"
       xlink:href="#linearGradient83000"
       id="linearGradient83029"
       gradientUnits="userSpaceOnUse"
       gradientTransform="matrix(-1.007229,-0.07771082,-0.10114725,0.77384792,2946.7312,164.70033)"
       x1="1471.5939"
       y1="132.00952"
       x2="1462.0884"
       y2="130.57088" />
    <linearGradient
       inkscape:collect="always"
       xlink:href="#linearGradient83000"
       id="linearGradient83101"
       gradientUnits="userSpaceOnUse"
       gradientTransform="matrix(1.0002729,0.1518487,-0.13811703,0.76612029,25.965399,-172.6759)"
       x1="1459.472"
       y1="132.12918"
       x2="1469.7954"
       y2="132.12918" />
    <linearGradient
       inkscape:collect="always"
       xlink:href="#linearGradient83000"
       id="linearGradient83025"
       gradientUnits="userSpaceOnUse"
       gradientTransform="matrix(1.0118439,-0.02321057,0.03021052,0.77739358,-21.303812,84.360075)"
       x1="1459.472"
       y1="132.12918"
       x2="1469.7954"
       y2="132.12918" />
    <linearGradient
       inkscape:collect="always"
       xlink:href="#linearGradient83059"
       id="linearGradient83061"
       x1="1460.1151"
       y1="171.42239"
       x2="1464.4467"
       y2="181.12416"
       gradientUnits="userSpaceOnUse"
       gradientTransform="translate(0,-2)" />
    <linearGradient
       inkscape:collect="always"
       xlink:href="#linearGradient82883"
       id="linearGradient82877"
       x1="1326.2786"
       y1="126.2168"
       x2="1192.7943"
       y2="167.69176"
       gradientUnits="userSpaceOnUse"
       gradientTransform="matrix(0.26018288,0,0,0.26018288,-231.48849,80.940707)" />
    <linearGradient
       inkscape:collect="always"
       xlink:href="#linearGradient82913"
       id="linearGradient82907"
       x1="1209.4932"
       y1="155.7338"
       x2="1340.5889"
       y2="128.91328"
       gradientUnits="userSpaceOnUse"
       gradientTransform="matrix(0.26018288,0,0,0.26018288,-231.48849,80.940707)" />
    <linearGradient
       inkscape:collect="always"
       xlink:href="#linearGradient82883"
       id="linearGradient92002"
       gradientUnits="userSpaceOnUse"
       x1="1208.6326"
       y1="136.51302"
       x2="1333.0636"
       y2="123.02715" />
    <linearGradient
       inkscape:collect="always"
       xlink:href="#linearGradient82883"
       id="linearGradient92004"
       gradientUnits="userSpaceOnUse"
       x1="1326.2786"
       y1="126.2168"
       x2="1192.7943"
       y2="167.69176" />
    <linearGradient
       inkscape:collect="always"
       xlink:href="#linearGradient82913"
       id="linearGradient92006"
       gradientUnits="userSpaceOnUse"
       x1="1209.4932"
       y1="155.7338"
       x2="1340.5889"
       y2="128.91328" />
    <linearGradient
       inkscape:collect="always"
       xlink:href="#linearGradient82883"
       id="linearGradient92008"
       gradientUnits="userSpaceOnUse"
       x1="1208.6326"
       y1="136.51302"
       x2="1333.0636"
       y2="123.02715" />
    <linearGradient
       inkscape:collect="always"
       xlink:href="#linearGradient82883"
       id="linearGradient92010"
       gradientUnits="userSpaceOnUse"
       x1="1326.2786"
       y1="126.2168"
       x2="1192.7943"
       y2="167.69176" />
    <linearGradient
       inkscape:collect="always"
       xlink:href="#linearGradient82913"
       id="linearGradient92012"
       gradientUnits="userSpaceOnUse"
       x1="1209.4932"
       y1="155.7338"
       x2="1340.5889"
       y2="128.91328" />
    <linearGradient
       inkscape:collect="always"
       xlink:href="#linearGradient82883"
       id="linearGradient92014"
       gradientUnits="userSpaceOnUse"
       x1="1208.6326"
       y1="136.51302"
       x2="1333.0636"
       y2="123.02715" />
    <linearGradient
       inkscape:collect="always"
       xlink:href="#linearGradient82883"
       id="linearGradient92016"
       gradientUnits="userSpaceOnUse"
       x1="1326.2786"
       y1="126.2168"
       x2="1192.7943"
       y2="167.69176" />
    <linearGradient
       inkscape:collect="always"
       xlink:href="#linearGradient82913"
       id="linearGradient92018"
       gradientUnits="userSpaceOnUse"
       x1="1209.4932"
       y1="155.7338"
       x2="1340.5889"
       y2="128.91328" />
    <linearGradient
       inkscape:collect="always"
       xlink:href="#linearGradient82883"
       id="linearGradient92020"
       gradientUnits="userSpaceOnUse"
       x1="1208.6326"
       y1="136.51302"
       x2="1333.0636"
       y2="123.02715" />
    <linearGradient
       inkscape:collect="always"
       xlink:href="#linearGradient82883"
       id="linearGradient92022"
       gradientUnits="userSpaceOnUse"
       x1="1326.2786"
       y1="126.2168"
       x2="1192.7943"
       y2="167.69176" />
    <linearGradient
       inkscape:collect="always"
       xlink:href="#linearGradient82913"
       id="linearGradient92024"
       gradientUnits="userSpaceOnUse"
       x1="1209.4932"
       y1="155.7338"
       x2="1340.5889"
       y2="128.91328" />
  </defs>
  <sodipodi:namedview
     id="base"
     pagecolor="#ffffff"
     bordercolor="#666666"
     borderopacity="1.0"
     inkscape:pageopacity="0.0"
     inkscape:pageshadow="2"
     inkscape:zoom="0.35"
     inkscape:cx="86.386076"
     inkscape:cy="215.7143"
     inkscape:document-units="mm"
     inkscape:current-layer="layer1"
     inkscape:document-rotation="0"
     showgrid="false"
     inkscape:window-width="1366"
     inkscape:window-height="720"
     inkscape:window-x="0"
     inkscape:window-y="0"
     inkscape:window-maximized="1" />
  <metadata
     id="metadata90829">
    <rdf:RDF>
      <cc:Work
         rdf:about="">
        <dc:format>image/svg+xml</dc:format>
        <dc:type
           rdf:resource="http://purl.org/dc/dcmitype/StillImage" />
        <dc:title></dc:title>
      </cc:Work>
    </rdf:RDF>
  </metadata>
  <g
     inkscape:label="Layer 1"
     inkscape:groupmode="layer"
     id="layer1"
     transform="translate(-82.977017,-91.092259)">
    <g
       id="g82952"
       transform="matrix(0.20167275,0.16438745,-0.16438745,0.20167275,-130.09587,-131.65028)"
       inkscape:transform-center-x="55.284749"
       inkscape:transform-center-y="-32.924285"
       inkscape:export-xdpi="96"
       inkscape:export-ydpi="96">
      <path
         id="path82946"
         style="opacity:1;fill:url(#linearGradient92002);fill-opacity:1;stroke:#ffffff;stroke-width:0;stroke-linecap:square;stroke-miterlimit:1.41;paint-order:markers fill stroke"
         d="m 1208.6326,156.51411 c 22.7357,-16.61521 46.6235,-29.32862 72.382,-34.68817 21.1128,-2.5634 54.1998,0.93357 62.4151,6.11925 -17.3674,-8.12375 -56.5503,-14.80362 -78.84,-9.58839 -3.3292,0.74251 -6.7849,1.82697 -10.2793,3.18811 -0.2946,0.11468 2.819,1.6796 2.5238,1.79821 -0.3118,0.12538 -4.0321,-1.19528 -4.3445,-1.06565 -2.9136,1.20942 -5.8436,2.60219 -8.7397,4.14075 -5.1109,2.7151 -10.117,5.88433 -14.7422,9.30172 -0.3391,0.25064 -1.0114,0.75582 -1.0114,0.75582 l 2.862,1.02021 -3.7854,-0.31487 c 0,0 -14.6033,12.96005 -18.4404,19.33301 z"
         sodipodi:nodetypes="cccccccsscccc" />
      <path
         id="path82948"
         style="opacity:1;fill:url(#linearGradient92004);fill-opacity:1;stroke:#ffffff;stroke-width:0;stroke-linecap:square;stroke-miterlimit:1.41;paint-order:markers fill stroke"
         d="m 1208.6326,156.51411 c 22.7357,-16.61521 46.6235,-29.32862 72.382,-34.68817 21.1128,-2.5634 54.1998,0.93357 62.4151,6.11925 0,0 -1.6999,4.47038 -5.6162,6.2321 -9.7157,4.18069 -19.4076,8.19963 -32.3259,12.34241 -0.2138,0.0686 -4.7122,-12.60524 -4.9278,-12.53659 -0.1833,0.0583 3.9165,12.85913 3.7319,12.91751 -5.6932,1.8013 -12.0129,3.62755 -19.2244,5.50212 -2.5313,0.56455 -5.7653,1.34803 -9.3122,2.20759 -0.1445,0.0351 -6.585,-20.62729 -6.7304,-20.59196 -0.2104,0.051 5.8737,20.79963 5.6614,20.85098 -5.441,1.31787 -11.5058,2.77659 -16.8552,3.88483 -0.6906,0.14307 -7.2629,-21.10858 -7.2629,-21.10858 0.8373,3.83723 5.8262,21.3086 5.1316,21.43867 -6.5459,1.2259 -12.8149,2.04805 -17.7584,1.89771 -10.9766,-0.33384 -19.4505,-1.03047 -29.3086,-4.46787 z"
         sodipodi:nodetypes="ccccccccccccccsc" />
      <path
         style="fill:url(#linearGradient92006);fill-opacity:1;stroke:#000000;stroke-width:0;stroke-linecap:butt;stroke-linejoin:miter;stroke-miterlimit:4;stroke-dasharray:none;stroke-opacity:1"
         d="m 1208.6326,156.51411 c 23.7157,-13.97735 42.8796,-27.27741 68.9117,-33.4549 14.66,-3.47887 47.54,1.44316 65.8854,4.88598 0,0 -3.9917,-1.84361 -7.1114,-2.99639 -9.8198,-2.67554 -43.5428,-7.79811 -60.8923,-3.96012 -23.1494,5.12098 -43.2408,18.84626 -58.3996,29.39006 -2.7979,2.04512 -5.5958,4.09025 -8.3938,6.13537 z"
         id="path82950"
         sodipodi:nodetypes="csccscc" />
    </g>
    <g
       id="g82966"
       transform="matrix(-0.03706977,0.18962471,0.19411812,0.01544476,142.55303,-140.51167)"
       inkscape:transform-center-x="-15.744809"
       inkscape:transform-center-y="-45.395474"
       inkscape:export-xdpi="96"
       inkscape:export-ydpi="96">
      <path
         id="path82960"
         style="opacity:1;fill:url(#linearGradient92008);fill-opacity:1;stroke:#ffffff;stroke-width:0;stroke-linecap:square;stroke-miterlimit:1.41;paint-order:markers fill stroke"
         d="m 1208.6326,156.51411 c 22.7357,-16.61521 46.6235,-29.32862 72.382,-34.68817 21.1128,-2.5634 54.1998,0.93357 62.4151,6.11925 -17.3674,-8.12375 -56.5503,-14.80362 -78.84,-9.58839 -3.3292,0.74251 -6.7849,1.82697 -10.2793,3.18811 -0.2946,0.11468 2.819,1.6796 2.5238,1.79821 -0.3118,0.12538 -4.0321,-1.19528 -4.3445,-1.06565 -2.9136,1.20942 -5.8436,2.60219 -8.7397,4.14075 -5.1109,2.7151 -10.117,5.88433 -14.7422,9.30172 -0.3391,0.25064 -1.0114,0.75582 -1.0114,0.75582 l 2.862,1.02021 -3.7854,-0.31487 c 0,0 -14.6033,12.96005 -18.4404,19.33301 z"
         sodipodi:nodetypes="cccccccsscccc" />
      <path
         id="path82962"
         style="opacity:1;fill:url(#linearGradient92010);fill-opacity:1;stroke:#ffffff;stroke-width:0;stroke-linecap:square;stroke-miterlimit:1.41;paint-order:markers fill stroke"
         d="m 1208.6326,156.51411 c 22.7357,-16.61521 46.6235,-29.32862 72.382,-34.68817 21.1128,-2.5634 54.1998,0.93357 62.4151,6.11925 0,0 -1.6999,4.47038 -5.6162,6.2321 -9.7157,4.18069 -19.4076,8.19963 -32.3259,12.34241 -0.2138,0.0686 -4.7122,-12.60524 -4.9278,-12.53659 -0.1833,0.0583 3.9165,12.85913 3.7319,12.91751 -5.6932,1.8013 -12.0129,3.62755 -19.2244,5.50212 -2.5313,0.56455 -5.7653,1.34803 -9.3122,2.20759 -0.1445,0.0351 -6.585,-20.62729 -6.7304,-20.59196 -0.2104,0.051 5.8737,20.79963 5.6614,20.85098 -5.441,1.31787 -11.5058,2.77659 -16.8552,3.88483 -0.6906,0.14307 -7.2629,-21.10858 -7.2629,-21.10858 0.8373,3.83723 5.8262,21.3086 5.1316,21.43867 -6.5459,1.2259 -12.8149,2.04805 -17.7584,1.89771 -10.9766,-0.33384 -19.4505,-1.03047 -29.3086,-4.46787 z"
         sodipodi:nodetypes="ccccccccccccccsc" />
      <path
         style="fill:url(#linearGradient92012);fill-opacity:1;stroke:#000000;stroke-width:0;stroke-linecap:butt;stroke-linejoin:miter;stroke-miterlimit:4;stroke-dasharray:none;stroke-opacity:1"
         d="m 1208.6326,156.51411 c 23.7157,-13.97735 42.8796,-27.27741 68.9117,-33.4549 14.66,-3.47887 47.54,1.44316 65.8854,4.88598 0,0 -3.9917,-1.84361 -7.1114,-2.99639 -9.8198,-2.67554 -43.5428,-7.79811 -60.8923,-3.96012 -23.1494,5.12098 -43.2408,18.84626 -58.3996,29.39006 -2.7979,2.04512 -5.5958,4.09025 -8.3938,6.13537 z"
         id="path82964"
         sodipodi:nodetypes="csccscc" />
    </g>
    <path
       id="path82831"
       style="fill:url(#linearGradient82833);fill-opacity:1;stroke:#ffffff;stroke-width:0;stroke-linecap:square;stroke-miterlimit:1.41;paint-order:markers fill stroke"
       d="m 118.22632,111.94975 c 0.28961,1.66238 1.471,3.66651 1.5817,5.42866 0.25046,3.98735 -0.31292,9.09179 0.12698,14.26591 l -3.76061,0.21007 0.5048,-14.13571 z"
       sodipodi:nodetypes="cscccc"
       inkscape:export-xdpi="96"
       inkscape:export-ydpi="96" />
    <g
       id="g82938"
       transform="matrix(-0.180448,0.18743972,0.18743972,0.180448,335.59089,-159.74385)"
       inkscape:transform-center-x="-51.029709"
       inkscape:transform-center-y="-38.398092"
       inkscape:export-xdpi="96"
       inkscape:export-ydpi="96">
      <path
         id="path82932"
         style="opacity:1;fill:url(#linearGradient92014);fill-opacity:1;stroke:#ffffff;stroke-width:0;stroke-linecap:square;stroke-miterlimit:1.41;paint-order:markers fill stroke"
         d="m 1208.6326,156.51411 c 22.7357,-16.61521 46.6235,-29.32862 72.382,-34.68817 21.1128,-2.5634 54.1998,0.93357 62.4151,6.11925 -17.3674,-8.12375 -56.5503,-14.80362 -78.84,-9.58839 -3.3292,0.74251 -6.7849,1.82697 -10.2793,3.18811 -0.2946,0.11468 2.819,1.6796 2.5238,1.79821 -0.3118,0.12538 -4.0321,-1.19528 -4.3445,-1.06565 -2.9136,1.20942 -5.8436,2.60219 -8.7397,4.14075 -5.1109,2.7151 -10.117,5.88433 -14.7422,9.30172 -0.3391,0.25064 -1.0114,0.75582 -1.0114,0.75582 l 2.862,1.02021 -3.7854,-0.31487 c 0,0 -14.6033,12.96005 -18.4404,19.33301 z"
         sodipodi:nodetypes="cccccccsscccc" />
      <path
         id="path82934"
         style="opacity:1;fill:url(#linearGradient92016);fill-opacity:1;stroke:#ffffff;stroke-width:0;stroke-linecap:square;stroke-miterlimit:1.41;paint-order:markers fill stroke"
         d="m 1208.6326,156.51411 c 22.7357,-16.61521 46.6235,-29.32862 72.382,-34.68817 21.1128,-2.5634 54.1998,0.93357 62.4151,6.11925 0,0 -1.6999,4.47038 -5.6162,6.2321 -9.7157,4.18069 -19.4076,8.19963 -32.3259,12.34241 -0.2138,0.0686 -4.7122,-12.60524 -4.9278,-12.53659 -0.1833,0.0583 3.9165,12.85913 3.7319,12.91751 -5.6932,1.8013 -12.0129,3.62755 -19.2244,5.50212 -2.5313,0.56455 -5.7653,1.34803 -9.3122,2.20759 -0.1445,0.0351 -6.585,-20.62729 -6.7304,-20.59196 -0.2104,0.051 5.8737,20.79963 5.6614,20.85098 -5.441,1.31787 -11.5058,2.77659 -16.8552,3.88483 -0.6906,0.14307 -7.2629,-21.10858 -7.2629,-21.10858 0.8373,3.83723 5.8262,21.3086 5.1316,21.43867 -6.5459,1.2259 -12.8149,2.04805 -17.7584,1.89771 -10.9766,-0.33384 -19.4505,-1.03047 -29.3086,-4.46787 z"
         sodipodi:nodetypes="ccccccccccccccsc" />
      <path
         style="fill:url(#linearGradient92018);fill-opacity:1;stroke:#000000;stroke-width:0;stroke-linecap:butt;stroke-linejoin:miter;stroke-miterlimit:4;stroke-dasharray:none;stroke-opacity:1"
         d="m 1208.6326,156.51411 c 23.7157,-13.97735 42.8796,-27.27741 68.9117,-33.4549 14.66,-3.47887 47.54,1.44316 65.8854,4.88598 0,0 -3.9917,-1.84361 -7.1114,-2.99639 -9.8198,-2.67554 -43.5428,-7.79811 -60.8923,-3.96012 -23.1494,5.12098 -43.2408,18.84626 -58.3996,29.39006 -2.7979,2.04512 -5.5958,4.09025 -8.3938,6.13537 z"
         id="path82936"
         sodipodi:nodetypes="csccscc" />
    </g>
    <path
       id="path82825"
       style="fill:url(#linearGradient82827);fill-opacity:1;stroke:#ffffff;stroke-width:0;stroke-linecap:square;stroke-miterlimit:1.41;paint-order:markers fill stroke"
       d="m 120.47615,119.95634 c -1.91442,6.9031 -3.76571,15.74429 -4.09604,27.70445 l 4.2196,0.11998 z"
       sodipodi:nodetypes="cccc"
       inkscape:export-xdpi="96"
       inkscape:export-ydpi="96" />
    <path
       id="path82823"
       style="fill:url(#linearGradient82829);fill-opacity:1;stroke:#ffffff;stroke-width:0;stroke-linecap:square;stroke-miterlimit:1.41;paint-order:markers fill stroke"
       d="m 116.55804,116.656 c 2.35913,10.82657 3.37696,15.42544 3.6045,28.06496 l -4.8885,3.05981 z"
       sodipodi:nodetypes="cccc"
       inkscape:export-xdpi="96"
       inkscape:export-ydpi="96" />
    <path
       id="path82849"
       style="fill:url(#linearGradient82899);fill-opacity:1;stroke:#ffffff;stroke-width:0;stroke-linecap:square;stroke-miterlimit:1.41;paint-order:markers fill stroke"
       d="m 82.977018,121.663 c 5.915448,-4.32299 12.130643,-7.63081 18.832562,-9.02527 5.49318,-0.66695 14.10184,0.2429 16.23933,1.59213 -4.51868,-2.11367 -14.71342,-3.85165 -20.512824,-2.49474 -0.866193,0.19319 -1.7653,0.47535 -2.674487,0.82949 -0.07665,0.0298 0.733451,0.437 0.656642,0.46787 -0.08112,0.0326 -1.049072,-0.311 -1.130352,-0.27727 -0.758085,0.31467 -1.520402,0.67705 -2.273935,1.07736 -1.32977,0.70642 -2.632261,1.531 -3.835665,2.42014 -0.08821,0.0652 -0.263155,0.19665 -0.263155,0.19665 l 0.744644,0.26544 -0.984885,-0.0819 c 0,0 -3.799523,3.37198 -4.797875,5.03012 z"
       sodipodi:nodetypes="cccccccsscccc"
       inkscape:export-xdpi="96"
       inkscape:export-ydpi="96" />
    <path
       id="rect82808"
       style="fill:url(#linearGradient82816);fill-opacity:1;stroke:#ffffff;stroke-width:0;stroke-linecap:square;stroke-miterlimit:1.41;paint-order:markers fill stroke"
       d="m 115.40184,128.87555 c 3.43352,14.17594 3.93988,16.19146 5.63496,30.63655 0,0 -2.44573,0.30164 -3.66972,0.28891 -0.96467,-0.01 -2.87192,-0.28891 -2.87192,-0.28891 z"
       sodipodi:nodetypes="ccscc"
       inkscape:export-xdpi="96"
       inkscape:export-ydpi="96" />
    <path
       id="path82819"
       style="fill:url(#linearGradient82821);fill-opacity:1;stroke:#ffffff;stroke-width:0;stroke-linecap:square;stroke-miterlimit:1.41;paint-order:markers fill stroke"
       d="m 120.62162,130.45729 c -2.17318,6.9031 -4.49599,16.97468 -4.87096,28.93484 0,0 1.19878,0.47841 1.72633,0.49039 1.23449,0.028 3.55981,-0.37042 3.55981,-0.37042 z"
       sodipodi:nodetypes="ccscc"
       inkscape:export-xdpi="96"
       inkscape:export-ydpi="96" />
    <g
       id="g83095"
       transform="matrix(0.25249416,-0.062784,0.062784,0.25249416,-256.61102,183.32695)"
       inkscape:export-xdpi="96"
       inkscape:export-ydpi="96">
      <path
         id="rect83049"
         style="opacity:1;fill:url(#linearGradient83077);fill-opacity:1;stroke:#ffffff;stroke-width:0;stroke-linecap:square;stroke-miterlimit:4;stroke-dasharray:none;paint-order:markers fill stroke"
         d="m 1459.615,88.571691 h 4.89 l -3.4343,85.120869 h -2.0214 z"
         sodipodi:nodetypes="ccccc" />
      <path
         id="path83033"
         style="opacity:1;fill:url(#linearGradient83047);fill-opacity:1;stroke:#ffffff;stroke-width:0;stroke-linecap:square;stroke-miterlimit:4;stroke-dasharray:none;paint-order:markers fill stroke"
         d="m 1455.6108,103.32852 c -0.3304,-1.22317 -1.0087,-2.32457 -1.5129,-3.48686 l -1.687,-0.12108 c -3.0851,4.39396 -4.0246,6.57521 -4.2477,9.4286 -0.3756,5.23396 -0.053,10.3363 0.5536,15.8225 0.5602,2.68998 2.7087,5.18023 4.6355,7.56431 l 1.7525,0.12578 c 0.6704,-1.07798 1.4456,-2.09741 2.0109,-3.23396 0.7901,-1.58819 0.5155,-3.26761 0.3615,-5.03472 -0.187,-2.14152 -0.6221,-9.91157 -0.6521,-14.45067 -0.015,-2.24144 -0.6301,-4.44991 -1.2143,-6.61391 z"
         sodipodi:nodetypes="sccccccssss" />
      <path
         id="path83035"
         style="opacity:1;fill:url(#linearGradient83045);fill-opacity:1;stroke:#ffffff;stroke-width:0;stroke-linecap:square;stroke-miterlimit:4;stroke-dasharray:none;paint-order:markers fill stroke"
         d="m 1461.0306,105.41655 c -0.2954,-1.23207 -0.9422,-2.35231 -1.4131,-3.52846 l -1.6829,-0.169 c -3.2088,4.30447 -4.2099,6.45813 -4.514,9.30402 -0.5243,5.22117 -0.3472,10.33061 0.1034,15.83185 0.4835,2.70481 2.5604,5.25514 4.4187,7.69304 l 1.7481,0.17555 c 0.7007,-1.05849 1.5046,-2.05546 2.1021,-3.17548 0.8349,-1.56508 0.6082,-3.25163 0.5044,-5.0224 -0.1259,-2.14597 -0.34,-9.92525 -0.2409,-14.46337 0.049,-2.24096 -0.5033,-4.46603 -1.0258,-6.64576 z"
         sodipodi:nodetypes="sccccccssss" />
      <path
         id="path83037"
         style="opacity:1;fill:url(#linearGradient83043);fill-opacity:1;stroke:#ffffff;stroke-width:0;stroke-linecap:square;stroke-miterlimit:4;stroke-dasharray:none;paint-order:markers fill stroke"
         d="m 1468.9445,103.10771 c 0.4785,-1.17308 1.2877,-2.18236 1.9314,-3.27354 l 1.6891,0.088 c 2.5193,4.74108 3.1825,7.02158 3.0517,9.88068 -0.2731,5.24033 -1.2226,10.26389 -2.5017,15.63328 -0.8879,2.60029 -3.3274,4.80637 -5.5336,6.93447 l -1.7547,-0.0915 c -0.5322,-1.15245 -1.1757,-2.25974 -1.5964,-3.45738 -0.588,-1.67353 -0.1084,-3.30626 0.2626,-5.04082 0.4497,-2.10211 1.8404,-9.75906 2.4302,-14.25978 0.2913,-2.22249 1.1745,-4.33814 2.0214,-6.41349 z"
         sodipodi:nodetypes="sccccccssss" />
      <path
         id="path83039"
         style="opacity:1;fill:url(#linearGradient83041);fill-opacity:1;stroke:#ffffff;stroke-width:0;stroke-linecap:square;stroke-miterlimit:4;stroke-dasharray:none;paint-order:markers fill stroke"
         d="m 1462.8252,105.23598 c 0.381,-1.20831 1.1048,-2.28041 1.6571,-3.4206 l 1.6907,-0.0505 c 2.8988,4.51905 3.7462,6.73765 3.8498,9.59787 0.1566,5.24509 -0.3786,10.3295 -1.2142,15.78555 -0.6722,2.66421 -2.9229,5.0625 -4.9476,7.36398 l -1.7563,0.0524 c -0.6247,-1.10504 -1.3567,-2.15596 -1.874,-3.31516 -0.7229,-1.61981 -0.3785,-3.2863 -0.1507,-5.04541 0.2762,-2.13185 1.0358,-9.87692 1.2554,-14.41081 0.1084,-2.23887 0.8155,-4.41969 1.4898,-6.55737 z"
         sodipodi:nodetypes="sccccccssss" />
      <path
         id="path83013"
         style="opacity:1;fill:url(#linearGradient83097);fill-opacity:1;stroke:#ffffff;stroke-width:0;stroke-linecap:square;stroke-miterlimit:4;stroke-dasharray:none;paint-order:markers fill stroke"
         d="m 1452.8378,116.655 c -0.5416,-1.40313 -1.4789,-2.61939 -2.2181,-3.92911 l -2.0067,0.0661 c -3.0978,5.56977 -3.9368,8.26136 -3.8465,11.65769 0.205,6.22574 1.2181,12.20956 2.6141,18.61137 0.9946,3.10636 3.8398,5.7801 6.41,8.35597 l 2.0845,-0.0686 c 0.6579,-1.35573 1.4468,-2.65531 1.9734,-4.06717 0.7359,-1.97291 0.2037,-3.92161 -0.1971,-5.98875 -0.4861,-2.50511 -1.9626,-11.62447 -2.5604,-16.97958 -0.2957,-2.64436 -1.2953,-5.17547 -2.2532,-7.65788 z"
         sodipodi:nodetypes="sccccccssss" />
      <path
         id="path83005"
         style="opacity:1;fill:url(#linearGradient83007);fill-opacity:1;stroke:#ffffff;stroke-width:0;stroke-linecap:square;stroke-miterlimit:4;stroke-dasharray:none;paint-order:markers fill stroke"
         d="m 1460.8834,119.02105 c -0.3507,-1.46257 -1.1184,-2.79238 -1.6775,-4.18857 l -1.9977,-0.20061 c -3.8091,5.10975 -4.9975,7.66631 -5.3585,11.04461 -0.6224,6.19794 -0.4121,12.26325 0.1228,18.79365 0.5739,3.21083 3.0394,6.23827 5.2453,9.13225 l 2.0752,0.20839 c 0.8318,-1.25651 1.7861,-2.43999 2.4953,-3.76954 0.9911,-1.85788 0.722,-3.85995 0.5988,-5.96199 -0.1495,-2.54744 -0.4036,-11.78206 -0.286,-17.16916 0.058,-2.6602 -0.5975,-5.30153 -1.2177,-7.88905 z"
         sodipodi:nodetypes="sccccccssss" />
      <path
         id="path83009"
         style="opacity:1;fill:url(#linearGradient83011);fill-opacity:1;stroke:#ffffff;stroke-width:0;stroke-linecap:square;stroke-miterlimit:4;stroke-dasharray:none;paint-order:markers fill stroke"
         d="m 1471.7849,116.62961 c 0.701,-1.33059 1.7736,-2.42945 2.6604,-3.64418 l 1.9854,0.29929 c 2.4282,5.89253 2.948,8.66347 2.463,12.0262 -0.9285,6.15953 -2.631,11.98479 -4.763,18.18049 -1.3496,2.96942 -4.4867,5.29374 -7.3393,7.55289 l -2.0624,-0.31093 c -0.4956,-1.42308 -1.1278,-2.80566 -1.4864,-4.26924 -0.5012,-2.04514 0.2542,-3.91867 0.893,-5.92505 0.7744,-2.43151 3.3026,-11.31694 4.5198,-16.56605 0.6011,-2.59206 1.8891,-4.98946 3.1295,-7.34344 z"
         sodipodi:nodetypes="sccccccssss" />
      <path
         id="rect82994"
         style="opacity:1;fill:url(#linearGradient83002);fill-opacity:1;stroke:#ffffff;stroke-width:0;stroke-linecap:square;stroke-miterlimit:4;stroke-dasharray:none;paint-order:markers fill stroke"
         d="m 1463.0137,118.80669 c 0.4523,-1.43435 1.3115,-2.70702 1.9672,-4.06052 l 2.0069,-0.0599 c 3.4411,5.36447 4.4471,7.99813 4.5701,11.39343 0.1859,6.22634 -0.4495,12.26194 -1.4414,18.7387 -0.7979,3.16263 -3.4697,6.00958 -5.8732,8.74162 l -2.0848,0.0622 c -0.7416,-1.31178 -1.6105,-2.5593 -2.2246,-3.93536 -0.8582,-1.92284 -0.4494,-3.9011 -0.1789,-5.9893 0.3279,-2.53068 1.2295,-11.72469 1.4902,-17.10677 0.1287,-2.65772 0.9681,-5.24652 1.7685,-7.78412 z"
         sodipodi:nodetypes="sccccccssss" />
      <path
         id="path83017"
         style="opacity:1;fill:url(#linearGradient83099);fill-opacity:1;stroke:#ffffff;stroke-width:0;stroke-linecap:square;stroke-miterlimit:4;stroke-dasharray:none;paint-order:markers fill stroke"
         d="m 1450.2117,138.82802 c -0.5901,-1.04152 -1.5718,-1.89863 -2.3574,-2.848 l -2.0151,0.24758 c -2.9335,4.64705 -3.6896,6.82846 -3.4887,9.4688 0.4081,4.83604 1.6214,9.40433 3.2317,14.26149 1.1008,2.32579 4.0477,4.13337 6.7151,5.89147 l 2.0933,-0.25719 c 0.6175,-1.12177 1.3683,-2.2125 1.8518,-3.36517 0.6759,-1.61079 0.078,-3.07879 -0.3923,-4.652 -0.57,-1.9065 -2.3501,-8.87538 -3.1248,-12.99397 -0.3828,-2.03376 -1.4702,-3.91031 -2.5136,-5.75303 z"
         sodipodi:nodetypes="sccccccssss" />
      <path
         id="path83067"
         style="opacity:1;fill:url(#linearGradient83069);fill-opacity:1;stroke:#ffffff;stroke-width:0;stroke-linecap:square;stroke-miterlimit:4;stroke-dasharray:none;paint-order:markers fill stroke"
         d="m 1460.1251,175.02893 c 0,0 4.9927,2.55999 4.5009,5.8043 -0.3796,2.50476 -1.5251,4.76102 -2.2876,7.14153 -3.7146,-2.10684 -5.963,-5.24206 -6.6089,-9.66737 1.4004,-3.09855 4.3956,-3.27846 4.3956,-3.27846 z"
         sodipodi:nodetypes="csccc" />
      <path
         id="path83063"
         style="opacity:1;fill:url(#linearGradient83065);fill-opacity:1;stroke:#ffffff;stroke-width:0;stroke-linecap:square;stroke-miterlimit:4;stroke-dasharray:none;paint-order:markers fill stroke"
         d="m 1459.5358,169.02893 c 0,0 -6.3523,2.78798 -5.8043,6.3537 0.5244,3.4122 1.8777,6.64428 2.8166,9.96642 4.7902,-2.30625 7.8232,-7.88715 8.6561,-12.73133 -1.8059,-3.39185 -5.6684,-3.58879 -5.6684,-3.58879 z"
         sodipodi:nodetypes="csccc" />
      <path
         id="path83019"
         style="opacity:1;fill:url(#linearGradient83029);fill-opacity:1;stroke:#ffffff;stroke-width:0;stroke-linecap:square;stroke-miterlimit:4;stroke-dasharray:none;paint-order:markers fill stroke"
         d="m 1460.8719,141.31321 c -0.355,-1.1375 -1.1322,-2.17175 -1.6982,-3.25762 l -2.0222,-0.15602 c -3.8559,3.97405 -5.0589,5.96239 -5.4243,8.58983 -0.6302,4.82038 -0.4172,9.53761 0.1242,14.61658 0.581,2.49718 3.0768,4.85174 5.3098,7.10251 l 2.1007,0.16207 c 0.8421,-0.97723 1.8081,-1.89768 2.5261,-2.93172 1.0032,-1.44495 0.7308,-3.00204 0.6061,-4.63688 -0.1513,-1.98125 -0.4085,-9.16337 -0.2895,-13.35314 0.059,-2.06895 -0.6049,-4.12322 -1.2327,-6.13563 z"
         sodipodi:nodetypes="sccccccssss" />
      <path
         id="path83021"
         style="opacity:1;fill:url(#linearGradient83101);fill-opacity:1;stroke:#ffffff;stroke-width:0;stroke-linecap:square;stroke-miterlimit:4;stroke-dasharray:none;paint-order:markers fill stroke"
         d="m 1473.7127,138.98879 c 0.6912,-1.01293 1.7603,-1.83169 2.6405,-2.7475 l 2.0084,0.30481 c 2.5255,4.68466 3.0851,6.86523 2.6375,9.47138 -0.8605,4.77224 -2.5065,9.25584 -4.5816,14.01305 -1.3255,2.26819 -4.4639,3.9688 -7.3158,5.62882 l -2.0863,-0.3168 c -0.5181,-1.12809 -1.1739,-2.22953 -1.5542,-3.3843 -0.5316,-1.61363 0.2075,-3.04819 0.8274,-4.59058 0.7516,-1.86919 3.1929,-8.71066 4.3562,-12.76222 0.5745,-2.0007 1.845,-3.82482 3.0679,-5.61679 z"
         sodipodi:nodetypes="sccccccssss" />
      <path
         id="path83023"
         style="opacity:1;fill:url(#linearGradient83025);fill-opacity:1;stroke:#ffffff;stroke-width:0;stroke-linecap:square;stroke-miterlimit:4;stroke-dasharray:none;paint-order:markers fill stroke"
         d="m 1463.0284,141.14649 c 0.4579,-1.11555 1.3277,-2.10536 1.9913,-3.15803 l 2.0316,-0.0466 c 3.4834,4.17217 4.5019,6.22047 4.6263,8.86113 0.1882,4.84247 -0.455,9.5366 -1.4591,14.57384 -0.8076,2.4597 -3.5123,4.67389 -5.9454,6.7987 l -2.1104,0.0484 c -0.7508,-1.02023 -1.6303,-1.99048 -2.2519,-3.06069 -0.8688,-1.49548 -0.455,-3.03405 -0.1811,-4.65812 0.3319,-1.96822 1.2445,-9.11876 1.5085,-13.30462 0.1303,-2.06702 0.98,-4.08043 1.7902,-6.05402 z"
         sodipodi:nodetypes="sccccccssss" />
      <path
         id="rect83052"
         style="opacity:1;fill:url(#linearGradient83061);fill-opacity:1;stroke:#ffffff;stroke-width:0;stroke-linecap:square;stroke-miterlimit:4;stroke-dasharray:none;paint-order:markers fill stroke"
         d="m 1461.3979,169.02893 c 0,0 6.4385,2.8023 5.8043,6.3537 -0.4896,2.74184 -1.9667,5.21167 -2.9501,7.8175 -4.7902,-2.30625 -7.6897,-5.73823 -8.5226,-10.58241 1.8059,-3.39185 5.6684,-3.58879 5.6684,-3.58879 z"
         sodipodi:nodetypes="csccc" />
    </g>
    <path
       id="rect82835"
       style="fill:url(#linearGradient82877);fill-opacity:1;stroke:#ffffff;stroke-width:0;stroke-linecap:square;stroke-miterlimit:1.41;paint-order:markers fill stroke"
       d="m 82.977018,121.663 c 5.915448,-4.32299 12.130643,-7.63081 18.832562,-9.02527 5.49318,-0.66695 14.10184,0.2429 16.23933,1.59213 0,0 -0.44227,1.16311 -1.46124,1.62148 -2.52785,1.08775 -5.04952,2.13341 -8.41065,3.21129 -0.0556,0.0178 -1.22603,-3.27967 -1.28212,-3.26181 -0.0477,0.0152 1.01902,3.34572 0.97097,3.36091 -1.48127,0.46867 -3.12555,0.94383 -5.00184,1.43156 -0.6586,0.14689 -1.50003,0.35074 -2.4229,0.57438 -0.0376,0.009 -1.713281,-5.36687 -1.751117,-5.35768 -0.05474,0.0133 1.528237,5.41171 1.472987,5.42507 -1.415651,0.34289 -2.9936,0.72242 -4.385414,1.01077 -0.179705,0.0372 -1.889707,-5.49209 -1.889707,-5.49209 0.217858,0.99838 1.515877,5.54413 1.335167,5.57797 -1.703123,0.31896 -3.334226,0.53287 -4.620419,0.49375 -2.855939,-0.0869 -5.060712,-0.26811 -7.625609,-1.16246 z"
       sodipodi:nodetypes="ccccccccccccccsc"
       inkscape:export-xdpi="96"
       inkscape:export-ydpi="96" />
    <path
       style="fill:url(#linearGradient82907);fill-opacity:1;stroke:#000000;stroke-width:0;stroke-linecap:butt;stroke-linejoin:miter;stroke-miterlimit:4;stroke-dasharray:none;stroke-opacity:1"
       d="m 82.977018,121.663 c 6.170427,-3.63667 11.156527,-7.09712 17.929652,-8.70439 3.81428,-0.90515 12.36908,0.37548 17.14224,1.27125 0,0 -1.03856,-0.47968 -1.85025,-0.77962 -2.55495,-0.69612 -11.32909,-2.02893 -15.84315,-1.03035 -6.023078,1.33239 -11.250504,4.90347 -15.194568,7.64679 -0.727975,0.53211 -1.455923,1.06422 -2.183924,1.59632 z"
       id="path82851"
       sodipodi:nodetypes="csccscc"
       inkscape:export-xdpi="96"
       inkscape:export-ydpi="96" />
    <g
       id="g82924"
       transform="matrix(-0.22503931,-0.13058498,-0.13058498,0.22503931,437.32516,260.58977)"
       inkscape:transform-center-x="-49.469353"
       inkscape:transform-center-y="40.388534"
       inkscape:export-xdpi="96"
       inkscape:export-ydpi="96">
      <path
         id="path82915"
         style="opacity:1;fill:url(#linearGradient92020);fill-opacity:1;stroke:#ffffff;stroke-width:0;stroke-linecap:square;stroke-miterlimit:1.41;paint-order:markers fill stroke"
         d="m 1208.6326,156.51411 c 22.7357,-16.61521 46.6235,-29.32862 72.382,-34.68817 21.1128,-2.5634 54.1998,0.93357 62.4151,6.11925 -17.3674,-8.12375 -56.5503,-14.80362 -78.84,-9.58839 -3.3292,0.74251 -6.7849,1.82697 -10.2793,3.18811 -0.2946,0.11468 2.819,1.6796 2.5238,1.79821 -0.3118,0.12538 -4.0321,-1.19528 -4.3445,-1.06565 -2.9136,1.20942 -5.8436,2.60219 -8.7397,4.14075 -5.1109,2.7151 -10.117,5.88433 -14.7422,9.30172 -0.3391,0.25064 -1.0114,0.75582 -1.0114,0.75582 l 2.862,1.02021 -3.7854,-0.31487 c 0,0 -14.6033,12.96005 -18.4404,19.33301 z"
         sodipodi:nodetypes="cccccccsscccc" />
      <path
         id="path82917"
         style="opacity:1;fill:url(#linearGradient92022);fill-opacity:1;stroke:#ffffff;stroke-width:0;stroke-linecap:square;stroke-miterlimit:1.41;paint-order:markers fill stroke"
         d="m 1208.6326,156.51411 c 22.7357,-16.61521 46.6235,-29.32862 72.382,-34.68817 21.1128,-2.5634 54.1998,0.93357 62.4151,6.11925 0,0 -1.6999,4.47038 -5.6162,6.2321 -9.7157,4.18069 -19.4076,8.19963 -32.3259,12.34241 -0.2138,0.0686 -4.7122,-12.60524 -4.9278,-12.53659 -0.1833,0.0583 3.9165,12.85913 3.7319,12.91751 -5.6932,1.8013 -12.0129,3.62755 -19.2244,5.50212 -2.5313,0.56455 -5.7653,1.34803 -9.3122,2.20759 -0.1445,0.0351 -6.585,-20.62729 -6.7304,-20.59196 -0.2104,0.051 5.8737,20.79963 5.6614,20.85098 -5.441,1.31787 -11.5058,2.77659 -16.8552,3.88483 -0.6906,0.14307 -7.2629,-21.10858 -7.2629,-21.10858 0.8373,3.83723 5.8262,21.3086 5.1316,21.43867 -6.5459,1.2259 -12.8149,2.04805 -17.7584,1.89771 -10.9766,-0.33384 -19.4505,-1.03047 -29.3086,-4.46787 z"
         sodipodi:nodetypes="ccccccccccccccsc" />
      <path
         style="fill:url(#linearGradient92024);fill-opacity:1;stroke:#000000;stroke-width:0;stroke-linecap:butt;stroke-linejoin:miter;stroke-miterlimit:4;stroke-dasharray:none;stroke-opacity:1"
         d="m 1208.6326,156.51411 c 23.7157,-13.97735 42.8796,-27.27741 68.9117,-33.4549 14.66,-3.47887 47.54,1.44316 65.8854,4.88598 0,0 -3.9917,-1.84361 -7.1114,-2.99639 -9.8198,-2.67554 -43.5428,-7.79811 -60.8923,-3.96012 -23.1494,5.12098 -43.2408,18.84626 -58.3996,29.39006 -2.7979,2.04512 -5.5958,4.09025 -8.3938,6.13537 z"
         id="path82919"
         sodipodi:nodetypes="csccscc" />
    </g>
    <g
       id="g82986"
       transform="matrix(0.18156362,-0.11026742,0.19179061,0.22204753,-150.30093,233.92329)"
       inkscape:transform-center-x="36.757703"
       inkscape:transform-center-y="35.320296"
       inkscape:export-xdpi="96"
       inkscape:export-ydpi="96">
      <path
         id="path82980"
         style="opacity:1;fill:url(#linearGradient82954);fill-opacity:1;stroke:#ffffff;stroke-width:0;stroke-linecap:square;stroke-miterlimit:1.41;paint-order:markers fill stroke"
         d="m 1208.6326,156.51411 c 22.7357,-16.61521 46.6235,-29.32862 72.382,-34.68817 21.1128,-2.5634 54.1998,0.93357 62.4151,6.11925 -17.3674,-8.12375 -56.5503,-14.80362 -78.84,-9.58839 -3.3292,0.74251 -6.7849,1.82697 -10.2793,3.18811 -0.2946,0.11468 2.819,1.6796 2.5238,1.79821 -0.3118,0.12538 -4.0321,-1.19528 -4.3445,-1.06565 -2.9136,1.20942 -5.8436,2.60219 -8.7397,4.14075 -5.1109,2.7151 -10.117,5.88433 -14.7422,9.30172 -0.3391,0.25064 -1.0114,0.75582 -1.0114,0.75582 l 2.862,1.02021 -3.7854,-0.31487 c 0,0 -14.6033,12.96005 -18.4404,19.33301 z"
         sodipodi:nodetypes="cccccccsscccc" />
      <path
         id="path82982"
         style="opacity:1;fill:url(#linearGradient82956);fill-opacity:1;stroke:#ffffff;stroke-width:0;stroke-linecap:square;stroke-miterlimit:1.41;paint-order:markers fill stroke"
         d="m 1208.6326,156.51411 c 22.7357,-16.61521 46.6235,-29.32862 72.382,-34.68817 21.1128,-2.5634 54.1998,0.93357 62.4151,6.11925 0,0 -1.6999,4.47038 -5.6162,6.2321 -9.7157,4.18069 -19.4076,8.19963 -32.3259,12.34241 -0.2138,0.0686 -4.7122,-12.60524 -4.9278,-12.53659 -0.1833,0.0583 3.9165,12.85913 3.7319,12.91751 -5.6932,1.8013 -12.0129,3.62755 -19.2244,5.50212 -2.5313,0.56455 -5.7653,1.34803 -9.3122,2.20759 -0.1445,0.0351 -6.585,-20.62729 -6.7304,-20.59196 -0.2104,0.051 5.8737,20.79963 5.6614,20.85098 -5.441,1.31787 -11.5058,2.77659 -16.8552,3.88483 -0.6906,0.14307 -7.2629,-21.10858 -7.2629,-21.10858 0.8373,3.83723 5.8262,21.3086 5.1316,21.43867 -6.5459,1.2259 -12.8149,2.04805 -17.7584,1.89771 -10.9766,-0.33384 -19.4505,-1.03047 -29.3086,-4.46787 z"
         sodipodi:nodetypes="ccccccccccccccsc" />
      <path
         style="fill:url(#linearGradient82958);fill-opacity:1;stroke:#000000;stroke-width:0;stroke-linecap:butt;stroke-linejoin:miter;stroke-miterlimit:4;stroke-dasharray:none;stroke-opacity:1"
         d="m 1208.6326,156.51411 c 23.7157,-13.97735 42.8796,-27.27741 68.9117,-33.4549 14.66,-3.47887 47.54,1.44316 65.8854,4.88598 0,0 -3.9917,-1.84361 -7.1114,-2.99639 -9.8198,-2.67554 -43.5428,-7.79811 -60.8923,-3.96012 -23.1494,5.12098 -43.2408,18.84626 -58.3996,29.39006 -2.7979,2.04512 -5.5958,4.09025 -8.3938,6.13537 z"
         id="path82984"
         sodipodi:nodetypes="csccscc" />
    </g>
  </g>
</svg>
